<?xml version="1.0" encoding="UTF-8"?>
<svg width="1400px" height="372px" viewBox="0 0 1400 372" version="1.1" xmlns="http://www.w3.org/2000/svg" xmlns:xlink="http://www.w3.org/1999/xlink">
    <!-- Generator: Sketch 46.2 (44496) - http://www.bohemiancoding.com/sketch -->
    <title>Shape@1.5x</title>
    <desc>Created with Sketch.</desc>
    <defs></defs>
    <g id="Page-2" stroke="none" stroke-width="1" fill="none" fill-rule="evenodd">
        <g id="PAMS-Skyline-Loader-02" transform="translate(0.000000, -395.000000)" fill="#9DDCF9">
            <g id="Skyline" transform="translate(-18.000000, 395.000000)">
                <polygon id="Shape" fill-rule="nonzero" points="797.307738 160.963285 797.307738 167.074846 820.287155 167.074846 820.287155 304.316056 822.234564 304.316056 822.234564 165.119146 799.255146 165.119146 799.255146 159.007585 790.929976 159.007585 790.929976 304.316056 792.877384 304.316056 792.877384 160.963285"></polygon>
                <polygon id="Shape" fill-rule="nonzero" points="734.191855 199.542237 734.191855 187.873578 725.053644 187.873578 725.053644 211.014784 711.690238 211.014784 711.690238 248.668273 720.386278 248.668273 720.386278 304.80531 722.351485 304.80531 722.351485 246.707154 713.655445 246.707154 713.655445 212.975903 727.018851 212.975903 727.018851 189.834697 732.226649 189.834697 732.226649 201.503356 739.252263 201.503356 739.252263 197.28695 791.908244 197.28695 791.908244 195.325831 737.287056 195.325831 737.287056 199.542237"></polygon>
                <polygon id="Shape" fill-rule="nonzero" points="817.339523 153.15566 817.339523 166.346397 819.299759 166.346397 819.299759 151.17952 793.375647 151.17952 793.375647 160.170958 795.335882 160.170958 795.335882 153.15566"></polygon>
                <polygon id="Shape" fill-rule="nonzero" points="839.359021 304.80531 841.310797 304.80531 841.310797 229.460177 821.256295 229.460177 821.256295 231.419738 839.359021 231.419738"></polygon>
                <polygon id="Shape" fill-rule="nonzero" points="837.612993 169.144329 837.612993 157.051849 858.847658 157.051849 858.847658 169.144329 865.762411 169.144329 865.762411 304.80531 867.724043 304.80531 867.724043 167.186033 860.80929 167.186033 860.80929 155.093552 835.651361 155.093552 835.651361 167.186033 830.060711 167.186033 830.060711 230.487963 832.022342 230.487963 832.022342 169.144329"></polygon>
                <polygon id="Shape" fill-rule="nonzero" points="845.18099 139.388496 845.18099 79.3673809 848.901294 76.1872292 848.901294 60.7347254 852.132084 57.5545737 852.132084 47.4576485 885.761672 47.4576485 885.761672 57.5501913 888.943511 60.730343 888.943511 76.1872292 892.663815 79.3673809 892.663815 139.388496 898.537979 139.388496 898.537979 194.723135 900.496033 194.723135 900.496033 137.431479 894.621869 137.431479 894.621869 78.4659946 890.901566 75.2858429 890.901566 59.9197202 887.719727 56.7395685 887.719727 45.5006321 850.17403 45.5006321 850.17403 56.7351861 846.94324 59.9153378 846.94324 75.2858429 843.222936 78.4659946 843.222936 137.431479 837.397723 137.431479 837.397723 155.97421 839.355778 155.97421 839.355778 139.388496"></polygon>
                <polygon id="Shape" fill-rule="nonzero" points="906.851809 291.130967 906.851809 304.80531 908.811314 304.80531 908.811314 289.149178 876.528458 289.149178 876.528458 304.80531 878.487964 304.80531 878.487964 291.130967"></polygon>
                <polygon id="Shape" fill-rule="nonzero" points="895.992273 203.138306 895.992273 195.701643 902.757828 195.701643 902.757828 184.448799 908.744614 184.448799 908.744614 192.374716 917.457091 192.374716 917.457091 198.83287 923.00582 198.83287 923.00582 251.329836 924.952742 251.329836 924.952742 196.875853 919.404014 196.875853 919.404014 190.417699 910.691536 190.417699 910.691536 182.491783 900.810906 182.491783 900.810906 193.744627 894.045351 193.744627 894.045351 201.18129 885.332873 201.18129 885.332873 290.127686 887.279796 290.127686 887.279796 203.138306"></polygon>
                <polygon id="Shape" fill-rule="nonzero" points="921.737395 280.075698 921.737395 252.456885 1001.74945 252.456885 1001.74945 304.80531 1003.70335 304.80531 1003.70335 250.498104 919.783498 250.498104 919.783498 278.116917 895.115557 278.116917 895.115557 290.31033 897.069453 290.31033 897.069453 280.075698"></polygon>
                <polygon id="Shape" fill-rule="nonzero" points="988.54519 275.453126 988.54519 304.80531 990.496723 304.80531 990.496723 273.493047 933.268023 273.493047 933.268023 304.80531 935.219556 304.80531 935.219556 275.453126"></polygon>
                <polygon id="Shape" fill-rule="nonzero" points="886.190225 46.9683944 887.778544 45.8260031 869.166251 20.0594185 850.604346 45.8270372 852.194158 46.9673603 869.168437 23.4036822"></polygon>
                <polygon id="Shape" fill-rule="nonzero" points="876.153598 46.4627265 877.995861 45.8666579 869.213472 18.5916561 859.897896 45.8502441 861.729265 46.4791403 869.1588 24.7393532"></polygon>
                <polygon id="Shape" fill-rule="nonzero" points="870.169714 21.5271808 870.169714 2.93552465 868.213177 2.93552465 868.213177 21.5271808"></polygon>
                <polygon id="Shape" fill-rule="nonzero" points="935.18168 136.430988 935.18168 76.3750128 938.901984 73.1956057 938.901984 57.7423385 942.083823 54.5629314 942.083823 44.5216657 975.762362 44.5216657 975.762362 54.5629314 978.944201 57.7423385 978.944201 73.1956057 982.664505 76.3750128 982.664505 136.430988 988.538668 136.430988 988.538668 251.476612 990.496723 251.476612 990.496723 134.47443 984.622559 134.47443 984.622559 75.4738376 980.902255 72.2944304 980.902255 56.9319056 977.720417 53.7524985 977.720417 42.5651075 940.125768 42.5651075 940.125768 53.7524985 936.943929 56.9319056 936.943929 72.2944304 933.223626 75.4738376 933.223626 134.47443 927.398413 134.47443 927.398413 251.476612 929.356468 251.476612 929.356468 136.430988"></polygon>
                <polygon id="Shape" fill-rule="nonzero" points="976.192971 44.0328698 977.779234 42.8904142 959.192135 17.1238938 940.605036 42.8904142 942.191299 44.0328698 959.192135 20.4653195"></polygon>
                <polygon id="Shape" fill-rule="nonzero" points="966.159145 43.5255723 967.996551 42.9293635 959.239944 15.6561315 949.898586 42.9113202 951.724016 43.5436157 959.180159 21.7888999"></polygon>
                <polygon id="Shape" fill-rule="nonzero" points="960.170404 18.5916561 960.170404 0 958.213867 0 958.213867 18.5916561"></polygon>
                <polygon id="Shape" fill-rule="nonzero" points="1043.3382 245.122541 1043.3382 271.282834 1053.58958 271.282834 1053.58958 283.700383 1039.16898 283.700383 1039.16898 304.80531 1041.13097 304.80531 1041.13097 285.663632 1055.55157 285.663632 1055.55157 269.319585 1045.30019 269.319585 1045.30019 243.159292 1018.96052 243.159292 1018.96052 269.319585 1002.72508 269.319585 1002.72508 271.282834 1020.9225 271.282834 1020.9225 245.122541"></polygon>
                <polygon id="Shape" fill-rule="nonzero" points="1007.62118 270.068268 1009.57296 270.068268 1009.57296 211.847029 989.518455 211.847029 989.518455 213.799124 1007.62118 213.799124"></polygon>
                <polygon id="Shape" fill-rule="nonzero" points="1021.00195 204.009797 1021.00195 213.45687 1027.55066 213.45687 1027.55066 224.559615 1036.93387 224.559615 1036.93387 232.935371 1056.0424 232.935371 1056.0424 243.648546 1057.99724 243.648546 1057.99724 230.987521 1038.88871 230.987521 1038.88871 222.611765 1029.50549 222.611765 1029.50549 211.50902 1022.95679 211.50902 1022.95679 202.061947 1001.74681 202.061947 1001.74681 212.482945 1003.70165 212.482945 1003.70165 204.009797"></polygon>
                <polygon id="Shape" fill-rule="nonzero" points="1066.24932 245.122541 1066.24932 275.454738 1084.87318 275.454738 1084.87318 282.227947 1121.09168 282.227947 1121.09168 304.80531 1123.05209 304.80531 1123.05209 280.264698 1086.83359 280.264698 1086.83359 273.491489 1068.20973 273.491489 1068.20973 243.159292 1048.70369 243.159292 1048.70369 270.301209 1050.6641 270.301209 1050.6641 245.122541"></polygon>
                <polygon id="Shape" fill-rule="nonzero" points="1071.32872 118.364865 1071.32872 109.91613 1078.74794 109.91613 1078.74794 101.272049 1092.70778 101.272049 1092.70778 116.802093 1105.44737 116.802093 1105.44737 233.863464 1107.39979 233.863464 1107.39979 114.848628 1094.66021 114.848628 1094.66021 99.3185841 1076.79551 99.3185841 1076.79551 107.962665 1069.37629 107.962665 1069.37629 116.4114 1060.93205 116.4114 1060.93205 196.942982 1062.88447 196.942982 1062.88447 118.364865"></polygon>
                <polygon id="Shape" fill-rule="nonzero" points="1062.39945 198.647951 1062.39945 196.680152 1045.76889 196.680152 1045.76889 232.395702 1047.75462 232.395702 1047.75462 198.647951"></polygon>
                <polygon id="Shape" fill-rule="nonzero" points="1074.10947 255.390645 1076.09521 255.390645 1076.09521 197.169406 1059.46464 197.169406 1059.46464 199.121501 1074.10947 199.121501"></polygon>
                <polygon id="Shape" fill-rule="nonzero" points="1104.34057 216.188931 1104.34057 224.810535 1122.88132 224.810535 1122.88132 237.889901 1130.29762 237.889901 1130.29762 304.80531 1132.24927 304.80531 1132.24927 235.930446 1124.83297 235.930446 1124.83297 222.85108 1106.29223 222.85108 1106.29223 214.229475 1084.72641 214.229475 1084.72641 222.85108 1076.09033 222.85108 1076.09033 188.854525 1150.44848 188.854525 1150.44848 209.183877 1152.40014 209.183877 1152.40014 186.89507 1074.13867 186.89507 1074.13867 224.810535 1086.67807 224.810535 1086.67807 216.188931"></polygon>
                <polygon id="Shape" fill-rule="nonzero" points="1147.98758 247.967785 1147.98758 304.80531 1149.95447 304.80531 1149.95447 247.322314 1141.45261 235.82048 1131.36737 235.82048 1131.36737 237.783064 1140.45929 237.783064"></polygon>
                <polygon id="Shape" fill-rule="nonzero" points="1091.28574 275.025582 1091.28574 263.716901 1112.12095 263.716901 1112.12095 275.081474 1120.61118 278.718486 1120.61118 304.80531 1122.56295 304.80531 1122.56295 277.418223 1114.07273 273.781211 1114.07273 261.750948 1089.33396 261.750948 1089.33396 273.837103 1082.45395 277.474115 1082.45395 304.80531 1084.40573 304.80531 1084.40573 278.662594"></polygon>
                <polygon id="Shape" fill-rule="nonzero" points="1155.82408 210.372765 1155.82408 267.132743 1157.78061 267.132743 1157.78061 208.42225 1112.29113 208.42225 1112.29113 223.489977 1114.24767 223.489977 1114.24767 210.372765"></polygon>
                <polygon id="Shape" fill-rule="nonzero" points="1171.46851 304.80531 1173.43291 304.80531 1173.43291 266.643489 1148.9762 266.643489 1148.9762 268.605537 1171.46851 268.605537"></polygon>
                <path d="M1181.90397,176.722523 L1171.26612,176.722523 L1171.26612,168.793448 L1157.78497,168.793448 L1157.78497,208.78144 L1171.26612,208.78144 L1171.26612,190.182374 L1181.90397,190.182374 L1181.90397,176.722523 Z M1199.84615,190.182374 L1199.84615,289.638432 L1197.88526,289.638432 L1197.88526,192.14017 L1173.22701,192.14017 L1173.22701,210.739236 L1155.82408,210.739236 L1155.82408,166.835651 L1173.22701,166.835651 L1173.22701,174.764727 L1183.86487,174.764727 L1183.86487,190.182374 L1199.84615,190.182374 Z M1181.90397,191.161272 L1183.86487,191.161272 L1183.86487,190.182374 L1181.90397,190.182374 L1181.90397,191.161272 Z" id="Shape" fill-rule="nonzero"></path>
                <polygon id="Shape" fill-rule="nonzero" points="1188.07441 290.5536 1206.19693 290.5536 1206.19693 304.80531 1208.16143 304.80531 1208.16143 288.587847 1190.03891 288.587847 1190.03891 282.788875 1171.96551 282.788875 1171.96551 284.754628 1188.07441 284.754628"></polygon>
                <polygon id="Shape" fill-rule="nonzero" points="1213.22303 224.868055 1213.22303 218.160919 1223.51917 218.160919 1223.51917 224.868055 1241.95416 224.868055 1241.95416 216.251588 1263.42897 216.251588 1263.42897 238.722943 1265.39013 238.722943 1265.39013 214.2933 1239.99299 214.2933 1239.99299 222.909767 1225.48034 222.909767 1225.48034 216.20263 1211.26186 216.20263 1211.26186 222.909767 1203.27009 222.909767 1203.27009 289.638432 1205.23126 289.638432 1205.23126 224.868055"></polygon>
                <polygon id="Shape" fill-rule="nonzero" points="1279.08589 239.245259 1279.08589 304.316056 1281.04243 304.316056 1281.04243 237.288243 1233.10728 237.288243 1233.10728 304.316056 1235.06382 304.316056 1235.06382 239.245259"></polygon>
                <polygon id="Shape" fill-rule="nonzero" points="1278.72172 227.235492 1278.72172 216.254238 1298.53702 216.254238 1298.53702 224.882367 1311.37304 224.882367 1311.37304 232.579049 1313.32528 232.579049 1313.32528 222.921428 1300.48927 222.921428 1300.48927 214.2933 1276.76948 214.2933 1276.76948 225.274554 1268.81407 225.274554 1268.81407 238.756005 1270.76632 238.756005 1270.76632 227.235492"></polygon>
                <polygon id="Shape" fill-rule="nonzero" points="1308.18394 251.128419 1308.18394 234.053869 1322.59938 234.053869 1322.59938 220.659179 1332.39008 220.659179 1332.39008 304.80531 1334.35805 304.80531 1334.35805 218.696587 1320.6314 218.696587 1320.6314 232.091277 1306.21596 232.091277 1306.21596 249.165827 1292.29251 249.165827 1292.29251 304.80531 1294.26049 304.80531 1294.26049 251.128419"></polygon>
                <polygon id="Shape" fill-rule="nonzero" points="1335.35907 136.012642 1335.35907 143.547155 1337.29286 143.547155 1337.29286 134.055626 1320.6623 134.055626 1320.6623 232.884956 1322.59608 232.884956 1322.59608 136.012642"></polygon>
                <polygon id="Shape" fill-rule="nonzero" points="1355.53586 145.797724 1355.53586 155.33818 1366.64796 155.33818 1366.64796 173.587358 1359.92222 173.587358 1359.92222 185.133755 1366.64796 185.133755 1366.64796 232.395702 1368.59745 232.395702 1368.59745 183.176738 1361.87171 183.176738 1361.87171 175.544374 1368.59745 175.544374 1368.59745 153.381163 1357.48535 153.381163 1357.48535 143.840708 1327.99931 143.840708 1327.99931 219.72402 1329.9488 219.72402 1329.9488 145.797724"></polygon>
                <polygon id="Shape" fill-rule="nonzero" points="1364.42423 239.549126 1364.42423 233.366962 1377.23129 233.366962 1377.23129 220.659179 1400.83357 220.659179 1400.83357 229.490842 1413.59156 229.490842 1413.59156 304.80531 1415.55433 304.80531 1415.55433 227.528251 1402.79634 227.528251 1402.79634 218.696587 1375.26852 218.696587 1375.26852 231.40437 1362.46146 231.40437 1362.46146 237.586534 1353.92342 237.586534 1353.92342 304.80531 1355.88619 304.80531 1355.88619 239.549126"></polygon>
                <polygon id="Shape" fill-rule="nonzero" points="717.070714 305.783818 1464.95688 305.783818 1464.95688 303.826802 717.070714 303.826802"></polygon>
                <polygon id="Shape" fill-rule="nonzero" points="1069.24733 145.30847 1102.50845 145.30847 1102.50845 143.351454 1069.24733 143.351454"></polygon>
                <polygon id="Shape" fill-rule="nonzero" points="1102.50845 159.007585 1122.07382 159.007585 1122.07382 157.050569 1102.50845 157.050569"></polygon>
                <polygon id="Shape" fill-rule="nonzero" points="1001.74681 113.996207 1006.63815 113.996207 1006.63815 112.039191 1001.74681 112.039191"></polygon>
                <polygon id="Shape" fill-rule="nonzero" points="1009.57296 132.587863 1044.79062 132.587863 1044.79062 130.630847 1009.57296 130.630847"></polygon>
                <polygon id="Shape" fill-rule="nonzero" points="983.15971 26.908976 995.877199 26.908976 995.877199 24.9519595 983.15971 24.9519595"></polygon>
                <polygon id="Shape" fill-rule="nonzero" points="906.854778 10.2743363 939.137634 10.2743363 939.137634 8.31731985 906.854778 8.31731985"></polygon>
                <polygon id="Shape" fill-rule="nonzero" points="895.115557 24.9519595 906.854778 24.9519595 906.854778 22.9949431 895.115557 22.9949431"></polygon>
                <polygon id="Shape" fill-rule="nonzero" points="915.659193 101.275601 919.572266 101.275601 919.572266 99.3185841 915.659193 99.3185841"></polygon>
                <polygon id="Shape" fill-rule="nonzero" points="516.525699 87.5764855 543.917213 87.5764855 543.917213 85.619469 516.525699 85.619469"></polygon>
                <polygon id="Shape" fill-rule="nonzero" points="540.982408 122.802781 549.786823 122.802781 549.786823 120.845765 540.982408 120.845765"></polygon>
                <polygon id="Shape" fill-rule="nonzero" points="498.916868 116.931732 526.308382 116.931732 526.308382 114.974716 498.916868 114.974716"></polygon>
                <polygon id="Shape" fill-rule="nonzero" points="738.592618 126.716814 751.310107 126.716814 751.310107 124.759798 738.592618 124.759798"></polygon>
                <polygon id="Shape" fill-rule="nonzero" points="1193.48741 160.964602 1236.53122 160.964602 1236.53122 159.007585 1193.48741 159.007585"></polygon>
                <polygon id="Shape" fill-rule="nonzero" points="1240.44429 143.351454 1250.22697 143.351454 1250.22697 141.394437 1240.44429 141.394437"></polygon>
                <polygon id="Shape" fill-rule="nonzero" points="1251.20524 188.362832 1284.46637 188.362832 1284.46637 186.405815 1251.20524 186.405815"></polygon>
                <polygon id="Shape" fill-rule="nonzero" points="1132.83477 115.953224 1145.55226 115.953224 1145.55226 113.996207 1132.83477 113.996207"></polygon>
                <polygon id="Shape" fill-rule="nonzero" points="1350.01035 124.759798 1362.72784 124.759798 1362.72784 122.802781 1350.01035 122.802781"></polygon>
                <polygon id="Shape" fill-rule="nonzero" points="1293.27078 155.093552 1303.05347 155.093552 1303.05347 153.136536 1293.27078 153.136536"></polygon>
                <polygon id="Shape" fill-rule="nonzero" points="949.898586 89.5335019 960.659538 89.5335019 960.659538 87.5764855 949.898586 87.5764855"></polygon>
                <polygon id="Shape" fill-rule="nonzero" points="959.681269 110.082174 968.485685 110.082174 968.485685 108.125158 959.681269 108.125158"></polygon>
                <polygon id="Shape" fill-rule="nonzero" points="945.985512 144.329962 952.833391 144.329962 952.833391 142.372946 945.985512 142.372946"></polygon>
                <polygon id="Shape" fill-rule="nonzero" points="946.963781 165.857143 971.42049 165.857143 971.42049 163.900126 946.963781 163.900126"></polygon>
                <polygon id="Shape" fill-rule="nonzero" points="966.529148 183.470291 974.355295 183.470291 974.355295 181.513274 966.529148 181.513274"></polygon>
                <polygon id="Shape" fill-rule="nonzero" points="949.898586 200.10493 954.789928 200.10493 954.789928 198.147914 949.898586 198.147914"></polygon>
                <polygon id="Shape" fill-rule="nonzero" points="947.942049 222.610619 968.485685 222.610619 968.485685 220.653603 947.942049 220.653603"></polygon>
                <polygon id="Shape" fill-rule="nonzero" points="868.702311 139.437421 878.484995 139.437421 878.484995 137.480405 868.702311 137.480405"></polygon>
                <polygon id="Shape" fill-rule="nonzero" points="858.919627 127.695322 866.745774 127.695322 866.745774 125.738306 858.919627 125.738306"></polygon>
                <polygon id="Shape" fill-rule="nonzero" points="859.897896 93.4475348 877.506726 93.4475348 877.506726 91.4905183 859.897896 91.4905183"></polygon>
                <polygon id="Shape" fill-rule="nonzero" points="876.528458 109.103666 884.354605 109.103666 884.354605 107.14665 876.528458 107.14665"></polygon>
                <polygon id="Shape" fill-rule="nonzero" points="867.724043 69.9633375 873.593653 69.9633375 873.593653 68.0063211 867.724043 68.0063211"></polygon>
                <polygon id="Shape" fill-rule="nonzero" points="808.049672 205.97598 815.875819 205.97598 815.875819 204.018963 808.049672 204.018963"></polygon>
                <polygon id="Shape" fill-rule="nonzero" points="1030.11659 192.276865 1037.94274 192.276865 1037.94274 190.319848 1030.11659 190.319848"></polygon>
                <polygon id="Shape" fill-rule="nonzero" points="1032.07313 219.675095 1043.81235 219.675095 1043.81235 217.718078 1032.07313 217.718078"></polygon>
                <polygon id="Shape" fill-rule="nonzero" points="1035.00793 243.159292 1041.85581 243.159292 1041.85581 241.202276 1035.00793 241.202276"></polygon>
                <polygon id="Shape" fill-rule="nonzero" points="1372.51052 291.106195 1387.18455 291.106195 1387.18455 289.149178 1372.51052 289.149178"></polygon>
                <polygon id="Shape" fill-rule="nonzero" points="1369.57572 273.493047 1374.46706 273.493047 1374.46706 271.53603 1369.57572 271.53603"></polygon>
                <polygon id="Shape" fill-rule="nonzero" points="1388.16281 254.901391 1399.90204 254.901391 1399.90204 252.944374 1388.16281 252.944374"></polygon>
                <polygon id="Shape" fill-rule="nonzero" points="1348.05381 216.73957 1356.85823 216.73957 1356.85823 214.782554 1348.05381 214.782554"></polygon>
                <polygon id="Shape" fill-rule="nonzero" points="1340.22766 194.233881 1349.03208 194.233881 1349.03208 192.276865 1340.22766 192.276865"></polygon>
                <polygon id="Shape" fill-rule="nonzero" points="1348.05381 169.771176 1354.90169 169.771176 1354.90169 167.814159 1348.05381 167.814159"></polygon>
                <polygon id="Shape" fill-rule="nonzero" points="1260.98793 258.815424 1265.87927 258.815424 1265.87927 256.858407 1260.98793 256.858407"></polygon>
                <polygon id="Shape" fill-rule="nonzero" points="1247.29217 278.385588 1260.00966 278.385588 1260.00966 276.428571 1247.29217 276.428571"></polygon>
                <polygon id="Shape" fill-rule="nonzero" points="1259.03139 291.106195 1265.87927 291.106195 1265.87927 289.149178 1259.03139 289.149178"></polygon>
                <polygon id="Shape" fill-rule="nonzero" points="1003.70335 294.041719 1036.96447 294.041719 1036.96447 292.084703 1003.70335 292.084703"></polygon>
                <polygon id="Shape" fill-rule="nonzero" points="1024.24698 284.256637 1032.07313 284.256637 1032.07313 282.299621 1024.24698 282.299621"></polygon>
                <polygon id="Shape" fill-rule="nonzero" points="964.572611 291.106195 976.311832 291.106195 976.311832 289.149178 964.572611 289.149178"></polygon>
                <polygon id="Shape" fill-rule="nonzero" points="937.181097 264.686473 953.811659 264.686473 953.811659 262.729456 937.181097 262.729456"></polygon>
                <polygon id="Shape" fill-rule="nonzero" points="900.006899 248.051833 911.746119 248.051833 911.746119 246.094817 900.006899 246.094817"></polygon>
                <polygon id="Shape" fill-rule="nonzero" points="905.876509 221.632111 913.702656 221.632111 913.702656 219.675095 905.876509 219.675095"></polygon>
                <polygon id="Shape" fill-rule="nonzero" points="848.158675 210.868521 858.919627 210.868521 858.919627 208.911504 848.158675 208.911504"></polygon>
                <polygon id="Shape" fill-rule="nonzero" points="838.375992 182.491783 849.136944 182.491783 849.136944 180.534766 838.375992 180.534766"></polygon>
                <polygon id="Shape" fill-rule="nonzero" points="758.157986 289.149178 765.005864 289.149178 765.005864 287.192162 758.157986 287.192162"></polygon>
                <polygon id="Shape" fill-rule="nonzero" points="1088.81269 252.944374 1097.61711 252.944374 1097.61711 250.987358 1088.81269 250.987358"></polygon>
                <polygon id="Shape" fill-rule="nonzero" points="1102.50845 241.202276 1118.16075 241.202276 1118.16075 239.245259 1102.50845 239.245259"></polygon>
                <polygon id="Shape" fill-rule="nonzero" points="1172.94377 228.481669 1183.70473 228.481669 1183.70473 226.524652 1172.94377 226.524652"></polygon>
                <polygon id="Shape" fill-rule="nonzero" points="1178.81338 256.858407 1187.6178 256.858407 1187.6178 254.901391 1178.81338 254.901391"></polygon>
                <polygon id="Shape" fill-rule="nonzero" points="1158.26975 290.127686 1162.18282 290.127686 1162.18282 288.17067 1158.26975 288.17067"></polygon>
                <polygon id="Shape" fill-rule="nonzero" points="1110.3346 199.126422 1124.03036 199.126422 1124.03036 197.169406 1110.3346 197.169406"></polygon>
                <polygon id="Shape" fill-rule="nonzero" points="1030.11659 106.168142 1070.2256 106.168142 1070.2256 104.211125 1030.11659 104.211125"></polygon>
                <polygon id="Shape" fill-rule="nonzero" points="1216.96585 111.060683 1284.46637 111.060683 1284.46637 109.103666 1216.96585 109.103666"></polygon>
                <polygon id="Shape" fill-rule="nonzero" points="1043.81235 82.6839444 1074.13867 82.6839444 1074.13867 80.7269279 1043.81235 80.7269279"></polygon>
                <polygon id="Shape" fill-rule="nonzero" points="790.440842 321.439949 920.550535 321.439949 920.550535 319.482933 790.440842 319.482933"></polygon>
                <polygon id="Shape" fill-rule="nonzero" points="912.724388 333.182048 1170.98724 333.182048 1170.98724 331.225032 912.724388 331.225032"></polygon>
                <polygon id="Shape" fill-rule="nonzero" points="1118.16075 319.482933 1156.31321 319.482933 1156.31321 317.525917 1118.16075 317.525917"></polygon>
                <polygon id="Shape" fill-rule="nonzero" points="1185.66126 342.96713 1348.05381 342.96713 1348.05381 341.010114 1185.66126 341.010114"></polygon>
                <polygon id="Shape" fill-rule="nonzero" points="1304.03174 328.289507 1352.94515 328.289507 1352.94515 326.332491 1304.03174 326.332491"></polygon>
                <polygon id="Shape" fill-rule="nonzero" points="1095.66057 366.451327 1262.94446 366.451327 1262.94446 364.494311 1095.66057 364.494311"></polygon>
                <polygon id="Shape" fill-rule="nonzero" points="1029.13832 354.709229 1073.1604 354.709229 1073.1604 352.752212 1029.13832 352.752212"></polygon>
                <polygon id="Shape" fill-rule="nonzero" points="868.702311 371.343869 995.877199 371.343869 995.877199 369.386852 868.702311 369.386852"></polygon>
                <polygon id="Shape" fill-rule="nonzero" points="813.919283 346.881163 850.115212 346.881163 850.115212 344.924147 813.919283 344.924147"></polygon>
                <polygon id="Shape" fill-rule="nonzero" points="1031.09486 370.36536 1059.46464 370.36536 1059.46464 368.408344 1031.09486 368.408344"></polygon>
                <polygon id="Shape" fill-rule="nonzero" points="500.873405 67.0278129 558.102104 67.0278129 558.102104 65.0707965 500.873405 65.0707965"></polygon>
                <polygon id="Shape" fill-rule="nonzero" points="728.809934 236.309735 735.657813 236.309735 735.657813 234.352718 728.809934 234.352718"></polygon>
                <polygon id="Shape" fill-rule="nonzero" points="785.5495 383.085967 853.050017 383.085967 853.050017 381.128951 785.5495 381.128951"></polygon>
                <polygon id="Shape" fill-rule="nonzero" points="1258.05312 387 1386.20628 387 1386.20628 385.042984 1258.05312 385.042984"></polygon>
                <g id="Group" stroke-width="1" fill-rule="evenodd" transform="translate(8.315281, 2.446271)">
                    <polygon id="Shape" fill-rule="nonzero" points="41.1062891 158.517014 41.1062891 164.628575 64.0857066 164.628575 64.0857066 301.869785 66.0331149 301.869785 66.0331149 162.672876 43.0536974 162.672876 43.0536974 156.561315 34.7285271 156.561315 34.7285271 301.869785 36.6759353 301.869785 36.6759353 158.517014"></polygon>
                    <polygon id="Shape" fill-rule="nonzero" points="24.9472884 197.095966 24.9472884 185.427307 15.8090769 185.427307 15.8090769 208.568514 2.44567092 208.568514 2.44567092 246.222002 11.1417109 246.222002 11.1417109 302.359039 13.1069176 302.359039 13.1069176 244.260883 4.41087769 244.260883 4.41087769 210.529633 17.7742837 210.529633 17.7742837 187.388426 22.9820816 187.388426 22.9820816 199.057086 30.0076958 199.057086 30.0076958 194.840679 35.7067954 194.840679 35.7067954 192.87956 28.0424891 192.87956 28.0424891 197.095966"></polygon>
                    <polygon id="Shape" fill-rule="nonzero" points="61.1380745 150.709389 61.1380745 163.900126 63.0983098 163.900126 63.0983098 148.733249 37.174198 148.733249 37.174198 157.724688 39.1344333 157.724688 39.1344333 150.709389"></polygon>
                    <polygon id="Shape" fill-rule="nonzero" points="83.1575717 302.359039 85.1093481 302.359039 85.1093481 227.013906 65.0548465 227.013906 65.0548465 228.973468 83.1575717 228.973468"></polygon>
                    <polygon id="Shape" fill-rule="nonzero" points="81.4115446 166.698058 81.4115446 154.605578 102.64621 154.605578 102.64621 166.698058 109.560962 166.698058 109.560962 302.359039 111.522594 302.359039 111.522594 164.739762 104.607842 164.739762 104.607842 152.647282 79.4499127 152.647282 79.4499127 164.739762 73.8592618 164.739762 73.8592618 228.041692 75.8208937 228.041692 75.8208937 166.698058"></polygon>
                    <polygon id="Shape" fill-rule="nonzero" points="88.9795416 136.942225 88.9795416 88.663209 92.6998454 85.4830573 92.6998454 70.0305535 95.9306355 66.8504018 95.9306355 56.7534766 129.560223 56.7534766 129.560223 66.8460193 132.742062 70.026171 132.742062 85.4830573 136.462366 88.663209 136.462366 136.942225 142.33653 136.942225 142.33653 192.276865 144.294584 192.276865 144.294584 134.985209 138.420421 134.985209 138.420421 87.7618226 134.700117 84.5816709 134.700117 69.2155483 131.518278 66.0353966 131.518278 54.7964602 93.9725809 54.7964602 93.9725809 66.0310142 90.7417908 69.2111659 90.7417908 84.5816709 87.021487 87.7618226 87.021487 134.985209 81.1962746 134.985209 81.1962746 153.527939 83.1543292 153.527939 83.1543292 136.942225"></polygon>
                    <polygon id="Shape" fill-rule="nonzero" points="150.65036 288.684697 150.65036 302.359039 152.609865 302.359039 152.609865 286.702908 120.327009 286.702908 120.327009 302.359039 122.286515 302.359039 122.286515 288.684697"></polygon>
                    <polygon id="Shape" fill-rule="nonzero" points="139.790824 200.692035 139.790824 193.255373 146.556379 193.255373 146.556379 182.002528 152.543165 182.002528 152.543165 189.928445 161.255643 189.928445 161.255643 196.386599 166.804371 196.386599 166.804371 248.883565 168.751294 248.883565 168.751294 194.429583 163.202565 194.429583 163.202565 187.971429 154.490088 187.971429 154.490088 180.045512 144.609457 180.045512 144.609457 191.298357 137.843902 191.298357 137.843902 198.735019 129.131425 198.735019 129.131425 287.681416 131.078347 287.681416 131.078347 200.692035"></polygon>
                    <polygon id="Shape" fill-rule="nonzero" points="165.535946 277.629428 165.535946 250.010614 245.548001 250.010614 245.548001 302.359039 247.501897 302.359039 247.501897 248.051833 163.58205 248.051833 163.58205 275.670647 138.914108 275.670647 138.914108 287.864059 140.868005 287.864059 140.868005 277.629428"></polygon>
                    <polygon id="Shape" fill-rule="nonzero" points="232.343741 273.006855 232.343741 302.359039 234.295274 302.359039 234.295274 271.046776 177.066575 271.046776 177.066575 302.359039 179.018107 302.359039 179.018107 273.006855"></polygon>
                    <polygon id="Shape" fill-rule="nonzero" points="411.730066 185.427307 413.318386 184.284916 394.706093 158.518331 376.144188 184.28595 377.733999 185.426273 394.708279 161.862595"></polygon>
                    <polygon id="Shape" fill-rule="nonzero" points="401.693439 184.921639 403.535702 184.325571 394.753313 157.050569 385.437737 184.309157 387.269106 184.938053 394.698642 163.198266"></polygon>
                    <polygon id="Shape" fill-rule="nonzero" points="395.709555 159.986094 395.709555 141.394437 393.753018 141.394437 393.753018 159.986094"></polygon>
                    <polygon id="Shape" fill-rule="nonzero" points="178.980232 133.984718 178.980232 101.326972 182.700535 98.1475653 182.700535 82.6942981 185.882374 79.514891 185.882374 69.4736252 219.560913 69.4736252 219.560913 79.514891 222.742752 82.6942981 222.742752 98.1475653 226.463056 101.326972 226.463056 133.984718 232.33722 133.984718 232.33722 249.030341 234.295274 249.030341 234.295274 132.02816 228.42111 132.02816 228.42111 100.425797 224.700807 97.24639 224.700807 81.8838651 221.518968 78.704458 221.518968 67.517067 183.924319 67.517067 183.924319 78.704458 180.742481 81.8838651 180.742481 97.24639 177.022177 100.425797 177.022177 132.02816 171.196964 132.02816 171.196964 249.030341 173.155019 249.030341 173.155019 133.984718"></polygon>
                    <polygon id="Shape" fill-rule="nonzero" points="287.136754 242.67627 287.136754 268.836563 297.388134 268.836563 297.388134 281.254113 282.967532 281.254113 282.967532 302.359039 284.929518 302.359039 284.929518 283.217362 299.350121 283.217362 299.350121 266.873314 289.09874 266.873314 289.09874 240.713021 262.759069 240.713021 262.759069 266.873314 246.523629 266.873314 246.523629 268.836563 264.721055 268.836563 264.721055 242.67627"></polygon>
                    <polygon id="Shape" fill-rule="nonzero" points="251.419731 267.621997 253.371507 267.621997 253.371507 209.400759 233.317006 209.400759 233.317006 211.352854 251.419731 211.352854"></polygon>
                    <polygon id="Shape" fill-rule="nonzero" points="264.800504 201.563526 264.800504 211.010599 271.349207 211.010599 271.349207 222.113345 280.732424 222.113345 280.732424 230.4891 299.840955 230.4891 299.840955 241.202276 301.795792 241.202276 301.795792 228.54125 282.687261 228.54125 282.687261 220.165495 273.304044 220.165495 273.304044 209.062749 266.755341 209.062749 266.755341 199.615676 245.54536 199.615676 245.54536 210.036674 247.500197 210.036674 247.500197 201.563526"></polygon>
                    <polygon id="Shape" fill-rule="nonzero" points="310.047875 242.67627 310.047875 273.008467 328.671732 273.008467 328.671732 279.781676 364.890232 279.781676 364.890232 302.359039 366.850638 302.359039 366.850638 277.818427 330.632138 277.818427 330.632138 271.045218 312.008281 271.045218 312.008281 240.713021 292.502242 240.713021 292.502242 267.854939 294.462648 267.854939 294.462648 242.67627"></polygon>
                    <polygon id="Shape" fill-rule="nonzero" points="315.127267 162.886989 315.127267 154.438254 322.546487 154.438254 322.546487 145.794173 336.506336 145.794173 336.506336 161.324217 349.245918 161.324217 349.245918 278.385588 351.198344 278.385588 351.198344 159.370752 338.458762 159.370752 338.458762 143.840708 320.594061 143.840708 320.594061 152.484789 313.174841 152.484789 313.174841 160.933524 304.730597 160.933524 304.730597 241.465105 306.683023 241.465105 306.683023 162.886989"></polygon>
                    <polygon id="Shape" fill-rule="nonzero" points="306.197999 196.20168 306.197999 194.233881 289.567437 194.233881 289.567437 229.949431 291.553176 229.949431 291.553176 196.20168"></polygon>
                    <polygon id="Shape" fill-rule="nonzero" points="364.864899 278.385588 366.850638 278.385588 366.850638 220.164349 350.220076 220.164349 350.220076 222.116444 364.864899 222.116444"></polygon>
                    <polygon id="Shape" fill-rule="nonzero" points="395.096003 213.74266 395.096003 222.364265 413.63675 222.364265 413.63675 235.443631 421.053049 235.443631 421.053049 302.359039 423.004706 302.359039 423.004706 233.484175 415.588407 233.484175 415.588407 220.404809 397.04766 220.404809 397.04766 211.783204 375.481844 211.783204 375.481844 220.404809 366.845759 220.404809 366.845759 186.408255 441.203913 186.408255 441.203913 206.737606 443.155571 206.737606 443.155571 184.448799 364.894101 184.448799 364.894101 222.364265 377.433501 222.364265 377.433501 213.74266"></polygon>
                    <polygon id="Shape" fill-rule="nonzero" points="438.743011 245.521514 438.743011 302.359039 440.7099 302.359039 440.7099 244.876043 432.20804 233.37421 422.122801 233.37421 422.122801 235.336794 431.214727 235.336794"></polygon>
                    <polygon id="Shape" fill-rule="nonzero" points="382.04117 272.579311 382.04117 261.27063 402.876382 261.27063 402.876382 272.635203 411.366609 276.272216 411.366609 302.359039 413.318386 302.359039 413.318386 274.971953 404.828159 271.33494 404.828159 259.304678 380.089394 259.304678 380.089394 271.390833 373.209383 275.027845 373.209383 302.359039 375.161159 302.359039 375.161159 276.216323"></polygon>
                    <polygon id="Shape" fill-rule="nonzero" points="446.57951 207.926494 446.57951 264.686473 448.536047 264.686473 448.536047 205.97598 403.046568 205.97598 403.046568 221.043706 405.003105 221.043706 405.003105 207.926494"></polygon>
                    <polygon id="Shape" fill-rule="nonzero" points="462.223946 302.359039 464.188341 302.359039 464.188341 264.197219 439.731632 264.197219 439.731632 266.159266 462.223946 266.159266"></polygon>
                    <path d="M472.659404,174.276253 L462.021553,174.276253 L462.021553,166.347177 L448.540404,166.347177 L448.540404,206.335169 L462.021553,206.335169 L462.021553,187.736103 L472.659404,187.736103 L472.659404,174.276253 Z M490.601587,187.736103 L490.601587,287.192162 L488.640692,287.192162 L488.640692,189.693899 L463.982447,189.693899 L463.982447,208.292966 L446.57951,208.292966 L446.57951,164.389381 L463.982447,164.389381 L463.982447,172.318456 L474.620298,172.318456 L474.620298,187.736103 L490.601587,187.736103 Z M472.659404,188.715001 L474.620298,188.715001 L474.620298,187.736103 L472.659404,187.736103 L472.659404,188.715001 Z" id="Shape" fill-rule="nonzero"></path>
                    <polygon id="Shape" fill-rule="nonzero" points="478.829846 288.107329 496.952367 288.107329 496.952367 302.359039 498.916868 302.359039 498.916868 286.141576 480.794347 286.141576 480.794347 280.342604 462.720938 280.342604 462.720938 282.308357 478.829846 282.308357"></polygon>
                    <polygon id="Shape" fill-rule="nonzero" points="503.978461 222.421785 503.978461 215.714648 514.2746 215.714648 514.2746 222.421785 532.709593 222.421785 532.709593 213.805317 554.184398 213.805317 554.184398 236.276673 556.145567 236.276673 556.145567 211.847029 530.748423 211.847029 530.748423 220.463496 516.23577 220.463496 516.23577 213.75636 502.017291 213.75636 502.017291 220.463496 494.025526 220.463496 494.025526 287.192162 495.986695 287.192162 495.986695 222.421785"></polygon>
                    <polygon id="Shape" fill-rule="nonzero" points="569.841325 236.798989 569.841325 301.869785 571.797861 301.869785 571.797861 234.841972 523.862711 234.841972 523.862711 301.869785 525.819248 301.869785 525.819248 236.798989"></polygon>
                    <polygon id="Shape" fill-rule="nonzero" points="569.477156 224.789222 569.477156 213.807967 589.292453 213.807967 589.292453 222.436096 602.128471 222.436096 602.128471 230.132779 604.080717 230.132779 604.080717 220.475158 591.244699 220.475158 591.244699 211.847029 567.52491 211.847029 567.52491 222.828284 559.569507 222.828284 559.569507 236.309735 561.521753 236.309735 561.521753 224.789222"></polygon>
                    <polygon id="Shape" fill-rule="nonzero" points="598.939374 248.682149 598.939374 231.607598 613.354816 231.607598 613.354816 218.212908 623.145509 218.212908 623.145509 302.359039 625.113487 302.359039 625.113487 216.250316 611.386838 216.250316 611.386838 229.645006 596.971395 229.645006 596.971395 246.719557 583.047948 246.719557 583.047948 302.359039 585.015926 302.359039 585.015926 248.682149"></polygon>
                    <polygon id="Shape" fill-rule="nonzero" points="626.114506 133.566372 626.114506 141.100885 628.048293 141.100885 628.048293 131.609355 611.41773 131.609355 611.41773 230.438685 613.351517 230.438685 613.351517 133.566372"></polygon>
                    <polygon id="Shape" fill-rule="nonzero" points="646.291295 143.351454 646.291295 152.891909 657.40339 152.891909 657.40339 171.141087 650.677648 171.141087 650.677648 182.687484 657.40339 182.687484 657.40339 229.949431 659.35288 229.949431 659.35288 180.730468 652.627138 180.730468 652.627138 173.098104 659.35288 173.098104 659.35288 150.934893 648.240785 150.934893 648.240785 141.394437 618.754743 141.394437 618.754743 217.27775 620.704233 217.27775 620.704233 143.351454"></polygon>
                    <polygon id="Shape" fill-rule="nonzero" points="655.179662 237.102856 655.179662 230.920691 667.986722 230.920691 667.986722 218.212908 691.589004 218.212908 691.589004 227.044572 704.346994 227.044572 704.346994 302.359039 706.309762 302.359039 706.309762 225.08198 693.551772 225.08198 693.551772 216.250316 666.023954 216.250316 666.023954 228.958099 653.216894 228.958099 653.216894 235.140264 644.678855 235.140264 644.678855 302.359039 646.641623 302.359039 646.641623 237.102856"></polygon>
                    <polygon id="Shape" fill-rule="nonzero" points="0 303.337547 708.755433 303.337547 708.755433 301.380531 0 301.380531"></polygon>
                    <polygon id="Shape" fill-rule="nonzero" points="360.00276 52.8394437 393.263884 52.8394437 393.263884 50.8824273 360.00276 50.8824273"></polygon>
                    <polygon id="Shape" fill-rule="nonzero" points="393.263884 66.5385588 412.829251 66.5385588 412.829251 64.5815424 393.263884 64.5815424"></polygon>
                    <polygon id="Shape" fill-rule="nonzero" points="245.54536 111.549937 250.436702 111.549937 250.436702 109.59292 245.54536 109.59292"></polygon>
                    <polygon id="Shape" fill-rule="nonzero" points="253.371507 130.141593 288.589169 130.141593 288.589169 128.184576 253.371507 128.184576"></polygon>
                    <polygon id="Shape" fill-rule="nonzero" points="226.958261 24.4627054 239.67575 24.4627054 239.67575 22.505689 226.958261 22.505689"></polygon>
                    <polygon id="Shape" fill-rule="nonzero" points="150.653329 7.82806574 182.936185 7.82806574 182.936185 5.8710493 150.653329 5.8710493"></polygon>
                    <polygon id="Shape" fill-rule="nonzero" points="138.914108 22.505689 150.653329 22.505689 150.653329 20.5486726 138.914108 20.5486726"></polygon>
                    <polygon id="Shape" fill-rule="nonzero" points="159.457744 98.82933 163.370818 98.82933 163.370818 96.8723135 159.457744 96.8723135"></polygon>
                    <polygon id="Shape" fill-rule="nonzero" points="42.0655398 22.505689 69.4570542 22.505689 69.4570542 20.5486726 42.0655398 20.5486726"></polygon>
                    <polygon id="Shape" fill-rule="nonzero" points="66.5222491 57.7319848 75.3266644 57.7319848 75.3266644 55.7749684 66.5222491 55.7749684"></polygon>
                    <polygon id="Shape" fill-rule="nonzero" points="24.4567092 94.9152971 51.8482235 94.9152971 51.8482235 92.9582807 24.4567092 92.9582807"></polygon>
                    <polygon id="Shape" fill-rule="nonzero" points="29.3480511 124.270544 42.0655398 124.270544 42.0655398 122.313527 29.3480511 122.313527"></polygon>
                    <polygon id="Shape" fill-rule="nonzero" points="484.242842 158.518331 527.286651 158.518331 527.286651 156.561315 484.242842 156.561315"></polygon>
                    <polygon id="Shape" fill-rule="nonzero" points="531.199724 140.905183 540.982408 140.905183 540.982408 138.948167 531.199724 138.948167"></polygon>
                    <polygon id="Shape" fill-rule="nonzero" points="541.960676 185.916561 575.221801 185.916561 575.221801 183.959545 541.960676 183.959545"></polygon>
                    <polygon id="Shape" fill-rule="nonzero" points="423.590204 113.506953 436.307692 113.506953 436.307692 111.549937 423.590204 111.549937"></polygon>
                    <polygon id="Shape" fill-rule="nonzero" points="640.765781 122.313527 653.48327 122.313527 653.48327 120.356511 640.765781 120.356511"></polygon>
                    <polygon id="Shape" fill-rule="nonzero" points="584.026216 152.647282 593.8089 152.647282 593.8089 150.690265 584.026216 150.690265"></polygon>
                    <polygon id="Shape" fill-rule="nonzero" points="193.697137 87.0872314 204.458089 87.0872314 204.458089 85.1302149 193.697137 85.1302149"></polygon>
                    <polygon id="Shape" fill-rule="nonzero" points="203.479821 107.635904 212.284236 107.635904 212.284236 105.678887 203.479821 105.678887"></polygon>
                    <polygon id="Shape" fill-rule="nonzero" points="189.784063 141.883692 196.631942 141.883692 196.631942 139.926675 189.784063 139.926675"></polygon>
                    <polygon id="Shape" fill-rule="nonzero" points="190.762332 163.410872 215.219041 163.410872 215.219041 161.453856 190.762332 161.453856"></polygon>
                    <polygon id="Shape" fill-rule="nonzero" points="210.327699 181.02402 218.153846 181.02402 218.153846 179.067004 210.327699 179.067004"></polygon>
                    <polygon id="Shape" fill-rule="nonzero" points="193.697137 197.65866 198.588479 197.65866 198.588479 195.701643 193.697137 195.701643"></polygon>
                    <polygon id="Shape" fill-rule="nonzero" points="191.7406 220.164349 212.284236 220.164349 212.284236 218.207332 191.7406 218.207332"></polygon>
                    <polygon id="Shape" fill-rule="nonzero" points="112.500862 136.99115 122.283546 136.99115 122.283546 135.034134 112.500862 135.034134"></polygon>
                    <polygon id="Shape" fill-rule="nonzero" points="102.718179 125.249052 110.544326 125.249052 110.544326 123.292035 102.718179 123.292035"></polygon>
                    <polygon id="Shape" fill-rule="nonzero" points="103.696447 91.0012642 121.305278 91.0012642 121.305278 89.0442478 103.696447 89.0442478"></polygon>
                    <polygon id="Shape" fill-rule="nonzero" points="120.327009 106.657396 128.153156 106.657396 128.153156 104.700379 120.327009 104.700379"></polygon>
                    <polygon id="Shape" fill-rule="nonzero" points="111.522594 67.517067 117.392204 67.517067 117.392204 65.5600506 111.522594 65.5600506"></polygon>
                    <polygon id="Shape" fill-rule="nonzero" points="51.8482235 203.529709 59.6743705 203.529709 59.6743705 201.572693 51.8482235 201.572693"></polygon>
                    <polygon id="Shape" fill-rule="nonzero" points="320.872025 189.830594 328.698172 189.830594 328.698172 187.873578 320.872025 187.873578"></polygon>
                    <polygon id="Shape" fill-rule="nonzero" points="322.828562 217.228824 334.567782 217.228824 334.567782 215.271808 322.828562 215.271808"></polygon>
                    <polygon id="Shape" fill-rule="nonzero" points="325.763367 240.713021 332.611245 240.713021 332.611245 238.756005 325.763367 238.756005"></polygon>
                    <polygon id="Shape" fill-rule="nonzero" points="663.265954 288.659924 677.939979 288.659924 677.939979 286.702908 663.265954 286.702908"></polygon>
                    <polygon id="Shape" fill-rule="nonzero" points="660.331149 271.046776 665.222491 271.046776 665.222491 269.08976 660.331149 269.08976"></polygon>
                    <polygon id="Shape" fill-rule="nonzero" points="678.918248 252.45512 690.657468 252.45512 690.657468 250.498104 678.918248 250.498104"></polygon>
                    <polygon id="Shape" fill-rule="nonzero" points="638.809245 214.2933 647.61366 214.2933 647.61366 212.336283 638.809245 212.336283"></polygon>
                    <polygon id="Shape" fill-rule="nonzero" points="630.983098 191.787611 639.787513 191.787611 639.787513 189.830594 630.983098 189.830594"></polygon>
                    <polygon id="Shape" fill-rule="nonzero" points="638.809245 167.324905 645.657123 167.324905 645.657123 165.367889 638.809245 165.367889"></polygon>
                    <polygon id="Shape" fill-rule="nonzero" points="551.74336 256.369153 556.634702 256.369153 556.634702 254.412137 551.74336 254.412137"></polygon>
                    <polygon id="Shape" fill-rule="nonzero" points="538.047603 275.939317 550.765091 275.939317 550.765091 273.982301 538.047603 273.982301"></polygon>
                    <polygon id="Shape" fill-rule="nonzero" points="549.786823 288.659924 556.634702 288.659924 556.634702 286.702908 549.786823 286.702908"></polygon>
                    <polygon id="Shape" fill-rule="nonzero" points="310.111073 291.595449 343.372197 291.595449 343.372197 289.638432 310.111073 289.638432"></polygon>
                    <polygon id="Shape" fill-rule="nonzero" points="315.002415 281.810367 322.828562 281.810367 322.828562 279.85335 315.002415 279.85335"></polygon>
                    <polygon id="Shape" fill-rule="nonzero" points="208.371162 288.659924 220.110383 288.659924 220.110383 286.702908 208.371162 286.702908"></polygon>
                    <polygon id="Shape" fill-rule="nonzero" points="180.979648 262.240202 197.61021 262.240202 197.61021 260.283186 180.979648 260.283186"></polygon>
                    <polygon id="Shape" fill-rule="nonzero" points="143.80545 245.605563 155.544671 245.605563 155.544671 243.648546 143.80545 243.648546"></polygon>
                    <polygon id="Shape" fill-rule="nonzero" points="149.67506 219.185841 157.501207 219.185841 157.501207 217.228824 149.67506 217.228824"></polygon>
                    <polygon id="Shape" fill-rule="nonzero" points="91.9572266 208.42225 102.718179 208.42225 102.718179 206.465234 91.9572266 206.465234"></polygon>
                    <polygon id="Shape" fill-rule="nonzero" points="82.1745429 180.045512 92.935495 180.045512 92.935495 178.088496 82.1745429 178.088496"></polygon>
                    <polygon id="Shape" fill-rule="nonzero" points="48.9134184 286.702908 55.761297 286.702908 55.761297 284.745891 48.9134184 284.745891"></polygon>
                    <polygon id="Shape" fill-rule="nonzero" points="379.568127 250.498104 388.372542 250.498104 388.372542 248.541087 379.568127 248.541087"></polygon>
                    <polygon id="Shape" fill-rule="nonzero" points="393.263884 238.756005 408.916178 238.756005 408.916178 236.798989 393.263884 236.798989"></polygon>
                    <polygon id="Shape" fill-rule="nonzero" points="463.699207 226.035398 474.460159 226.035398 474.460159 224.078382 463.699207 224.078382"></polygon>
                    <polygon id="Shape" fill-rule="nonzero" points="469.568817 254.412137 478.373232 254.412137 478.373232 252.45512 469.568817 252.45512"></polygon>
                    <polygon id="Shape" fill-rule="nonzero" points="449.025181 287.681416 452.938255 287.681416 452.938255 285.724399 449.025181 285.724399"></polygon>
                    <polygon id="Shape" fill-rule="nonzero" points="401.090031 196.680152 414.785788 196.680152 414.785788 194.723135 401.090031 194.723135"></polygon>
                    <polygon id="Shape" fill-rule="nonzero" points="320.872025 103.721871 360.981028 103.721871 360.981028 101.764855 320.872025 101.764855"></polygon>
                    <polygon id="Shape" fill-rule="nonzero" points="507.721283 30.3337547 575.221801 30.3337547 575.221801 28.3767383 507.721283 28.3767383"></polygon>
                    <polygon id="Shape" fill-rule="nonzero" points="287.6109 80.2376738 317.93722 80.2376738 317.93722 78.2806574 287.6109 78.2806574"></polygon>
                    <polygon id="Shape" fill-rule="nonzero" points="34.2393929 318.993679 164.349086 318.993679 164.349086 317.036662 34.2393929 317.036662"></polygon>
                    <polygon id="Shape" fill-rule="nonzero" points="156.522939 330.735777 414.785788 330.735777 414.785788 328.778761 156.522939 328.778761"></polygon>
                    <polygon id="Shape" fill-rule="nonzero" points="408.916178 317.036662 447.068644 317.036662 447.068644 315.079646 408.916178 315.079646"></polygon>
                    <polygon id="Shape" fill-rule="nonzero" points="476.416695 340.52086 638.809245 340.52086 638.809245 338.563843 476.416695 338.563843"></polygon>
                    <polygon id="Shape" fill-rule="nonzero" points="594.787168 325.843236 643.700586 325.843236 643.700586 323.88622 594.787168 323.88622"></polygon>
                    <polygon id="Shape" fill-rule="nonzero" points="386.416006 364.005057 553.699897 364.005057 553.699897 362.04804 386.416006 362.04804"></polygon>
                    <polygon id="Shape" fill-rule="nonzero" points="319.893756 352.262958 363.915833 352.262958 363.915833 350.305942 319.893756 350.305942"></polygon>
                    <polygon id="Shape" fill-rule="nonzero" points="112.500862 368.897598 239.67575 368.897598 239.67575 366.940582 112.500862 366.940582"></polygon>
                    <polygon id="Shape" fill-rule="nonzero" points="57.7178337 344.434893 93.9137634 344.434893 93.9137634 342.477876 57.7178337 342.477876"></polygon>
                    <polygon id="Shape" fill-rule="nonzero" points="274.893412 367.91909 303.263194 367.91909 303.263194 365.962073 274.893412 365.962073"></polygon>
                    <polygon id="Shape" fill-rule="nonzero" points="26.4132459 1.95701643 83.6419455 1.95701643 83.6419455 0 26.4132459 0"></polygon>
                    <polygon id="Shape" fill-rule="nonzero" points="19.5653674 233.863464 26.4132459 233.863464 26.4132459 231.906448 19.5653674 231.906448"></polygon>
                    <polygon id="Shape" fill-rule="nonzero" points="29.3480511 380.639697 96.8485685 380.639697 96.8485685 378.68268 29.3480511 378.68268"></polygon>
                    <polygon id="Shape" fill-rule="nonzero" points="548.808555 384.553729 676.961711 384.553729 676.961711 382.596713 548.808555 382.596713"></polygon>
                </g>
            </g>
        </g>
    </g>
</svg>