<?xml version="1.0" encoding="UTF-8"?>
<svg width="140px" height="70px" viewBox="0 0 140 70" version="1.1" xmlns="http://www.w3.org/2000/svg" xmlns:xlink="http://www.w3.org/1999/xlink">
    <!-- Generator: Sketch 46.2 (44496) - http://www.bohemiancoding.com/sketch -->
    <title>Logo/Light@1.5x</title>
    <desc>Created with Sketch.</desc>
    <defs>
        <linearGradient x1="0%" y1="49.9829635%" x2="100%" y2="49.9829635%" id="linearGradient-1">
            <stop stop-color="#FFFFFF" stop-opacity="0.1" offset="0%"></stop>
            <stop stop-color="#FFFFFF" stop-opacity="0.4" offset="100%"></stop>
        </linearGradient>
        <linearGradient x1="14794%" y1="96083%" x2="19196%" y2="96083%" id="linearGradient-2">
            <stop stop-color="#FFFFFF" stop-opacity="0.1" offset="0%"></stop>
            <stop stop-color="#FFFFFF" stop-opacity="0.4" offset="100%"></stop>
        </linearGradient>
        <linearGradient x1="22243%" y1="96307%" x2="30487%" y2="96307%" id="linearGradient-3">
            <stop stop-color="#FFFFFF" stop-opacity="0.1" offset="0%"></stop>
            <stop stop-color="#FFFFFF" stop-opacity="0.4" offset="100%"></stop>
        </linearGradient>
        <linearGradient x1="26710%" y1="88124%" x2="31538%" y2="88124%" id="linearGradient-4">
            <stop stop-color="#FFFFFF" stop-opacity="0.1" offset="0%"></stop>
            <stop stop-color="#FFFFFF" stop-opacity="0.4" offset="100%"></stop>
        </linearGradient>
    </defs>
    <g id="Symbols" stroke="none" stroke-width="1" fill="none" fill-rule="evenodd">
        <g id="Logo/Light">
            <g id="Logo" transform="translate(4.000000, 5.000000)">
                <polygon id="Shape" fill="#0078D7" points="127.019496 13.4376812 126.07442 13.4376812 126.07442 13.0973188 128.374992 13.0973188 128.374992 13.4376812 127.425479 13.4376812 127.425479 16.1915217 127.019496 16.1915217"></polygon>
                <path d="M131.338891,14.8278623 C131.316706,14.3858333 131.290084,13.8775 131.292303,13.4907246 L131.28121,13.4907246 C131.172504,13.8553986 131.043832,14.2377536 130.888538,14.6665217 L130.340571,16.1672101 L130.03442,16.1672101 L129.533042,14.6908333 C129.384403,14.2488043 129.25795,13.8553986 129.171429,13.4885145 L129.171429,13.4885145 C129.171429,13.8752899 129.14037,14.3946739 129.111529,14.8565942 L129.029445,16.1826812 L128.645647,16.1826812 L128.867496,13.0884783 L129.368874,13.0884783 L129.899092,14.5847464 C130.029983,14.9671014 130.136471,15.3052536 130.214118,15.6279348 L130.227429,15.6279348 C130.307294,15.3163043 130.416,14.9648913 130.555765,14.5847464 L131.108168,13.0884783 L131.61842,13.0884783 L131.811429,16.1826812 L131.420975,16.1826812 L131.338891,14.8278623 Z" id="Shape" fill="#0078D7"></path>
                <path d="M124.732235,17.5485507 L122.904202,19.4293841 C121.386756,17.9559541 119.902588,17.2192391 118.451697,17.2192391 C117.573127,17.2020359 116.72269,17.52808 116.082353,18.1276087 C115.459125,18.658104 115.098711,19.4327023 115.095126,20.2493478 C115.111363,21.0047693 115.400431,21.7290366 115.909311,22.2893116 C116.449143,22.9508816 117.587227,23.7266425 119.323563,24.6165942 C121.435563,25.7098792 122.872403,26.7626449 123.634084,27.7748913 C124.368918,28.7774963 124.75808,29.9902168 124.743328,31.231558 C124.774075,32.9587179 124.081109,34.620547 122.830992,35.8176087 C121.559059,37.0700242 119.967664,37.6969686 118.056807,37.698442 C116.79717,37.6977711 115.554043,37.4129044 114.420706,36.8652174 C113.292913,36.3400927 112.304953,35.5579961 111.536672,34.5821377 L113.322555,32.5620652 C114.773445,34.1916787 116.311597,35.0072222 117.937008,35.0086957 C119.011033,35.0329336 120.052698,34.6415993 120.843227,33.9168841 C121.60704,33.2772278 122.047986,32.3339331 122.047866,31.3398551 C122.053998,30.5480757 121.77183,29.7809215 121.253647,29.1805435 C120.727126,28.558756 119.534319,27.7771014 117.675227,26.8355797 C115.684504,25.8041787 114.329748,24.7934058 113.610958,23.8032609 C112.891462,22.8104696 112.512572,21.612965 112.530555,20.388587 C112.487454,18.8216078 113.112086,17.3096605 114.249882,16.2268841 C115.391664,15.1218116 116.836639,14.5692754 118.584807,14.5692754 C120.625815,14.5751691 122.674958,15.5682609 124.732235,17.5485507 L124.732235,17.5485507 Z" id="Shape" fill="#0078D7"></path>
                <path d="M71.7902521,15.143913 L71.7902521,37.1304348 L68.990521,37.1304348 L68.990521,33.3532971 C67.9041782,34.7104182 66.5378102,35.8191497 64.9839328,36.6044203 C63.4718571,37.3404935 61.8082987,37.7150894 60.1254454,37.698442 C57.0032941,37.698442 54.3359328,36.569058 52.1233613,34.3102899 C49.9107899,32.0515217 48.8052437,29.3065217 48.8067227,26.0752899 C48.7623811,23.0231819 49.9764459,20.086511 52.1655126,17.9507971 C54.2617199,15.7589773 57.1800743,14.5367563 60.2186218,14.5781159 C61.9281271,14.5537213 63.6173462,14.9491989 65.1370084,15.7296014 C66.674886,16.5651879 67.9947047,17.7483309 68.990521,19.184058 L68.990521,15.143913 L71.7902521,15.143913 L71.7902521,15.143913 Z M60.4426891,17.3054348 C57.2959448,17.2813695 54.3894689,18.9786417 52.8732101,21.7257246 C51.2855186,24.4753391 51.2855186,27.8586826 52.8732101,30.6082971 C53.6262662,31.9768578 54.7360681,33.1176099 56.0855798,33.9102536 C57.3933703,34.6874748 58.8888261,35.0954597 60.4116303,35.090471 C61.960626,35.0905679 63.4826664,34.6867247 64.8264202,33.9190942 C66.173594,33.1836435 67.2865754,32.0863335 68.0387899,30.7519565 C68.8030181,29.3772399 69.1945004,27.8278637 69.1746555,26.2565217 C69.1746555,23.7133816 68.3331092,21.5864855 66.6500168,19.8758333 C65.0335768,18.1907593 62.7818329,17.2583324 60.4426891,17.3054348 L60.4426891,17.3054348 Z" id="Shape" fill="#0078D7"></path>
                <path d="M75.5261849,15.143913 L78.3658487,15.143913 L78.3658487,18.9431522 C79.3552941,17.5419203 80.3706218,16.5178865 81.4118319,15.8710507 C82.7727176,15.0308028 84.3409397,14.583222 85.9419832,14.5781159 C86.9916227,14.572915 88.0307253,14.7867299 88.9924034,15.2057971 C89.8932891,15.5793156 90.6990061,16.1486723 91.3506555,16.8722464 C91.96,17.5677053 92.4872605,18.5622705 92.932437,19.855942 C93.8775126,18.1290821 95.0607059,16.8177295 96.4820168,15.9218841 C97.8441981,15.0426355 99.4334392,14.5765628 101.056538,14.5803261 C102.487043,14.5531493 103.892817,14.9542784 105.091966,15.7318116 C106.269626,16.5112668 107.177525,17.6333832 107.692034,18.9453623 C108.257008,20.3200725 108.540235,22.3828744 108.541714,25.1337681 L108.541714,37.1304348 L105.631059,37.1304348 L105.631059,25.1249275 C105.631059,22.7674396 105.462454,21.1466667 105.125244,20.2626087 C104.791889,19.3858063 104.185474,18.6383837 103.394824,18.1298188 C102.525281,17.5762459 101.509056,17.2952367 100.477513,17.3231159 C99.1227955,17.3152166 97.8011307,17.739657 96.706084,18.5342754 C95.5669687,19.3398185 94.6961398,20.4667921 94.2058487,21.7699275 C93.6778487,23.1195894 93.4145882,25.3702536 93.4160672,28.5219203 L93.4160672,37.1304348 L90.5764034,37.1304348 L90.5764034,25.8741667 C90.5764034,23.2219928 90.4107563,21.4192512 90.0794622,20.465942 C89.7635534,19.5383878 89.1549808,18.7375035 88.344605,18.1828623 C87.4782868,17.5993305 86.4505005,17.3002682 85.4051092,17.3275362 C84.0841789,17.3295851 82.7968012,17.7421601 81.7224202,18.5077536 C80.5808006,19.2964668 79.6986116,20.4037066 79.1866891,21.6903623 C78.6394622,23.0238164 78.3658487,25.0645169 78.3658487,27.8124638 L78.3658487,37.1304348 L75.5261849,37.1304348 L75.5261849,15.143913 L75.5261849,15.143913 Z" id="Shape" fill="#0078D7"></path>
                <path d="M88.2691765,51.8080072 C88.2618949,51.2167878 88.5138509,50.6518169 88.9591261,50.2609058 C89.3917601,49.8396217 89.9810278,49.6169745 90.5852773,49.6464855 C91.1999158,49.6383059 91.7958179,49.857189 92.2580168,50.2609058 C92.6749518,50.6680152 92.907963,51.2264155 92.9035966,51.8080072 C92.916683,52.3854673 92.6818259,52.9410547 92.2580168,53.3352174 C91.803353,53.7569575 91.2064912,53.9935426 90.5852773,53.9982609 C89.9730673,54.0186712 89.381299,53.7773848 88.9591261,53.3352174 C88.5198471,52.948347 88.2685591,52.3921183 88.2691765,51.8080072 L88.2691765,51.8080072 Z" id="Shape" fill="#0078D7"></path>
                <path d="M103.982723,53.7396739 L103.982723,47.4319203 C103.982723,45.2011473 102.927462,44.0864976 100.816941,44.087971 C99.7816471,44.087971 98.9933445,44.3775 98.4520336,44.956558 C97.9107227,45.5356159 97.6341513,46.3275845 97.6223193,47.3324638 L97.6223193,53.7418841 L96.5130756,53.7418841 L96.5130756,43.1928623 L97.6223193,43.1928623 L97.6223193,44.4681159 C98.1236975,43.5324879 99.1885714,43.0639372 100.816941,43.0624638 C102.192403,43.0624638 103.247664,43.4374517 103.982723,44.1874275 C104.717782,44.9374034 105.087529,45.9850121 105.091966,47.3302536 L105.091966,53.7396739 L103.982723,53.7396739 L103.982723,53.7396739 Z" id="Shape" fill="#0078D7"></path>
                <path d="M108.838992,48.2496739 C108.838992,49.678901 109.241277,50.8112319 110.045849,51.6466667 C110.887395,52.4953623 112.041748,52.9204469 113.508908,52.9219203 C114.205128,52.9322268 114.89698,52.8107267 115.547697,52.5638768 C116.316773,52.2574034 117.005983,51.6363527 117.615328,50.7007246 L118.606992,51.1427536 C117.922209,52.3866736 116.763576,53.3035621 115.392403,53.6866304 C114.783051,53.864298 114.15041,53.949972 113.515563,53.9407971 C111.850218,53.9407971 110.481412,53.4250966 109.409143,52.3936957 C108.330537,51.3834357 107.735748,49.9627583 107.774118,48.4883696 C107.774118,46.9044324 108.310992,45.602657 109.384739,44.5830435 C110.458487,43.56343 111.835429,43.0477295 113.515563,43.035942 C115.160202,43.035942 116.520134,43.5207005 117.595361,44.4902174 C118.670588,45.4597343 119.215597,46.7195169 119.230387,48.2695652 L108.838992,48.2695652 L108.838992,48.2496739 Z M116.408471,44.9035145 C115.555914,44.3210907 114.542508,44.017517 113.508908,44.0349275 C111.216471,44.0349275 109.713815,45.1068478 109.000941,47.2506884 L117.992471,47.2506884 C117.81292,46.2837702 117.239502,45.4340786 116.408471,44.9035145 L116.408471,44.9035145 Z" id="Shape" fill="#0078D7"></path>
                <polygon id="Shape" fill="#0078D7" points="122.176538 44.2382609 122.176538 53.7418841 121.067294 53.7418841 121.067294 44.2382609 119.565378 44.2382609 119.565378 43.1928623 121.067294 43.1928623 121.067294 38.5692391 122.176538 38.5692391 122.176538 43.1928623 124.752202 43.1928623 124.752202 44.2382609"></polygon>
                <path d="M19.7489748,16.2047826 C20.9317895,15.5822108 22.2430004,15.2403239 23.5803025,15.2057971 C24.4388941,15.2048346 25.2918074,15.3444611 26.1049412,15.6190942 C26.1049412,15.6190942 26.659563,15.7428623 26.659563,14.9825725 L26.659563,0.877427536 C26.659563,0.245326087 25.8010084,0.112717391 25.8010084,0.112717391 C25.0689076,0.0419927536 24.3279328,-2.84217094e-14 23.582521,-2.84217094e-14 C17.7368067,-2.84217094e-14 12.4634622,2.25434783 8.3770084,5.79942029 C7.95105882,6.16851449 8.4657479,6.85586957 8.4657479,6.85586957 L18.4622521,15.9705072 C18.7990985,16.3102709 19.3132738,16.4038875 19.7489748,16.2047826 L19.7489748,16.2047826 Z" id="Shape" fill="#FC2F47"></path>
                <path d="M19.7489748,16.2047826 C20.9317895,15.5822108 22.2430004,15.2403239 23.5803025,15.2057971 C24.4388941,15.2048346 25.2918074,15.3444611 26.1049412,15.6190942 C26.1049412,15.6190942 26.659563,15.7428623 26.659563,14.9825725 L26.659563,0.877427536 C26.659563,0.245326087 25.8010084,0.112717391 25.8010084,0.112717391 C25.0689076,0.0419927536 24.3279328,-2.84217094e-14 23.582521,-2.84217094e-14 C17.7368067,-2.84217094e-14 12.4634622,2.25434783 8.3770084,5.79942029 C7.95105882,6.16851449 8.4657479,6.85586957 8.4657479,6.85586957 L18.4622521,15.9705072 C18.7990985,16.3102709 19.3132738,16.4038875 19.7489748,16.2047826 L19.7489748,16.2047826 Z" id="Shape" fill="#0369B3"></path>
                <path d="M26.6529076,14.9847826 C26.6529076,15.7472826 26.0982857,15.6213043 26.0982857,15.6213043 C25.2873929,15.3466361 24.4367838,15.206272 23.5803025,15.2057971 C22.2437087,15.2375921 20.9325373,15.5764432 19.7489748,16.195942 C19.3132738,16.3950469 18.7990985,16.3014304 18.4622521,15.9616667 L8.46131092,6.85586957 C8.46131092,6.85586957 7.94662185,6.16851449 8.37257143,5.79942029 C8.37478992,5.80163043 20.4278319,7.35094203 26.6529076,14.9847826 L26.6529076,14.9847826 Z" id="Shape" fill="#055596"></path>
                <path d="M8.37478992,5.80163043 C8.37478992,5.80163043 20.4278319,7.34873188 26.6617815,14.991413 C26.6617815,15.753913 26.1071597,15.6279348 26.1071597,15.6279348 C26.1071597,15.6279348 17.4350924,7.13655797 8.37478992,5.80163043 L8.37478992,5.80163043 Z" id="Shape" fill="url(#linearGradient-1)"></path>
                <path d="M15.8954622,19.9642391 C15.4077869,21.0018433 15.155557,22.1337415 15.1567059,23.2794565 L15.1567059,56.3807971 C15.1567059,58.9025725 13.0025546,60.9469565 10.3470252,60.9469565 L5.02265546,60.9469565 C2.36047059,60.9469565 0.215193277,58.9025725 0.215193277,56.3807971 L0.215193277,21.9025362 C0.216581521,21.6266248 0.243314874,21.351419 0.295058824,21.0803623 C0.642195237,16.873913 2.16459985,12.8483189 4.68988235,9.45942029 C4.68988235,9.45942029 5.22231933,8.92898551 5.62386555,9.29144928 L15.8289076,18.5983696 C15.8289076,18.5983696 16.3613445,19.0647101 16.1239664,19.5133696 L15.8954622,19.9642391 Z" id="Shape" fill="#0369B3"></path>
                <path d="M4.68988235,9.45942029 C2.16382808,12.8495691 0.641383637,16.8767998 0.295058824,21.0847826 C0.243314874,21.3558392 0.216581521,21.6310451 0.215193277,21.9069565 L0.215193277,56.3852174 C0.215193277,58.9069928 2.36712605,60.9513768 5.02265546,60.9513768 L10.3470252,60.9513768 C11.7357072,60.9596432 13.0624698,60.3795092 13.996437,59.3556522 C13.996437,59.3556522 -0.128672269,36.9845652 5.63052101,9.29144928 C5.22897479,8.92898551 4.68988235,9.45942029 4.68988235,9.45942029 Z" id="Shape" fill="#055596"></path>
                <path d="M4.68988235,9.45942029 C4.68988235,9.45942029 5.22231933,8.92898551 5.62386555,9.29144928 C-0.144201681,36.9823551 13.992,59.3490217 13.992,59.3490217 C13.543159,59.8440914 12.9952791,60.240093 12.3835966,60.511558 C12.3835966,60.511558 1.94117647,41.6965942 4.68988235,9.45942029 L4.68988235,9.45942029 Z" id="Shape" fill="url(#linearGradient-2)"></path>
                <path d="M38.7725042,39.6897826 C34.5982319,43.418878 29.1870695,45.4782194 23.5803025,45.4715217 C22.7041631,45.4697997 21.8287731,45.4203661 20.9580504,45.323442 C20.8815509,45.3274644 20.8052637,45.3122643 20.7362017,45.2792391 C20.664662,45.2403632 20.617861,45.1679279 20.6119664,45.0869565 L20.6119664,31.0370652 C20.6147367,30.8801872 20.6755702,30.729856 20.7827899,30.6149275 C20.9052139,30.5307133 21.059071,30.5055724 21.202084,30.546413 C21.9745523,30.7921205 22.7805091,30.9173681 23.591395,30.9177174 C25.1539962,30.920128 26.685365,30.4818312 28.0084034,29.6535145 C28.0084034,29.6535145 28.421042,29.3617754 28.6406723,29.5628986 L38.8457143,38.8698188 C38.8457143,38.8698188 39.1185882,39.0908333 39.067563,39.3118478 C39.0108774,39.4652316 38.9077763,39.5972918 38.7725042,39.6897826 L38.7725042,39.6897826 Z" id="Shape" fill="#40F2E9"></path>
                <path d="M38.7725042,39.6897826 C34.5982319,43.418878 29.1870695,45.4782194 23.5803025,45.4715217 C22.7041631,45.4697997 21.8287731,45.4203661 20.9580504,45.323442 C20.8815509,45.3274644 20.8052637,45.3122643 20.7362017,45.2792391 C20.664662,45.2403632 20.617861,45.1679279 20.6119664,45.0869565 L20.6119664,31.0370652 C20.6147367,30.8801872 20.6755702,30.729856 20.7827899,30.6149275 C20.9052139,30.5307133 21.059071,30.5055724 21.202084,30.546413 C21.9745523,30.7921205 22.7805091,30.9173681 23.591395,30.9177174 C25.1539962,30.920128 26.685365,30.4818312 28.0084034,29.6535145 C28.0084034,29.6535145 28.421042,29.3617754 28.6406723,29.5628986 L38.8457143,38.8698188 C38.8457143,38.8698188 39.1185882,39.0908333 39.067563,39.3118478 C39.0108774,39.4652316 38.9077763,39.5972918 38.7725042,39.6897826 L38.7725042,39.6897826 Z" id="Shape" fill="#41EFB5"></path>
                <path d="M38.7725042,39.6897826 C34.5982319,43.418878 29.1870695,45.4782194 23.5803025,45.4715217 C22.7041631,45.4697997 21.8287731,45.4203661 20.9580504,45.323442 C20.8815509,45.3274644 20.8052637,45.3122643 20.7362017,45.2792391 C20.664662,45.2403632 20.617861,45.1679279 20.6119664,45.0869565 L20.6119664,31.0370652 C20.6147367,30.8801872 20.6755702,30.729856 20.7827899,30.6149275 C20.9052139,30.5307133 21.059071,30.5055724 21.202084,30.546413 C21.9745523,30.7921205 22.7805091,30.9173681 23.591395,30.9177174 C25.1539962,30.920128 26.685365,30.4818312 28.0084034,29.6535145 C28.0084034,29.6535145 28.421042,29.3617754 28.6406723,29.5628986 L38.8457143,38.8698188 C38.8457143,38.8698188 39.1185882,39.0908333 39.067563,39.3118478 C39.0108774,39.4652316 38.9077763,39.5972918 38.7725042,39.6897826 L38.7725042,39.6897826 Z" id="Shape" fill="#0369B3"></path>
                <path d="M39.0475966,39.3118478 C38.97295,39.4499833 38.8804662,39.577785 38.7725042,39.6919928 C34.5982319,43.4210882 29.1870695,45.4804296 23.5803025,45.4737319 C22.7041631,45.4720099 21.8287731,45.4225762 20.9580504,45.3256522 C20.8815509,45.3296745 20.8052637,45.3144745 20.7362017,45.2814493 C20.664662,45.2425733 20.617861,45.170138 20.6119664,45.0891667 L20.6119664,31.0370652 C20.6147367,30.8801872 20.6755702,30.729856 20.7827899,30.6149275 C20.9052139,30.5307133 21.059071,30.5055724 21.202084,30.546413 C21.202084,30.546413 25.2863193,39.9594203 39.0475966,39.3118478 L39.0475966,39.3118478 Z" id="Shape" fill="#055596"></path>
                <path d="M20.7716975,30.6171377 C20.6696471,30.4248551 21.1909916,30.5486232 21.1909916,30.5486232 C21.1909916,30.5486232 25.2863193,39.9616304 39.0475966,39.3118478 C38.97295,39.4499833 38.8804662,39.577785 38.7725042,39.6919928 C38.7725042,39.6919928 27.4737479,43.2746377 20.7716975,30.6171377 L20.7716975,30.6171377 Z" id="Shape" fill="url(#linearGradient-3)"></path>
                <path d="M42.0181513,36.1226087 C44.6803361,32.3078986 46.3974454,27.7439493 46.3974454,22.7357609 C46.3974454,13.2896014 40.560605,5.31981884 32.3832605,1.75927536 C31.7509916,1.48521739 31.5624202,2.30297101 31.5624202,2.30297101 L31.6134454,22.9987681 C31.6134454,23.2197826 31.6134454,23.7148551 31.589042,23.9646014 C31.5093834,24.7780615 31.2926315,25.5723206 30.9478992,26.3139855 C30.9478992,26.3139855 30.6262185,26.7560145 30.710521,26.9593478 C30.8297596,27.1677695 30.9743098,27.3607681 31.1409076,27.5339855 L40.7824538,36.325942 C40.9641193,36.4869853 41.2091016,36.5576254 41.4490245,36.5181462 C41.6889475,36.478667 41.8981166,36.3332965 42.0181513,36.1226087 L42.0181513,36.1226087 Z" id="Shape" fill="#FFDA00"></path>
                <path d="M30.7127395,26.961558 C30.533042,27.0963768 30.9501176,26.3161957 30.9501176,26.3161957 C31.29485,25.5745308 31.5116019,24.7802716 31.5912605,23.9668116 C31.6245378,23.7170652 31.6156639,23.2219928 31.6156639,23.0009783 L31.5646387,2.30518116 C31.5646387,2.30518116 31.7532101,1.48742754 32.385479,1.76148551 C35.8917423,3.28515145 38.9770296,5.62946202 41.3792269,8.59525362 C41.3792269,8.59525362 40.4075294,19.626087 30.7127395,26.961558 L30.7127395,26.961558 Z" id="Shape" fill="#DDB81B"></path>
                <path d="M41.3792269,8.59304348 C41.3792269,8.59304348 40.4075294,19.626087 30.7127395,26.961558 C30.533042,27.0963768 30.9501176,26.3161957 30.9501176,26.3161957 C30.9501176,26.3161957 39.4069916,17.8469203 40.4541176,7.51891304 C41.2816134,7.69130435 41.3792269,8.59304348 41.3792269,8.59304348 L41.3792269,8.59304348 Z" id="Shape" fill="url(#linearGradient-4)"></path>
            </g>
        </g>
    </g>
</svg>