<?xml version="1.0" encoding="UTF-8"?>
<svg width="18px" height="20px" viewBox="0 0 18 20" version="1.1" xmlns="http://www.w3.org/2000/svg" xmlns:xlink="http://www.w3.org/1999/xlink">
    <!-- Generator: Sketch 46.2 (44496) - http://www.bohemiancoding.com/sketch -->
    <title>nav/icon/archive-normal copy 7@svg</title>
    <desc>Created with Sketch.</desc>
    <defs></defs>
    <g id="Symbols" stroke="none" stroke-width="1" fill="none" fill-rule="evenodd">
        <g id="main-nav/sales" transform="translate(-652.000000, -15.000000)" fill="#FFFFFF">
            <g id="main-nav">
                <g id="Nav-Left" transform="translate(16.000000, 3.000000)">
                    <g id="nav-archive" transform="translate(635.000000, 11.000000)">
                        <g id="nav/icon/Transactions" transform="translate(0.000000, 1.000000)">
                            <path d="M16.5,20 L3.5,20 C2.5095443,20 1.5,19.0139672 1.5,18 L1.5,2 C1.5,0.986032787 2.5095443,0 3.5,0 L13.5,0 C15.6488037,0 15.4976807,4.99914551 15.4976807,4.99914551 L18.5,5 L18.5,18 C18.5,19.0139672 17.4904557,20 16.5,20 Z M15,0.5 C16,1.89978027 16,4.5 16,4.5 L18.5,4.5 C18.5,4.5 17.1229297,2.96838379 15,0.5 Z M15.7790663,11.2501484 C15.8364228,11.3017173 15.884765,11.3635836 15.9213675,11.4330486 C16.0384514,11.6518068 16.0250355,11.9238469 15.8794184,12.1320102 C15.859051,12.1613627 15.8360696,12.1892696 15.8104887,12.2153632 L12.7799011,15.3066904 C12.5272785,15.5643762 12.1185188,15.5652151 11.8629587,15.3045331 C11.609168,15.0456559 11.6128209,14.622207 11.8608438,14.3692132 L13.779916,12.4116785 L10.1468807,12.4116785 C9.78961835,12.4116785 9.5,12.117442 9.5,11.7487819 C9.5,11.3826743 9.79612338,11.0858854 10.1468807,11.0858854 L13.779916,11.0858854 L11.8608438,9.12835067 C11.6082212,8.87066494 11.6073987,8.45371278 11.8629587,8.19303074 C12.1167494,7.93415354 12.5318782,7.93787961 12.7799011,8.1908734 L15.7790663,11.2501484 Z M3.72093375,8.75014844 L6.72009889,5.6908734 C6.96812176,5.43787961 7.3832506,5.43415354 7.63704128,5.69303074 C7.89260133,5.95371278 7.89177885,6.37066494 7.63915623,6.62835067 L5.72008396,8.58588539 L9.35311932,8.58588539 C9.70387662,8.58588539 10,8.88267427 10,9.24878192 C10,9.617442 9.71038165,9.91167845 9.35311932,9.91167845 L5.72008396,9.91167845 L7.63915623,11.8692132 C7.88717909,12.122207 7.89083195,12.5456559 7.63704128,12.8045331 C7.38148122,13.0652151 6.97272151,13.0643762 6.72009889,12.8066904 L3.68951134,9.71536322 C3.66393042,9.6892696 3.64094905,9.66136274 3.62058156,9.63201019 C3.47496448,9.42384689 3.4615486,9.15180678 3.57863245,8.93304864 C3.61523503,8.86358365 3.66357721,8.80171734 3.72093375,8.75014844 Z" id="Combined-Shape"></path>
                        </g>
                    </g>
                </g>
            </g>
        </g>
    </g>
</svg>