<?xml version="1.0" encoding="UTF-8"?>
<svg width="18px" height="20px" viewBox="0 0 18 20" version="1.1" xmlns="http://www.w3.org/2000/svg" xmlns:xlink="http://www.w3.org/1999/xlink">
    <!-- Generator: Sketch 46.2 (44496) - http://www.bohemiancoding.com/sketch -->
    <title>nav/icon/archive-normal copy 6@svg</title>
    <desc>Created with Sketch.</desc>
    <defs></defs>
    <g id="Symbols" stroke="none" stroke-width="1" fill="none" fill-rule="evenodd">
        <g id="main-nav/sales" transform="translate(-550.000000, -15.000000)" fill="#FFFFFF">
            <g id="main-nav">
                <g id="Nav-Left" transform="translate(16.000000, 3.000000)">
                    <g id="nav-archive" transform="translate(533.000000, 11.000000)">
                        <g id="nav/icon/invoice" transform="translate(0.000000, 1.000000)">
                            <path d="M16.5,20 L3.5,20 C2.5095443,20 1.5,19.0139672 1.5,18 L1.5,2 C1.5,0.986032787 2.5095443,0 3.5,0 L13.5,0 C15.6488037,0 15.4976807,4.99914551 15.4976807,4.99914551 L18.5,5 L18.5,18 C18.5,19.0139672 17.4904557,20 16.5,20 Z M15,0.5 C16,1.89978027 16,4.5 16,4.5 L18.5,4.5 C18.5,4.5 17.1229297,2.96838379 15,0.5 Z M12.5,9.47359525 C12.4954012,9.16717523 12.0751456,8.74599199 11.3905669,8.50701904 C10.2802359,8.11942431 9.35163762,7.80175114 8.60943308,7.53149414 C7.12558874,6.99118579 6.5,6.43389893 6.5,5.5 C6.5,3.92016602 7.5,3 9.5,3 L9.5,2 L10.5,2 L10.5,3 C12.1081275,3 13.5,3.64782715 13.5,5.0078125 C13.5,5.63549805 12.5,5.73651123 12.5,5 C12.5,4.21136475 11.1117554,4 9.99674444,4 C8.52642198,4 7.48114014,4.24334717 7.5,5.5 C7.50666692,5.94422402 7.94280483,6.17497539 8.60943308,6.43389893 C9.5,6.77980195 10.5,7.09894665 11.3905669,7.42452966 C12.9730184,8.00305928 13.5,8.76399626 13.5,9.47359525 C13.5,10.9425894 12.5,11.9735953 10.5,11.9735953 L10.5,12.9735953 L9.5,12.9735953 L9.5,11.9735953 C7.89187248,11.9735953 6.5,11.3257681 6.5,9.96578275 C6.5,9.33809721 7.5,9.23708402 7.5,9.97359525 C7.5,10.7622305 8.88824463,10.9735953 10.0032556,10.9735953 C11.473578,10.9735953 12.5188599,10.7302481 12.5,9.47359525 Z M15.5,15.5 C15.5,15.7761424 15.2702494,16 14.9987692,16 L5.00123084,16 C4.72440869,16 4.5,15.7680664 4.5,15.5 C4.5,15.2238576 4.72975063,15 5.00123084,15 L14.9987692,15 C15.2755913,15 15.5,15.2319336 15.5,15.5 Z M15.5,17.5 C15.5,17.7761424 15.2702494,18 14.9987692,18 L5.00123084,18 C4.72440869,18 4.5,17.7680664 4.5,17.5 C4.5,17.2238576 4.72975063,17 5.00123084,17 L14.9987692,17 C15.2755913,17 15.5,17.2319336 15.5,17.5 Z" id="Sales"></path>
                        </g>
                    </g>
                </g>
            </g>
        </g>
    </g>
</svg>