<?xml version="1.0" encoding="UTF-8"?>
<svg width="24px" height="24px" viewBox="0 0 24 24" version="1.1" xmlns="http://www.w3.org/2000/svg" xmlns:xlink="http://www.w3.org/1999/xlink">
    <!-- Generator: Sketch 46.2 (44496) - http://www.bohemiancoding.com/sketch -->
    <title>DB / Icons / Bubble-Map@1.5x</title>
    <desc>Created with Sketch.</desc>
    <defs></defs>
    <g id="Dashboards-1.0.0.0" stroke="none" stroke-width="1" fill="none" fill-rule="evenodd">
        <g id="D.1.3.1.0-Edit" transform="translate(-39.000000, -541.000000)">
            <g id="Components-Bar" transform="translate(20.000000, 163.000000)">
                <g id="Stacked-Group" transform="translate(2.000000, 2.000000)">
                    <g id="Stacked-Group-4" transform="translate(17.000000, 336.000000)">
                        <g id="Map-1">
                            <g id="DB-/-Icons-/-Bubble-Map" transform="translate(0.000000, 40.000000)">
                                <g stroke-width="1" id="Path">
                                    <path d="M17,6 L17,6 L17,6 C18.6568542,6 20,7.34314575 20,9 L20,9 L20,9 C20,10.6568542 18.6568542,12 17,12 L17,12 L17,12 C15.3431458,12 14,10.6568542 14,9 L14,9 L14,9 C14,7.34314575 15.3431458,6 17,6 Z" fill="#4E546C"></path>
                                    <path d="M9,4 L9,4 L9,4 C10.1045695,4 11,4.8954305 11,6 L11,6 L11,6 C11,7.1045695 10.1045695,8 9,8 L9,8 L9,8 C7.8954305,8 7,7.1045695 7,6 L7,6 L7,6 C7,4.8954305 7.8954305,4 9,4 Z" fill="#ACBBCB"></path>
                                    <path d="M9,10 L9,10 L9,10 C11.7614237,10 14,12.2385763 14,15 L14,15 L14,15 C14,17.7614237 11.7614237,20 9,20 L9,20 L9,20 C6.23857625,20 4,17.7614237 4,15 L4,15 L4,15 C4,12.2385763 6.23857625,10 9,10 Z" fill="#4A90E2"></path>
                                </g>
                                <path d="M0,0 L24,0 L24,24 L0,24 L0,0 Z M1,1 L1,23 L23,23 L23,1 L1,1 Z" id="DB-/-Icons-/-Grid" fill="#4E546C"></path>
                            </g>
                        </g>
                    </g>
                </g>
            </g>
        </g>
    </g>
</svg>