<?xml version="1.0" encoding="UTF-8"?>
<svg width="24px" height="24px" viewBox="0 0 24 24" version="1.1" xmlns="http://www.w3.org/2000/svg" xmlns:xlink="http://www.w3.org/1999/xlink">
    <!-- Generator: Sketch 46.2 (44496) - http://www.bohemiancoding.com/sketch -->
    <title>DB / Icons / Components / Candle-Stick@1.5x</title>
    <desc>Created with Sketch.</desc>
    <defs></defs>
    <g id="Symbols" stroke="none" stroke-width="1" fill="none" fill-rule="evenodd">
        <g id="DB-/-Icons-/-Components-/-Candle-Stick">
            <g id="DB-/-Icons-/-Candle-Stick">
                <g id="DB-/-Icons-/-Bubble-Map"></g>
                <path d="M0,0 L24,0 L24,24 L0,24 L0,0 Z M1,1 L1,23 L23,23 L23,1 L1,1 Z" id="DB-/-Icons-/-Bubble" fill="#4E546C"></path>
                <path d="M15,3 L17,3 L17,6 L15,6 L15,3 Z M15,16 L17,16 L17,19 L15,19 L15,16 Z M13,6 L19,6 L19,16 L13,16 L13,6 Z M15,8 L15,14 L17,14 L17,8 L15,8 Z" id="Combined-Shape" fill="#4E546C"></path>
                <path d="M7,5 L9,5 L9,8 L7,8 L7,5 Z M7,18 L9,18 L9,21 L7,21 L7,18 Z M5,8 L11,8 L11,18 L5,18 L5,8 Z" id="Combined-Shape" fill="#4A90E2"></path>
            </g>
        </g>
    </g>
</svg>