<?xml version="1.0" encoding="UTF-8"?>
<svg width="24px" height="24px" viewBox="0 0 24 24" version="1.1" xmlns="http://www.w3.org/2000/svg" xmlns:xlink="http://www.w3.org/1999/xlink">
    <!-- Generator: Sketch 46.2 (44496) - http://www.bohemiancoding.com/sketch -->
    <title>DB / Icons / Cards@1.5x</title>
    <desc>Created with Sketch.</desc>
    <defs></defs>
    <g id="Dashboards-1.0.0.0" stroke="none" stroke-width="1" fill="none" fill-rule="evenodd">
        <g id="D.1.3.1.0-Edit" transform="translate(-39.000000, -333.000000)">
            <g id="Components-Bar" transform="translate(20.000000, 163.000000)">
                <g id="Stacked-Group" transform="translate(2.000000, 2.000000)">
                    <g id="Stacked-Group-5" transform="translate(17.000000, 48.000000)">
                        <g id="Com-1">
                            <g id="DB-/-Icons-/-Cards" transform="translate(0.000000, 120.000000)">
                                <g stroke-width="1">
                                    <path d="M4,7 L20,7 L20,20 L4,20 L4,7 Z M6,9 L6,18 L18,18 L18,9 L6,9 Z" id="DB-/-Icons-/-Grid" fill="#4A90E2"></path>
                                    <polygon id="Path" fill="#4E546C" points="8 11 11 11 11 13 8 13"></polygon>
                                    <polygon id="Path" fill="#4E546C" points="8 14 16 14 16 16 8 16"></polygon>
                                    <polygon id="Path" fill="#4E546C" points="6 4 18 4 18 6 6 6"></polygon>
                                </g>
                                <path d="M0,0 L24,0 L24,24 L0,24 L0,0 Z M1,1 L1,23 L23,23 L23,1 L1,1 Z" id="DB-/-Icons-/-Grid" fill="#4E546C"></path>
                            </g>
                        </g>
                    </g>
                </g>
            </g>
        </g>
    </g>
</svg>