<?xml version="1.0" encoding="UTF-8"?>
<svg width="22px" height="22px" viewBox="0 0 22 22" version="1.1" xmlns="http://www.w3.org/2000/svg" xmlns:xlink="http://www.w3.org/1999/xlink">
    <!-- Generator: Sketch 46.2 (44496) - http://www.bohemiancoding.com/sketch -->
    <title>nav/icon/configurations-active copy 2@svg</title>
    <desc>Created with Sketch.</desc>
    <defs>
        <path d="M5.26166667,1.55166667 C5.26166667,0.997130556 4.78996,0.95 4.20875,0.95 C3.62648708,0.95 3.15583333,0.997130556 3.15583333,1.55166667 L3.15583333,9.975 L5.26166667,9.975 L5.26166667,1.55166667 Z M3.15583333,18.3983333 C3.15583333,18.9508639 3.62648708,19 4.20875,19 C4.78996,19 5.26166667,18.9508639 5.26166667,18.3983333 L5.26166667,14.9888889 L3.15583333,14.9888889 L3.15583333,18.3983333 Z M6.73469708,10.9777778 L1.68069708,10.9777778 C1.09843417,10.9777778 1.05,11.4270222 1.05,11.9805556 L1.05,12.9833333 C1.05,13.5378694 1.09843417,13.9861111 1.68069708,13.9861111 L6.73575,13.9861111 C7.31485417,13.9861111 7.3675,13.5378694 7.3675,12.9833333 L7.3675,11.9805556 C7.3675,11.4270222 7.31485417,10.9777778 6.73469708,10.9777778 Z M19.3696971,11.9805556 L14.3146442,11.9805556 C13.7334342,11.9805556 13.685,12.4298 13.685,12.9833333 L13.685,13.9861111 C13.685,14.5406472 13.7334342,14.9888889 14.3156971,14.9888889 L19.37075,14.9888889 C19.9498542,14.9888889 20.0025,14.5406472 20.0025,13.9861111 L20.0025,12.9833333 C20.0025,12.4298 19.9498542,11.9805556 19.3696971,11.9805556 Z M13.685,6.96666667 C13.685,6.41313333 13.6323542,5.96388889 13.0521971,5.96388889 L7.99819708,5.96388889 C7.41593417,5.96388889 7.3675,6.41313333 7.3675,6.96666667 L7.3675,7.96944444 C7.3675,8.52398056 7.41593417,8.97222222 7.99819708,8.97222222 L13.05325,8.97222222 C13.6323542,8.97222222 13.685,8.52398056 13.685,7.96944444 L13.685,6.96666667 Z M11.5791667,1.55166667 C11.5791667,0.997130556 11.10746,0.95 10.52625,0.95 C9.94398708,0.95 9.47333333,0.997130556 9.47333333,1.55166667 L9.47333333,4.96111111 L11.5791667,4.96111111 L11.5791667,1.55166667 Z M9.47333333,18.3983333 C9.47333333,18.9508639 9.94398708,19 10.52625,19 C11.10746,19 11.5791667,18.9508639 11.5791667,18.3983333 L11.5791667,9.975 L9.47333333,9.975 L9.47333333,18.3983333 Z M17.8966667,1.55166667 C17.8966667,0.997130556 17.42496,0.95 16.84375,0.95 C16.2614871,0.95 15.7908333,0.997130556 15.7908333,1.55166667 L15.7908333,10.9777778 L17.8966667,10.9777778 L17.8966667,1.55166667 Z M15.7908333,18.3983333 C15.7908333,18.9508639 16.2614871,19 16.84375,19 C17.42496,19 17.8966667,18.9508639 17.8966667,18.3983333 L17.8966667,15.9916667 L15.7908333,15.9916667 L15.7908333,18.3983333 Z" id="path-1"></path>
        <filter x="-18.5%" y="-13.9%" width="136.9%" height="138.8%" filterUnits="objectBoundingBox" id="filter-2">
            <feOffset dx="0" dy="1" in="SourceAlpha" result="shadowOffsetOuter1"></feOffset>
            <feGaussianBlur stdDeviation="1" in="shadowOffsetOuter1" result="shadowBlurOuter1"></feGaussianBlur>
            <feColorMatrix values="0 0 0 0 0   0 0 0 0 0   0 0 0 0 0  0 0 0 0.2 0" type="matrix" in="shadowBlurOuter1"></feColorMatrix>
        </filter>
    </defs>
    <g id="Symbols" stroke="none" stroke-width="1" fill="none" fill-rule="evenodd">
        <g id="main-nav/sales" transform="translate(-782.000000, -15.000000)">
            <g id="main-nav">
                <g id="Nav-Left" transform="translate(16.000000, 3.000000)">
                    <g id="nav-configurations" transform="translate(766.000000, 11.000000)">
                        <g id="nav/icon/configurations-active" transform="translate(0.000000, 1.000000)">
                            <g id="Page-1">
                                <use fill="black" fill-opacity="1" filter="url(#filter-2)" xlink:href="#path-1"></use>
                                <use fill="#B0BEC5" fill-rule="evenodd" xlink:href="#path-1"></use>
                                <use fill="#FFFFFF" fill-rule="evenodd" xlink:href="#path-1"></use>
                            </g>
                        </g>
                    </g>
                </g>
            </g>
        </g>
    </g>
</svg>