<?xml version="1.0" encoding="UTF-8"?>
<svg width="22px" height="20px" viewBox="0 0 22 20" version="1.1" xmlns="http://www.w3.org/2000/svg" xmlns:xlink="http://www.w3.org/1999/xlink">
    <!-- Generator: Sketch 46.2 (44496) - http://www.bohemiancoding.com/sketch -->
    <title>nav/icon/dashboard-normal copy 2@svg</title>
    <desc>Created with Sketch.</desc>
    <defs>
        <path d="M19.5,10.9766585 C19.5,12.8169917 19.0016741,14.5198288 18.0050223,16.0851697 C17.8707217,16.2896512 17.6798735,16.3918919 17.4324777,16.3918919 L2.56752232,16.3918919 C2.32012649,16.3918919 2.12927828,16.2896512 1.99497768,16.0851697 C0.998325893,14.5268799 0.5,12.8240428 0.5,10.9766585 C0.5,9.69336098 0.750930063,8.46647216 1.25279018,7.29599201 C1.75465029,6.12551187 2.4296875,5.1172067 3.27790179,4.27107647 C4.12611607,3.42494625 5.13690476,2.75156762 6.31026786,2.25094057 C7.48363096,1.75031353 8.71354167,1.5 10,1.5 C11.2864583,1.5 12.516369,1.75031353 13.6897321,2.25094057 C14.8630952,2.75156762 15.8738839,3.42494625 16.7220982,4.27107647 C17.5703125,5.1172067 18.2453497,6.12551187 18.7472098,7.29599201 C19.2490699,8.46647216 19.5,9.69336098 19.5,10.9766585 Z M4.57142857,10.9792437 C4.57142857,10.6054342 4.43889509,10.2862856 4.17382813,10.0217978 C3.90876116,9.75730994 3.58891369,9.62506603 3.21428571,9.62506603 C2.83965774,9.62506603 2.51981027,9.75730994 2.2547433,10.0217978 C1.98967634,10.2862856 1.85714286,10.6054342 1.85714286,10.9792437 C1.85714286,11.3530532 1.98967634,11.6722018 2.2547433,11.9366896 C2.51981027,12.2011775 2.83965774,12.3334214 3.21428571,12.3334214 C3.58891369,12.3334214 3.90876116,12.2011775 4.17382813,11.9366896 C4.43889509,11.6722018 4.57142857,11.3530532 4.57142857,10.9792437 Z M6.60714286,6.23962185 C6.60714286,5.86581239 6.47460937,5.54666375 6.20954241,5.28217592 C5.94447545,5.01768809 5.62462797,4.88544418 5.25,4.88544418 C4.87537203,4.88544418 4.55552455,5.01768809 4.29045759,5.28217592 C4.02539062,5.54666375 3.89285714,5.86581239 3.89285714,6.23962185 C3.89285714,6.61343131 4.02539062,6.93257996 4.29045759,7.19706778 C4.55552455,7.46155561 4.87537203,7.59379952 5.25,7.59379952 C5.62462797,7.59379952 5.94447545,7.46155561 6.20954241,7.19706778 C6.47460937,6.93257996 6.60714286,6.61343131 6.60714286,6.23962185 Z M11.1450893,11.3283676 L12.2159598,7.28699364 C12.2583705,7.10361542 12.2318638,6.93257996 12.1364397,6.77388726 C12.0410156,6.61519456 11.9049479,6.51116269 11.7282366,6.46179163 C11.5515253,6.41242056 11.3818824,6.43534284 11.219308,6.53055846 C11.0567336,6.62577408 10.9507068,6.765071 10.9012277,6.94844923 L9.83035714,10.9898232 C9.40625,11.0250883 9.02808779,11.1784912 8.69587054,11.450032 C8.36365328,11.7215729 8.14099703,12.0689335 8.02790179,12.4921141 C7.88653274,13.0351957 7.95721726,13.5500654 8.23995536,14.036723 C8.52269346,14.5233806 8.93619792,14.8372395 9.48046875,14.9782996 C10.0247396,15.1193598 10.5407366,15.0488297 11.0284598,14.7667094 C11.516183,14.484589 11.8307292,14.071988 11.9720982,13.5289063 C12.0851935,13.1057258 12.0639881,12.6931248 11.9084821,12.2911033 C11.7529762,11.8890818 11.4985119,11.5681699 11.1450893,11.3283676 Z M18.1428571,10.9792437 C18.1428571,10.6054342 18.0103237,10.2862856 17.7452567,10.0217978 C17.4801897,9.75730994 17.1603423,9.62506603 16.7857143,9.62506603 C16.4110863,9.62506603 16.0912388,9.75730994 15.8261719,10.0217978 C15.5611049,10.2862856 15.4285714,10.6054342 15.4285714,10.9792437 C15.4285714,11.3530532 15.5611049,11.6722018 15.8261719,11.9366896 C16.0912388,12.2011775 16.4110863,12.3334214 16.7857143,12.3334214 C17.1603423,12.3334214 17.4801897,12.2011775 17.7452567,11.9366896 C18.0103237,11.6722018 18.1428571,11.3530532 18.1428571,10.9792437 Z M11.3571429,4.20835534 C11.3571429,3.83454589 11.2246094,3.51539724 10.9595424,3.25090941 C10.6944754,2.98642158 10.374628,2.85417767 10,2.85417767 C9.62537203,2.85417767 9.30552455,2.98642158 9.04045759,3.25090941 C8.77539062,3.51539724 8.64285714,3.83454589 8.64285714,4.20835534 C8.64285714,4.5821648 8.77539062,4.90131345 9.04045759,5.16580128 C9.30552455,5.4302891 9.62537203,5.56253302 10,5.56253302 C10.374628,5.56253302 10.6944754,5.4302891 10.9595424,5.16580128 C11.2246094,4.90131345 11.3571429,4.5821648 11.3571429,4.20835534 Z M16.1071429,6.23962185 C16.1071429,5.86581239 15.9746094,5.54666375 15.7095424,5.28217592 C15.4444754,5.01768809 15.124628,4.88544418 14.75,4.88544418 C14.375372,4.88544418 14.0555246,5.01768809 13.7904576,5.28217592 C13.5253906,5.54666375 13.3928571,5.86581239 13.3928571,6.23962185 C13.3928571,6.61343131 13.5253906,6.93257996 13.7904576,7.19706778 C14.0555246,7.46155561 14.375372,7.59379952 14.75,7.59379952 C15.124628,7.59379952 15.4444754,7.46155561 15.7095424,7.19706778 C15.9746094,6.93257996 16.1071429,6.61343131 16.1071429,6.23962185 Z" id="path-1"></path>
        <filter x="-18.4%" y="-16.8%" width="136.8%" height="147.0%" filterUnits="objectBoundingBox" id="filter-3">
            <feOffset dx="0" dy="1" in="SourceAlpha" result="shadowOffsetOuter1"></feOffset>
            <feGaussianBlur stdDeviation="1" in="shadowOffsetOuter1" result="shadowBlurOuter1"></feGaussianBlur>
            <feColorMatrix values="0 0 0 0 0   0 0 0 0 0   0 0 0 0 0  0 0 0 0.2 0" type="matrix" in="shadowBlurOuter1"></feColorMatrix>
        </filter>
    </defs>
    <g id="Symbols" stroke="none" stroke-width="1" fill="none" fill-rule="evenodd">
        <g id="main-nav/sales" transform="translate(-123.000000, -15.000000)">
            <g id="main-nav">
                <g id="Nav-Left" transform="translate(16.000000, 3.000000)">
                    <g id="nav-dashboard" transform="translate(108.000000, 11.000000)">
                        <g id="nav/icon/dashboard-normal" transform="translate(0.000000, 1.000000)">
                            <mask id="mask-2" fill="white">
                                <use xlink:href="#path-1"></use>
                            </mask>
                            <g id="dashboard-icon-shape">
                                <use fill="black" fill-opacity="1" filter="url(#filter-3)" xlink:href="#path-1"></use>
                                <use fill="#FFFFFF" fill-rule="evenodd" xlink:href="#path-1"></use>
                            </g>
                        </g>
                    </g>
                </g>
            </g>
        </g>
    </g>
</svg>