<?xml version="1.0" encoding="UTF-8"?>
<svg width="12px" height="12px" viewBox="0 0 12 12" version="1.1" xmlns="http://www.w3.org/2000/svg" xmlns:xlink="http://www.w3.org/1999/xlink">
    <!-- Generator: Sketch 46.2 (44496) - http://www.bohemiancoding.com/sketch -->
    <title>DB / Icons / Field-Type / Text@1.5x</title>
    <desc>Created with Sketch.</desc>
    <defs></defs>
    <g id="Symbols" stroke="none" stroke-width="1" fill="none" fill-rule="evenodd">
        <g id="DB-/-Icons-/-Field-Type-/-Text">
            <g id="DB-/-Icons-/-Input-/-Text">
                <rect id="Rectangle-7" fill="#E45350" x="0" y="0" width="12" height="12" rx="1"></rect>
                <path d="M4.63183594,8.31835938 L4.47119141,7.79199219 L4.44384766,7.79199219 C4.26155508,8.02213657 4.07812592,8.1787919 3.89355469,8.26196289 C3.70898345,8.34513388 3.47200666,8.38671875 3.18261719,8.38671875 C2.81119606,8.38671875 2.52124128,8.28645934 2.31274414,8.0859375 C2.104247,7.88541566 2,7.60172709 2,7.23486328 C2,6.8452129 2.14469256,6.55127052 2.43408203,6.35302734 C2.7234715,6.15478417 3.16438506,6.04654957 3.75683594,6.02832031 L4.40966797,6.0078125 L4.40966797,5.80615234 C4.40966797,5.56461468 4.35327205,5.3840338 4.24047852,5.2644043 C4.12768498,5.14477479 3.95280066,5.08496094 3.71582031,5.08496094 C3.52213445,5.08496094 3.33642667,5.11344373 3.15869141,5.17041016 C2.98095614,5.22737659 2.81005941,5.29459597 2.64599609,5.37207031 L2.38623047,4.79785156 C2.59130962,4.69075467 2.81575399,4.6092939 3.05957031,4.5534668 C3.30338664,4.49763969 3.53352756,4.46972656 3.75,4.46972656 C4.23079667,4.46972656 4.5936674,4.57454322 4.83862305,4.78417969 C5.0835787,4.99381615 5.20605469,5.32307718 5.20605469,5.77197266 L5.20605469,8.31835938 L4.63183594,8.31835938 Z M3.43554688,7.77148438 C3.727215,7.77148438 3.96134352,7.6900236 4.13793945,7.52709961 C4.31453539,7.36417562 4.40283203,7.13574366 4.40283203,6.84179688 L4.40283203,6.51367188 L3.91748047,6.53417969 C3.53922337,6.54785163 3.26407964,6.61108342 3.09204102,6.72387695 C2.9200024,6.83667049 2.83398438,7.00927618 2.83398438,7.24169922 C2.83398438,7.41031985 2.88411408,7.54077102 2.984375,7.63305664 C3.08463592,7.72534226 3.23502504,7.77148438 3.43554688,7.77148438 Z M8.05830078,4.46972656 C8.52998282,4.46972656 8.89741079,4.64062329 9.1605957,4.98242188 C9.42378061,5.32422046 9.55537109,5.80387061 9.55537109,6.42138672 C9.55537109,7.04118148 9.42207164,7.52367991 9.15546875,7.86889648 C8.88886585,8.21411305 8.51858961,8.38671875 8.0446289,8.38671875 C7.56611089,8.38671875 7.19469533,8.21468271 6.93037109,7.87060547 L6.87568359,7.87060547 L6.72871093,8.31835938 L6.12714843,8.31835938 L6.12714843,3 L6.93037109,3 L6.93037109,4.26464844 C6.93037109,4.35807338 6.92581384,4.49706939 6.91669922,4.68164062 C6.90758459,4.86621186 6.90074872,4.98356095 6.8961914,5.03369141 L6.93037109,5.03369141 C7.1855807,4.65771296 7.5615535,4.46972656 8.05830078,4.46972656 Z M7.84980468,5.12597656 C7.52623536,5.12597656 7.29324615,5.22110907 7.15083008,5.41137695 C7.008414,5.60164483 6.93492841,5.9200824 6.93037109,6.36669922 L6.93037109,6.42138672 C6.93037109,6.88167548 7.00328703,7.2149241 7.14912109,7.42114258 C7.29495515,7.62736106 7.53307126,7.73046875 7.86347656,7.73046875 C8.14830871,7.73046875 8.36420825,7.61767691 8.51118164,7.39208984 C8.65815503,7.16650278 8.73164062,6.84065968 8.73164062,6.41455078 C8.73164062,5.55549701 8.43769825,5.12597656 7.84980468,5.12597656 Z" id="ab" fill="#FFFFFF"></path>
            </g>
        </g>
    </g>
</svg>