<?xml version="1.0" encoding="UTF-8"?>
<svg width="12px" height="12px" viewBox="0 0 12 12" version="1.1" xmlns="http://www.w3.org/2000/svg" xmlns:xlink="http://www.w3.org/1999/xlink">
    <!-- Generator: Sketch 46.2 (44496) - http://www.bohemiancoding.com/sketch -->
    <title>DB / Icons / Field-Type / Number@1.5x</title>
    <desc>Created with Sketch.</desc>
    <defs></defs>
    <g id="Symbols" stroke="none" stroke-width="1" fill="none" fill-rule="evenodd">
        <g id="DB-/-Icons-/-Field-Type-/-Number">
            <g id="DB-/-Icons-/-Input-/-Number">
                <rect id="Rectangle-7" fill="#5499E0" x="0" y="0" width="12" height="12" rx="1"></rect>
                <path d="M4.42572386,8.54914154 L3.62250121,8.54914154 L3.62250121,5.32257904 C3.62250121,4.93748597 3.6316157,4.63215048 3.64984496,4.40656341 C3.59743584,4.46125118 3.53306474,4.5216347 3.45672972,4.58771576 C3.38039471,4.65379681 3.12461927,4.86343013 2.68939574,5.21662201 L2.28607543,4.70734466 L3.75580199,3.55207122 L4.42572386,3.55207122 L4.42572386,8.54914154 Z M9.25013793,8.54914154 L5.86293089,8.54914154 L5.86293089,7.9407431 L7.15150511,6.64533294 C7.53204087,6.25568256 7.78439837,5.97939951 7.90858519,5.81647552 C8.03277201,5.65355153 8.12334728,5.50031413 8.18031371,5.35675872 C8.23728014,5.21320332 8.26576293,5.05939626 8.26576293,4.89533294 C8.26576293,4.66974588 8.19797389,4.49201328 8.06239378,4.36212982 C7.92681368,4.23224636 7.73939693,4.1673056 7.50013793,4.1673056 C7.30873072,4.1673056 7.1235926,4.20262426 6.944718,4.27326263 C6.76584341,4.343901 6.55905837,4.47150389 6.32435668,4.65607513 L5.89027464,4.12628997 C6.16827083,3.89158828 6.43828766,3.7252488 6.70033324,3.62726654 C6.96237882,3.52928428 7.24151014,3.48029388 7.53773558,3.48029388 C8.00258166,3.48029388 8.37513652,3.60163056 8.65541136,3.84430755 C8.9356862,4.08698455 9.07582152,4.4133973 9.07582152,4.8235556 C9.07582152,5.04914266 9.03537596,5.26333323 8.95448363,5.46613372 C8.8735913,5.66893422 8.74940634,5.87799788 8.58192503,6.09333099 C8.41444373,6.3086641 8.13588206,6.59975819 7.74623168,6.96662201 L6.87806761,7.80744232 L6.87806761,7.84162201 L9.25013793,7.84162201 L9.25013793,8.54914154 Z" id="12" fill="#FFFFFF"></path>
            </g>
        </g>
    </g>
</svg>