<?xml version="1.0" encoding="UTF-8"?>
<svg width="24px" height="24px" viewBox="0 0 24 24" version="1.1" xmlns="http://www.w3.org/2000/svg" xmlns:xlink="http://www.w3.org/1999/xlink">
    <!-- Generator: Sketch 46.2 (44496) - http://www.bohemiancoding.com/sketch -->
    <title>DB / Icons / Settings / Delete@1.5x</title>
    <desc>Created with Sketch.</desc>
    <defs></defs>
    <g id="Symbols" stroke="none" stroke-width="1" fill="none" fill-rule="evenodd">
        <g id="DB-/-Icons-/-Settings-/-Delete" fill-rule="nonzero" fill="#4A90E2">
            <g id="DB-/-Icons-/-Delete">
                <path d="M16.8124634,5 L22,5 L22,6 L20,6 L20,19.5 C20,20.8807119 18.8807119,22 17.5,22 L6.5,22 C5.11928813,22 4,20.8807119 4,19.5 L4,6 L2,6 L2,5 L7.19537043,5 L8.60379132,2.27071002 C8.68958787,2.10445031 8.8610261,2 9.0481179,2 L15.0371094,2 C15.2282879,2 15.4027316,2.10901456 15.4865245,2.2808516 L16.8124634,5 Z M15.6999064,5 L14.7246459,3 L9.35274746,3 L8.32066887,5 L15.6999064,5 Z M16.5109866,6 C16.5038963,6.00015132 16.4968142,6.00015078 16.489745,6 L7.50979175,6 C7.5030001,6.00013901 7.49619746,6.00013946 7.48938799,6 L5,6 L5,19.5 C5,20.3284271 5.67157288,21 6.5,21 L17.5,21 C18.3284271,21 19,20.3284271 19,19.5 L19,6 L16.5109867,6 Z" id="Combined-Shape"></path>
                <path d="M15,9 L15,14 L15,14 L15.5,15 L15.5,17.5 L15.5,17.5 C15.5,17.7761424 15.7238576,18 16,18 L16,18 L16,18 C16.2761424,18 16.5,17.7761424 16.5,17.5 L16.5,15 L17,14 L17,14 L17,9 L17,9 C17,8.44771525 16.5522847,8 16,8 L16,8 L16,8 C15.4477153,8 15,8.44771525 15,9 Z" id="Line-2"></path>
                <path d="M11,9 L11,14 L11,14 L11.5,15 L11.5,17.5 L11.5,17.5 C11.5,17.7761424 11.7238576,18 12,18 L12,18 L12,18 C12.2761424,18 12.5,17.7761424 12.5,17.5 L12.5,15 L13,14 L13,14 L13,9 L13,9 C13,8.44771525 12.5522847,8 12,8 L12,8 L12,8 C11.4477153,8 11,8.44771525 11,9 Z" id="Line-2"></path>
                <path d="M7,9 L7,14 L7,14 L7.5,15 L7.5,17.5 L7.5,17.5 C7.5,17.7761424 7.72385763,18 8,18 L8,18 L8,18 C8.27614237,18 8.5,17.7761424 8.5,17.5 L8.5,15 L9,14 L9,14 L9,9 L9,9 C9,8.44771525 8.55228475,8 8,8 L8,8 L8,8 C7.44771525,8 7,8.44771525 7,9 Z" id="Line-2"></path>
            </g>
        </g>
    </g>
</svg>