<?xml version="1.0" encoding="UTF-8"?>
<svg width="18px" height="18px" viewBox="0 0 18 18" version="1.1" xmlns="http://www.w3.org/2000/svg" xmlns:xlink="http://www.w3.org/1999/xlink">
    <!-- Generator: Sketch 46.2 (44496) - http://www.bohemiancoding.com/sketch -->
    <title>Icon/File/Export-Blue Copy@1.5x</title>
    <desc>Created with Sketch.</desc>
    <defs></defs>
    <g id="Dashboards-1.0.0.0" stroke="none" stroke-width="1" fill="none" fill-rule="evenodd">
        <g id="D.1.3.1.0-Edit" transform="translate(-674.000000, -174.000000)" fill="#0078D7">
            <g id="Chart" transform="translate(138.000000, 163.000000)">
                <g id="Stacked-Group" transform="translate(466.000000, 10.000000)">
                    <g id="Icon/File/Export-Blue-Copy" transform="translate(70.000000, 1.000000)">
                        <path d="M18,9 L12,4 L12,7 L5.50342274,7 C5.22539004,7 5,7.21505737 5,7.49047852 L5,10.5095215 C5,10.7804053 5.23290253,11 5.50342274,11 L12,11 L12,14 L18,9 Z M2,2 L9.49956417,2 C9.77594725,2 10,1.78596497 10,1.49531555 L10,0.504684448 C10,0.225954924 9.76920319,0 9.49956417,0 L2,0 C0.9,0 0,0.9 0,2 L0,16 C0,17.1 0.9,18 2,18 L9.49956417,18 C9.77594725,18 10,17.785965 10,17.4953156 L10,16.5046844 C10,16.2259549 9.76920319,16 9.49956417,16 L2,16 L2,2 Z" id="Page-1" transform="translate(9.000000, 9.000000) rotate(-90.000000) translate(-9.000000, -9.000000) "></path>
                    </g>
                </g>
            </g>
        </g>
    </g>
</svg>