<?xml version="1.0" encoding="UTF-8"?>
<svg width="22px" height="22px" viewBox="0 0 22 22" version="1.1" xmlns="http://www.w3.org/2000/svg" xmlns:xlink="http://www.w3.org/1999/xlink">
    <!-- Generator: Sketch 46.2 (44496) - http://www.bohemiancoding.com/sketch -->
    <title>nav/icon/finance-normal copy 2@svg</title>
    <desc>Created with Sketch.</desc>
    <defs>
        <path d="M13.5738067,5.51581736 C13.3308141,5.14722294 13.2027325,4.6987605 13.5000829,4.05179424 L14.5258266,1.82538497 L12.9155523,1.15979462 L13.080379,0.5 L11.1605114,0.5 C11.1605114,0.5 10.4162807,1.34069921 10.059181,1.34069921 C9.70208138,1.34069921 8.94588045,0.5 8.94588045,0.5 L7.03626857,0.5 L7.24832211,1.34069921 L5.59183405,1.82542031 L6.61679846,4.0514055 C6.89640555,4.6582164 6.80129143,5.09022276 6.58820302,5.44546533 C6.4147083,5.73470074 0.52258895,6.93644421 0.500016293,14.9323977 C0.489324855,18.7196454 5.74239908,19.5 10.059181,19.5 C14.3753785,19.5 19.487404,18.9409679 19.4999092,15.1545439 C19.5263779,7.14011139 13.7577657,5.73344003 13.5738067,5.51581736 Z M11.5075835,4.35391444 C11.8387213,4.35391444 12.1071615,4.62795601 12.1071615,4.94469038 L12.1071615,4.94469038 C12.1071615,5.27096691 11.8405464,5.53546631 11.5075835,5.53546631 L8.64327624,5.53546631 C8.31213845,5.53546631 8.04369824,5.26142474 8.04369824,4.94469038 L8.04369824,4.94469038 C8.04369824,4.61841384 8.31031341,4.35391444 8.64327624,4.35391444 L11.5075835,4.35391444 Z M13.325,14.0026362 C13.325,14.2974848 13.2713626,14.5611469 13.1640879,14.7936236 C13.0568132,15.0260998 12.8959012,15.2231382 12.6813517,15.3847375 C12.4668023,15.5463369 12.1986156,15.675333 11.8767914,15.771726 C11.5549673,15.8681189 11.1795058,15.9304907 10.750407,15.9588414 L10.750407,16.409619 C10.750407,16.6987972 10.5794382,16.843386 10.2375,16.843386 C9.89556178,16.843386 9.72459301,16.6987972 9.72459301,16.409619 L9.72459301,15.9588414 C8.7725298,15.8964696 8.10541499,15.719277 7.72324927,15.4272636 C7.34108286,15.1352508 7.15,14.8304794 7.15,14.5129504 C7.15,14.2237722 7.32096877,14.0791834 7.66290699,14.0791834 C8.00484521,14.0791834 8.17581397,14.2237722 8.17581397,14.5129504 C8.17581397,14.5980032 8.32666933,14.7142413 8.62837937,14.8616653 C8.9300894,15.0090893 9.46646294,15.0828018 10.2375,15.0828018 C11.2700189,15.0828018 11.8717631,14.9481353 12.0427325,14.6788029 C12.2137013,14.4094704 12.299186,14.1784109 12.299186,13.9856257 C12.299186,13.6057249 12.0309993,13.3477326 11.4946257,13.2116488 C10.9582522,13.075565 10.3682413,12.9394811 9.72459301,12.8033973 C9.08094476,12.6673135 8.49093386,12.4745282 7.95456032,12.2250415 C7.41818677,11.9755542 7.15,11.547457 7.15,10.9407504 C7.15,10.6459018 7.20363735,10.3822391 7.31091206,10.149763 C7.41818677,9.91728622 7.57909884,9.72024845 7.79364825,9.5586485 C8.00819767,9.39704914 8.27638444,9.26805299 8.59820857,9.17166007 C8.9200327,9.07526772 9.29549418,9.01289589 9.72459301,8.98454517 L9.72459301,8.5337676 C9.72459301,8.24458939 9.89556178,8.1 10.2375,8.1 C10.5794382,8.1 10.750407,8.24458939 10.750407,8.5337676 L10.750407,8.98454517 C11.7024702,9.04691699 12.369585,9.2241096 12.7517507,9.51612242 C13.1339171,9.80813581 13.325,10.1129067 13.325,10.4304356 C13.325,10.7196138 13.1540312,10.8642032 12.812093,10.8642032 C12.4701548,10.8642032 12.299186,10.7196138 12.299186,10.4304356 C12.299186,10.3453834 12.1483307,10.2291453 11.8466206,10.0817208 C11.5449106,9.93429677 11.0085371,9.86058477 10.2375,9.86058477 C9.2049811,9.86058477 8.60323692,9.99525129 8.43226747,10.2645838 C8.2612987,10.5339162 8.17581397,10.7649751 8.17581397,10.9577604 C8.17581397,11.3319913 8.44400075,11.5871484 8.98037429,11.7232323 C9.51674784,11.8593161 10.1067587,11.993982 10.750407,12.1272312 C11.3940552,12.2604799 11.9840661,12.4546825 12.5204397,12.7098396 C13.0568132,12.9649973 13.325,13.3959291 13.325,14.0026362 Z" id="path-1"></path>
        <filter x="-18.4%" y="-13.2%" width="136.8%" height="136.8%" filterUnits="objectBoundingBox" id="filter-3">
            <feOffset dx="0" dy="1" in="SourceAlpha" result="shadowOffsetOuter1"></feOffset>
            <feGaussianBlur stdDeviation="1" in="shadowOffsetOuter1" result="shadowBlurOuter1"></feGaussianBlur>
            <feColorMatrix values="0 0 0 0 0   0 0 0 0 0   0 0 0 0 0  0 0 0 0.2 0" type="matrix" in="shadowBlurOuter1"></feColorMatrix>
        </filter>
    </defs>
    <g id="Symbols" stroke="none" stroke-width="1" fill="none" fill-rule="evenodd">
        <g id="main-nav/sales" transform="translate(-327.000000, -15.000000)">
            <g id="main-nav">
                <g id="Nav-Left" transform="translate(16.000000, 3.000000)">
                    <g id="nav-finance" transform="translate(312.000000, 11.000000)">
                        <g id="nav/icon/finance-normal" transform="translate(0.000000, 1.000000)">
                            <mask id="mask-2" fill="white">
                                <use xlink:href="#path-1"></use>
                            </mask>
                            <g id="finance-icon-shape">
                                <use fill="black" fill-opacity="1" filter="url(#filter-3)" xlink:href="#path-1"></use>
                                <use fill="#FFFFFF" fill-rule="evenodd" xlink:href="#path-1"></use>
                            </g>
                        </g>
                    </g>
                </g>
            </g>
        </g>
    </g>
</svg>