<?xml version="1.0" encoding="UTF-8"?>
<svg width="24px" height="24px" viewBox="0 0 24 24" version="1.1" xmlns="http://www.w3.org/2000/svg" xmlns:xlink="http://www.w3.org/1999/xlink">
    <!-- Generator: Sketch 46.2 (44496) - http://www.bohemiancoding.com/sketch -->
    <title>DB / Icons / Components / Full-Stacked-Area@1.5x</title>
    <desc>Created with Sketch.</desc>
    <defs></defs>
    <g id="Dashboards-2.0.0.0-Chart" stroke="none" stroke-width="1" fill="none" fill-rule="evenodd">
        <g id="D.2.1.2.0-Edit-Index" transform="translate(-820.000000, -1770.000000)">
            <g id="Chart-Bindings" transform="translate(742.000000, 1471.000000)">
                <g id="Stacked-Group" transform="translate(0.000000, 9.000000)">
                    <g id="Tab" transform="translate(0.000000, 287.000000)">
                        <g id="Group-5" transform="translate(18.000000, 3.000000)">
                            <g id="DB-/-Icons-/-Components-/-Full-Stacked-Area" transform="translate(60.000000, 0.000000)">
                                <polygon id="DB-/-Icons-/-Grid" fill="#4A90E2" transform="translate(12.000000, 9.500000) rotate(180.000000) translate(-12.000000, -9.500000) " points="4 9 9.6 4 14.4 10 20 4 20 15 4 15"></polygon>
                                <polygon id="DB-/-Icons-/-Grid" fill="#4E546C" points="4 14 9.6 9 14.4 15 20 9 20 20 4 20"></polygon>
                                <path d="M0,0 L24,0 L24,24 L0,24 L0,0 Z M1,1 L1,23 L23,23 L23,1 L1,1 Z" id="DB-/-Icons-/-Grid" fill="#4E546C"></path>
                            </g>
                        </g>
                    </g>
                </g>
            </g>
        </g>
    </g>
</svg>