<?xml version="1.0" encoding="UTF-8"?>
<svg width="24px" height="24px" viewBox="0 0 24 24" version="1.1" xmlns="http://www.w3.org/2000/svg" xmlns:xlink="http://www.w3.org/1999/xlink">
    <!-- Generator: Sketch 46.2 (44496) - http://www.bohemiancoding.com/sketch -->
    <title>DB / Icons / Gauges@1.5x</title>
    <desc>Created with Sketch.</desc>
    <defs></defs>
    <g id="Dashboards-1.0.0.0" stroke="none" stroke-width="1" fill="none" fill-rule="evenodd">
        <g id="D.1.3.1.0-Edit" transform="translate(-79.000000, -333.000000)">
            <g id="Components-Bar" transform="translate(20.000000, 163.000000)">
                <g id="Stacked-Group" transform="translate(2.000000, 2.000000)">
                    <g id="Stacked-Group-5" transform="translate(17.000000, 48.000000)">
                        <g id="Com-2" transform="translate(40.000000, 0.000000)">
                            <g id="DB-/-Icons-/-Gauges" transform="translate(0.000000, 120.000000)">
                                <g stroke-width="1" id="Combined-Shape">
                                    <path d="M12,3 L12,3 C16.9705627,3 21,7.02943725 21,12 L21,12 C21,16.9705627 16.9705627,21 12,21 C7.02943725,21 3,16.9705627 3,12 L3,12 L3,12 C3,7.02943725 7.02943725,3 12,3 L12,3 Z M12,4 L12,4 C7.581722,4 4,7.581722 4,12 L4,12 L4,12 C4,16.418278 7.581722,20 12,20 C16.418278,20 20,16.418278 20,12 L20,12 C20,7.581722 16.418278,4 12,4 L12,4 Z" fill="#4A90E2"></path>
                                    <path d="M10.2561356,11.0200226 C10.0930407,11.3096267 10,11.6439479 10,12 C10,13.1045695 10.8954305,14 12,14 C13.1045695,14 14,13.1045695 14,12 C14,10.8954305 13.1045695,10 12,10 C11.614307,10 11.2541135,10.1091765 10.9486379,10.2983113 L7.74320793,7.09288136 L7.03610115,7.79998814 L10.2561356,11.0200226 Z" fill="#4E546C"></path>
                                    <path d="M18.4306641,11.9642889 C18.4306641,13.6860237 17.7497049,15.3023501 16.5596917,16.4989205 L15.2569243,15.2032922 C16.107936,14.3475913 16.5933139,13.195497 16.5933139,11.9642889 C16.5933139,10.8815226 16.2186746,9.88625806 15.5919508,9.10104979 C15.550521,9.04105676 15.5241676,9.00840086 15.5128903,9.00308208 L16.9183652,7.821205 C17.8619973,8.94027954 18.4306641,10.3858746 18.4306641,11.9642889 Z" fill="#4E546C" fill-rule="nonzero"></path>
                                    <path d="M9.77302582,15.9817456 C7.60400154,14.7794358 6.78280688,12.0730298 7.91047991,9.87240886 L6.2753171,9.03449581 C4.69586338,12.1167536 5.84543459,15.905388 8.88226078,17.5887283 L9.77302582,15.9817456 Z" fill="#4A90E2" fill-rule="nonzero"></path>
                                    <path d="M9.84347928,7.9085791 C11.7657915,6.88646756 14.1301191,7.35870614 15.5128903,9.00308208 L16.9191282,7.82056333 C14.9812728,5.51608756 11.6724089,4.85519217 8.98089561,6.28629518 L9.84347928,7.9085791 Z" fill="#4A90E2" fill-rule="nonzero"></path>
                                </g>
                                <path d="M0,0 L24,0 L24,24 L0,24 L0,0 Z M1,1 L1,23 L23,23 L23,1 L1,1 Z" id="DB-/-Icons-/-Grid" fill="#4E546C"></path>
                            </g>
                        </g>
                    </g>
                </g>
            </g>
        </g>
    </g>
</svg>