<?xml version="1.0" encoding="UTF-8"?>
<svg width="22px" height="22px" viewBox="0 0 22 22" version="1.1" xmlns="http://www.w3.org/2000/svg" xmlns:xlink="http://www.w3.org/1999/xlink">
    <!-- Generator: Sketch 46.2 (44496) - http://www.bohemiancoding.com/sketch -->
    <title>Icon/Settings/Gear-Blue@1.5x</title>
    <desc>Created with Sketch.</desc>
    <defs></defs>
    <g id="Dashboards-1.0.0.0" stroke="none" stroke-width="1" fill="none" fill-rule="evenodd">
        <g id="D.1.3.1.0-Edit" transform="translate(-721.000000, -172.000000)" fill="#fff">
            <g id="Chart" transform="translate(138.000000, 163.000000)">
                <g id="Group-3" transform="translate(574.000000, 0.000000)">
                    <g id="Stacked-Group" transform="translate(8.000000, 8.000000)">
                        <g id="DB-/-Icons-/-Bindings">
                            <path d="M5.10763818,7.9360653 L3.51471863,6.34314575 C3.12419433,5.95262146 3.12419433,5.31945648 3.51471863,4.92893219 L3.51471863,4.92893219 L4.92893219,3.51471863 C5.31945648,3.12419433 5.95262146,3.12419433 6.34314575,3.51471863 L6.34314575,3.51471863 L7.9360653,5.10763818 C8.57268879,4.73145639 9.26595802,4.44096432 10,4.25203497 L10,2 C10,1.44771525 10.4477153,1 11,1 L13,1 C13.5522847,1 14,1.44771525 14,2 L14,2 L14,4.25203497 C14.734042,4.44096432 15.4273112,4.73145639 16.0639347,5.10763818 L17.6568542,3.51471863 C18.0473785,3.12419433 18.6805435,3.12419433 19.0710678,3.51471863 L19.0710678,3.51471863 L20.4852814,4.92893219 C20.8758057,5.31945648 20.8758057,5.95262146 20.4852814,6.34314575 L20.4852814,6.34314575 L18.8923618,7.9360653 C19.2685436,8.57268879 19.5590357,9.26595802 19.747965,10 L22,10 C22.5522847,10 23,10.4477153 23,11 L23,13 C23,13.5522847 22.5522847,14 22,14 L19.747965,14 C19.5590357,14.734042 19.2685436,15.4273112 18.8923618,16.0639347 L20.4852814,17.6568542 C20.8758057,18.0473785 20.8758057,18.6805435 20.4852814,19.0710678 L20.4852814,19.0710678 L19.0710678,20.4852814 C18.6805435,20.8758057 18.0473785,20.8758057 17.6568542,20.4852814 L17.6568542,20.4852814 L16.0639347,18.8923618 C15.4273112,19.2685436 14.734042,19.5590357 14,19.747965 L14,22 C14,22.5522847 13.5522847,23 13,23 L11,23 C10.4477153,23 10,22.5522847 10,22 L10,19.747965 C9.26595802,19.5590357 8.57268879,19.2685436 7.93606531,18.8923618 L6.34314575,20.4852814 C5.95262146,20.8758057 5.31945648,20.8758057 4.92893219,20.4852814 L4.92893219,20.4852814 L3.51471863,19.0710678 C3.12419433,18.6805435 3.12419433,18.0473785 3.51471863,17.6568542 L3.51471863,17.6568542 L5.10763818,16.0639347 C4.73145639,15.4273112 4.44096432,14.734042 4.25203497,14 L2,14 C1.44771525,14 1,13.5522847 1,13 L1,11 C1,10.4477153 1.44771525,10 2,10 L2,10 L4.25203497,10 C4.44096432,9.26595802 4.73145639,8.57268879 5.10763818,7.93606531 Z M12,17 C14.7614237,17 17,14.7614237 17,12 C17,9.23857625 14.7614237,7 12,7 C9.23857625,7 7,9.23857625 7,12 C7,14.7614237 9.23857625,17 12,17 Z M12,14 C10.8954305,14 10,13.1045695 10,12 C10,10.8954305 10.8954305,10 12,10 C13.1045695,10 14,10.8954305 14,12 C14,13.1045695 13.1045695,14 12,14 Z" id="Combined-Shape"></path>
                        </g>
                    </g>
                </g>
            </g>
        </g>
    </g>
</svg>