<?xml version="1.0" encoding="UTF-8"?>
<svg width="24px" height="24px" viewBox="0 0 24 24" version="1.1" xmlns="http://www.w3.org/2000/svg" xmlns:xlink="http://www.w3.org/1999/xlink">
    <!-- Generator: Sketch 46.2 (44496) - http://www.bohemiancoding.com/sketch -->
    <title>DB / Icons / Grid@1.5x</title>
    <desc>Created with Sketch.</desc>
    <defs></defs>
    <g id="Dashboards-1.0.0.0" stroke="none" stroke-width="1" fill="none" fill-rule="evenodd">
        <g id="D.1.3.1.0-Edit" transform="translate(-39.000000, -213.000000)" fill="#4E546C">
            <g id="Components-Bar" transform="translate(20.000000, 163.000000)">
                <g id="Stacked-Group" transform="translate(2.000000, 2.000000)">
                    <g id="Stacked-Group-5" transform="translate(17.000000, 48.000000)">
                        <g id="Com-1">
                            <g id="DB-/-Icons-/-Grid">
                                <path d="M4,4 L8,4 L8,8 L4,8 L4,4 Z M10,4 L14,4 L14,8 L10,8 L10,4 Z M16,4 L20,4 L20,8 L16,8 L16,4 Z M4,10 L8,10 L8,14 L4,14 L4,10 Z M10,10 L14,10 L14,14 L10,14 L10,10 Z M16,10 L20,10 L20,14 L16,14 L16,10 Z M4,16 L8,16 L8,20 L4,20 L4,16 Z M10,16 L14,16 L14,20 L10,20 L10,16 Z M16,16 L20,16 L20,20 L16,20 L16,16 Z"></path>
                                <path d="M0,0 L24,0 L24,24 L0,24 L0,0 Z M1,1 L1,23 L23,23 L23,1 L1,1 Z"></path>
                            </g>
                        </g>
                    </g>
                </g>
            </g>
        </g>
    </g>
</svg>