<?xml version="1.0" encoding="UTF-8"?>
<svg width="24px" height="24px" viewBox="0 0 24 24" version="1.1" xmlns="http://www.w3.org/2000/svg" xmlns:xlink="http://www.w3.org/1999/xlink">
    <!-- Generator: Sketch 46.2 (44496) - http://www.bohemiancoding.com/sketch -->
    <title>DB / Icons / Group@1.5x</title>
    <desc>Created with Sketch.</desc>
    <defs></defs>
    <g id="Dashboards-1.0.0.0" stroke="none" stroke-width="1" fill="none" fill-rule="evenodd">
        <g id="D.1.3.1.0-Edit" transform="translate(-79.000000, -413.000000)">
            <g id="Components-Bar" transform="translate(20.000000, 163.000000)">
                <g id="Stacked-Group" transform="translate(2.000000, 2.000000)">
                    <g id="Stacked-Group-5" transform="translate(17.000000, 48.000000)">
                        <g id="Com-2" transform="translate(40.000000, 0.000000)">
                            <g id="DB-/-Icons-/-Group" transform="translate(0.000000, 200.000000)">
                                <g id="DB-/-Icons-/-Image" stroke-width="1" fill="#4A90E2">
                                    <path d="M4,7 L17,7 L17,20 L4,20 L4,7 Z M6,9 L6,18 L15,18 L15,9 L6,9 Z" id="DB-/-Icons-/-Grid"></path>
                                </g>
                                <polygon id="Combined-Shape" fill="#4E546C" points="20 16 20 4 8 4 8 6 18 6 18 16"></polygon>
                                <path d="M0,0 L24,0 L24,24 L0,24 L0,0 Z M1,1 L1,23 L23,23 L23,1 L1,1 Z" id="DB-/-Icons-/-Grid" fill="#4E546C"></path>
                            </g>
                        </g>
                    </g>
                </g>
            </g>
        </g>
    </g>
</svg>