<?xml version="1.0" encoding="UTF-8"?>
<svg width="24px" height="24px" viewBox="0 0 24 24" version="1.1" xmlns="http://www.w3.org/2000/svg" xmlns:xlink="http://www.w3.org/1999/xlink">
    <!-- Generator: Sketch 46.2 (44496) - http://www.bohemiancoding.com/sketch -->
    <title>DB / Icons / Image@1.5x</title>
    <desc>Created with Sketch.</desc>
    <defs></defs>
    <g id="Dashboards-1.0.0.0" stroke="none" stroke-width="1" fill="none" fill-rule="evenodd">
        <g id="D.1.3.1.0-Edit" transform="translate(-79.000000, -373.000000)">
            <g id="Components-Bar" transform="translate(20.000000, 163.000000)">
                <g id="Stacked-Group" transform="translate(2.000000, 2.000000)">
                    <g id="Stacked-Group-5" transform="translate(17.000000, 48.000000)">
                        <g id="Com-2" transform="translate(40.000000, 0.000000)">
                            <g id="DB-/-Icons-/-Image" transform="translate(0.000000, 160.000000)">
                                <g stroke-width="1"></g>
                                <polygon id="Path" fill="#4A90E2" points="14.3020607 11.9236375 20.0572123 19.9808498 8.54690901 19.9808498"></polygon>
                                <polygon id="Path" fill="#4A90E2" points="9.69793934 13.0746679 10.8489697 15.3767285 7.39587868 19.9808498 3.94278769 19.9808498"></polygon>
                                <path d="M9.5,5 L9.5,5 L9.5,5 C11.4329966,5 13,6.56700338 13,8.5 L13,8.5 L13,8.5 C13,10.4329966 11.4329966,12 9.5,12 L9.5,12 L9.5,12 C7.56700338,12 6,10.4329966 6,8.5 L6,8.5 L6,8.5 C6,6.56700338 7.56700338,5 9.5,5 Z" id="Path" fill="#4A90E2"></path>
                                <path d="M0,0 L24,0 L24,24 L0,24 L0,0 Z M1,1 L1,23 L23,23 L23,1 L1,1 Z" id="DB-/-Icons-/-Grid" fill="#4E546C"></path>
                            </g>
                        </g>
                    </g>
                </g>
            </g>
        </g>
    </g>
</svg>