<?xml version="1.0" encoding="UTF-8"?>
<svg width="24px" height="24px" viewBox="0 0 24 24" version="1.1" xmlns="http://www.w3.org/2000/svg" xmlns:xlink="http://www.w3.org/1999/xlink">
    <!-- Generator: Sketch 46.2 (44496) - http://www.bohemiancoding.com/sketch -->
    <title>DB / Icons / Settings / Interactivity@1.5x</title>
    <desc>Created with Sketch.</desc>
    <defs></defs>
    <g id="Symbols" stroke="none" stroke-width="1" fill="none" fill-rule="evenodd">
        <g id="DB-/-Icons-/-Settings-/-Interactivity" fill="#fff">
            <g id="DB-/-Icons-/-Interactivity">
                <path d="M3,3 L15,3 L15,14 L3,14 L3,3 Z M5,5 L5,12 L13,12 L13,5 L5,5 Z" id="Combined-Shape"></path>
                <path d="M17.4748737,4.09619408 L16.0251263,4.09619408 L16.0251263,5.54594155 L16,5.57106781 L16.0251263,5.59619408 L16.0251263,9.04594155 L17.75,7.32106781 L19.5,9.07106781 L21,7.57106781 L19.25,5.82106781 L20.9748737,4.09619408 L17.5251263,4.09619408 L17.5,4.07106781 L17.4748737,4.09619408 Z" id="Combined-Shape"></path>
                <path d="M4.54594155,15.0251263 L3.09619408,15.0251263 L3.09619408,16.4748737 L3.07106781,16.5 L3.09619408,16.5251263 L3.09619408,19.9748737 L4.82106781,18.25 L6.57106781,20 L8.07106781,18.5 L6.32106781,16.75 L8.04594155,15.0251263 L4.59619408,15.0251263 L4.57106781,15 L4.54594155,15.0251263 Z" id="Combined-Shape" transform="translate(5.571068, 17.500000) scale(-1, -1) translate(-5.571068, -17.500000) "></path>
                <polygon id="Combined-Shape" points="14 10 21 10 21 21 9 21 9 14 11 14 11 19 19 19 19 12 14 12"></polygon>
            </g>
        </g>
    </g>
</svg>