<?xml version="1.0" encoding="UTF-8"?>
<svg width="24px" height="24px" viewBox="0 0 24 24" version="1.1" xmlns="http://www.w3.org/2000/svg" xmlns:xlink="http://www.w3.org/1999/xlink">
    <!-- Generator: Sketch 46.2 (44496) - http://www.bohemiancoding.com/sketch -->
    <title>DB / Icons / Components / Line@1.5x</title>
    <desc>Created with Sketch.</desc>
    <defs></defs>
    <g id="Dashboards-2.0.0.0-Chart" stroke="none" stroke-width="1" fill="none" fill-rule="evenodd">
        <g id="D.2.1.2.0-Edit-Index" transform="translate(-880.000000, -1561.000000)">
            <g id="Chart-Bindings" transform="translate(742.000000, 1471.000000)">
                <g id="Stacked-Group" transform="translate(0.000000, 9.000000)">
                    <g id="Tab" transform="translate(0.000000, 77.000000)">
                        <g id="Group-5" transform="translate(18.000000, 4.000000)">
                            <g id="DB-/-Icons-/-Components-/-Line" transform="translate(120.000000, 0.000000)">
                                <g id="DB-/-Icons-/-Bubble-Map" stroke-width="1" fill-rule="evenodd" transform="translate(0.000000, -9.000000)"></g>
                                <path d="M0,0 L24,0 L24,24 L0,24 L0,0 Z M1,1 L1,23 L23,23 L23,1 L1,1 Z" id="DB-/-Icons-/-Grid" fill="#4E546C" fill-rule="evenodd"></path>
                                <path d="M8.44444444,9.36637647 L3.30887992,14.27726 C2.90972167,14.6589551 2.89556497,15.2919618 3.27726005,15.6911201 C3.65895513,16.0902783 4.29196183,16.104435 4.69112008,15.72274 L8.44444444,12.1336235 L12.898981,16.3932741 L20.7015173,8.71265246 C21.0951043,8.32521517 21.1000897,7.69206982 20.7126525,7.29848274 C20.3252152,6.90489565 19.6920698,6.89991025 19.2984827,7.28734754 L12.8787968,13.6067259 L8.44444444,9.36637647 Z" id="Path-6" fill="#4E546C" fill-rule="nonzero"></path>
                            </g>
                        </g>
                    </g>
                </g>
            </g>
        </g>
    </g>
</svg>