<?xml version="1.0" encoding="UTF-8"?>
<svg width="24px" height="24px" viewBox="0 0 24 24" version="1.1" xmlns="http://www.w3.org/2000/svg" xmlns:xlink="http://www.w3.org/1999/xlink">
    <!-- Generator: Sketch 46.2 (44496) - http://www.bohemiancoding.com/sketch -->
    <title>DB / Icons / List-Box@1.5x</title>
    <desc>Created with Sketch.</desc>
    <defs></defs>
    <g id="Dashboards-1.0.0.0" stroke="none" stroke-width="1" fill="none" fill-rule="evenodd">
        <g id="D.1.3.1.0-Edit" transform="translate(-39.000000, -669.000000)">
            <g id="Components-Bar" transform="translate(20.000000, 163.000000)">
                <g id="Stacked-Group" transform="translate(2.000000, 2.000000)">
                    <g id="Stacked-Group-3" transform="translate(17.000000, 464.000000)">
                        <g id="Fil-1">
                            <g id="DB-/-Icons-/-List-Box" transform="translate(0.000000, 40.000000)">
                                <g stroke-width="1"></g>
                                <path d="M8,9 L20,9 L20,11 L8,11 L8,9 Z M4,9 L6,9 L6,11 L4,11 L4,9 Z M8,5 L20,5 L20,7 L8,7 L8,5 Z M4,5 L6,5 L6,7 L4,7 L4,5 Z M8,13 L20,13 L20,15 L8,15 L8,13 Z M4,13 L6,13 L6,15 L4,15 L4,13 Z M8,17 L20,17 L20,19 L8,19 L8,17 Z M4,17 L6,17 L6,19 L4,19 L4,17 Z" id="Combined-Shape" fill="#4A90E2"></path>
                                <path d="M0,0 L24,0 L24,24 L0,24 L0,0 Z M1,1 L1,23 L23,23 L23,1 L1,1 Z" id="DB-/-Icons-/-Grid" fill="#4E546C"></path>
                            </g>
                        </g>
                    </g>
                </g>
            </g>
        </g>
    </g>
</svg>