<?xml version="1.0" encoding="UTF-8"?>
<svg width="21px" height="22px" viewBox="0 0 21 22" version="1.1" xmlns="http://www.w3.org/2000/svg" xmlns:xlink="http://www.w3.org/1999/xlink">
    <!-- Generator: Sketch 46.2 (44496) - http://www.bohemiancoding.com/sketch -->
    <title>nav/icon/notifications-active copy 2@svg</title>
    <desc>Created with Sketch.</desc>
    <defs>
        <path d="M17.9761879,12.8773959 C17.2290696,12.8773959 16.6479776,12.2963039 16.6479776,11.507679 L16.6479776,7.10798238 C16.6479776,3.2478712 13.2444387,0.176384881 9.38432751,0.632957171 C6.06380177,1.00651632 3.61491403,3.95348292 3.61491403,7.39852838 L3.61491403,11.3416527 C3.61491403,12.1717841 2.90930231,12.8773959 2.12067744,12.8773959 C1.49807886,12.8773959 1,13.3754747 1,13.9565667 L1,14.7451916 C1,15.3262836 1.49807886,15.8243625 2.07917087,15.8243625 L18.1837207,15.8243625 C18.7648128,15.8243625 19.2628916,15.3262836 19.2628916,14.7451916 L19.2628916,13.9565667 C19.2628916,13.3754747 18.7648128,12.8773959 18.1837207,12.8773959 L17.9761879,12.8773959 Z M12.2897875,16.8435794 L7.97310407,16.8435794 C7.72406464,16.8435794 7.47502521,17.0511123 7.55803835,17.3001517 C7.80707778,18.5453488 8.84474208,19.5 10.1729524,19.5 C11.5011627,19.5 12.538827,18.5868554 12.7878664,17.3001517 C12.7878664,17.0511123 12.5803335,16.8435794 12.2897875,16.8435794 Z" id="path-1"></path>
        <filter x="-19.2%" y="-13.2%" width="138.3%" height="137.0%" filterUnits="objectBoundingBox" id="filter-2">
            <feOffset dx="0" dy="1" in="SourceAlpha" result="shadowOffsetOuter1"></feOffset>
            <feGaussianBlur stdDeviation="1" in="shadowOffsetOuter1" result="shadowBlurOuter1"></feGaussianBlur>
            <feColorMatrix values="0 0 0 0 0   0 0 0 0 0   0 0 0 0 0  0 0 0 0.2 0" type="matrix" in="shadowBlurOuter1"></feColorMatrix>
        </filter>
    </defs>
    <g id="Symbols" stroke="none" stroke-width="1" fill="none" fill-rule="evenodd">
        <g id="main-nav/sales" transform="translate(-1323.000000, -15.000000)" fill-rule="nonzero">
            <g id="main-nav">
                <g id="Menu-Right" transform="translate(1281.000000, 7.000000)">
                    <g id="nav-notifications" transform="translate(42.000000, 8.000000)">
                        <g id="nav/icon/notifications-active">
                            <g id="notifications-icon-shape">
                                <use fill="black" fill-opacity="1" filter="url(#filter-2)" xlink:href="#path-1"></use>
                                <use fill="#B0BEC5" fill-rule="evenodd" xlink:href="#path-1"></use>
                                <use fill="#FFFFFF" fill-rule="evenodd" xlink:href="#path-1"></use>
                            </g>
                        </g>
                    </g>
                </g>
            </g>
        </g>
    </g>
</svg>