<?xml version="1.0" encoding="UTF-8"?>
<svg width="24px" height="24px" viewBox="0 0 24 24" version="1.1" xmlns="http://www.w3.org/2000/svg" xmlns:xlink="http://www.w3.org/1999/xlink">
    <!-- Generator: Sketch 46.2 (44496) - http://www.bohemiancoding.com/sketch -->
    <title>DB / Icons / Pies@1.5x</title>
    <desc>Created with Sketch.</desc>
    <defs></defs>
    <g id="Dashboards-1.0.0.0" stroke="none" stroke-width="1" fill="none" fill-rule="evenodd">
        <g id="D.1.3.1.0-Edit" transform="translate(-39.000000, -293.000000)">
            <g id="Components-Bar" transform="translate(20.000000, 163.000000)">
                <g id="Stacked-Group" transform="translate(2.000000, 2.000000)">
                    <g id="Stacked-Group-5" transform="translate(17.000000, 48.000000)">
                        <g id="Com-1">
                            <g id="DB-/-Icons-/-Pies" transform="translate(0.000000, 80.000000)">
                                <g id="Pies" stroke-width="1">
                                    <path d="M4,12 C4,16.418278 7.581722,20 12,20 C16.418278,20 20,16.418278 20,12 L20,12 C20,7.581722 16.418278,4 12,4 L12,4 L12,4 L12,12 L4,12 Z" id="Combined-Shape" fill="#4A90E2"></path>
                                    <path d="M4,11 C4,7.13400675 7.13400675,4 11,4 L11,11 L4,11 Z" id="Combined-Shape" fill="#4E546C"></path>
                                </g>
                                <path d="M0,0 L24,0 L24,24 L0,24 L0,0 Z M1,1 L1,23 L23,23 L23,1 L1,1 Z" id="DB-/-Icons-/-Grid" fill="#4E546C"></path>
                            </g>
                        </g>
                    </g>
                </g>
            </g>
        </g>
    </g>
</svg>