<?xml version="1.0" encoding="UTF-8"?>
<svg width="24px" height="24px" viewBox="0 0 24 24" version="1.1" xmlns="http://www.w3.org/2000/svg" xmlns:xlink="http://www.w3.org/1999/xlink">
    <!-- Generator: Sketch 46.2 (44496) - http://www.bohemiancoding.com/sketch -->
    <title>DB / Icons / Components / Points@1.5x</title>
    <desc>Created with Sketch.</desc>
    <defs></defs>
    <g id="Dashboards-2.0.0.0-Chart" stroke="none" stroke-width="1" fill="none" fill-rule="evenodd">
        <g id="D.2.1.2.0-Edit-Index" transform="translate(-850.000000, -1561.000000)">
            <g id="Chart-Bindings" transform="translate(742.000000, 1471.000000)">
                <g id="Stacked-Group" transform="translate(0.000000, 9.000000)">
                    <g id="Tab" transform="translate(0.000000, 77.000000)">
                        <g id="Group-5" transform="translate(18.000000, 4.000000)">
                            <g id="DB-/-Icons-/-Components-/-Points" transform="translate(90.000000, 0.000000)">
                                <g id="DB-/-Icons-/-Bubble-Map" stroke-width="1" transform="translate(0.000000, -9.000000)"></g>
                                <path d="M0,0 L24,0 L24,24 L0,24 L0,0 Z M1,1 L1,23 L23,23 L23,1 L1,1 Z" id="DB-/-Icons-/-Grid" fill="#4E546C"></path>
                                <path d="M18,4 L18,4 L18,4 C19.1045695,4 20,4.8954305 20,6 L20,6 L20,6 C20,7.1045695 19.1045695,8 18,8 L18,8 L18,8 C16.8954305,8 16,7.1045695 16,6 L16,6 L16,6 C16,4.8954305 16.8954305,4 18,4 Z" id="Path" fill="#4E546C"></path>
                                <path d="M6,16 L6,16 L6,16 C7.1045695,16 8,16.8954305 8,18 L8,18 L8,18 C8,19.1045695 7.1045695,20 6,20 L6,20 L6,20 C4.8954305,20 4,19.1045695 4,18 L4,18 L4,18 C4,16.8954305 4.8954305,16 6,16 Z" id="Path" fill="#4E546C"></path>
                                <path d="M10,7 L10,7 L10,7 C11.1045695,7 12,7.8954305 12,9 L12,9 L12,9 C12,10.1045695 11.1045695,11 10,11 L10,11 L10,11 C8.8954305,11 8,10.1045695 8,9 L8,9 L8,9 C8,7.8954305 8.8954305,7 10,7 Z" id="Path" fill="#4E546C"></path>
                                <path d="M14,13 L14,13 L14,13 C15.1045695,13 16,13.8954305 16,15 L16,15 L16,15 C16,16.1045695 15.1045695,17 14,17 L14,17 L14,17 C12.8954305,17 12,16.1045695 12,15 L12,15 L12,15 C12,13.8954305 12.8954305,13 14,13 Z" id="Path" fill="#4E546C"></path>
                            </g>
                        </g>
                    </g>
                </g>
            </g>
        </g>
    </g>
</svg>