<?xml version="1.0" encoding="UTF-8"?>
<svg width="24px" height="24px" viewBox="0 0 24 24" version="1.1" xmlns="http://www.w3.org/2000/svg" xmlns:xlink="http://www.w3.org/1999/xlink">
    <!-- Generator: Sketch 46.2 (44496) - http://www.bohemiancoding.com/sketch -->
    <title>DB / Icons / Components / Toolbox / Range-Filter@1.5x</title>
    <desc>Created with Sketch.</desc>
    <defs></defs>
    <g id="Dashboards-2.0.0.0-Chart" stroke="none" stroke-width="1" fill="none" fill-rule="evenodd">
        <g id="D.2.1.1.2-Chart-Binding" transform="translate(-39.000000, -629.000000)">
            <g id="Components-Bar" transform="translate(20.000000, 163.000000)">
                <g id="Stacked-Group" transform="translate(2.000000, 2.000000)">
                    <g id="Stacked-Group-3" transform="translate(17.000000, 464.000000)">
                        <g id="Fil-1">
                            <g id="DB-/-Icons-/-Components-/-Toolbox-/-Range-Filter">
                                <g id="DB-/-Icons-/-Range-Filter">
                                    <path d="M0,0 L24,0 L24,24 L0,24 L0,0 Z M1,1 L1,23 L23,23 L23,1 L1,1 Z" id="DB-/-Icons-/-Grid" fill="#4E546C"></path>
                                    <polygon id="DB-/-Icons-/-Grid" fill="#4E546C" points="2.27373675e-13 13 8.4 8 15.6 14 24 8 24 20 2.27373675e-13 20"></polygon>
                                    <polygon id="DB-/-Icons-/-Grid" fill="#4A90E2" points="4.80527344 10.050944 8.4 8 15.6 14 19.1996094 11.3567708 19.1996094 20 4.80527344 20"></polygon>
                                    <rect id="Rectangle-4" fill="#4A90E2" x="4" y="0" width="1" height="24"></rect>
                                    <rect id="Rectangle-4" fill="#4A90E2" x="19" y="0" width="1" height="24"></rect>
                                </g>
                            </g>
                        </g>
                    </g>
                </g>
            </g>
        </g>
    </g>
</svg>