<?xml version="1.0" encoding="UTF-8"?>
<svg width="24px" height="24px" viewBox="0 0 24 24" version="1.1" xmlns="http://www.w3.org/2000/svg" xmlns:xlink="http://www.w3.org/1999/xlink">
    <!-- Generator: Sketch 46.2 (44496) - http://www.bohemiancoding.com/sketch -->
    <title>DB / Icons / Scutter-Chart@1.5x</title>
    <desc>Created with Sketch.</desc>
    <defs></defs>
    <g id="Dashboards-1.0.0.0" stroke="none" stroke-width="1" fill="none" fill-rule="evenodd">
        <g id="D.1.3.1.0-Edit" transform="translate(-79.000000, -293.000000)" fill="#4E546C">
            <g id="Components-Bar" transform="translate(20.000000, 163.000000)">
                <g id="Stacked-Group" transform="translate(2.000000, 2.000000)">
                    <g id="Stacked-Group-5" transform="translate(17.000000, 48.000000)">
                        <g id="Com-2" transform="translate(40.000000, 0.000000)">
                            <g id="DB-/-Icons-/-Scutter-Chart" transform="translate(0.000000, 80.000000)">
                                <g stroke-width="1" id="DB-/-Icons-/-Grid">
                                    <path d="M8,13 L8,13 L8,13 C9.65685425,13 11,14.3431458 11,16 L11,16 L11,16 C11,17.6568542 9.65685425,19 8,19 L8,19 L8,19 C6.34314575,19 5,17.6568542 5,16 L5,16 L5,16 C5,14.3431458 6.34314575,13 8,13 Z M8,15 L8,15 L8,15 C8.55228475,15 9,15.4477153 9,16 L9,16 L9,16 C9,16.5522847 8.55228475,17 8,17 L8,17 L8,17 C7.44771525,17 7,16.5522847 7,16 L7,16 L7,16 C7,15.4477153 7.44771525,15 8,15 Z M16,13 L16,13 L16,13 C17.6568542,13 19,14.3431458 19,16 L19,16 L19,16 C19,17.6568542 17.6568542,19 16,19 L16,19 L16,19 C14.3431458,19 13,17.6568542 13,16 L13,16 L13,16 C13,14.3431458 14.3431458,13 16,13 Z M16,15 L16,15 L16,15 C16.5522847,15 17,15.4477153 17,16 L17,16 L17,16 C17,16.5522847 16.5522847,17 16,17 L16,17 L16,17 C15.4477153,17 15,16.5522847 15,16 L15,16 L15,16 C15,15.4477153 15.4477153,15 16,15 Z M12,5 L12,5 L12,5 C13.6568542,5 15,6.34314575 15,8 L15,8 L15,8 C15,9.65685425 13.6568542,11 12,11 L12,11 L12,11 C10.3431458,11 9,9.65685425 9,8 L9,8 L9,8 C9,6.34314575 10.3431458,5 12,5 Z M12,7 L12,7 L12,7 C12.5522847,7 13,7.44771525 13,8 L13,8 L13,8 C13,8.55228475 12.5522847,9 12,9 L12,9 L12,9 C11.4477153,9 11,8.55228475 11,8 L11,8 L11,8 C11,7.44771525 11.4477153,7 12,7 Z"></path>
                                </g>
                                <path d="M0,0 L24,0 L24,24 L0,24 L0,0 Z M1,1 L1,23 L23,23 L23,1 L1,1 Z" id="DB-/-Icons-/-Grid"></path>
                            </g>
                        </g>
                    </g>
                </g>
            </g>
        </g>
    </g>
</svg>