<?xml version="1.0" encoding="UTF-8"?>
<svg width="23px" height="23px" viewBox="0 0 23 23" version="1.1" xmlns="http://www.w3.org/2000/svg" xmlns:xlink="http://www.w3.org/1999/xlink">
    <!-- Generator: Sketch 46.2 (44496) - http://www.bohemiancoding.com/sketch -->
    <title>nav/icon/search-normal copy 2@svg</title>
    <desc>Created with Sketch.</desc>
    <defs>
        <path d="M19.3559949,17.6653411 L14.0452761,12.3942545 C15.1153463,10.8882298 15.6701975,8.98588274 15.3927719,6.96463902 C14.9171852,3.55626725 12.1429291,0.861275619 8.69492509,0.54421778 C4.01832197,0.0686310214 0.0550989843,4.03185401 0.530685743,8.74808936 C0.847743581,12.1564611 3.54273521,14.9703494 6.95110698,15.4459362 C8.9723507,15.7233618 10.8746977,15.1685106 12.3807225,14.0984404 L17.651809,19.369527 C17.8896024,19.6073203 18.2462925,19.6073203 18.4840859,19.369527 L19.3163627,18.5372501 C19.5541561,18.2994568 19.5541561,17.9031345 19.3559949,17.6653411 L19.3559949,17.6653411 Z M2.8689873,7.99507699 C2.8689873,5.18118867 5.16765664,2.88251934 7.98154496,2.88251934 C10.7954333,2.88251934 13.0941026,5.18118867 13.0941026,7.99507699 C13.0941026,10.8089653 10.7954333,13.1076346 7.98154496,13.1076346 C5.16765664,13.1076346 2.8689873,10.8485975 2.8689873,7.99507699 L2.8689873,7.99507699 Z" id="path-1"></path>
        <filter x="-18.4%" y="-13.1%" width="136.8%" height="136.8%" filterUnits="objectBoundingBox" id="filter-2">
            <feOffset dx="0" dy="1" in="SourceAlpha" result="shadowOffsetOuter1"></feOffset>
            <feGaussianBlur stdDeviation="1" in="shadowOffsetOuter1" result="shadowBlurOuter1"></feGaussianBlur>
            <feColorMatrix values="0 0 0 0 0   0 0 0 0 0   0 0 0 0 0  0 0 0 0.2 0" type="matrix" in="shadowBlurOuter1"></feColorMatrix>
        </filter>
    </defs>
    <g id="Symbols" stroke="none" stroke-width="1" fill="none" fill-rule="evenodd">
        <g id="main-nav/sales" transform="translate(-1279.000000, -15.000000)" fill-rule="nonzero">
            <g id="main-nav">
                <g id="Menu-Right" transform="translate(1281.000000, 7.000000)">
                    <g id="nav-search" transform="translate(0.000000, 8.000000)">
                        <g id="nav/icon/search-normal">
                            <g id="search-icon-shape">
                                <use fill="black" fill-opacity="1" filter="url(#filter-2)" xlink:href="#path-1"></use>
                                <use fill="#B0BEC5" fill-rule="evenodd" xlink:href="#path-1"></use>
                            </g>
                        </g>
                    </g>
                </g>
            </g>
        </g>
    </g>
</svg>