<?xml version="1.0" encoding="UTF-8"?>
<svg width="24px" height="24px" viewBox="0 0 24 24" version="1.1" xmlns="http://www.w3.org/2000/svg" xmlns:xlink="http://www.w3.org/1999/xlink">
    <!-- Generator: Sketch 46.2 (44496) - http://www.bohemiancoding.com/sketch -->
    <title>DB / Icons / Components / Components / Sparkline@1.5x</title>
    <desc>Created with Sketch.</desc>
    <defs></defs>
    <g id="Symbols" stroke="none" stroke-width="1" fill="none" fill-rule="evenodd">
        <g id="DB-/-Icons-/-Components-/-Components-/-Sparkline" fill="#4E546C">
            <g>
                <path d="M0,0 L24,0 L24,24 L0,24 L0,0 Z M1,1 L1,23 L23,23 L23,1 L1,1 Z" id="DB-/-Icons-/-Grid"></path>
                <path d="M19,8 L19,8 L19,8 C20.1045695,8 21,8.8954305 21,10 L21,10 L21,10 C21,11.1045695 20.1045695,12 19,12 L19,12 L19,12 C17.8954305,12 17,11.1045695 17,10 L17,10 L17,10 C17,8.8954305 17.8954305,8 19,8 Z" id="Path"></path>
                <path d="M5,14 L5,14 L5,14 C6.1045695,14 7,14.8954305 7,16 L7,16 L7,16 C7,17.1045695 6.1045695,18 5,18 L5,18 L5,18 C3.8954305,18 3,17.1045695 3,16 L3,16 L3,16 C3,14.8954305 3.8954305,14 5,14 Z" id="Path"></path>
                <path d="M9,9 L9,9 L9,9 C10.1045695,9 11,9.8954305 11,11 L11,11 L11,11 C11,12.1045695 10.1045695,13 9,13 L9,13 L9,13 C7.8954305,13 7,12.1045695 7,11 L7,11 L7,11 C7,9.8954305 7.8954305,9 9,9 Z" id="Path"></path>
                <path d="M14,14 L14,14 L14,14 C15.1045695,14 16,14.8954305 16,16 L16,16 L16,16 C16,17.1045695 15.1045695,18 14,18 L14,18 L14,18 C12.8954305,18 12,17.1045695 12,16 L12,16 L12,16 C12,14.8954305 12.8954305,14 14,14 Z" id="Path"></path>
                <polygon id="Path-2" fill-rule="nonzero" points="8.8745464 10.1514143 4.53607546 15.6301924 5.32004433 16.2509925 8.96985464 11.64188 14.1261769 16.6750924 19.4189544 10.3624233 18.6526602 9.71993351 14.0528596 15.2060925"></polygon>
            </g>
        </g>
    </g>
</svg>