<?xml version="1.0" encoding="UTF-8"?>
<svg width="24px" height="24px" viewBox="0 0 24 24" version="1.1" xmlns="http://www.w3.org/2000/svg" xmlns:xlink="http://www.w3.org/1999/xlink">
    <!-- Generator: Sketch 46.2 (44496) - http://www.bohemiancoding.com/sketch -->
    <title>DB / Icons / Components / Spline-Area@1.5x</title>
    <desc>Created with Sketch.</desc>
    <defs></defs>
    <g id="Dashboards-2.0.0.0-Chart" stroke="none" stroke-width="1" fill="none" fill-rule="evenodd">
        <g id="D.2.1.2.0-Edit-Index" transform="translate(-880.000000, -1770.000000)" fill="#4E546C">
            <g id="Chart-Bindings" transform="translate(742.000000, 1471.000000)">
                <g id="Stacked-Group" transform="translate(0.000000, 9.000000)">
                    <g id="Tab" transform="translate(0.000000, 287.000000)">
                        <g id="Group-5" transform="translate(18.000000, 3.000000)">
                            <g id="DB-/-Icons-/-Components-/-Spline-Area" transform="translate(120.000000, 0.000000)">
                                <path d="M0,0 L24,0 L24,24 L0,24 L0,0 Z M1,1 L1,23 L23,23 L23,1 L1,1 Z" id="DB-/-Icons-/-Grid"></path>
                                <path d="M4,14 C5.92924465,10.4931966 7.79591132,8.82652993 9.6,9 C12.306133,9.2602051 11.7476595,15 14.4,15 C16.168227,15 18.0348937,13 20,9 L20,20 L4,20 L4,14 Z" id="DB-/-Icons-/-Grid"></path>
                            </g>
                        </g>
                    </g>
                </g>
            </g>
        </g>
    </g>
</svg>