<?xml version="1.0" encoding="UTF-8"?>
<svg width="24px" height="24px" viewBox="0 0 24 24" version="1.1" xmlns="http://www.w3.org/2000/svg" xmlns:xlink="http://www.w3.org/1999/xlink">
    <!-- Generator: Sketch 46.2 (44496) - http://www.bohemiancoding.com/sketch -->
    <title>DB / Icons / Components / Spline@1.5x</title>
    <desc>Created with Sketch.</desc>
    <defs></defs>
    <g id="Dashboards-2.0.0.0-Chart" stroke="none" stroke-width="1" fill="none" fill-rule="evenodd">
        <g id="D.2.1.2.0-Edit-Index" transform="translate(-911.000000, -1701.000000)">
            <g id="Chart-Bindings" transform="translate(742.000000, 1471.000000)">
                <g id="Stacked-Group" transform="translate(0.000000, 9.000000)">
                    <g id="Tab" transform="translate(0.000000, 217.000000)">
                        <g id="Group-5" transform="translate(19.000000, 4.000000)">
                            <g id="DB-/-Icons-/-Components-/-Spline" transform="translate(150.000000, 0.000000)">
                                <path d="M0,0 L24,0 L24,24 L0,24 L0,0 Z M1,1 L1,23 L23,23 L23,1 L1,1 Z" id="DB-/-Icons-/-Grid" fill="#4E546C" fill-rule="evenodd"></path>
                                <path d="M20.0478943,11.5679577 C19.4044447,9.25476198 17.8680424,7.99837584 15.6227679,8.00905476 C14.0395235,8.01658494 13.0527988,8.93942781 11.1340063,11.4571371 C10.474292,12.3227695 10.314862,12.5278235 10.0218213,12.873968 C9.30450768,13.7212711 8.7836877,14.1076627 8.44892308,14.1173741 C7.37274803,14.1485936 6.55716565,13.3791883 5.95041025,11.5249488 C5.77865027,11.0000517 5.21389813,10.7137775 4.68900104,10.8855375 C4.16410395,11.0572975 3.87782977,11.6220496 4.04958975,12.1469467 C4.90448648,14.7595041 6.4075178,16.177436 8.50691803,16.1165331 C9.59038216,16.0851021 10.4868084,15.4200517 11.5482697,14.1662356 C11.8729426,13.7827264 12.0400325,13.5678206 12.7247059,12.6694385 C14.2020558,10.7309602 14.9705929,10.0121792 15.6322801,10.0090321 C16.9431054,10.0027976 17.7113355,10.6310144 18.121051,12.1039377 C18.2690578,12.6360209 18.8203796,12.9473762 19.3524627,12.7993694 C19.8845458,12.6513626 20.1959011,12.1000408 20.0478943,11.5679577 Z" id="Path-9" fill="#4E546B" fill-rule="nonzero"></path>
                            </g>
                        </g>
                    </g>
                </g>
            </g>
        </g>
    </g>
</svg>