<?xml version="1.0" encoding="UTF-8"?>
<svg width="24px" height="24px" viewBox="0 0 24 24" version="1.1" xmlns="http://www.w3.org/2000/svg" xmlns:xlink="http://www.w3.org/1999/xlink">
    <!-- Generator: Sketch 46.2 (44496) - http://www.bohemiancoding.com/sketch -->
    <title>DB / Icons / Components / Stacked-Line@1.5x</title>
    <desc>Created with Sketch.</desc>
    <defs></defs>
    <g id="Dashboards-2.0.0.0-Chart" stroke="none" stroke-width="1" fill="none" fill-rule="evenodd">
        <g id="D.2.1.2.0-Edit-Index" transform="translate(-910.000000, -1561.000000)">
            <g id="Chart-Bindings" transform="translate(742.000000, 1471.000000)">
                <g id="Stacked-Group" transform="translate(0.000000, 9.000000)">
                    <g id="Tab" transform="translate(0.000000, 77.000000)">
                        <g id="Group-5" transform="translate(18.000000, 4.000000)">
                            <g id="DB-/-Icons-/-Components-/-Stacked-Line" transform="translate(150.000000, 0.000000)">
                                <g id="DB-/-Icons-/-Bubble-Map" stroke-width="1" fill-rule="evenodd" transform="translate(0.000000, -9.000000)"></g>
                                <path d="M0,0 L24,0 L24,24 L0,24 L0,0 Z M1,1 L1,23 L23,23 L23,1 L1,1 Z" id="DB-/-Icons-/-Grid" fill="#4E546C" fill-rule="evenodd"></path>
                                <path d="M6.4623841,9.37435654 L3.32276236,12.2642357 C2.91641093,12.6382637 2.89020763,13.2708862 3.26423565,13.6772376 C3.63826367,14.0835891 4.27088621,14.1097924 4.67723764,13.7357643 L6.42650478,12.1256435 L12.8940914,18.3980873 L20.7015173,10.7126525 C21.0951043,10.3252152 21.1000897,9.69206982 20.7126525,9.29848274 C20.3252152,8.90489565 19.6920698,8.89991025 19.2984827,9.28734754 L12.8836864,15.6019127 L6.4623841,9.37435654 Z" id="Path-6" fill="#4E546C" fill-rule="nonzero" transform="translate(11.999997, 13.699044) scale(-1, -1) translate(-11.999997, -13.699044) "></path>
                                <path d="M12.8787968,11.6067259 L8.44444444,7.36637647 L3.30887992,12.27726 C2.90972167,12.6589551 2.89556497,13.2919618 3.27726005,13.6911201 C3.65895513,14.0902783 4.29196183,14.104435 4.69112008,13.72274 L8.44444444,10.1336235 L12.898981,14.3932741 L20.7015173,6.71265246 C21.0951043,6.32521517 21.1000897,5.69206982 20.7126525,5.29848274 C20.3252152,4.90489565 19.6920698,4.89991025 19.2984827,5.28734754 L12.8787968,11.6067259 Z" id="Path-6" fill="#4A90E2" fill-rule="nonzero" transform="translate(11.999999, 9.696637) scale(-1, -1) translate(-11.999999, -9.696637) "></path>
                            </g>
                        </g>
                    </g>
                </g>
            </g>
        </g>
    </g>
</svg>