<?xml version="1.0" encoding="UTF-8"?>
<svg width="24px" height="24px" viewBox="0 0 24 24" version="1.1" xmlns="http://www.w3.org/2000/svg" xmlns:xlink="http://www.w3.org/1999/xlink">
    <!-- Generator: Sketch 46.2 (44496) - http://www.bohemiancoding.com/sketch -->
    <title>DB / Icons / Components / Step-Spline@1.5x</title>
    <desc>Created with Sketch.</desc>
    <defs></defs>
    <g id="Dashboards-2.0.0.0-Chart" stroke="none" stroke-width="1" fill="none" fill-rule="evenodd">
        <g id="D.2.1.2.0-Edit-Index" transform="translate(-881.000000, -1701.000000)">
            <g id="Chart-Bindings" transform="translate(742.000000, 1471.000000)">
                <g id="Stacked-Group" transform="translate(0.000000, 9.000000)">
                    <g id="Tab" transform="translate(0.000000, 217.000000)">
                        <g id="Group-5" transform="translate(19.000000, 4.000000)">
                            <g id="DB-/-Icons-/-Components-/-Step-Spline" transform="translate(120.000000, 0.000000)">
                                <path d="M0,0 L24,0 L24,24 L0,24 L0,0 Z M1,1 L1,23 L23,23 L23,1 L1,1 Z" id="DB-/-Icons-/-Grid" fill="#4E546C" fill-rule="evenodd"></path>
                                <path d="M17,4 L11,4 L11,18 L9,18 L9,12 L5,12 C4.44213028,12 4,12.4477153 4,13 C4,13.5522847 4.44213028,14 5,14 L7,14 L7,20 L13,20 L13,6 L15,6 L15,14 L19,14 C19.5578697,14 20,13.5522847 20,13 C20,12.4477153 19.5578697,12 19,12 L17,12 L17,4 Z" id="Path-8" fill="#4E546B" fill-rule="nonzero"></path>
                            </g>
                        </g>
                    </g>
                </g>
            </g>
        </g>
    </g>
</svg>