<?xml version="1.0" encoding="UTF-8"?>
<svg width="24px" height="24px" viewBox="0 0 24 24" version="1.1" xmlns="http://www.w3.org/2000/svg" xmlns:xlink="http://www.w3.org/1999/xlink">
    <!-- Generator: Sketch 46.2 (44496) - http://www.bohemiancoding.com/sketch -->
    <title>DB / Icons / Text@1.5x</title>
    <desc>Created with Sketch.</desc>
    <defs></defs>
    <g id="Dashboards-1.0.0.0" stroke="none" stroke-width="1" fill="none" fill-rule="evenodd">
        <g id="D.1.3.1.0-Edit" transform="translate(-39.000000, -373.000000)">
            <g id="Components-Bar" transform="translate(20.000000, 163.000000)">
                <g id="Stacked-Group" transform="translate(2.000000, 2.000000)">
                    <g id="Stacked-Group-5" transform="translate(17.000000, 48.000000)">
                        <g id="Com-1">
                            <g id="DB-/-Icons-/-Text" transform="translate(0.000000, 160.000000)">
                                <g stroke-width="1" id="Combined-Shape">
                                    <path d="M20,17 L21,17 L21,21 L17,21 L17,20 L7,20 L7,21 L3,21 L3,17 L4,17 L4,7 L3,7 L3,3 L7,3 L7,4 L17,4 L17,3 L21,3 L21,7 L20,7 L20,17 Z M4,4 L4,6 L6,6 L6,4 L4,4 Z M18,4 L18,6 L20,6 L20,4 L18,4 Z M4,18 L4,20 L6,20 L6,18 L4,18 Z M18,18 L18,20 L20,20 L20,18 L18,18 Z M18,7 L17,7 L17,6 L7,6 L7,7 L6,7 L6,17 L7,17 L7,18 L17,18 L17,17 L18,17 L18,7 Z" fill="#4E546C"></path>
                                    <polygon fill="#4A90E2" points="13 10 16 10 16 8 8 8 8 10 11 10 11 16 13 16"></polygon>
                                </g>
                                <path d="M0,0 L24,0 L24,24 L0,24 L0,0 Z M1,1 L1,23 L23,23 L23,1 L1,1 Z" id="DB-/-Icons-/-Grid" fill="#4E546C"></path>
                            </g>
                        </g>
                    </g>
                </g>
            </g>
        </g>
    </g>
</svg>