<?xml version="1.0" encoding="UTF-8"?>
<svg width="16px" height="16px" viewBox="0 0 16 16" version="1.1" xmlns="http://www.w3.org/2000/svg" xmlns:xlink="http://www.w3.org/1999/xlink">
    <defs>
        <path d="M18,10 C18,11.4513889 17.6423611,12.7899306 16.9270833,14.015625 C16.2118056,15.2413194 15.2413194,16.2118056 14.015625,16.9270833 C12.7899306,17.6423611 11.4513889,18 10,18 C8.54861111,18 7.21006945,17.6423611 5.984375,16.9270833 C4.75868055,16.2118056 3.78819445,15.2413194 3.07291667,14.015625 C2.35763889,12.7899306 2,11.4513889 2,10 C2,8.54861111 2.35763889,7.21006945 3.07291667,5.984375 C3.78819445,4.75868055 4.75868055,3.78819445 5.984375,3.07291667 C7.21006945,2.35763889 8.54861111,2 10,2 C11.4513889,2 12.7899306,2.35763889 14.015625,3.07291667 C15.2413194,3.78819445 16.2118056,4.75868055 16.9270833,5.984375 C17.6423611,7.21006945 18,8.54861111 18,10 Z" id="path-1"></path>
    </defs>
    <g id="Inquiry-1.0.0.0" stroke="none" stroke-width="1" fill="none" fill-rule="evenodd">
        <g id="Inquiry-1.1.6.2" transform="translate(-395.000000, -433.000000)">
            <g id="process-data-container" transform="translate(239.000000, 416.000000)">
                <g id="convert-offer" transform="translate(134.000000, 9.000000)">
                    <g id="icon/arrow/right-oval-blue" transform="translate(20.000000, 6.000000)">
                        <g id="icon-bg-shape">
                            <use fill="#B0BEC5" xlink:href="#path-1"></use>
                            <use fill="#FFFFFF" xlink:href="#path-1"></use>
                        </g>
                        <path d="M14.8658854,10 C14.8658854,9.83090379 14.80952,9.68999028 14.6967892,9.57725948 L13.8419139,8.72238419 L10.4412013,5.32167153 C10.3284705,5.20894072 10.1875569,5.15257532 10.0184607,5.15257532 C9.84936452,5.15257532 9.70845101,5.20894072 9.59572021,5.32167153 L8.74084492,6.17654681 C8.62811412,6.28927762 8.57174871,6.43019112 8.57174871,6.59928733 C8.57174871,6.76838354 8.62811412,6.90929705 8.74084492,7.02202786 L10.5163551,8.79753806 L5.80044972,8.79753806 C5.63761633,8.79753806 5.49670283,8.85703487 5.37770919,8.97602851 C5.25871556,9.09502214 5.19921875,9.23593565 5.19921875,9.39876903 L5.19921875,10.601231 C5.19921875,10.7640644 5.25871556,10.9049779 5.37770919,11.0239715 C5.49670283,11.1429651 5.63761633,11.2024619 5.80044972,11.2024619 L10.5163551,11.2024619 L8.74084492,12.9779721 C8.62185129,13.0969658 8.56235448,13.2378793 8.56235448,13.4007127 C8.56235448,13.5635461 8.62185129,13.7044596 8.74084492,13.8234532 L9.59572021,14.6783285 C9.70845101,14.7910593 9.84936452,14.8474247 10.0184607,14.8474247 C10.1875569,14.8474247 10.3284705,14.7910593 10.4412013,14.6783285 L13.8419139,11.2776158 L14.6967892,10.4227405 C14.80952,10.3100097 14.8658854,10.1690962 14.8658854,10 Z M18,10 C18,11.4513889 17.6423611,12.7899306 16.9270833,14.015625 C16.2118056,15.2413194 15.2413194,16.2118056 14.015625,16.9270833 C12.7899306,17.6423611 11.4513889,18 10,18 C8.54861111,18 7.21006945,17.6423611 5.984375,16.9270833 C4.75868055,16.2118056 3.78819445,15.2413194 3.07291667,14.015625 C2.35763889,12.7899306 2,11.4513889 2,10 C2,8.54861111 2.35763889,7.21006945 3.07291667,5.984375 C3.78819445,4.75868055 4.75868055,3.78819445 5.984375,3.07291667 C7.21006945,2.35763889 8.54861111,2 10,2 C11.4513889,2 12.7899306,2.35763889 14.015625,3.07291667 C15.2413194,3.78819445 16.2118056,4.75868055 16.9270833,5.984375 C17.6423611,7.21006945 18,8.54861111 18,10 Z" id="arrow-right-oval-shape" fill="#0078D7"></path>
                    </g>
                </g>
            </g>
        </g>
    </g>
</svg>