<?xml version="1.0" encoding="UTF-8"?>
<svg width="160px" height="80px" viewBox="0 0 160 80" version="1.1" xmlns="http://www.w3.org/2000/svg" xmlns:xlink="http://www.w3.org/1999/xlink">
    <!-- Generator: Sketch 45.2 (43514) - http://www.bohemiancoding.com/sketch -->
    <title>Icon/Modal/Cal-Modal@1.5x</title>
    <desc>Created with Sketch.</desc>
    <defs></defs>
    <g id="Design-System-" stroke="none" stroke-width="1" fill="none" fill-rule="evenodd">
        <g id="UI-Component---Icons-Kit" transform="translate(-268.000000, -2248.000000)">
            <g id="Icons" transform="translate(268.000000, 119.000000)">
                <g transform="translate(0.000000, 2089.000000)" id="Icon">
                    <g>
                        <g id="Icon-">
                            <g id="Icon/Modal/Cal-Modal" transform="translate(0.000000, 40.000000)">
                                <g>
                                    <path d="M99.5164833,21 L92.0146516,21 L92.0146516,19.406896 C92.0146516,18.4689647 91.5116007,18 90.5054951,18 C89.4993894,18 88.9963366,18.4689647 88.9963366,19.406896 L88.9963366,21 L71.0036634,21 L71.0036634,19.406896 C71.0036634,18.4689647 70.5006106,18 69.4945049,18 C68.4883993,18 67.9853484,18.4689647 67.9853484,19.406896 L67.9853484,21 L60.4835167,21 C59.2527462,21 58.1978006,21.2275859 57.31868,22.0551719 C56.4395593,22.8827578 56,23.8758618 56,25.0344818 L56,61.7793102 C56,62.9379302 56.4395593,63.9310341 57.31868,64.7586201 C58.1978006,65.5862061 59.2527462,66 60.4835167,66 L99.5164833,66 C100.747254,66 101.802199,65.5862061 102.68132,64.7586201 C103.560441,63.9310341 104,62.9379302 104,61.7793102 L104,25.0344818 C104,23.8574703 103.560441,22.8597694 102.68132,22.0413792 C101.802199,21.2229889 100.747254,21 99.5164833,21 Z M60.4835167,23.6275858 L67.9853484,23.6275858 L67.9853484,25.0344818 C67.9853484,25.972413 68.4883993,26.4413796 69.4945049,26.4413796 C70.5006106,26.4413796 71.0036634,25.972413 71.0036634,25.0344818 L71.0036634,23.6275858 L88.9963366,23.6275858 L88.9963366,25.0344818 C88.9963366,25.972413 89.4993894,26.4413796 90.5054951,26.4413796 C91.5116007,26.4413796 92.0146516,25.972413 92.0146516,25.0344818 L92.0146516,23.6275858 L99.5164833,23.6275858 C99.9267414,23.6275858 100.278389,23.7655165 100.571429,24.0413797 C100.86447,24.3172411 101.01099,24.6482751 101.01099,25.0344818 L101.01099,29.2827588 L58.9890098,29.2827588 L58.9890098,25.0344818 C58.9890098,24.6482751 59.1355296,24.3172411 59.4285711,24.0413797 C59.7216107,23.7655165 60.0732586,23.6275858 60.4835167,23.6275858 Z M70.1439328,44.4 L63.4560672,44.4 L63.275314,44.4752683 L63.2,44.6559128 L63.2,50.0551731 L70.4,50.0551731 L70.4,44.6559128 L70.324686,44.4752683 L70.1439328,44.4 Z M70.1439328,54 L63.4560672,54 L63.275314,54.0752683 L63.2,54.2559128 L63.2,59.6551731 L70.4,59.6551731 L70.4,54.2559128 L70.324686,54.0752683 L70.1439328,54 Z M83.1280149,34.8 L76.4401492,34.8 L76.259396,34.8752683 L76.184082,35.0559128 L76.184082,40.4551731 L83.384082,40.4551731 L83.384082,35.0559128 L83.3087681,34.8752683 L83.1280149,34.8 Z M83.1280149,44.4 L76.4401492,44.4 L76.259396,44.4752683 L76.184082,44.6559128 L76.184082,50.0551731 L83.384082,50.0551731 L83.384082,44.6559128 L83.3087681,44.4752683 L83.1280149,44.4 Z M83.1280149,54 L76.4401492,54 L76.259396,54.0752683 L76.184082,54.2559128 L76.184082,59.6551731 L83.384082,59.6551731 L83.384082,54.2559128 L83.3087681,54.0752683 L83.1280149,54 Z M96.599011,34.8 L89.9111453,34.8 L89.7303921,34.8752683 L89.6550781,35.0559128 L89.6550781,40.4551731 L96.8550781,40.4551731 L96.8550781,35.0559128 L96.7797642,34.8752683 L96.599011,34.8 Z M96.599011,44.4 L89.9111453,44.4 L89.7303921,44.4752683 L89.6550781,44.6559128 L89.6550781,50.0551731 L96.8550781,50.0551731 L96.8550781,44.6559128 L96.7797642,44.4752683 L96.599011,44.4 Z M96.599011,54 L89.9111453,54 L89.7303921,54.0752683 L89.6550781,54.2559128 L89.6550781,59.6551731 L96.8550781,59.6551731 L96.8550781,54.2559128 L96.7797642,54.0752683 L96.599011,54 Z" id="Combined-Shape" fill="#FFFFFF"></path>
                                    <path d="M114,31 C114,30.4477153 114.449219,30 115.008775,30 L152.991225,30 C153.548356,30 154,30.4438648 154,31 L154,31 C154,31.5522847 153.550781,32 152.991225,32 L115.008775,32 C114.451644,32 114,31.5561352 114,31 L114,31 Z" id="Rectangle" fill="#FFFFFF"></path>
                                    <path d="M114,41 C114,40.4477153 114.438615,40 114.998746,40 L134.001254,40 C134.552846,40 135,40.4438648 135,41 L135,41 C135,41.5522847 134.561385,42 134.001254,42 L114.998746,42 C114.447154,42 114,41.5561352 114,41 L114,41 Z" id="Rectangle" fill="#FFFFFF"></path>
                                    <path d="M114,51 C114,50.4477153 114.455761,50 115.002473,50 L124.997527,50 C125.551177,50 126,50.4438648 126,51 L126,51 C126,51.5522847 125.544239,52 124.997527,52 L115.002473,52 C114.448823,52 114,51.5561352 114,51 L114,51 Z" id="Rectangle" fill="#FFFFFF"></path>
                                    <path d="M6,31 C6,30.4477153 6.44921875,30 7.00877516,30 L44.9912248,30 C45.548356,30 46,30.4438648 46,31 L46,31 C46,31.5522847 45.5507813,32 44.9912248,32 L7.00877516,32 C6.45164402,32 6,31.5561352 6,31 L6,31 Z" id="Rectangle" fill="#FFFFFF"></path>
                                    <path d="M25,41 C25,40.4477153 25.4386148,40 25.9987461,40 L45.0012539,40 C45.5528461,40 46,40.4438648 46,41 L46,41 C46,41.5522847 45.5613852,42 45.0012539,42 L25.9987461,42 C25.4471539,42 25,41.5561352 25,41 L25,41 Z" id="Rectangle" fill="#FFFFFF"></path>
                                    <path d="M34,51 C34,50.4477153 34.455761,50 35.0024733,50 L44.9975267,50 C45.5511774,50 46,50.4438648 46,51 L46,51 C46,51.5522847 45.544239,52 44.9975267,52 L35.0024733,52 C34.4488226,52 34,51.5561352 34,51 L34,51 Z" id="Rectangle" fill="#FFFFFF"></path>
                                    <rect id="Slice" x="0" y="0" width="160" height="80"></rect>
                                </g>
                            </g>
                        </g>
                    </g>
                </g>
            </g>
        </g>
    </g>
</svg>