<?xml version="1.0" encoding="UTF-8"?>
<svg width="20px" height="20px" viewBox="0 0 20 20" version="1.1" xmlns="http://www.w3.org/2000/svg" xmlns:xlink="http://www.w3.org/1999/xlink">
    <defs>
        <path d="M18.131868,1.17241331 L15.0061048,1.17241331 L15.0061048,0.586206657 C15.0061048,0.195401957 14.7965003,0 14.3772896,0 C13.9580789,0 13.7484736,0.195401957 13.7484736,0.586206657 L13.7484736,1.17241331 L6.25152641,1.17241331 L6.25152641,0.586206657 C6.25152641,0.195401957 6.04192107,0 5.62271038,0 C5.20349969,0 4.99389518,0.195401957 4.99389518,0.586206657 L4.99389518,1.17241331 L1.86813197,1.17241331 C1.35531092,1.17241331 0.915750262,1.34482745 0.549449991,1.68965494 C0.183149719,2.03448244 0,2.44827574 0,2.93103407 L0,18.2413792 C0,18.7241376 0.183149719,19.1379309 0.549449991,19.4827584 C0.915750262,19.8275859 1.35531092,20 1.86813197,20 L18.131868,20 C18.6446891,20 19.0842497,19.8275859 19.45055,19.4827584 C19.8168503,19.1379309 20,18.7241376 20,18.2413792 L20,2.93103407 C20,2.44061261 19.8168503,2.02490392 19.45055,1.68390799 C19.0842497,1.34291206 18.6446891,1.17241331 18.131868,1.17241331 Z M1.86813197,2.34482741 L4.99389518,2.34482741 L4.99389518,2.93103407 C4.99389518,3.32183877 5.20349969,3.51724151 5.62271038,3.51724151 C6.04192107,3.51724151 6.25152641,3.32183877 6.25152641,2.93103407 L6.25152641,2.34482741 L13.7484736,2.34482741 L13.7484736,2.93103407 C13.7484736,3.32183877 13.9580789,3.51724151 14.3772896,3.51724151 C14.7965003,3.51724151 15.0061048,3.32183877 15.0061048,2.93103407 L15.0061048,2.34482741 L18.131868,2.34482741 C18.3028089,2.34482741 18.4493289,2.40229853 18.5714287,2.51724155 C18.6935293,2.63218379 18.7545792,2.77011463 18.7545792,2.93103407 L18.7545792,4.70114952 L1.24542076,4.70114952 L1.24542076,2.93103407 C1.24542076,2.77011463 1.30647066,2.63218379 1.42857131,2.51724155 C1.55067112,2.40229853 1.69719106,2.34482741 1.86813197,2.34482741 Z M18.131868,18.8275859 L1.86813197,18.8275859 C1.69719106,18.8275859 1.55067112,18.7701148 1.42857131,18.6551725 C1.30647066,18.5402303 1.24542076,18.4022987 1.24542076,18.2413792 L1.24542076,5.87356283 L18.7545792,5.87356283 L18.7545792,18.2413792 C18.7545792,18.4022987 18.6935293,18.5402303 18.5714287,18.6551725 C18.4493289,18.7701148 18.3028089,18.8275859 18.131868,18.8275859 Z M5.89330534,11 L3.10669466,11 L3.03138081,11.0313618 L3,11.1066303 L3,13.3563221 L6,13.3563221 L6,11.1066303 L5.96861919,11.0313618 L5.89330534,11 Z M5.89330534,15 L3.10669466,15 L3.03138081,15.0313618 L3,15.1066303 L3,17.3563221 L6,17.3563221 L6,15.1066303 L5.96861919,15.0313618 L5.89330534,15 Z M11.3033395,7 L8.51672884,7 L8.44141499,7.03136179 L8.41003418,7.10663033 L8.41003418,9.35632211 L11.4100342,9.35632211 L11.4100342,7.10663033 L11.3786534,7.03136179 L11.3033395,7 Z M11.3033395,11 L8.51672884,11 L8.44141499,11.0313618 L8.41003418,11.1066303 L8.41003418,13.3563221 L11.4100342,13.3563221 L11.4100342,11.1066303 L11.3786534,11.0313618 L11.3033395,11 Z M11.3033395,15 L8.51672884,15 L8.44141499,15.0313618 L8.41003418,15.1066303 L8.41003418,17.3563221 L11.4100342,17.3563221 L11.4100342,15.1066303 L11.3786534,15.0313618 L11.3033395,15 Z M16.9162546,7 L14.1296439,7 L14.05433,7.03136179 L14.0229492,7.10663033 L14.0229492,9.35632211 L17.0229492,9.35632211 L17.0229492,7.10663033 L16.9915684,7.03136179 L16.9162546,7 Z M16.9162546,11 L14.1296439,11 L14.05433,11.0313618 L14.0229492,11.1066303 L14.0229492,13.3563221 L17.0229492,13.3563221 L17.0229492,11.1066303 L16.9915684,11.0313618 L16.9162546,11 Z M16.9162546,15 L14.1296439,15 L14.05433,15.0313618 L14.0229492,15.1066303 L14.0229492,17.3563221 L17.0229492,17.3563221 L17.0229492,15.1066303 L16.9915684,15.0313618 L16.9162546,15 Z" id="path-1"></path>
    </defs>
    <g id="Inquiry-1.0.0.0" stroke="none" stroke-width="1" fill="none" fill-rule="evenodd">
        <g id="Inquiry-1.1.6.0" transform="translate(-922.000000, -482.000000)">
            <g id="inquiry-data-container" transform="translate(239.000000, 446.000000)">
                <g id="input-bid-due-date" transform="translate(490.000000, 8.000000)">
                    <g id="icon/calendar/cal-blue" transform="translate(193.000000, 28.000000)">
                        <mask id="mask-2" fill="white">
                            <use xlink:href="#path-1"></use>
                        </mask>
                        <use id="calendar-icon-shape" fill="#0078D7" fill-rule="evenodd" xlink:href="#path-1"></use>
                    </g>
                </g>
            </g>
        </g>
    </g>
</svg>