<?xml version="1.0" encoding="UTF-8"?>
<svg width="137px" height="70px" viewBox="0 0 137 70" version="1.1" xmlns="http://www.w3.org/2000/svg" xmlns:xlink="http://www.w3.org/1999/xlink">
    <!-- Generator: Sketch 45.2 (43514) - http://www.bohemiancoding.com/sketch -->
    <title>Icon/Modal/Covert to XLS, Fill XLS File@1.5x</title>
    <desc>Created with Sketch.</desc>
    <defs>
        <path d="M62,39 C62.5522847,39 63,39.4433532 63,40.0093689 L63,41.9906311 C63,42.5480902 62.5561352,43 62,43 C61.4477153,43 61,42.5566468 61,41.9906311 L61,40.0093689 C61,39.4519098 61.4438648,39 62,39 Z M62,48 C62.5561352,48 63,48.4476974 63,48.9999602 L63,64.0000398 C63,64.5452911 62.5522847,65 62,65 C61.4438648,65 61,64.5523026 61,64.0000398 L61,48.9999602 C61,48.4547089 61.4477153,48 62,48 Z" id="path-1"></path>
        <filter x="-175.0%" y="-9.6%" width="450.0%" height="126.9%" filterUnits="objectBoundingBox" id="filter-2">
            <feOffset dx="0" dy="1" in="SourceAlpha" result="shadowOffsetOuter1"></feOffset>
            <feGaussianBlur stdDeviation="1" in="shadowOffsetOuter1" result="shadowBlurOuter1"></feGaussianBlur>
            <feColorMatrix values="0 0 0 0 0   0 0 0 0 0   0 0 0 0 0  0 0 0 0.2 0" type="matrix" in="shadowBlurOuter1"></feColorMatrix>
        </filter>
        <path d="M72.5,25.3261541 C73.0522847,25.3261541 73.5,25.7695072 73.5,26.335523 L73.5,28.3167852 C73.5,28.8742442 73.0561352,29.3261541 72.5,29.3261541 C71.9477153,29.3261541 71.5,28.8828009 71.5,28.3167852 L71.5,26.335523 C71.5,25.7780639 71.9438648,25.3261541 72.5,25.3261541 Z M72.5,4.32615407 C73.0561352,4.32615407 73.5,4.7738515 73.5,5.32611427 L73.5,20.3261939 C73.5,20.8714451 73.0522847,21.3261541 72.5,21.3261541 C71.9438648,21.3261541 71.5,20.8784566 71.5,20.3261939 L71.5,5.32611427 C71.5,4.780863 71.9477153,4.32615407 72.5,4.32615407 Z" id="path-3"></path>
        <filter x="-175.0%" y="-10.0%" width="450.0%" height="128.0%" filterUnits="objectBoundingBox" id="filter-4">
            <feOffset dx="0" dy="1" in="SourceAlpha" result="shadowOffsetOuter1"></feOffset>
            <feGaussianBlur stdDeviation="1" in="shadowOffsetOuter1" result="shadowBlurOuter1"></feGaussianBlur>
            <feColorMatrix values="0 0 0 0 0   0 0 0 0 0   0 0 0 0 0  0 0 0 0.2 0" type="matrix" in="shadowBlurOuter1"></feColorMatrix>
        </filter>
        <path d="M126.882353,66 L87.1176471,66 C84.0880179,66 81,62.9919426 81,59.8986667 L81,6.10133333 C81,3.00805736 84.0880179,0 87.1176471,0 L117.705882,0 C124.278694,0 123.816435,15.2507266 123.816435,15.2507266 L133,15.2533333 L133,59.8986667 C133,62.9919426 129.911982,66 126.882353,66 Z M122.294118,1.52533333 C125.352941,5.79559635 125.352941,13.728 125.352941,13.728 L133,13.728 C133,13.728 128.787785,9.05554948 122.294118,1.52533333 Z M93,50.864 C93,50.313188 93.4461086,49.8666667 93.9929654,49.8666667 L119.007035,49.8666667 C119.555434,49.8666667 120,50.3093478 120,50.864 L120,50.864 C120,51.414812 119.553891,51.8613333 119.007035,51.8613333 L93.9929654,51.8613333 C93.4445658,51.8613333 93,51.4186522 93,50.864 L93,50.864 Z M93,55.8506667 C93,55.2998547 93.4461086,54.8533333 93.9929654,54.8533333 L119.007035,54.8533333 C119.555434,54.8533333 120,55.2960145 120,55.8506667 C120,56.4014787 119.553891,56.848 119.007035,56.848 L93.9929654,56.848 C93.4445658,56.848 93,56.4053188 93,55.8506667 Z M97,18 C97,16.8954305 97.8877296,16 99,16 C100.104569,16 101,16.8877296 101,18 C101,19.1045695 100.11227,20 99,20 C97.8954305,20 97,19.1122704 97,18 Z M113,18 C113,16.8954305 113.88773,16 115,16 C116.104569,16 117,16.8877296 117,18 C117,19.1045695 116.11227,20 115,20 C113.895431,20 113,19.1122704 113,18 Z M103.910156,39 L101.144531,39 L98.4882812,34.6796875 L95.8320312,39 L93.2382812,39 L97.0273438,33.109375 L93.4804688,27.578125 L96.1523438,27.578125 L98.6132812,31.6875 L101.027344,27.578125 L103.636719,27.578125 L100.050781,33.2421875 L103.910156,39 Z M105.347656,39 L105.347656,27.578125 L107.769531,27.578125 L107.769531,37 L112.402344,37 L112.402344,39 L105.347656,39 Z M121.128906,35.828125 C121.128906,36.8593802 120.757816,37.671872 120.015625,38.265625 C119.273434,38.859378 118.240892,39.15625 116.917969,39.15625 C115.699213,39.15625 114.621098,38.9270856 113.683594,38.46875 L113.683594,36.21875 C114.454431,36.5625017 115.106768,36.8046868 115.640625,36.9453125 C116.174482,37.0859382 116.662758,37.15625 117.105469,37.15625 C117.636721,37.15625 118.044269,37.0546885 118.328125,36.8515625 C118.611981,36.6484365 118.753906,36.3463562 118.753906,35.9453125 C118.753906,35.721353 118.691407,35.5221363 118.566406,35.3476563 C118.441406,35.1731762 118.257814,35.0052091 118.015625,34.84375 C117.773436,34.6822909 117.279952,34.4244809 116.535156,34.0703125 C115.837236,33.7421859 115.313804,33.4270848 114.964844,33.125 C114.615884,32.8229152 114.337241,32.4713562 114.128906,32.0703125 C113.920572,31.6692688 113.816406,31.2005235 113.816406,30.6640625 C113.816406,29.6536408 114.158851,28.8593779 114.84375,28.28125 C115.528649,27.7031221 116.475254,27.4140625 117.683594,27.4140625 C118.277347,27.4140625 118.843747,27.4843743 119.382812,27.625 C119.921878,27.7656257 120.485674,27.9635404 121.074219,28.21875 L120.292969,30.1015625 C119.683591,29.8515613 119.179689,29.6770838 118.78125,29.578125 C118.382811,29.4791662 117.990887,29.4296875 117.605469,29.4296875 C117.147133,29.4296875 116.795574,29.5364573 116.550781,29.75 C116.305988,29.9635427 116.183594,30.2421858 116.183594,30.5859375 C116.183594,30.7994802 116.233072,30.9856763 116.332031,31.1445313 C116.43099,31.3033862 116.588541,31.4570305 116.804688,31.6054688 C117.020834,31.753907 117.532548,32.0208314 118.339844,32.40625 C119.407557,32.9166692 120.139321,33.4283829 120.535156,33.9414063 C120.930992,34.4544296 121.128906,35.0833296 121.128906,35.828125 Z" id="path-5"></path>
        <filter x="-6.7%" y="-3.8%" width="113.5%" height="110.6%" filterUnits="objectBoundingBox" id="filter-6">
            <feOffset dx="0" dy="1" in="SourceAlpha" result="shadowOffsetOuter1"></feOffset>
            <feGaussianBlur stdDeviation="1" in="shadowOffsetOuter1" result="shadowBlurOuter1"></feGaussianBlur>
            <feColorMatrix values="0 0 0 0 0   0 0 0 0 0   0 0 0 0 0  0 0 0 0.2 0" type="matrix" in="shadowBlurOuter1"></feColorMatrix>
        </filter>
        <path d="M45.8823529,66 L6.11764706,66 C3.08801787,66 0,62.9919426 0,59.8986667 L0,6.10133333 C0,3.00805736 3.08801787,0 6.11764706,0 L36.7058824,0 C43.2786937,0 42.816435,15.2507266 42.816435,15.2507266 L52,15.2533333 L52,59.8986667 C52,62.9919426 48.9119821,66 45.8823529,66 Z M41.2941176,1.52533333 C44.3529412,5.79559635 44.3529412,13.728 44.3529412,13.728 L52,13.728 C52,13.728 47.7877851,9.05554948 41.2941176,1.52533333 Z M12,50 C12,49.4477153 12.4461086,49 12.9929654,49 L38.0070346,49 C38.5554342,49 39,49.4438648 39,50 L39,50 C39,50.5522847 38.5538914,51 38.0070346,51 L12.9929654,51 C12.4445658,51 12,50.5561352 12,50 L12,50 Z M9,30 C9,29.4477153 9.44335318,29 10.0093689,29 L11.9906311,29 C12.5480902,29 13,29.4438648 13,30 L13,30 C13,30.5522847 12.5566468,31 11.9906311,31 L10.0093689,31 C9.45190985,31 9,30.5561352 9,30 L9,30 Z M14,30 C14,29.4477153 14.4433532,29 15.0093689,29 L16.9906311,29 C17.5480902,29 18,29.4438648 18,30 L18,30 C18,30.5522847 17.5566468,31 16.9906311,31 L15.0093689,31 C14.4519098,31 14,30.5561352 14,30 L14,30 Z M19,30 C19,29.4477153 19.4433532,29 20.0093689,29 L21.9906311,29 C22.5480902,29 23,29.4438648 23,30 L23,30 C23,30.5522847 22.5566468,31 21.9906311,31 L20.0093689,31 C19.4519098,31 19,30.5561352 19,30 L19,30 Z M24,30 C24,29.4477153 24.4433532,29 25.0093689,29 L26.9906311,29 C27.5480902,29 28,29.4438648 28,30 L28,30 C28,30.5522847 27.5566468,31 26.9906311,31 L25.0093689,31 C24.4519098,31 24,30.5561352 24,30 L24,30 Z M29,30 C29,29.4477153 29.4433532,29 30.0093689,29 L31.9906311,29 C32.5480902,29 33,29.4438648 33,30 L33,30 C33,30.5522847 32.5566468,31 31.9906311,31 L30.0093689,31 C29.4519098,31 29,30.5561352 29,30 L29,30 Z M34,30 C34,29.4477153 34.4433532,29 35.0093689,29 L36.9906311,29 C37.5480902,29 38,29.4438648 38,30 L38,30 C38,30.5522847 37.5566468,31 36.9906311,31 L35.0093689,31 C34.4519098,31 34,30.5561352 34,30 L34,30 Z M39,30 C39,29.4477153 39.4433532,29 40.0093689,29 L41.9906311,29 C42.5480902,29 43,29.4438648 43,30 L43,30 C43,30.5522847 42.5566468,31 41.9906311,31 L40.0093689,31 C39.4519098,31 39,30.5561352 39,30 L39,30 Z M9,34 C9,33.4477153 9.44335318,33 10.0093689,33 L11.9906311,33 C12.5480902,33 13,33.4438648 13,34 L13,34 C13,34.5522847 12.5566468,35 11.9906311,35 L10.0093689,35 C9.45190985,35 9,34.5561352 9,34 L9,34 Z M14,34 C14,33.4477153 14.4433532,33 15.0093689,33 L16.9906311,33 C17.5480902,33 18,33.4438648 18,34 L18,34 C18,34.5522847 17.5566468,35 16.9906311,35 L15.0093689,35 C14.4519098,35 14,34.5561352 14,34 L14,34 Z M19,34 C19,33.4477153 19.4433532,33 20.0093689,33 L21.9906311,33 C22.5480902,33 23,33.4438648 23,34 L23,34 C23,34.5522847 22.5566468,35 21.9906311,35 L20.0093689,35 C19.4519098,35 19,34.5561352 19,34 L19,34 Z M24,34 C24,33.4477153 24.4433532,33 25.0093689,33 L26.9906311,33 C27.5480902,33 28,33.4438648 28,34 L28,34 C28,34.5522847 27.5566468,35 26.9906311,35 L25.0093689,35 C24.4519098,35 24,34.5561352 24,34 L24,34 Z M29,34 C29,33.4477153 29.4433532,33 30.0093689,33 L31.9906311,33 C32.5480902,33 33,33.4438648 33,34 L33,34 C33,34.5522847 32.5566468,35 31.9906311,35 L30.0093689,35 C29.4519098,35 29,34.5561352 29,34 L29,34 Z M34,34 C34,33.4477153 34.4433532,33 35.0093689,33 L36.9906311,33 C37.5480902,33 38,33.4438648 38,34 L38,34 C38,34.5522847 37.5566468,35 36.9906311,35 L35.0093689,35 C34.4519098,35 34,34.5561352 34,34 L34,34 Z M39,34 C39,33.4477153 39.4433532,33 40.0093689,33 L41.9906311,33 C42.5480902,33 43,33.4438648 43,34 L43,34 C43,34.5522847 42.5566468,35 41.9906311,35 L40.0093689,35 C39.4519098,35 39,34.5561352 39,34 L39,34 Z M9,38 C9,37.4477153 9.44335318,37 10.0093689,37 L11.9906311,37 C12.5480902,37 13,37.4438648 13,38 L13,38 C13,38.5522847 12.5566468,39 11.9906311,39 L10.0093689,39 C9.45190985,39 9,38.5561352 9,38 L9,38 Z M14,38 C14,37.4477153 14.4433532,37 15.0093689,37 L16.9906311,37 C17.5480902,37 18,37.4438648 18,38 L18,38 C18,38.5522847 17.5566468,39 16.9906311,39 L15.0093689,39 C14.4519098,39 14,38.5561352 14,38 L14,38 Z M19,38 C19,37.4477153 19.4433532,37 20.0093689,37 L21.9906311,37 C22.5480902,37 23,37.4438648 23,38 L23,38 C23,38.5522847 22.5566468,39 21.9906311,39 L20.0093689,39 C19.4519098,39 19,38.5561352 19,38 L19,38 Z M24,38 C24,37.4477153 24.4433532,37 25.0093689,37 L26.9906311,37 C27.5480902,37 28,37.4438648 28,38 L28,38 C28,38.5522847 27.5566468,39 26.9906311,39 L25.0093689,39 C24.4519098,39 24,38.5561352 24,38 L24,38 Z M29,38 C29,37.4477153 29.4433532,37 30.0093689,37 L31.9906311,37 C32.5480902,37 33,37.4438648 33,38 L33,38 C33,38.5522847 32.5566468,39 31.9906311,39 L30.0093689,39 C29.4519098,39 29,38.5561352 29,38 L29,38 Z M34,38 C34,37.4477153 34.4433532,37 35.0093689,37 L36.9906311,37 C37.5480902,37 38,37.4438648 38,38 L38,38 C38,38.5522847 37.5566468,39 36.9906311,39 L35.0093689,39 C34.4519098,39 34,38.5561352 34,38 L34,38 Z M39,38 C39,37.4477153 39.4433532,37 40.0093689,37 L41.9906311,37 C42.5480902,37 43,37.4438648 43,38 L43,38 C43,38.5522847 42.5566468,39 41.9906311,39 L40.0093689,39 C39.4519098,39 39,38.5561352 39,38 L39,38 Z M12,56 C12,55.4477153 12.4461086,55 12.9929654,55 L38.0070346,55 C38.5554342,55 39,55.4438648 39,56 C39,56.5522847 38.5538914,57 38.0070346,57 L12.9929654,57 C12.4445658,57 12,56.5561352 12,56 Z M16,17 C16,16.4477153 16.4433532,16 17.0093689,16 L18.9906311,16 C19.5480902,16 20,16.4438648 20,17 C20,17.5522847 19.5566468,18 18.9906311,18 L17.0093689,18 C16.4519098,18 16,17.5561352 16,17 Z M32,17 C32,16.4477153 32.4433532,16 33.0093689,16 L34.9906311,16 C35.5480902,16 36,16.4438648 36,17 C36,17.5522847 35.5566468,18 34.9906311,18 L33.0093689,18 C32.4519098,18 32,17.5561352 32,17 Z" id="path-7"></path>
        <filter x="-6.7%" y="-3.8%" width="113.5%" height="110.6%" filterUnits="objectBoundingBox" id="filter-8">
            <feOffset dx="0" dy="1" in="SourceAlpha" result="shadowOffsetOuter1"></feOffset>
            <feGaussianBlur stdDeviation="1" in="shadowOffsetOuter1" result="shadowBlurOuter1"></feGaussianBlur>
            <feColorMatrix values="0 0 0 0 0   0 0 0 0 0   0 0 0 0 0  0 0 0 0.2 0" type="matrix" in="shadowBlurOuter1"></feColorMatrix>
        </filter>
    </defs>
    <g id="Design-System-" stroke="none" stroke-width="1" fill="none" fill-rule="evenodd">
        <g id="UI-Component---Icons-Kit" transform="translate(-660.000000, -2742.000000)">
            <g id="Icons" transform="translate(268.000000, 119.000000)">
                <g transform="translate(0.000000, 2577.000000)" id="Icon">
                    <g transform="translate(380.000000, 0.000000)">
                        <g id="Icon-">
                            <g id="Icon/Modal/Covert-to-XLS,-Fill-XLS-File" transform="translate(0.000000, 40.000000)">
                                <g id="Group-3" transform="translate(14.000000, 7.000000)">
                                    <g id="Combined-Shape" transform="translate(62.000000, 52.000000) scale(1, -1) rotate(-270.000000) translate(-62.000000, -52.000000) ">
                                        <use fill="black" fill-opacity="1" filter="url(#filter-2)" xlink:href="#path-1"></use>
                                        <use fill="#FFFFFF" fill-rule="evenodd" xlink:href="#path-1"></use>
                                    </g>
                                    <g id="Combined-Shape" transform="translate(72.500000, 16.826154) scale(1, -1) rotate(-270.000000) translate(-72.500000, -16.826154) ">
                                        <use fill="black" fill-opacity="1" filter="url(#filter-4)" xlink:href="#path-3"></use>
                                        <use fill="#FFFFFF" fill-rule="evenodd" xlink:href="#path-3"></use>
                                    </g>
                                    <path d="M72.5,32.5 C73.0522847,32.5 73.5,32.9433532 73.5,33.5093689 L73.5,35.4906311 C73.5,36.0480902 73.0561352,36.5 72.5,36.5 C71.9477153,36.5 71.5,36.0566468 71.5,35.4906311 L71.5,33.5093689 C71.5,32.9519098 71.9438648,32.5 72.5,32.5 Z M60.5,32.5 C61.0522847,32.5 61.5,32.9433532 61.5,33.5093689 L61.5,35.4906311 C61.5,36.0480902 61.0561352,36.5 60.5,36.5 C59.9477153,36.5 59.5,36.0566468 59.5,35.4906311 L59.5,33.5093689 C59.5,32.9519098 59.9438648,32.5 60.5,32.5 Z M75.5,34.5 C76.0522847,34.5 76.5,34.9438648 76.5,35.5 C76.5,36.0522847 76.0561352,36.5 75.5,36.5 C74.9477153,36.5 74.5,36.0561352 74.5,35.5 C74.5,34.9477153 74.9438648,34.5 75.5,34.5 Z M57.5,34.5 C58.0522847,34.5 58.5,34.9438648 58.5,35.5 C58.5,36.0522847 58.0561352,36.5 57.5,36.5 C56.9477153,36.5 56.5,36.0561352 56.5,35.5 C56.5,34.9477153 56.9438648,34.5 57.5,34.5 Z M69.5,29.5 C70.0561352,29.5 70.5,29.9488226 70.5,30.5024733 L70.5,40.4975267 C70.5,41.044239 70.0522847,41.5 69.5,41.5 C68.9438648,41.5 68.5,41.0511774 68.5,40.4975267 L68.5,30.5024733 C68.5,29.955761 68.9477153,29.5 69.5,29.5 Z M63.5,29.5 C64.0561352,29.5 64.5,29.9488226 64.5,30.5024733 L64.5,40.4975267 C64.5,41.044239 64.0522847,41.5 63.5,41.5 C62.9438648,41.5 62.5,41.0511774 62.5,40.4975267 L62.5,30.5024733 C62.5,29.955761 62.9477153,29.5 63.5,29.5 Z M66.5,26.5 C67.0561352,26.5 67.5,26.9510659 67.5,27.507484 L67.5,40.492516 C67.5,41.0510798 67.0522847,41.5 66.5,41.5 C65.9438648,41.5 65.5,41.0489341 65.5,40.492516 L65.5,27.507484 C65.5,26.9489202 65.9477153,26.5 66.5,26.5 Z" id="Combined-Shape" fill="#FFFFFF" transform="translate(66.500000, 34.000000) scale(1, -1) rotate(-270.000000) translate(-66.500000, -34.000000) "></path>
                                    <g id="Combined-Shape">
                                        <use fill="black" fill-opacity="1" filter="url(#filter-6)" xlink:href="#path-5"></use>
                                        <use fill="#FFFFFF" fill-rule="evenodd" xlink:href="#path-5"></use>
                                    </g>
                                    <g id="Combined-Shape">
                                        <use fill="black" fill-opacity="1" filter="url(#filter-8)" xlink:href="#path-7"></use>
                                        <use fill="#FFFFFF" fill-rule="evenodd" xlink:href="#path-7"></use>
                                    </g>
                                </g>
                            </g>
                        </g>
                    </g>
                </g>
            </g>
        </g>
    </g>
</svg>