<?xml version="1.0" encoding="UTF-8"?>
<svg width="92px" height="66px" viewBox="0 0 92 66" version="1.1" xmlns="http://www.w3.org/2000/svg" xmlns:xlink="http://www.w3.org/1999/xlink">
    <!-- Generator: Sketch 45.2 (43514) - http://www.bohemiancoding.com/sketch -->
    <title>Icon/Modal/Delete@1.5x</title>
    <desc>Created with Sketch.</desc>
    <defs></defs>
    <g id="Design-System-" stroke="none" stroke-width="1" fill="none" fill-rule="evenodd">
        <g id="UI-Component---Icons-Kit" transform="translate(-1062.000000, -2743.000000)" fill="#FFFFFF">
            <g id="Icons" transform="translate(268.000000, 119.000000)">
                <g transform="translate(0.000000, 2577.000000)" id="Icon">
                    <g transform="translate(760.000000, 0.000000)">
                        <g id="Icon-">
                            <g id="Icon/Modal/Delete" transform="translate(0.000000, 40.000000)">
                                <g id="Group-4" transform="translate(34.000000, 7.000000)">
                                    <path d="M81,1 C81.5522847,1 82,1.44154413 82,2.00564303 L82,32.994357 C82,33.5497583 81.5561352,34 81,34 C80.4477153,34 80,33.5584559 80,32.994357 L80,2.00564303 C80,1.45024172 80.4438648,1 81,1 Z M81,38 C81.5522847,38 82,38.4433532 82,39.0093689 L82,40.9906311 C82,41.5480902 81.5561352,42 81,42 C80.4477153,42 80,41.5566468 80,40.9906311 L80,39.0093689 C80,38.4519098 80.4438648,38 81,38 Z M11,38 C11.5522847,38 12,38.4433532 12,39.0093689 L12,40.9906311 C12,41.5480902 11.5561352,42 11,42 C10.4477153,42 10,41.5566468 10,40.9906311 L10,39.0093689 C10,38.4519098 10.4438648,38 11,38 Z M91,25 C91.5522847,25 92,25.4386148 92,25.9987461 L92,45.0012539 C92,45.5528461 91.5561352,46 91,46 C90.4477153,46 90,45.5613852 90,45.0012539 L90,25.9987461 C90,25.4471539 90.4438648,25 91,25 Z M11,-6.38286333e-14 C11.5561352,-6.52297838e-16 12,0.447331172 12,0.999142136 L12,33.0008579 C12,33.5450757 11.5522847,34 11,34 C10.4438648,34 10,33.5526688 10,33.0008579 L10,0.999142136 C10,0.454924256 10.4477153,-1.26567564e-13 11,-6.38286333e-14 Z M1,25 C1.55613518,25 2,25.4471539 2,25.9987461 L2,45.0012539 C2,45.5613852 1.55228475,46 1,46 C0.443864822,46 -5.81041326e-15,45.5528461 -5.77663798e-15,45.0012539 L-4.61306996e-15,25.9987461 C-4.57877181e-15,25.4386148 0.44771525,25 1,25 Z" id="Combined-Shape" transform="translate(46.000000, 23.000000) scale(1, -1) translate(-46.000000, -23.000000) "></path>
                                    <path d="M65.8823529,66 L26.1176471,66 C23.0880179,66 20,62.9919426 20,59.8986667 L20,6.10133333 C20,3.00805736 23.0880179,0 26.1176471,0 L56.7058824,0 C63.2786937,0 62.816435,15.2507266 62.816435,15.2507266 L72,15.2533333 L72,59.8986667 C72,62.9919426 68.9119821,66 65.8823529,66 Z M61.2941176,1.52533333 C67.7877851,9.05554948 72,13.728 72,13.728 L64.3529412,13.728 C64.3529412,13.728 64.3529412,5.79559635 61.2941176,1.52533333 Z M36,18 C36,16.8954305 36.8877296,16 38,16 C39.1045695,16 40,16.8877296 40,18 C40,19.1045695 39.1122704,20 38,20 C36.8954305,20 36,19.1122704 36,18 Z M52,18 C52,16.8954305 52.8877296,16 54,16 C55.1045695,16 56,16.8877296 56,18 C56,19.1045695 55.1122704,20 54,20 C52.8954305,20 52,19.1122704 52,18 Z M30.6710526,30.4281875 L30.6710526,30.3538732 C30.6710526,30.1479597 30.7385049,29.9788189 30.8734113,29.8464459 C31.0083178,29.7140728 31.1806957,29.6478873 31.3905502,29.6478873 L38.338199,29.6478873 L39.9121,25.9635233 C40.1369442,25.4193231 40.5416575,24.9560245 41.1262522,24.5736136 C41.710847,24.1912026 42.3029276,24 42.902512,24 L50.097488,24 C50.6970724,24 51.289153,24.1912026 51.8737478,24.5736136 C52.4583425,24.9560245 52.8630558,25.4193231 53.0879,25.9635233 L54.661801,29.6478873 L61.6094498,29.6478873 C61.8193043,29.6478873 61.9916822,29.7140728 62.1265887,29.8464459 C62.2614951,29.9788189 62.3289474,30.1479597 62.3289474,30.3538732 L62.3289474,30.4281875 C62.3289474,30.6341011 62.2614951,30.8032419 62.1265887,30.9356149 C61.9916822,31.0679879 61.8193043,31.1341735 61.6094498,31.1341735 L59.4509569,31.1341735 L59.4509569,53.3866637 C59.4509569,54.6074371 59.0987064,55.6627285 58.3941948,56.5525693 C57.6896832,57.4424102 56.8427831,57.8873239 55.8534689,57.8873239 L37.1465311,57.8873239 C36.1572169,57.8873239 35.3103168,57.4571181 34.6058052,56.5966934 C33.9012936,55.7362688 33.5490431,54.6956854 33.5490431,53.474912 L33.5490431,31.1341735 L31.3905502,31.1341735 C31.1806957,31.1341735 31.0083178,31.0679879 30.8734113,30.9356149 C30.7385049,30.8032419 30.6710526,30.6341011 30.6710526,30.4281875 Z M35.089376,54.7243213 C35.089376,55.0478998 35.1418388,55.3457346 35.2467661,55.6178347 C35.3516933,55.8899348 35.4603664,56.0884913 35.5727884,56.2135103 C35.6852105,56.3385293 35.7639048,56.4010378 35.8088736,56.4010378 L57.1911264,56.4010378 C57.2360952,56.4010378 57.3147895,56.3385293 57.4272116,56.2135103 C57.5396336,56.0884913 57.6483067,55.8899348 57.7532339,55.6178347 C57.8581612,55.3457346 57.910624,55.0478998 57.910624,54.7243213 L57.910624,31.1341735 L35.089376,31.1341735 L35.089376,54.7243213 Z M39.3050239,50.1214789 L39.3050239,37.4137324 C39.3050239,37.2078188 39.3724761,37.038678 39.5073826,36.906305 C39.6422891,36.773932 39.814667,36.7077465 40.0245215,36.7077465 L40.1258592,36.7077465 C40.3357137,36.7077465 40.5080917,36.773932 40.6429981,36.906305 C40.7779046,37.038678 40.8453568,37.2078188 40.8453568,37.4137324 L40.8453568,50.1214789 C40.8453568,50.3273925 40.7779046,50.4965332 40.6429981,50.6289063 C40.5080917,50.7612793 40.3357137,50.8274648 40.1258592,50.8274648 L40.0245215,50.8274648 C39.814667,50.8274648 39.6422891,50.7612793 39.5073826,50.6289063 C39.3724761,50.4965332 39.3050239,50.3273925 39.3050239,50.1214789 Z M39.6799734,29.6478873 L53.3200266,29.6478873 L51.3490085,25.7289688 C51.2440813,25.5965958 51.1166715,25.5157024 50.9667754,25.4862861 L42.0557089,25.4862861 C41.9058128,25.5157024 41.778403,25.5965958 41.6734758,25.7289688 L39.6799734,29.6478873 Z M45.9527765,50.1214789 L45.9527765,37.4137324 C45.9527765,37.2078188 46.0202287,37.038678 46.1551352,36.906305 C46.2900416,36.773932 46.4624196,36.7077465 46.6722741,36.7077465 L46.7736118,36.7077465 C46.9834663,36.7077465 47.1558442,36.773932 47.2907507,36.906305 C47.4256571,37.038678 47.4931094,37.2078188 47.4931094,37.4137324 L47.4931094,50.1214789 C47.4931094,50.3273925 47.4256571,50.4965332 47.2907507,50.6289063 C47.1558442,50.7612793 46.9834663,50.8274648 46.7736118,50.8274648 L46.6722741,50.8274648 C46.4624196,50.8274648 46.2900416,50.7612793 46.1551352,50.6289063 C46.0202287,50.4965332 45.9527765,50.3273925 45.9527765,50.1214789 Z M52.1546432,50.1214789 L52.1546432,37.4137324 C52.1546432,37.2078188 52.2220954,37.038678 52.3570019,36.906305 C52.4919083,36.773932 52.6642863,36.7077465 52.8741408,36.7077465 L52.9754785,36.7077465 C53.185333,36.7077465 53.3577109,36.773932 53.4926174,36.906305 C53.6275239,37.038678 53.6949761,37.2078188 53.6949761,37.4137324 L53.6949761,50.1214789 C53.6949761,50.3273925 53.6275239,50.4965332 53.4926174,50.6289063 C53.3577109,50.7612793 53.185333,50.8274648 52.9754785,50.8274648 L52.8741408,50.8274648 C52.6642863,50.8274648 52.4919083,50.7612793 52.3570019,50.6289063 C52.2220954,50.4965332 52.1546432,50.3273925 52.1546432,50.1214789 Z" id="Combined-Shape"></path>
                                </g>
                            </g>
                        </g>
                    </g>
                </g>
            </g>
        </g>
    </g>
</svg>