<?xml version="1.0" encoding="UTF-8"?>
<svg width="19px" height="19px" viewBox="0 0 19 19" version="1.1" xmlns="http://www.w3.org/2000/svg" xmlns:xlink="http://www.w3.org/1999/xlink">
    <!-- Generator: Sketch 45.1 (43504) - http://www.bohemiancoding.com/sketch -->
    <title>Icon/Duplicate/Duplicate-Gray@svg</title>
    <desc>Created with Sketch.</desc>
    <defs></defs>
    <g id="Sales-Order" stroke="none" stroke-width="1" fill="none" fill-rule="evenodd">
        <g id="Order-1.1.2.0" transform="translate(-1155.000000, -756.000000)" stroke="#77909D">
            <g id="Version" transform="translate(583.000000, 594.000000)">
                <g id="Items" transform="translate(11.000000, 80.000000)">
                    <g id="Item" transform="translate(0.000000, 72.000000)">
                        <g id="Icon/Duplicate/Duplicate-Gray" transform="translate(561.000000, 9.000000)">
                            <rect id="Rectangle-6" x="1" y="5" width="14" height="14" rx="1"></rect>
                            <path d="M4,4.05249023 L4,3 L4,3 C4,2.44771525 4.44771525,2 5,2 L5,2 L17,2 L17,2 C17.5522847,2 18,2.44771525 18,3 L18,15 L18,15 C18,15.5522847 17.5522847,16 17,16 L15.9943848,16" id="Rectangle-6"></path>
                            <path d="M3,9 L13,9" id="Line" stroke-linecap="square"></path>
                            <path d="M3,11 L13,11" id="Line" stroke-linecap="square"></path>
                            <path d="M3,13 L13,13" id="Line" stroke-linecap="square"></path>
                            <path d="M3,15 L13,15" id="Line" stroke-linecap="square"></path>
                        </g>
                    </g>
                </g>
            </g>
        </g>
    </g>
</svg>