<?xml version="1.0" encoding="UTF-8"?>
<svg width="92px" height="66px" viewBox="0 0 92 66" version="1.1" xmlns="http://www.w3.org/2000/svg" xmlns:xlink="http://www.w3.org/1999/xlink">
    <!-- Generator: Sketch 45.2 (43514) - http://www.bohemiancoding.com/sketch -->
    <title>Icon/Modal/Export, PDF File@1.5x</title>
    <desc>Created with Sketch.</desc>
    <defs></defs>
    <g id="Design-System-" stroke="none" stroke-width="1" fill="none" fill-rule="evenodd">
        <g id="UI-Component---Icons-Kit" transform="translate(-302.000000, -2743.000000)" fill="#FFFFFF">
            <g id="Icons" transform="translate(268.000000, 119.000000)">
                <g transform="translate(0.000000, 2577.000000)" id="Icon">
                    <g>
                        <g id="Icon-">
                            <g id="Icon/Modal/Export,-PDF-File" transform="translate(0.000000, 40.000000)">
                                <g id="Sad-File" transform="translate(34.000000, 7.000000)">
                                    <path d="M65.8823529,66 L26.1176471,66 C23.0880179,66 20,62.9919426 20,59.8986667 L20,6.10133333 C20,3.00805736 23.0880179,-4.97379915e-14 26.1176471,-4.97379915e-14 L56.7058824,-4.97379915e-14 C63.2786937,-4.97379915e-14 62.816435,15.2507266 62.816435,15.2507266 L72,15.2533333 L72,59.8986667 C72,62.9919426 68.9119821,66 65.8823529,66 Z M61.2941176,1.52533333 C64.3529412,5.79559635 64.3529412,13.728 64.3529412,13.728 L72,13.728 C72,13.728 67.7877851,9.05554948 61.2941176,1.52533333 Z M32,50.864 C32,50.313188 32.4461086,49.8666667 32.9929654,49.8666667 L58.0070346,49.8666667 C58.5554342,49.8666667 59,50.3093478 59,50.864 L59,50.864 C59,51.414812 58.5538914,51.8613333 58.0070346,51.8613333 L32.9929654,51.8613333 C32.4445658,51.8613333 32,51.4186522 32,50.864 L32,50.864 Z M32,55.8506667 C32,55.2998547 32.4461086,54.8533333 32.9929654,54.8533333 L58.0070346,54.8533333 C58.5554342,54.8533333 59,55.2960145 59,55.8506667 C59,56.4014787 58.5538914,56.848 58.0070346,56.848 L32.9929654,56.848 C32.4445658,56.848 32,56.4053188 32,55.8506667 Z M36,18 C36,16.8954305 36.8877296,16 38,16 C39.1045695,16 40,16.8877296 40,18 C40,19.1045695 39.1122704,20 38,20 C36.8954305,20 36,19.1122704 36,18 Z M52,18 C52,16.8954305 52.8877296,16 54,16 C55.1045695,16 56,16.8877296 56,18 C56,19.1045695 55.1122704,20 54,20 C52.8954305,20 52,19.1122704 52,18 Z M40.4921875,31.140625 C40.4921875,32.3697978 40.1080768,33.3098926 39.3398438,33.9609375 C38.5716107,34.6119824 37.4791738,34.9375 36.0625,34.9375 L35.0234375,34.9375 L35.0234375,39 L32.6015625,39 L32.6015625,27.578125 L36.25,27.578125 C37.6354236,27.578125 38.6887985,27.8762991 39.4101562,28.4726562 C40.131514,29.0690134 40.4921875,29.9583274 40.4921875,31.140625 Z M35.0234375,32.953125 L35.8203125,32.953125 C36.5651079,32.953125 37.122394,32.8059911 37.4921875,32.5117188 C37.861981,32.2174464 38.046875,31.7890653 38.046875,31.2265625 C38.046875,30.6588513 37.8919286,30.2395847 37.5820312,29.96875 C37.2721339,29.6979153 36.7864616,29.5625 36.125,29.5625 L35.0234375,29.5625 L35.0234375,32.953125 Z M52.125,33.1796875 C52.125,35.0599052 51.5898491,36.499995 50.5195312,37.5 C49.4492134,38.500005 47.9036559,39 45.8828125,39 L42.6484375,39 L42.6484375,27.578125 L46.234375,27.578125 C48.0989677,27.578125 49.5468698,28.0703076 50.578125,29.0546875 C51.6093802,30.0390674 52.125,31.4140537 52.125,33.1796875 Z M49.609375,33.2421875 C49.609375,30.7890502 48.5260525,29.5625 46.359375,29.5625 L45.0703125,29.5625 L45.0703125,37 L46.109375,37 C48.44272,37 49.609375,35.7474084 49.609375,33.2421875 Z M56.875,39 L54.4921875,39 L54.4921875,27.578125 L61.0390625,27.578125 L61.0390625,29.5625 L56.875,29.5625 L56.875,32.5078125 L60.75,32.5078125 L60.75,34.484375 L56.875,34.484375 L56.875,39 Z" id="Combined-Shape"></path>
                                    <path d="M81,21 C81.5522847,21 82,21.4415441 82,22.005643 L82,52.994357 C82,53.5497583 81.5561352,54 81,54 C80.4477153,54 80,53.5584559 80,52.994357 L80,22.005643 C80,21.4502417 80.4438648,21 81,21 Z M81,58 C81.5522847,58 82,58.4433532 82,59.0093689 L82,60.9906311 C82,61.5480902 81.5561352,62 81,62 C80.4477153,62 80,61.5566468 80,60.9906311 L80,59.0093689 C80,58.4519098 80.4438648,58 81,58 Z M11,58 C11.5522847,58 12,58.4433532 12,59.0093689 L12,60.9906311 C12,61.5480902 11.5561352,62 11,62 C10.4477153,62 10,61.5566468 10,60.9906311 L10,59.0093689 C10,58.4519098 10.4438648,58 11,58 Z M91,45 C91.5522847,45 92,45.4386148 92,45.9987461 L92,65.0012539 C92,65.5528461 91.5561352,66 91,66 C90.4477153,66 90,65.5613852 90,65.0012539 L90,45.9987461 C90,45.4471539 90.4438648,45 91,45 Z M11,20 C11.5561352,20 12,20.4473312 12,20.9991421 L12,53.0008579 C12,53.5450757 11.5522847,54 11,54 C10.4438648,54 10,53.5526688 10,53.0008579 L10,20.9991421 C10,20.4549243 10.4477153,20 11,20 Z M1,45 C1.55613518,45 2,45.4471539 2,45.9987461 L2,65.0012539 C2,65.5613852 1.55228475,66 1,66 C0.443864822,66 -5.81041326e-15,65.5528461 -5.77663798e-15,65.0012539 L-4.61306996e-15,45.9987461 C-4.57877181e-15,45.4386148 0.44771525,45 1,45 Z" id="Combined-Shape"></path>
                                </g>
                            </g>
                        </g>
                    </g>
                </g>
            </g>
        </g>
    </g>
</svg>