<?xml version="1.0" encoding="UTF-8"?>
<svg width="24px" height="21px" viewBox="0 0 24 21" version="1.1" xmlns="http://www.w3.org/2000/svg" xmlns:xlink="http://www.w3.org/1999/xlink">
    <defs>
        <filter x="-50%" y="-50%" width="200%" height="200%" filterUnits="objectBoundingBox" id="filter-1">
            <feGaussianBlur stdDeviation="1" in="SourceGraphic"></feGaussianBlur>
        </filter>
        <path d="M4.85949802,15.1811675 L5.35192871,17.3961182 C5.73021497,18.0688991 7.3763185,17.5950517 7.24975586,17.2237549 L6.75766854,15.0131297 C7.0012457,15.0043766 7.24868952,15 7.5,15 C8.76996527,15 9.94118923,15.1117622 11.0136719,15.3352865 C12.0861545,15.5588108 12.9353299,15.8620877 13.5611979,16.2451172 C14.187066,16.6281467 14.5,17.046441 14.5,17.5 C14.5,17.953559 14.187066,18.3718533 13.5611979,18.7548828 C12.9353299,19.1379123 12.0861545,19.4411892 11.0136719,19.6647135 C9.94118923,19.8882378 8.76996527,20 7.5,20 C6.23003473,20 5.05881077,19.8882378 3.98632812,19.6647135 C2.91384548,19.4411892 2.06467014,19.1379123 1.43880208,18.7548828 C0.812934025,18.3718533 0.5,17.953559 0.5,17.5 C0.5,17.046441 0.812934025,16.6281467 1.43880208,16.2451172 C2.06467014,15.8620877 2.91384548,15.5588108 3.98632812,15.3352865 C4.27045462,15.2760695 4.56151125,15.2246965 4.85949802,15.1811675 Z M3.38532003,0.684065418 L6.93632717,17.1419693 C7.04978664,17.4748254 5.9048193,17.7450965 5.56569742,17.1419693 L1.89584882,0.952296069 C1.78494278,0.593787257 2.05444745,0.303922453 2.45648187,0.205023471 C2.65403327,0.158664572 2.8585163,0.183389318 3.03527281,0.273016521 C3.20856351,0.362643724 3.33679863,0.510992198 3.38532003,0.684065418 Z M17.9421656,5.48342092 C17.9976186,5.67194711 17.8901784,5.74303075 17.692627,5.65649414 C14.1367018,4.1297411 9.22213121,9.27282394 5.56569742,7.40919624 C4.92452183,5.27359633 4.30754425,2.82275592 3.66636866,0.684065418 C7.32626826,2.55078372 12.4510385,-0.0207541129 16.0104295,1.50908953 C16.2045151,1.59253554 16.4020665,1.82433003 16.4575195,2.00976562 C17.0328447,3.91975223 17.3668404,3.57034372 17.9421656,5.48342092 Z" id="path-2"></path>
    </defs>
    <g id="Inquiry-1.0.0.0" stroke="none" stroke-width="1" fill="none" fill-rule="evenodd">
        <g id="Inquiry-1.1.6.2" transform="translate(-257.000000, -431.000000)">
            <g id="process-data-container" transform="translate(239.000000, 416.000000)">
                <g id="inquiry" transform="translate(10.000000, 9.000000)">
                    <g id="icon/flag/flag-white" transform="translate(10.000000, 6.000000)">
                        <path d="M5.73725434,15.9641322 L5.35192871,17.394115 C5.73021497,17.8090373 7.3763185,17.5168027 7.24975586,17.2878138 L7.59120598,15.9164823 C8.82608964,15.9197094 9.96691161,15.9885965 11.0136719,16.1231438 C12.0861545,16.2609973 12.9353299,16.4480365 13.5611979,16.6842612 C14.187066,16.920486 14.5,17.1784595 14.5,17.4581817 C14.5,17.737904 14.187066,17.9958775 13.5611979,18.2321022 C12.9353299,18.468327 12.0861545,18.6553661 11.0136719,18.7932197 C9.94118923,18.9310732 8.76996527,19 7.5,19 C6.23003473,19 5.05881077,18.9310732 3.98632812,18.7932197 C2.91384548,18.6553661 2.06467014,18.468327 1.43880208,18.2321022 C0.812934025,17.9958775 0.5,17.737904 0.5,17.4581817 C0.5,17.1784595 0.812934025,16.920486 1.43880208,16.6842612 C2.06467014,16.4480365 2.91384548,16.2609973 3.98632812,16.1231438 C4.54333592,16.0515478 5.12697799,15.9985439 5.73725434,15.9641322 Z M9.38532003,8.30955795 L6.93632717,17.2373744 C7.04978664,17.4426559 5.9048193,17.6093395 5.56569742,17.2373744 L7.89584882,8.47498312 C7.78494278,8.25388095 8.05444745,8.07511341 8.45648187,8.0141197 C8.65403327,7.9855289 8.8585163,8.00077733 9.03527281,8.05605287 C9.20856351,8.11132842 9.33679863,8.20281897 9.38532003,8.30955795 Z M18.9421656,11.2694515 C18.9976186,11.3857208 18.8901784,11.42956 18.692627,11.3761905 C15.1367018,10.4346002 13.2221312,13.6064798 9.56569742,12.4571298 C8.92452183,11.140047 10.3075442,9.62854678 9.66636866,8.30955795 C13.3262683,9.4608141 15.4510385,7.8748765 19.0104295,8.81837285 C19.2045151,8.86983628 19.4020665,9.01279027 19.4575195,9.12715347 C20.0328447,10.3050944 18.3668404,10.0896046 18.9421656,11.2694515 Z" id="flag-shadow" fill="#36474F" fill-rule="evenodd" style="mix-blend-mode: multiply;" filter="url(#filter-1)"></path>
                        <mask id="mask-3" fill="white">
                            <use xlink:href="#path-2"></use>
                        </mask>
                        <use id="flag-white-shape" fill="#FFFFFF" fill-rule="evenodd" xlink:href="#path-2"></use>
                    </g>
                </g>
            </g>
        </g>
    </g>
</svg>