<?xml version="1.0" encoding="UTF-8"?>
<svg width="92px" height="66px" viewBox="0 0 92 66" version="1.1" xmlns="http://www.w3.org/2000/svg" xmlns:xlink="http://www.w3.org/1999/xlink">
    <!-- Generator: Sketch 45.2 (43514) - http://www.bohemiancoding.com/sketch -->
    <title>Icon/Modal/Import, XLS File@1.5x</title>
    <desc>Created with Sketch.</desc>
    <defs></defs>
    <g id="Design-System-" stroke="none" stroke-width="1" fill="none" fill-rule="evenodd">
        <g id="UI-Component---Icons-Kit" transform="translate(-872.000000, -2499.000000)" fill="#FFFFFF">
            <g id="Icons" transform="translate(268.000000, 119.000000)">
                <g transform="translate(0.000000, 2333.000000)" id="Icon">
                    <g transform="translate(570.000000, 0.000000)">
                        <g id="Icon-">
                            <g id="Icon/Modal/Import,-XLS-File" transform="translate(0.000000, 40.000000)">
                                <g id="Sad-File" transform="translate(34.000000, 7.000000)">
                                    <path d="M65.8823529,66 L26.1176471,66 C23.0880179,66 20,62.9919426 20,59.8986667 L20,6.10133333 C20,3.00805736 23.0880179,4.97379915e-14 26.1176471,4.97379915e-14 L56.7058824,4.97379915e-14 C63.2786937,4.97379915e-14 62.816435,15.2507266 62.816435,15.2507266 L72,15.2533333 L72,59.8986667 C72,62.9919426 68.9119821,66 65.8823529,66 Z M61.2941176,1.52533333 C64.3529412,5.79559635 64.3529412,13.728 64.3529412,13.728 L72,13.728 C72,13.728 67.7877851,9.05554948 61.2941176,1.52533333 Z M32,50.864 C32,50.313188 32.4461086,49.8666667 32.9929654,49.8666667 L58.0070346,49.8666667 C58.5554342,49.8666667 59,50.3093478 59,50.864 L59,50.864 C59,51.414812 58.5538914,51.8613333 58.0070346,51.8613333 L32.9929654,51.8613333 C32.4445658,51.8613333 32,51.4186522 32,50.864 L32,50.864 Z M32,55.8506667 C32,55.2998547 32.4461086,54.8533333 32.9929654,54.8533333 L58.0070346,54.8533333 C58.5554342,54.8533333 59,55.2960145 59,55.8506667 C59,56.4014787 58.5538914,56.848 58.0070346,56.848 L32.9929654,56.848 C32.4445658,56.848 32,56.4053188 32,55.8506667 Z M36,18 C36,16.8954305 36.8877296,16 38,16 C39.1045695,16 40,16.8877296 40,18 C40,19.1045695 39.1122704,20 38,20 C36.8954305,20 36,19.1122704 36,18 Z M52,18 C52,16.8954305 52.8877296,16 54,16 C55.1045695,16 56,16.8877296 56,18 C56,19.1045695 55.1122704,20 54,20 C52.8954305,20 52,19.1122704 52,18 Z M42.9101562,39 L40.1445312,39 L37.4882812,34.6796875 L34.8320312,39 L32.2382812,39 L36.0273438,33.109375 L32.4804688,27.578125 L35.1523438,27.578125 L37.6132812,31.6875 L40.0273438,27.578125 L42.6367188,27.578125 L39.0507812,33.2421875 L42.9101562,39 Z M44.3476562,39 L44.3476562,27.578125 L46.7695312,27.578125 L46.7695312,37 L51.4023438,37 L51.4023438,39 L44.3476562,39 Z M60.1289062,35.828125 C60.1289062,36.8593802 59.7578162,37.671872 59.015625,38.265625 C58.2734338,38.859378 57.240892,39.15625 55.9179688,39.15625 C54.6992127,39.15625 53.6210984,38.9270856 52.6835938,38.46875 L52.6835938,36.21875 C53.4544309,36.5625017 54.1067682,36.8046868 54.640625,36.9453125 C55.1744818,37.0859382 55.6627582,37.15625 56.1054688,37.15625 C56.6367214,37.15625 57.0442694,37.0546885 57.328125,36.8515625 C57.6119806,36.6484365 57.7539062,36.3463562 57.7539062,35.9453125 C57.7539062,35.721353 57.6914069,35.5221363 57.5664062,35.3476562 C57.4414056,35.1731762 57.2578137,35.0052091 57.015625,34.84375 C56.7734363,34.6822909 56.2799516,34.4244809 55.5351562,34.0703125 C54.8372361,33.7421859 54.3138038,33.4270848 53.9648438,33.125 C53.6158837,32.8229152 53.3372406,32.4713562 53.1289062,32.0703125 C52.9205719,31.6692688 52.8164062,31.2005235 52.8164062,30.6640625 C52.8164062,29.6536408 53.1588507,28.8593779 53.84375,28.28125 C54.5286493,27.7031221 55.4752544,27.4140625 56.6835938,27.4140625 C57.2773467,27.4140625 57.8437473,27.4843743 58.3828125,27.625 C58.9218777,27.7656257 59.4856741,27.9635404 60.0742188,28.21875 L59.2929688,30.1015625 C58.6835907,29.8515612 58.1796895,29.6770838 57.78125,29.578125 C57.3828105,29.4791662 56.9908873,29.4296875 56.6054688,29.4296875 C56.1471331,29.4296875 55.7955741,29.5364573 55.5507812,29.75 C55.3059884,29.9635427 55.1835938,30.2421858 55.1835938,30.5859375 C55.1835938,30.7994802 55.2330724,30.9856763 55.3320312,31.1445312 C55.4309901,31.3033862 55.5885406,31.4570305 55.8046875,31.6054688 C56.0208344,31.753907 56.532548,32.0208314 57.3398438,32.40625 C58.4075574,32.9166692 59.1393209,33.4283829 59.5351562,33.9414062 C59.9309916,34.4544296 60.1289062,35.0833296 60.1289062,35.828125 Z" id="Combined-Shape"></path>
                                    <path d="M81,1 C81.5522847,1 82,1.44154413 82,2.00564303 L82,32.994357 C82,33.5497583 81.5561352,34 81,34 C80.4477153,34 80,33.5584559 80,32.994357 L80,2.00564303 C80,1.45024172 80.4438648,1 81,1 Z M81,38 C81.5522847,38 82,38.4433532 82,39.0093689 L82,40.9906311 C82,41.5480902 81.5561352,42 81,42 C80.4477153,42 80,41.5566468 80,40.9906311 L80,39.0093689 C80,38.4519098 80.4438648,38 81,38 Z M11,38 C11.5522847,38 12,38.4433532 12,39.0093689 L12,40.9906311 C12,41.5480902 11.5561352,42 11,42 C10.4477153,42 10,41.5566468 10,40.9906311 L10,39.0093689 C10,38.4519098 10.4438648,38 11,38 Z M91,25 C91.5522847,25 92,25.4386148 92,25.9987461 L92,45.0012539 C92,45.5528461 91.5561352,46 91,46 C90.4477153,46 90,45.5613852 90,45.0012539 L90,25.9987461 C90,25.4471539 90.4438648,25 91,25 Z M11,-6.38286333e-14 C11.5561352,-6.52297838e-16 12,0.447331172 12,0.999142136 L12,33.0008579 C12,33.5450757 11.5522847,34 11,34 C10.4438648,34 10,33.5526688 10,33.0008579 L10,0.999142136 C10,0.454924256 10.4477153,-1.26567564e-13 11,-6.38286333e-14 Z M1,25 C1.55613518,25 2,25.4471539 2,25.9987461 L2,45.0012539 C2,45.5613852 1.55228475,46 1,46 C0.443864822,46 -5.81041326e-15,45.5528461 -5.77663798e-15,45.0012539 L-4.61306996e-15,25.9987461 C-4.57877181e-15,25.4386148 0.44771525,25 1,25 Z" id="Combined-Shape" transform="translate(46.000000, 23.000000) scale(1, -1) translate(-46.000000, -23.000000) "></path>
                                </g>
                            </g>
                        </g>
                    </g>
                </g>
            </g>
        </g>
    </g>
</svg>