<?xml version="1.0" encoding="UTF-8"?>
<svg width="18px" height="18px" viewBox="0 0 18 18" version="1.1" xmlns="http://www.w3.org/2000/svg" xmlns:xlink="http://www.w3.org/1999/xlink">
    <!-- Generator: Sketch 46.2 (44496) - http://www.bohemiancoding.com/sketch -->
    <title>icon/table/layouts-blue-rows@1.5x</title>
    <desc>Created with Sketch.</desc>
    <defs></defs>
    <g id="Job-Lists-1.0.0.0" stroke="none" stroke-width="1" fill="none" fill-rule="evenodd">
        <g id="List-Process-1.2.2.0-List-Settings-Export" transform="translate(-980.000000, -273.000000)" fill="#0078D7">
            <g id="table-actions" transform="translate(240.000000, 106.000000)">
                <g id="table-settings" transform="translate(723.000000, 39.000000)">
                    <g id="icon/table/layouts-blue" transform="translate(16.000000, 127.000000)">
                        <path d="M4,17 L4,11 L2,11 L2,17 L4,17 Z M1.49047852,9 L10.5095215,9 C10.7804053,9 11,9.22765279 11,9.50964952 L11,18.4903505 C11,18.7718221 10.7849426,19 10.5095215,19 L1.49047852,19 C1.21959471,19 1,18.7723472 1,18.4903505 L1,9.50964952 C1,9.22817786 1.21505737,9 1.49047852,9 Z M7,17 L7,11 L5,11 L5,17 L7,17 Z M10,17 L10,11 L8,11 L8,17 L10,17 Z" id="Combined-Shape" fill-rule="nonzero"></path>
                        <path d="M7,8 L5,8 L5,1.49826741 C5,1.22308192 5.21990657,1 5.49826741,1 L18.5017326,1 C18.7769181,1 19,1.21990657 19,1.49826741 L19,14.5017326 C19,14.7769181 18.7800934,15 18.5017326,15 L12,15 L12,13 L17,13 L17,3 L7,3 L7,8 Z" id="Combined-Shape" fill-rule="evenodd"></path>
                    </g>
                </g>
            </g>
        </g>
    </g>
</svg>