<?xml version="1.0" encoding="UTF-8"?>
<svg width="92px" height="66px" viewBox="0 0 92 66" version="1.1" xmlns="http://www.w3.org/2000/svg" xmlns:xlink="http://www.w3.org/1999/xlink">
    <!-- Generator: Sketch 45.2 (43514) - http://www.bohemiancoding.com/sketch -->
    <title>Icon/Modal/Print, Printer@1.5x</title>
    <desc>Created with Sketch.</desc>
    <defs></defs>
    <g id="Design-System-" stroke="none" stroke-width="1" fill="none" fill-rule="evenodd">
        <g id="UI-Component---Icons-Kit" transform="translate(-492.000000, -2743.000000)" fill="#FFFFFF">
            <g id="Icons" transform="translate(268.000000, 119.000000)">
                <g transform="translate(0.000000, 2577.000000)" id="Icon">
                    <g transform="translate(190.000000, 0.000000)">
                        <g id="Icon-">
                            <g id="Icon/Modal/Print,-Printer" transform="translate(0.000000, 40.000000)">
                                <g id="Group-2" transform="translate(34.000000, 7.000000)">
                                    <path d="M81,21 C81.5522847,21 82,21.4415441 82,22.005643 L82,52.994357 C82,53.5497583 81.5561352,54 81,54 C80.4477153,54 80,53.5584559 80,52.994357 L80,22.005643 C80,21.4502417 80.4438648,21 81,21 Z M81,58 C81.5522847,58 82,58.4433532 82,59.0093689 L82,60.9906311 C82,61.5480902 81.5561352,62 81,62 C80.4477153,62 80,61.5566468 80,60.9906311 L80,59.0093689 C80,58.4519098 80.4438648,58 81,58 Z M11,58 C11.5522847,58 12,58.4433532 12,59.0093689 L12,60.9906311 C12,61.5480902 11.5561352,62 11,62 C10.4477153,62 10,61.5566468 10,60.9906311 L10,59.0093689 C10,58.4519098 10.4438648,58 11,58 Z M91,45 C91.5522847,45 92,45.4386148 92,45.9987461 L92,65.0012539 C92,65.5528461 91.5561352,66 91,66 C90.4477153,66 90,65.5613852 90,65.0012539 L90,45.9987461 C90,45.4471539 90.4438648,45 91,45 Z M11,20 C11.5561352,20 12,20.4473312 12,20.9991421 L12,53.0008579 C12,53.5450757 11.5522847,54 11,54 C10.4438648,54 10,53.5526688 10,53.0008579 L10,20.9991421 C10,20.4549243 10.4477153,20 11,20 Z M1,45 C1.55613518,45 2,45.4471539 2,45.9987461 L2,65.0012539 C2,65.5613852 1.55228475,66 1,66 C0.443864822,66 -5.81041326e-15,65.5528461 -5.77663798e-15,65.0012539 L-4.61306996e-15,45.9987461 C-4.57877181e-15,45.4386148 0.44771525,45 1,45 Z" id="Combined-Shape"></path>
                                    <path d="M65.8823529,66 L26.1176471,66 C23.0880179,66 20,62.9919426 20,59.8986667 L20,6.10133333 C20,3.00805736 23.0880179,4.97379915e-14 26.1176471,4.97379915e-14 L56.7058824,4.97379915e-14 C63.2786937,4.97379915e-14 62.816435,15.2507266 62.816435,15.2507266 L72,15.2533333 L72,59.8986667 C72,62.9919426 68.9119821,66 65.8823529,66 Z M61.2941176,1.52533333 C64.3529412,5.79559635 64.3529412,13.728 64.3529412,13.728 L72,13.728 C72,13.728 67.7877851,9.05554948 61.2941176,1.52533333 Z M32,46.864 C32,46.313188 32.4461086,45.8666667 32.9929654,45.8666667 L58.0070346,45.8666667 C58.5554342,45.8666667 59,46.3093478 59,46.864 L59,46.864 C59,47.414812 58.5538914,47.8613333 58.0070346,47.8613333 L32.9929654,47.8613333 C32.4445658,47.8613333 32,47.4186522 32,46.864 L32,46.864 Z M32,51.8506667 C32,51.2998547 32.4461086,50.8533333 32.9929654,50.8533333 L58.0070346,50.8533333 C58.5554342,50.8533333 59,51.2960145 59,51.8506667 L59,51.8506667 C59,52.4014787 58.5538914,52.848 58.0070346,52.848 L32.9929654,52.848 C32.4445658,52.848 32,52.4053188 32,51.8506667 L32,51.8506667 Z M38,33 C38,32.4477153 38.4386148,32 38.9987461,32 L58.0012539,32 C58.5528461,32 59,32.4438648 59,33 L59,33 C59,33.5522847 58.5613852,34 58.0012539,34 L38.9987461,34 C38.4471539,34 38,33.5561352 38,33 L38,33 Z M33,33 C33,32.4477153 33.4433532,32 34.0093689,32 L35.9906311,32 C36.5480902,32 37,32.4438648 37,33 C37,33.5522847 36.5566468,34 35.9906311,34 L34.0093689,34 C33.4519098,34 33,33.5561352 33,33 Z M36,18 C36,16.8954305 36.8877296,16 38,16 C39.1045695,16 40,16.8877296 40,18 C40,19.1045695 39.1122704,20 38,20 C36.8954305,20 36,19.1122704 36,18 Z M52,18 C52,16.8954305 52.8877296,16 54,16 C55.1045695,16 56,16.8877296 56,18 C56,19.1045695 55.1122704,20 54,20 C52.8954305,20 52,19.1122704 52,18 Z M34,37 C47.2641602,37 45.6074219,37 58,37 C64.9897142,42.4821288 65.8917138,43.5496648 66,47.0833333 C66.0195246,47.7204742 66.0030716,56.9972053 66.0030716,56.9972053 C66.0013752,58.1033183 65.1084602,59 64.0027084,59 L27.9972916,59 C26.8942179,59 25.9987681,58.1081736 25.997375,57.0028054 C25.997375,57.0028054 25.9832143,47.672703 26,47.0833333 C26.0977832,43.6500243 26.9587218,42.5225711 34,37 Z" id="Combined-Shape"></path>
                                </g>
                            </g>
                        </g>
                    </g>
                </g>
            </g>
        </g>
    </g>
</svg>