<?xml version="1.0" encoding="UTF-8"?>
<svg width="92px" height="66px" viewBox="0 0 92 66" version="1.1" xmlns="http://www.w3.org/2000/svg" xmlns:xlink="http://www.w3.org/1999/xlink">
    <!-- Generator: Sketch 45.2 (43514) - http://www.bohemiancoding.com/sketch -->
    <title>Icon/Modal/Regret@1.5x</title>
    <desc>Created with Sketch.</desc>
    <defs></defs>
    <g id="Design-System-" stroke="none" stroke-width="1" fill="none" fill-rule="evenodd">
        <g id="UI-Component---Icons-Kit" transform="translate(-872.000000, -2743.000000)" fill="#FFFFFF">
            <g id="Icons" transform="translate(268.000000, 119.000000)">
                <g transform="translate(0.000000, 2577.000000)" id="Icon-Copy">
                    <g transform="translate(570.000000, 0.000000)">
                        <g id="Icon-">
                            <g id="Icon/Modal/Regret" transform="translate(0.000000, 40.000000)">
                                <g id="Group-4" transform="translate(34.000000, 7.000000)">
                                    <path d="M65.8823529,66 L26.1176471,66 C23.0880179,66 20,62.9919426 20,59.8986667 L20,6.10133333 C20,3.00805736 23.0880179,0 26.1176471,0 L56.7058824,0 C63.2786937,0 62.816435,15.2507266 62.816435,15.2507266 L72,15.2533333 L72,59.8986667 C72,62.9919426 68.9119821,66 65.8823529,66 Z M61.2941176,1.52533333 C64.3529412,5.79559635 64.3529412,13.728 64.3529412,13.728 L72,13.728 C72,13.728 67.7877851,9.05554948 61.2941176,1.52533333 Z M32,50.864 C32,50.313188 32.4461086,49.8666667 32.9929654,49.8666667 L58.0070346,49.8666667 C58.5554342,49.8666667 59,50.3093478 59,50.864 L59,50.864 C59,51.414812 58.5538914,51.8613333 58.0070346,51.8613333 L32.9929654,51.8613333 C32.4445658,51.8613333 32,51.4186522 32,50.864 L32,50.864 Z M29.2457602,35.921162 C29.1786331,35.3744557 29.5725635,34.8762124 30.1089139,34.8103569 L61.6479974,30.9378444 C62.1918311,30.87107 62.6866447,31.2563202 62.7542398,31.806838 L62.7542398,31.806838 C62.8213669,32.3535443 62.4274365,32.8517876 61.8910861,32.9176431 L30.3520026,36.7901556 C29.8081689,36.85693 29.3133553,36.4716798 29.2457602,35.921162 L29.2457602,35.921162 Z M32,55.8506667 C32,55.2998547 32.4461086,54.8533333 32.9929654,54.8533333 L58.0070346,54.8533333 C58.5554342,54.8533333 59,55.2960145 59,55.8506667 C59,56.4014787 58.5538914,56.848 58.0070346,56.848 L32.9929654,56.848 C32.4445658,56.848 32,56.4053188 32,55.8506667 Z M52,18 C52,16.8954305 52.8877296,16 54,16 C55.1045695,16 56,16.8877296 56,18 C56,19.1045695 55.1122704,20 54,20 C52.8954305,20 52,19.1122704 52,18 Z M35,18 C35,16.8954305 35.8877296,16 37,16 C38.1045695,16 39,16.8877296 39,18 C39,19.1045695 38.1122704,20 37,20 C35.8954305,20 35,19.1122704 35,18 Z" id="Combined-Shape"></path>
                                    <path d="M81,1 C81.5522847,1 82,1.44154413 82,2.00564303 L82,32.994357 C82,33.5497583 81.5561352,34 81,34 C80.4477153,34 80,33.5584559 80,32.994357 L80,2.00564303 C80,1.45024172 80.4438648,1 81,1 Z M81,38 C81.5522847,38 82,38.4433532 82,39.0093689 L82,40.9906311 C82,41.5480902 81.5561352,42 81,42 C80.4477153,42 80,41.5566468 80,40.9906311 L80,39.0093689 C80,38.4519098 80.4438648,38 81,38 Z M11,38 C11.5522847,38 12,38.4433532 12,39.0093689 L12,40.9906311 C12,41.5480902 11.5561352,42 11,42 C10.4477153,42 10,41.5566468 10,40.9906311 L10,39.0093689 C10,38.4519098 10.4438648,38 11,38 Z M91,25 C91.5522847,25 92,25.4386148 92,25.9987461 L92,45.0012539 C92,45.5528461 91.5561352,46 91,46 C90.4477153,46 90,45.5613852 90,45.0012539 L90,25.9987461 C90,25.4471539 90.4438648,25 91,25 Z M11,-6.38286333e-14 C11.5561352,-6.52297838e-16 12,0.447331172 12,0.999142136 L12,33.0008579 C12,33.5450757 11.5522847,34 11,34 C10.4438648,34 10,33.5526688 10,33.0008579 L10,0.999142136 C10,0.454924256 10.4477153,-1.26567564e-13 11,-6.38286333e-14 Z M1,25 C1.55613518,25 2,25.4471539 2,25.9987461 L2,45.0012539 C2,45.5613852 1.55228475,46 1,46 C0.443864822,46 -5.81041326e-15,45.5528461 -5.77663798e-15,45.0012539 L-4.61306996e-15,25.9987461 C-4.57877181e-15,25.4386148 0.44771525,25 1,25 Z" id="Combined-Shape" transform="translate(46.000000, 23.000000) scale(1, -1) translate(-46.000000, -23.000000) "></path>
                                </g>
                            </g>
                        </g>
                    </g>
                </g>
            </g>
        </g>
    </g>
</svg>