<?xml version="1.0" encoding="UTF-8"?>
<svg width="16px" height="16px" viewBox="0 0 16 16" version="1.1" xmlns="http://www.w3.org/2000/svg" xmlns:xlink="http://www.w3.org/1999/xlink">
    <defs>
        <path d="M17,10 C17,11.2699653 16.687066,12.4411892 16.0611979,13.5136719 C15.4353299,14.5861545 14.5861545,15.4353299 13.5136719,16.0611979 C12.4411892,16.687066 11.2699653,17 10,17 C8.73003473,17 7.55881077,16.687066 6.48632812,16.0611979 C5.41384548,15.4353299 4.56467014,14.5861545 3.93880208,13.5136719 C3.31293402,12.4411892 3,11.2699653 3,10 C3,8.73003473 3.31293402,7.55881077 3.93880208,6.48632812 C4.56467014,5.41384548 5.41384548,4.56467014 6.48632812,3.93880208 C7.55881077,3.31293402 8.73003473,3 10,3 C11.2699653,3 12.4411892,3.31293402 13.5136719,3.93880208 C14.5861545,4.56467014 15.4353299,5.41384548 16.0611979,6.48632812 C16.687066,7.55881077 17,8.73003473 17,10 Z" id="path-1"></path>
    </defs>
    <g id="Sales-Inquiry" stroke="none" stroke-width="1" fill="none" fill-rule="evenodd">
        <g id="Inquiry-1.4.2.0" transform="translate(-471.000000, -156.000000)">
            <g id="process-data-container" transform="translate(240.000000, 94.000000)">
                <g id="ui/process-end" transform="translate(224.000000, 58.000000)">
                    <g id="Group">
                        <g id="icon/reload/reload-blue" transform="translate(5.000000, 2.000000)">
                            <g id="icon-bg-shape">
                                <use fill="#B0BEC5" xlink:href="#path-1"></use>
                                <use fill="#FFFFFF" xlink:href="#path-1"></use>
                            </g>
                            <path d="M18,10 C18,11.4513889 17.6423611,12.7899306 16.9270833,14.015625 C16.2118056,15.2413194 15.2413194,16.2118056 14.015625,16.9270833 C12.7899306,17.6423611 11.4513889,18 10,18 C8.54861111,18 7.21006945,17.6423611 5.984375,16.9270833 C4.75868055,16.2118056 3.78819445,15.2413194 3.07291667,14.015625 C2.35763889,12.7899306 2,11.4513889 2,10 C2,8.54861111 2.35763889,7.21006945 3.07291667,5.984375 C3.78819445,4.75868055 4.75868055,3.78819445 5.984375,3.07291667 C7.21006945,2.35763889 8.54861111,2 10,2 C11.4513889,2 12.7899306,2.35763889 14.015625,3.07291667 C15.2413194,3.78819445 16.2118056,4.75868055 16.9270833,5.984375 C17.6423611,7.21006945 18,8.54861111 18,10 Z M7.46376945,9.02431003 L9.99346205,9.01292654 C11.658508,9.00755666 12.9935903,10.3404339 12.9890554,11.9972629 L12.9794495,13.5067844 C12.9787081,13.7776682 13.1921412,13.9978487 13.4827896,13.9986443 L14.473417,14.0013557 C14.7521454,14.0021186 14.9786881,13.7876797 14.979442,13.5122586 L14.9890479,12.0027371 C14.9966203,9.2361601 12.7607589,7.00399143 9.98701195,7.01293695 L7.48825952,7.02422065 L8.39907238,6.11340779 C8.5957576,5.91672256 8.60385686,5.60593206 8.39833669,5.40041188 L7.69785472,4.69992991 C7.50076318,4.50283838 7.18228615,4.50176689 6.98684577,4.69720727 L4.00168582,7.68236722 C3.80609796,7.87795508 3.80246752,8.19143523 4.00643564,8.39540334 L6.8941736,11.2831413 C7.09238471,11.4813524 7.40441219,11.4906886 7.60993236,11.2851685 L8.31041433,10.5846865 C8.50750587,10.387595 8.50968649,10.0702271 8.31520821,9.87574879 L7.46376945,9.02431003 Z" id="Combined-Shape" fill="#0078D7"></path>
                        </g>
                    </g>
                </g>
            </g>
        </g>
    </g>
</svg>