<?xml version="1.0" encoding="UTF-8"?>
<svg width="100px" height="67px" viewBox="0 0 100 67" version="1.1" xmlns="http://www.w3.org/2000/svg" xmlns:xlink="http://www.w3.org/1999/xlink">
    <!-- Generator: Sketch 45.2 (43514) - http://www.bohemiancoding.com/sketch -->
    <title>Icon/Modal/Sad@svg</title>
    <desc>Created with Sketch.</desc>
    <defs></defs>
    <g id="Sales-Inquiry" stroke="none" stroke-width="1" fill="none" fill-rule="evenodd">
        <g id="Inquiry-1.3.1.0" transform="translate(-670.000000, -283.000000)" fill="#FFFFFF">
            <g id="Modal" transform="translate(400.000000, 207.000000)">
                <g id="Head">
                    <g transform="translate(20.000000, 20.000000)" id="Icon">
                        <g transform="translate(219.000000, 50.000000)">
                            <g id="Icon/Modal/Sad">
                                <g id="Sad-File" transform="translate(31.320000, 7.000000)">
                                    <path d="M71.1529412,66 L28.2070588,66 C24.9350593,66 21.6,62.9919426 21.6,59.8986667 L21.6,6.10133333 C21.6,3.00805736 24.9350593,0 28.2070588,0 L61.2423529,0 C68.3409892,0 67.8417498,15.2507266 67.8417498,15.2507266 L77.76,15.2533333 L77.76,59.8986667 C77.76,62.9919426 74.4249407,66 71.1529412,66 Z M66.1976471,1.52533333 C69.5011765,5.79559635 69.5011765,13.728 69.5011765,13.728 L77.76,13.728 C77.76,13.728 73.2108079,9.05554948 66.1976471,1.52533333 Z M34.56,50.864 C34.56,50.313188 35.0063653,49.8666667 35.5637532,49.8666667 L62.7162468,49.8666667 C63.2706044,49.8666667 63.72,50.3093478 63.72,50.864 L63.72,50.864 C63.72,51.414812 63.2736347,51.8613333 62.7162468,51.8613333 L35.5637532,51.8613333 C35.0093956,51.8613333 34.56,51.4186522 34.56,50.864 L34.56,50.864 Z M34.56,55.8506667 C34.56,55.2998547 35.0063653,54.8533333 35.5637532,54.8533333 L62.7162468,54.8533333 C63.2706044,54.8533333 63.72,55.2960145 63.72,55.8506667 C63.72,56.4014787 63.2736347,56.848 62.7162468,56.848 L35.5637532,56.848 C35.0093956,56.848 34.56,56.4053188 34.56,55.8506667 Z M32.4,37.8986667 L32.4,36.0091121 C32.4,29.7900766 40.2060002,24.9341545 49.68,24.9341545 C59.1539998,24.9341545 66.96,29.7900766 66.96,36.0091121 L66.96,37.8986667 C66.96,38.4494787 66.4764675,38.896 65.88,38.896 C65.2835325,38.896 64.8,38.4494787 64.8,37.8986667 L64.8,36.0091121 C64.8,31.0967112 58.1000261,26.9288211 49.68,26.9288211 C41.2599739,26.9288211 34.56,31.0967112 34.56,36.0091121 L34.56,37.8986667 C34.56,38.4494787 34.0764675,38.896 33.48,38.896 C32.8835325,38.896 32.4,38.4494787 32.4,37.8986667 Z M38.88,18 C38.88,16.8954305 39.7751068,16 40.8882362,16 L41.1917638,16 C42.300882,16 43.2,16.8877296 43.2,18 C43.2,19.1045695 42.3048932,20 41.1917638,20 L40.8882362,20 C39.779118,20 38.88,19.1122704 38.88,18 Z M56.16,18 C56.16,16.8954305 57.0551068,16 58.1682362,16 L58.4717638,16 C59.580882,16 60.48,16.8877296 60.48,18 C60.48,19.1045695 59.5848932,20 58.4717638,20 L58.1682362,20 C57.059118,20 56.16,19.1122704 56.16,18 Z" id="Combined-Shape"></path>
                                    <path d="M87.48,-0.32 C88.0322847,-0.32 88.48,0.130621285 88.48,0.670415244 L88.48,34.3295848 C88.48,34.876576 88.0361352,35.32 87.48,35.32 C86.9277153,35.32 86.48,34.8693787 86.48,34.3295848 L86.48,0.670415244 C86.48,0.123424009 86.9238648,-0.32 87.48,-0.32 Z M87.48,37.84 C88.0322847,37.84 88.48,38.2860448 88.48,38.8419531 L88.48,41.1580469 C88.48,41.7114103 88.0361352,42.16 87.48,42.16 C86.9277153,42.16 86.48,41.7139552 86.48,41.1580469 L86.48,38.8419531 C86.48,38.2885897 86.9238648,37.84 87.48,37.84 Z M11.88,37.84 C12.4322847,37.84 12.88,38.2860448 12.88,38.8419531 L12.88,41.1580469 C12.88,41.7114103 12.4361352,42.16 11.88,42.16 C11.3277153,42.16 10.88,41.7139552 10.88,41.1580469 L10.88,38.8419531 C10.88,38.2885897 11.3238648,37.84 11.88,37.84 Z M98.28,24.16 C98.8322847,24.16 99.28,24.6130416 99.28,25.1637954 L99.28,45.8362046 C99.28,46.3905855 98.8361352,46.84 98.28,46.84 C97.7277153,46.84 97.28,46.3869584 97.28,45.8362046 L97.28,25.1637954 C97.28,24.6094145 97.7238648,24.16 98.28,24.16 Z M11.88,-1.36 C12.4361352,-1.36 12.88,-0.911740673 12.88,-0.358784771 L12.88,34.3587848 C12.88,34.9220364 12.4322847,35.36 11.88,35.36 C11.3238648,35.36 10.88,34.9117407 10.88,34.3587848 L10.88,-0.358784771 C10.88,-0.922036413 11.3277153,-1.36 11.88,-1.36 Z M1.08,24.16 C1.63613518,24.16 2.08,24.6094145 2.08,25.1637954 L2.08,45.8362046 C2.08,46.3869584 1.63228475,46.84 1.08,46.84 C0.523864822,46.84 0.08,46.3905855 0.08,45.8362046 L0.08,25.1637954 C0.08,24.6130416 0.52771525,24.16 1.08,24.16 Z" id="Combined-Shape" transform="translate(49.680000, 23.000000) scale(1, -1) translate(-49.680000, -23.000000) "></path>
                                </g>
                            </g>
                        </g>
                    </g>
                </g>
            </g>
        </g>
    </g>
</svg>