<?xml version="1.0" encoding="UTF-8"?>
<svg width="18px" height="18px" viewBox="0 0 18 18" version="1.1" xmlns="http://www.w3.org/2000/svg" xmlns:xlink="http://www.w3.org/1999/xlink">
    <!-- Generator: Sketch 46.1 (44463) - http://www.bohemiancoding.com/sketch -->
    <title>icon/settings/settings-blue@1.5x</title>
    <desc>Created with Sketch.</desc>
    <defs></defs>
    <g id="Job-Lists-1.0.0.0" stroke="none" stroke-width="1" fill="none" fill-rule="evenodd">
        <g id="Inquiries-List-1.1.1.0-List-Default" transform="translate(-1356.000000, -162.000000)" fill="#0078D7">
            <g id="page-title" transform="translate(-1.000000, 145.000000)">
                <g id="table-actions" transform="translate(1051.000000, 8.000000)">
                    <g id="settings" transform="translate(246.000000, 0.000000)">
                        <g id="icon/settings/settings-blue" transform="translate(59.000000, 8.000000)">
                            <path d="M18.3051279,8.21819655 L16.7716171,8.21819655 C16.6156963,7.62958676 16.3819887,7.06493807 16.0743142,6.53327931 L17.1768723,5.43072115 C17.4470425,5.15985646 17.4470425,4.71952772 17.1765251,4.44866304 L15.6388471,2.91098507 C15.376664,2.64880194 14.9193194,2.64810742 14.6564417,2.91098507 L13.5615233,4.00590346 C13.0208357,3.68920014 12.4454219,3.44924181 11.8439634,3.28984836 L11.8439634,1.69452483 C11.8439634,1.31149439 11.532469,1 11.1494386,1 L8.97453409,1 C8.59150365,1 8.28000926,1.31149439 8.28000926,1.69452483 L8.28000926,3.28984836 C7.66882741,3.45167265 7.08542655,3.69614539 6.53883551,4.01909943 L5.38696608,2.86723 C5.1244357,2.60469962 4.66743836,2.60469962 4.40490798,2.86723 L2.86723,4.40490798 C2.59636532,4.67577266 2.59636532,5.1161014 2.86723,5.38696608 L4.03680982,6.5565459 C3.73503878,7.08195393 3.50584558,7.63896284 3.35200833,8.21819655 L1.69452483,8.21819655 C1.31149439,8.21819655 1,8.52969094 1,8.91272138 L1,11.0872786 C1,11.4703091 1.31149439,11.7818034 1.69452483,11.7818034 L3.35166107,11.7818034 C3.51105452,12.3825674 3.75101285,12.9586758 4.06806343,13.4993634 L2.91098507,14.6560945 C2.77971987,14.7873596 2.70748929,14.9620326 2.70783656,15.147818 C2.70783656,15.3332562 2.78006714,15.5075819 2.91098507,15.6381526 L4.4490103,17.1765251 C4.71154069,17.4390554 5.16853803,17.4390554 5.43106841,17.1765251 L6.59578655,16.0118069 C7.12709804,16.3194814 7.69139947,16.553189 8.28035652,16.7091099 L8.28035652,18.3051279 C8.28035652,18.6881584 8.59185091,18.9996527 8.97488135,18.9996527 L11.1497859,18.9996527 C11.5328163,18.9996527 11.8443107,18.6881584 11.8443107,18.3051279 L11.8443107,16.7091099 C12.4238917,16.5556199 12.9805533,16.3260794 13.5052668,16.0246556 L14.6130339,17.1324227 C14.8759116,17.3946059 15.3322144,17.3942586 15.595092,17.1320755 L17.13277,15.5943975 C17.4036347,15.3238801 17.4036347,14.8828568 17.13277,14.6123394 L16.0430605,13.5226299 C16.3660146,12.9760389 16.6101401,12.3922908 16.7723116,11.7811089 L18.3054752,11.7811089 C18.6885056,11.7811089 19,11.4696145 19,11.0865841 L19,8.91202685 C18.9996527,8.52969094 18.6878111,8.21819655 18.3051279,8.21819655 L18.3051279,8.21819655 Z M10.0618127,6.42562797 C8.09075124,6.42562797 6.48744068,8.02893853 6.48744068,10 C6.48744068,11.9707142 8.09075124,13.5736775 10.0618127,13.5736775 C12.0325269,13.5736775 13.6358375,11.9707142 13.6358375,10 C13.6358375,8.02893853 12.0325269,6.42562797 10.0618127,6.42562797 L10.0618127,6.42562797 Z M10.0618127,12.8791527 C8.47378169,12.8791527 7.18196551,11.5873365 7.18196551,10 C7.18196551,8.41196898 8.47378169,7.1201528 10.0618127,7.1201528 C11.6494965,7.1201528 12.9413127,8.41196898 12.9413127,10 C12.9413127,11.5873365 11.6498437,12.8791527 10.0618127,12.8791527 L10.0618127,12.8791527 Z" id="Shape"></path>
                        </g>
                    </g>
                </g>
            </g>
        </g>
    </g>
</svg>