<?xml version="1.0" encoding="UTF-8"?>
<svg width="92px" height="66px" viewBox="0 0 92 66" version="1.1" xmlns="http://www.w3.org/2000/svg" xmlns:xlink="http://www.w3.org/1999/xlink">
    <!-- Generator: Sketch 45.2 (43514) - http://www.bohemiancoding.com/sketch -->
    <title>Icon/Modal/Smile, Up@1.5x</title>
    <desc>Created with Sketch.</desc>
    <defs></defs>
    <g id="Design-System-" stroke="none" stroke-width="1" fill="none" fill-rule="evenodd">
        <g id="UI-Component---Icons-Kit" transform="translate(-492.000000, -2255.000000)" fill="#FFFFFF">
            <g id="Icons" transform="translate(268.000000, 119.000000)">
                <g transform="translate(0.000000, 2089.000000)" id="Icon">
                    <g transform="translate(190.000000, 0.000000)">
                        <g id="Icon-">
                            <g id="Icon/Modal/Smile,-Up" transform="translate(0.000000, 40.000000)">
                                <g id="Happy-File" transform="translate(34.000000, 7.000000)">
                                    <path d="M65.8823529,66 L26.1176471,66 C23.0880179,66 20,62.9919426 20,59.8986667 L20,6.10133333 C20,3.00805736 23.0880179,0 26.1176471,0 L56.7058824,0 C63.2786937,0 62.816435,15.2507266 62.816435,15.2507266 L72,15.2533333 L72,59.8986667 C72,62.9919426 68.9119821,66 65.8823529,66 Z M61.2941176,1.52533333 C64.3529412,5.79559635 64.3529412,13.728 64.3529412,13.728 L72,13.728 C72,13.728 67.7877851,9.05554948 61.2941176,1.52533333 Z M32,50.864 C32,50.313188 32.4461086,49.8666667 32.9929654,49.8666667 L58.0070346,49.8666667 C58.5554342,49.8666667 59,50.3093478 59,50.864 L59,50.864 C59,51.414812 58.5538914,51.8613333 58.0070346,51.8613333 L32.9929654,51.8613333 C32.4445658,51.8613333 32,51.4186522 32,50.864 L32,50.864 Z M32,55.8506667 C32,55.2998547 32.4461086,54.8533333 32.9929654,54.8533333 L58.0070346,54.8533333 C58.5554342,54.8533333 59,55.2960145 59,55.8506667 C59,56.4014787 58.5538914,56.848 58.0070346,56.848 L32.9929654,56.848 C32.4445658,56.848 32,56.4053188 32,55.8506667 Z M30,25.9314878 C30,25.3806758 30.4477153,24.9341545 31,24.9341545 C31.5522847,24.9341545 32,25.3806758 32,25.9314878 L32,27.8210424 C32,32.7334432 38.2036795,36.9013333 46,36.9013333 C53.7963205,36.9013333 60,32.7334432 60,27.8210424 L60,25.9314878 C60,25.3806758 60.4477153,24.9341545 61,24.9341545 C61.5522847,24.9341545 62,25.3806758 62,25.9314878 L62,27.8210424 C62,34.0400779 54.772222,38.896 46,38.896 C37.227778,38.896 30,34.0400779 30,27.8210424 L30,25.9314878 Z M38,18.9493333 C36.8954305,18.9493333 36,18.0562906 36,16.9546667 C36,15.8530427 36.8954305,14.96 38,14.96 C39.1045695,14.96 40,15.8530427 40,16.9546667 C40,18.0562906 39.1045695,18.9493333 38,18.9493333 Z M54,18.9493333 C52.8954305,18.9493333 52,18.0562906 52,16.9546667 C52,15.8530427 52.8954305,14.96 54,14.96 C55.1045695,14.96 56,15.8530427 56,16.9546667 C56,18.0562906 55.1045695,18.9493333 54,18.9493333 Z" id="Combined-Shape"></path>
                                    <path d="M81,21 C81.5522847,21 82,21.4415441 82,22.005643 L82,52.994357 C82,53.5497583 81.5561352,54 81,54 C80.4477153,54 80,53.5584559 80,52.994357 L80,22.005643 C80,21.4502417 80.4438648,21 81,21 Z M81,58 C81.5522847,58 82,58.4433532 82,59.0093689 L82,60.9906311 C82,61.5480902 81.5561352,62 81,62 C80.4477153,62 80,61.5566468 80,60.9906311 L80,59.0093689 C80,58.4519098 80.4438648,58 81,58 Z M11,58 C11.5522847,58 12,58.4433532 12,59.0093689 L12,60.9906311 C12,61.5480902 11.5561352,62 11,62 C10.4477153,62 10,61.5566468 10,60.9906311 L10,59.0093689 C10,58.4519098 10.4438648,58 11,58 Z M91,45 C91.5522847,45 92,45.4386148 92,45.9987461 L92,65.0012539 C92,65.5528461 91.5561352,66 91,66 C90.4477153,66 90,65.5613852 90,65.0012539 L90,45.9987461 C90,45.4471539 90.4438648,45 91,45 Z M11,20 C11.5561352,20 12,20.4473312 12,20.9991421 L12,53.0008579 C12,53.5450757 11.5522847,54 11,54 C10.4438648,54 10,53.5526688 10,53.0008579 L10,20.9991421 C10,20.4549243 10.4477153,20 11,20 Z M1,45 C1.55613518,45 2,45.4471539 2,45.9987461 L2,65.0012539 C2,65.5613852 1.55228475,66 1,66 C0.443864822,66 -5.81041326e-15,65.5528461 -5.77663798e-15,65.0012539 L-4.61306996e-15,45.9987461 C-4.57877181e-15,45.4386148 0.44771525,45 1,45 Z" id="Combined-Shape"></path>
                                </g>
                            </g>
                        </g>
                    </g>
                </g>
            </g>
        </g>
    </g>
</svg>