<?xml version="1.0" encoding="UTF-8"?>
<svg width="106px" height="72px" viewBox="0 0 106 72" version="1.1" xmlns="http://www.w3.org/2000/svg" xmlns:xlink="http://www.w3.org/1999/xlink">
    <!-- Generator: Sketch 45.2 (43514) - http://www.bohemiancoding.com/sketch -->
    <title>Icon/Modal/Smile, Send@1.5x</title>
    <desc>Created with Sketch.</desc>
    <defs></defs>
    <g id="Design-System-" stroke="none" stroke-width="1" fill="none" fill-rule="evenodd">
        <g id="UI-Component---Icons-Kit" transform="translate(-483.000000, -2496.000000)" fill="#FFFFFF">
            <g id="Icons" transform="translate(268.000000, 119.000000)">
                <g transform="translate(0.000000, 2333.000000)" id="Icon">
                    <g transform="translate(190.000000, 0.000000)">
                        <g id="Icon-">
                            <g id="Icon/Modal/Smile,-Send" transform="translate(0.000000, 40.000000)">
                                <g id="Sad-File" transform="translate(25.000000, 2.000000)">
                                    <path d="M94.3529412,68 L57.6470588,68 C54.850478,68 52,65.2654024 52,62.4533333 L52,13.5466667 C52,10.7345976 54.850478,8 57.6470588,8 L85.8823529,8 C91.9495634,8 91.5228631,21.8642969 91.5228631,21.8642969 L100,21.8666667 L100,62.4533333 C100,65.2654024 97.149522,68 94.3529412,68 Z M90.1176471,9.38666667 C92.9411765,13.268724 92.9411765,20.48 92.9411765,20.48 L100,20.48 C100,20.48 96.1118016,16.2323177 90.1176471,9.38666667 Z M63.0769231,54.24 C63.0769231,53.7392618 63.4887157,53.3333333 63.9935066,53.3333333 L87.0834165,53.3333333 C87.5896316,53.3333333 88,53.7357708 88,54.24 L88,54.24 C88,54.7407382 87.5882074,55.1466667 87.0834165,55.1466667 L63.9935066,55.1466667 C63.4872915,55.1466667 63.0769231,54.7442292 63.0769231,54.24 L63.0769231,54.24 Z M63.0769231,58.7733333 C63.0769231,58.2725952 63.4887157,57.8666667 63.9935066,57.8666667 L87.0834165,57.8666667 C87.5896316,57.8666667 88,58.2691041 88,58.7733333 C88,59.2740715 87.5882074,59.68 87.0834165,59.68 L63.9935066,59.68 C63.4872915,59.68 63.0769231,59.2775626 63.0769231,58.7733333 Z M61.2307692,31.5740798 C61.2307692,31.0733417 61.6440448,30.6674132 62.1538462,30.6674132 C62.6636475,30.6674132 63.0769231,31.0733417 63.0769231,31.5740798 L63.0769231,33.2918567 C63.0769231,37.7576757 68.8033965,41.5466667 76,41.5466667 C83.1966035,41.5466667 88.9230769,37.7576757 88.9230769,33.2918567 L88.9230769,31.5740798 C88.9230769,31.0733417 89.3363525,30.6674132 89.8461538,30.6674132 C90.3559552,30.6674132 90.7692308,31.0733417 90.7692308,31.5740798 L90.7692308,33.2918567 C90.7692308,38.9455254 84.0974357,43.36 76,43.36 C67.9025643,43.36 61.2307692,38.9455254 61.2307692,33.2918567 L61.2307692,31.5740798 Z M66.7692308,23.4545455 C66.7692308,22.9524684 67.1784799,22.5454545 67.6819363,22.5454545 L69.548833,22.5454545 C70.0529063,22.5454545 70.4615385,22.948968 70.4615385,23.4545455 C70.4615385,23.9566225 70.0522894,24.3636364 69.548833,24.3636364 L67.6819363,24.3636364 C67.1778629,24.3636364 66.7692308,23.9601229 66.7692308,23.4545455 Z M81.5384615,23.4545455 C81.5384615,22.9524684 81.9477106,22.5454545 82.451167,22.5454545 L84.3180637,22.5454545 C84.8221371,22.5454545 85.2307692,22.948968 85.2307692,23.4545455 C85.2307692,23.9566225 84.8215201,24.3636364 84.3180637,24.3636364 L82.451167,24.3636364 C81.9470937,24.3636364 81.5384615,23.9601229 81.5384615,23.4545455 Z" id="Combined-Shape" transform="translate(76.000000, 38.000000) rotate(25.000000) translate(-76.000000, -38.000000) "></path>
                                    <path d="M27,1 C27.5522847,1 28,1.44538081 28,2.00298231 L28,44.9970177 C28,45.5509495 27.5561352,46 27,46 C26.4477153,46 26,45.5546192 26,44.9970177 L26,2.00298231 C26,1.44905047 26.4438648,1 27,1 Z M37,23 C37.5522847,23 38,23.4433532 38,24.0093689 L38,25.9906311 C38,26.5480902 37.5561352,27 37,27 C36.4477153,27 36,26.5566468 36,25.9906311 L36,24.0093689 C36,23.4519098 36.4438648,23 37,23 Z M17,5 C17.5522847,5 18,5.44335318 18,6.0093689 L18,7.9906311 C18,8.54809015 17.5561352,9 17,9 C16.4477153,9 16,8.55664682 16,7.9906311 L16,6.0093689 C16,5.45190985 16.4438648,5 17,5 Z M37,30 C37.5522847,30 38,30.4386148 38,30.9987461 L38,50.0012539 C38,50.5528461 37.5561352,51 37,51 C36.4477153,51 36,50.5613852 36,50.0012539 L36,30.9987461 C36,30.4471539 36.4438648,30 37,30 Z M7,27 C7.55228475,27 8,27.4556644 8,27.9953976 L8,36.0046024 C8,36.5543453 7.55613518,37 7,37 C6.44771525,37 6,36.5443356 6,36.0046024 L6,27.9953976 C6,27.4456547 6.44386482,27 7,27 Z M17,12 C17.5561352,12 18,12.4468886 18,12.9981537 L18,41.0018463 C18,41.5526348 17.5522847,42 17,42 C16.4438648,42 16,41.5531114 16,41.0018463 L16,12.9981537 C16,12.4473652 16.4477153,12 17,12 Z M47,43 C47.5561352,43 48,43.4488226 48,44.0024733 L48,53.9975267 C48,54.544239 47.5522847,55 47,55 C46.4438648,55 46,54.5511774 46,53.9975267 L46,44.0024733 C46,43.455761 46.4477153,43 47,43 Z" id="Combined-Shape" transform="translate(27.000000, 28.000000) scale(-1, -1) rotate(-270.000000) translate(-27.000000, -28.000000) "></path>
                                </g>
                            </g>
                        </g>
                    </g>
                </g>
            </g>
        </g>
    </g>
</svg>