<?xml version="1.0" encoding="UTF-8"?>
<svg width="110px" height="68px" viewBox="0 0 110 68" version="1.1" xmlns="http://www.w3.org/2000/svg" xmlns:xlink="http://www.w3.org/1999/xlink">
    <!-- Generator: Sketch 45.2 (43514) - http://www.bohemiancoding.com/sketch -->
    <title>Icon/Modal/Smile, Revert, Recieved@1.5x</title>
    <desc>Created with Sketch.</desc>
    <defs></defs>
    <g id="Design-System-" stroke="none" stroke-width="1" fill="none" fill-rule="evenodd">
        <g id="UI-Component---Icons-Kit" transform="translate(-294.000000, -2500.000000)" fill="#FFFFFF">
            <g id="Icons" transform="translate(268.000000, 119.000000)">
                <g transform="translate(0.000000, 2333.000000)" id="Icon">
                    <g>
                        <g id="Icon-">
                            <g id="Icon/Modal/Smile,-Revert,-Recieved" transform="translate(0.000000, 40.000000)">
                                <g id="Sad-File" transform="translate(24.000000, 2.000000)">
                                    <path d="M53.3529412,68 L16.6470588,68 C13.850478,68 11,65.2654024 11,62.4533333 L11,13.5466667 C11,10.7345976 13.850478,8 16.6470588,8 L44.8823529,8 C50.9495634,8 50.5228631,21.8642969 50.5228631,21.8642969 L59,21.8666667 L59,62.4533333 C59,65.2654024 56.149522,68 53.3529412,68 Z M49.1176471,9.38666667 C51.9411765,13.268724 51.9411765,20.48 51.9411765,20.48 L59,20.48 C59,20.48 55.1118016,16.2323177 49.1176471,9.38666667 Z M22.0769231,54.24 C22.0769231,53.7392618 22.4887157,53.3333333 22.9935066,53.3333333 L46.0834165,53.3333333 C46.5896316,53.3333333 47,53.7357708 47,54.24 L47,54.24 C47,54.7407382 46.5882074,55.1466667 46.0834165,55.1466667 L22.9935066,55.1466667 C22.4872915,55.1466667 22.0769231,54.7442292 22.0769231,54.24 L22.0769231,54.24 Z M22.0769231,58.7733333 C22.0769231,58.2725952 22.4887157,57.8666667 22.9935066,57.8666667 L46.0834165,57.8666667 C46.5896316,57.8666667 47,58.2691041 47,58.7733333 C47,59.2740715 46.5882074,59.68 46.0834165,59.68 L22.9935066,59.68 C22.4872915,59.68 22.0769231,59.2775626 22.0769231,58.7733333 Z M20.2307692,31.5740798 C20.2307692,31.0733417 20.6440448,30.6674132 21.1538462,30.6674132 C21.6636475,30.6674132 22.0769231,31.0733417 22.0769231,31.5740798 L22.0769231,33.2918567 C22.0769231,37.7576757 27.8033965,41.5466667 35,41.5466667 C42.1966035,41.5466667 47.9230769,37.7576757 47.9230769,33.2918567 L47.9230769,31.5740798 C47.9230769,31.0733417 48.3363525,30.6674132 48.8461538,30.6674132 C49.3559552,30.6674132 49.7692308,31.0733417 49.7692308,31.5740798 L49.7692308,33.2918567 C49.7692308,38.9455254 43.0974357,43.36 35,43.36 C26.9025643,43.36 20.2307692,38.9455254 20.2307692,33.2918567 L20.2307692,31.5740798 Z M25.7692308,23.4545455 C25.7692308,22.9524684 26.1784799,22.5454545 26.6819363,22.5454545 L28.548833,22.5454545 C29.0529063,22.5454545 29.4615385,22.948968 29.4615385,23.4545455 C29.4615385,23.9566225 29.0522894,24.3636364 28.548833,24.3636364 L26.6819363,24.3636364 C26.1778629,24.3636364 25.7692308,23.9601229 25.7692308,23.4545455 Z M40.5384615,23.4545455 C40.5384615,22.9524684 40.9477106,22.5454545 41.451167,22.5454545 L43.3180637,22.5454545 C43.8221371,22.5454545 44.2307692,22.948968 44.2307692,23.4545455 C44.2307692,23.9566225 43.8215201,24.3636364 43.3180637,24.3636364 L41.451167,24.3636364 C40.9470937,24.3636364 40.5384615,23.9601229 40.5384615,23.4545455 Z" id="Combined-Shape" transform="translate(35.000000, 38.000000) rotate(-25.000000) translate(-35.000000, -38.000000) "></path>
                                    <path d="M85,1 C85.5522847,1 86,1.44538081 86,2.00298231 L86,44.9970177 C86,45.5509495 85.5561352,46 85,46 C84.4477153,46 84,45.5546192 84,44.9970177 L84,2.00298231 C84,1.44905047 84.4438648,1 85,1 Z M95,23 C95.5522847,23 96,23.4433532 96,24.0093689 L96,25.9906311 C96,26.5480902 95.5561352,27 95,27 C94.4477153,27 94,26.5566468 94,25.9906311 L94,24.0093689 C94,23.4519098 94.4438648,23 95,23 Z M75,5 C75.5522847,5 76,5.44335318 76,6.0093689 L76,7.9906311 C76,8.54809015 75.5561352,9 75,9 C74.4477153,9 74,8.55664682 74,7.9906311 L74,6.0093689 C74,5.45190985 74.4438648,5 75,5 Z M95,30 C95.5522847,30 96,30.4386148 96,30.9987461 L96,50.0012539 C96,50.5528461 95.5561352,51 95,51 C94.4477153,51 94,50.5613852 94,50.0012539 L94,30.9987461 C94,30.4471539 94.4438648,30 95,30 Z M65,27 C65.5522847,27 66,27.4556644 66,27.9953976 L66,36.0046024 C66,36.5543453 65.5561352,37 65,37 C64.4477153,37 64,36.5443356 64,36.0046024 L64,27.9953976 C64,27.4456547 64.4438648,27 65,27 Z M75,12 C75.5561352,12 76,12.4468886 76,12.9981537 L76,41.0018463 C76,41.5526348 75.5522847,42 75,42 C74.4438648,42 74,41.5531114 74,41.0018463 L74,12.9981537 C74,12.4473652 74.4477153,12 75,12 Z M105,43 C105.556135,43 106,43.4488226 106,44.0024733 L106,53.9975267 C106,54.544239 105.552285,55 105,55 C104.443865,55 104,54.5511774 104,53.9975267 L104,44.0024733 C104,43.455761 104.447715,43 105,43 Z" id="Combined-Shape" transform="translate(85.000000, 28.000000) scale(1, -1) rotate(-270.000000) translate(-85.000000, -28.000000) "></path>
                                </g>
                            </g>
                        </g>
                    </g>
                </g>
            </g>
        </g>
    </g>
</svg>