<?xml version="1.0" encoding="UTF-8"?>
<svg width="105px" height="66px" viewBox="0 0 105 66" version="1.1" xmlns="http://www.w3.org/2000/svg" xmlns:xlink="http://www.w3.org/1999/xlink">
    <!-- Generator: Sketch 45.2 (43514) - http://www.bohemiancoding.com/sketch -->
    <title>Icon/Modal/Speachless, Revert@1.5x</title>
    <desc>Created with Sketch.</desc>
    <defs></defs>
    <g id="Design-System-" stroke="none" stroke-width="1" fill="none" fill-rule="evenodd">
        <g id="UI-Component---Icons-Kit" transform="translate(-676.000000, -2499.000000)" fill="#FFFFFF">
            <g id="Icons" transform="translate(268.000000, 119.000000)">
                <g transform="translate(0.000000, 2333.000000)" id="Icon">
                    <g transform="translate(380.000000, 0.000000)">
                        <g id="Icon-">
                            <g id="Icon/Modal/Speachless,-Revert" transform="translate(0.000000, 40.000000)">
                                <g id="Sad-File" transform="translate(28.000000, 7.000000)">
                                    <path d="M45.8823529,66 L6.11764706,66 C3.08801787,66 0,62.9919426 0,59.8986667 L0,6.10133333 C0,3.00805736 3.08801787,0 6.11764706,0 L36.7058824,0 C43.2786937,0 42.816435,15.2507266 42.816435,15.2507266 L52,15.2533333 L52,59.8986667 C52,62.9919426 48.9119821,66 45.8823529,66 Z M41.2941176,1.52533333 C44.3529412,5.79559635 44.3529412,13.728 44.3529412,13.728 L52,13.728 C52,13.728 47.7877851,9.05554948 41.2941176,1.52533333 Z M12,50.864 C12,50.313188 12.4461086,49.8666667 12.9929654,49.8666667 L38.0070346,49.8666667 C38.5554342,49.8666667 39,50.3093478 39,50.864 L39,50.864 C39,51.414812 38.5538914,51.8613333 38.0070346,51.8613333 L12.9929654,51.8613333 C12.4445658,51.8613333 12,51.4186522 12,50.864 L12,50.864 Z M9,36.864 C9,36.313188 9.44154413,35.8666667 9.98762445,35.8666667 L41.0123755,35.8666667 C41.5578255,35.8666667 42,36.3093478 42,36.864 L42,36.864 C42,37.414812 41.5584559,37.8613333 41.0123755,37.8613333 L9.98762445,37.8613333 C9.44217453,37.8613333 9,37.4186522 9,36.864 L9,36.864 Z M12,55.8506667 C12,55.2998547 12.4461086,54.8533333 12.9929654,54.8533333 L38.0070346,54.8533333 C38.5554342,54.8533333 39,55.2960145 39,55.8506667 C39,56.4014787 38.5538914,56.848 38.0070346,56.848 L12.9929654,56.848 C12.4445658,56.848 12,56.4053188 12,55.8506667 Z M16,18 C16,16.8954305 16.8877296,16 18,16 C19.1045695,16 20,16.8877296 20,18 C20,19.1045695 19.1122704,20 18,20 C16.8954305,20 16,19.1122704 16,18 Z M32,18 C32,16.8954305 32.8877296,16 34,16 C35.1045695,16 36,16.8877296 36,18 C36,19.1045695 35.1122704,20 34,20 C32.8954305,20 32,19.1122704 32,18 Z" id="Combined-Shape"></path>
                                    <path d="M83,11 C83.5522847,11 84,11.4453808 84,12.0029823 L84,54.9970177 C84,55.5509495 83.5561352,56 83,56 C82.4477153,56 82,55.5546192 82,54.9970177 L82,12.0029823 C82,11.4490505 82.4438648,11 83,11 Z M93,28 C93.5522847,28 94,28.4433532 94,29.0093689 L94,30.9906311 C94,31.5480902 93.5561352,32 93,32 C92.4477153,32 92,31.5566468 92,30.9906311 L92,29.0093689 C92,28.4519098 92.4438648,28 93,28 Z M72,19 C72.5522847,19 73,19.4433532 73,20.0093689 L73,21.9906311 C73,22.5480902 72.5561352,23 72,23 C71.4477153,23 71,22.5566468 71,21.9906311 L71,20.0093689 C71,19.4519098 71.4438648,19 72,19 Z M93,35 C93.5522847,35 94,35.4386148 94,35.9987461 L94,55.0012539 C94,55.5528461 93.5561352,56 93,56 C92.4477153,56 92,55.5613852 92,55.0012539 L92,35.9987461 C92,35.4471539 92.4438648,35 93,35 Z M62,46 C62.5522847,46 63,46.4556644 63,46.9953976 L63,55.0046024 C63,55.5543453 62.5561352,56 62,56 C61.4477153,56 61,55.5443356 61,55.0046024 L61,46.9953976 C61,46.4456547 61.4438648,46 62,46 Z M72,26 C72.5561352,26 73,26.4468886 73,26.9981537 L73,55.0018463 C73,55.5526348 72.5522847,56 72,56 C71.4438648,56 71,55.5531114 71,55.0018463 L71,26.9981537 C71,26.4473652 71.4477153,26 72,26 Z M103,44 C103.556135,44 104,44.4488226 104,45.0024733 L104,54.9975267 C104,55.544239 103.552285,56 103,56 C102.443865,56 102,55.5511774 102,54.9975267 L102,45.0024733 C102,44.455761 102.447715,44 103,44 Z" id="Combined-Shape" transform="translate(82.500000, 33.500000) scale(1, -1) rotate(-270.000000) translate(-82.500000, -33.500000) "></path>
                                </g>
                            </g>
                        </g>
                    </g>
                </g>
            </g>
        </g>
    </g>
</svg>