<?xml version="1.0" encoding="UTF-8"?>
<svg width="16px" height="20px" viewBox="0 0 16 20" version="1.1" xmlns="http://www.w3.org/2000/svg" xmlns:xlink="http://www.w3.org/1999/xlink">
    <!-- Generator: Sketch 46.1 (44463) - http://www.bohemiancoding.com/sketch -->
    <title>icon/table/update-arrow-blue@1.5x</title>
    <desc>Created with Sketch.</desc>
    <defs></defs>
    <g id="Job-Lists-1.0.0.0" stroke="none" stroke-width="1" fill="none" fill-rule="evenodd">
        <g id="List-Process-1.2.1.0-List-Popovers" transform="translate(-891.000000, -515.000000)" fill="#0078D7">
            <g id="table-layouts" transform="translate(873.000000, 270.000000)">
                <g id="icon/table/update-arrow-blue" transform="translate(16.000000, 245.000000)">
                    <path d="M9.99729411,2.71091203 C12.0561141,2.71091203 13.8208087,3.42222105 15.2914015,4.84483171 C16.761979,6.26743496 17.4972831,7.98880235 17.4972831,10.0089043 C17.4972831,11.4030605 17.1149317,12.697641 16.3502213,13.892631 L14.9825775,12.5696035 C15.4237492,11.7729385 15.6443389,10.9193722 15.6443389,10.0089043 C15.6443389,8.50093775 15.0928685,7.21347455 13.9899354,6.14652212 C12.8869946,5.07956228 11.5561144,4.54608236 9.99729182,4.54608236 L9.99729182,7.27749333 L6.20318359,3.64983432 L9.99729182,-0.020498941 L9.99729411,2.71091203 Z M9.99729411,12.7402931 L13.747289,16.3679536 L9.99729411,20.038287 L9.99729411,17.3068744 C7.90906163,17.3068744 6.12965472,16.595569 4.65907337,15.1729569 C3.18848437,13.75035 2.45319366,12.028984 2.45319366,10.0088821 C2.45319366,8.61472589 2.83554545,7.32014538 3.60025204,6.1251554 L5.01201381,7.44819033 C4.57083749,8.24484786 4.3502501,9.09842164 4.3502501,10.0088895 C4.3502501,11.5168561 4.90171896,12.8043192 6.00466129,13.8712746 C7.10759749,14.93823 8.43847841,15.4717151 9.99729641,15.4717151 L9.99729411,12.7402931 Z" id="Combined-Shape" transform="translate(9.975238, 10.008894) scale(-1, 1) translate(-9.975238, -10.008894) "></path>
                </g>
            </g>
        </g>
    </g>
</svg>