<?xml version="1.0" encoding="UTF-8"?>
<svg width="18px" height="18px" viewBox="0 0 18 18" version="1.1" xmlns="http://www.w3.org/2000/svg" xmlns:xlink="http://www.w3.org/1999/xlink">
    <!-- Generator: Sketch 46.1 (44463) - http://www.bohemiancoding.com/sketch -->
    <title>icon/table/update-blue@1.5x</title>
    <desc>Created with Sketch.</desc>
    <defs></defs>
    <g id="Job-Lists-1.0.0.0" stroke="none" stroke-width="1" fill="none" fill-rule="evenodd">
        <g id="Inquiries-List-1.1.1.0-List-Default" transform="translate(-1109.000000, -162.000000)" fill="#0078D7">
            <g id="page-title" transform="translate(-1.000000, 145.000000)">
                <g id="table-actions" transform="translate(1051.000000, 8.000000)">
                    <g id="table-layouts" transform="translate(0.000000, 8.000000)">
                        <g id="icon/table/update-blue" transform="translate(58.000000, 0.000000)">
                            <path d="M10,19 C5.02943725,19 1,14.9705627 1,10 C1,5.02943725 5.02943725,1 10,1 C14.9705627,1 19,5.02943725 19,10 C19,14.9705627 14.9705627,19 10,19 Z M9.99327447,4.04096487 L9.99327259,1.80735191 L6.89063831,4.80876913 L9.99327259,7.77528946 L9.99327259,5.5416765 C11.2680007,5.5416765 12.3563287,5.97793003 13.2582592,6.85043708 C14.1601835,7.72293807 14.6111487,8.77576187 14.6111487,10.0089024 C14.6111487,10.7534381 14.4307614,11.4514425 14.0699929,12.1029157 L15.1883845,13.1848223 C15.8137269,12.2076185 16.126395,11.1489745 16.126395,10.0089024 C16.126395,8.35696285 15.5250996,6.94931363 14.322534,5.78597896 C13.1199558,4.62263825 11.6768758,4.04096487 9.99327447,4.04096487 Z M9.99327447,12.2424972 L9.99327634,14.4761193 C8.718552,14.4761193 7.63022332,14.0398615 6.72829658,13.1673581 C5.82636483,12.2948547 5.37540084,11.2420309 5.37540084,10.0088903 C5.37540084,9.26435469 5.55578631,8.56634421 5.91655851,7.91487704 L4.76208947,6.83296443 C4.1367502,7.81016821 3.8240818,8.86881219 3.8240818,10.0088843 C3.8240818,11.6608239 4.42536621,13.0684719 5.62794125,14.2318096 C6.83051003,15.3951515 8.28562111,15.9768218 9.99327447,15.9768218 L9.99327447,18.2104361 L13.059835,15.2090188 L9.99327447,12.2424972 Z" id="Combined-Shape" transform="translate(10.000000, 10.000000) scale(-1, 1) translate(-10.000000, -10.000000) "></path>
                        </g>
                    </g>
                </g>
            </g>
        </g>
    </g>
</svg>