<?xml version="1.0" standalone="no"?>
<!DOCTYPE svg PUBLIC "-//W3C//DTD SVG 1.1//EN" "http://www.w3.org/Graphics/SVG/1.1/DTD/svg11.dtd" >
<svg xmlns="http://www.w3.org/2000/svg">
<metadata>
<json>
<![CDATA[
{
	"fontFamily": "pams-icon",
	"majorVersion": 1,
	"minorVersion": 0,
	"fontURL": "http://pams.net",
	"description": "PAMS Icon Font\nFont generated by IcoMoon.",
	"copyright": "PAMS",
	"designer": "Mohamed Ibrahim",
	"version": "Version 1.0",
	"fontId": "pams-icon",
	"psName": "pams-icon",
	"subFamily": "Regular",
	"fullName": "pams-icon"
}
]]>
</json>
</metadata>
<defs>
<font id="pams-icon" horiz-adv-x="1024">
<font-face units-per-em="1024" ascent="960" descent="-64" />
<missing-glyph horiz-adv-x="1024" />
<glyph unicode="&#x20;" horiz-adv-x="512" d="" />
<glyph unicode="&#xe900;" glyph-name="arrow-down" data-tags="arrow-down" d="M205.466 596.48c-13.875 0-16.998-8.55-7.322-18.586l296.038-308.224c9.83-10.291 26.010-10.035 35.686 0l296.038 308.224c9.83 10.291 6.298 18.586-7.373 18.586h-613.069z" />
<glyph unicode="&#xe901;" glyph-name="arrow-up" data-tags="arrow-up" d="M205.466 251.085c-13.875 0-16.998 8.55-7.322 18.586l296.038 308.224c9.83 10.291 26.010 10.035 35.686 0l296.038-308.224c9.83-10.291 6.298-18.586-7.373-18.586h-613.069z" />
<glyph unicode="&#xe902;" glyph-name="arrow-oval-left" data-tags="arrow-oval-left" d="M257.178 448c0 8.653 2.867 15.872 8.653 21.658l217.856 217.856c5.786 5.786 13.005 8.653 21.658 8.653s15.872-2.867 21.658-8.653l43.776-43.776c5.734-5.734 8.653-12.954 8.653-21.606s-2.918-15.872-8.653-21.658l-90.931-90.931h241.459c8.346 0 15.565-3.021 21.658-9.114s9.114-13.312 9.114-21.658v-61.542c0-8.346-3.021-15.565-9.114-21.658s-13.312-9.114-21.658-9.114h-241.459l90.931-90.931c6.093-6.093 9.114-13.312 9.114-21.658s-3.021-15.514-9.114-21.606l-43.776-43.776c-5.786-5.786-13.005-8.653-21.658-8.653s-15.872 2.867-21.658 8.653l-217.856 217.856c-5.786 5.786-8.653 13.005-8.653 21.658zM96.717 448c0-74.291 18.278-142.848 54.886-205.619 36.659-62.72 86.323-112.435 149.094-149.043s131.277-54.938 205.619-54.938c74.291 0 142.797 18.33 205.568 54.938s112.435 86.323 149.094 149.043c36.608 62.771 54.938 131.328 54.938 205.619s-18.33 142.848-54.938 205.619c-36.659 62.72-86.323 112.435-149.094 149.043s-131.277 54.938-205.568 54.938c-74.342 0-142.848-18.33-205.619-54.938s-112.435-86.323-149.094-149.043c-36.608-62.771-54.886-131.328-54.886-205.619z" />
<glyph unicode="&#xe903;" glyph-name="arrow-oval-right" data-tags="arrow-oval-right" d="M761.139 448c0 8.653-2.867 15.872-8.653 21.658l-217.907 217.856c-5.786 5.786-12.954 8.653-21.658 8.653-8.653 0-15.872-2.867-21.606-8.653l-43.776-43.776c-5.786-5.734-8.653-12.954-8.653-21.606s2.867-15.872 8.653-21.658l90.88-90.931h-241.459c-8.294 0-15.514-3.021-21.606-9.114s-9.165-13.312-9.165-21.658v-61.542c0-8.346 3.072-15.565 9.165-21.658s13.312-9.114 21.606-9.114h241.459l-90.88-90.931c-6.093-6.093-9.165-13.312-9.165-21.658s3.072-15.514 9.165-21.606l43.776-43.776c5.734-5.786 12.954-8.653 21.606-8.653 8.704 0 15.872 2.867 21.658 8.653l217.907 217.856c5.786 5.786 8.653 13.005 8.653 21.658zM921.6 448c0-74.291-18.33-142.848-54.938-205.619-36.608-62.72-86.323-112.435-149.043-149.043-62.771-36.608-131.328-54.938-205.619-54.938s-142.848 18.33-205.619 54.938c-62.72 36.608-112.435 86.323-149.043 149.043-36.608 62.771-54.938 131.328-54.938 205.619s18.33 142.848 54.938 205.619c36.608 62.72 86.323 112.435 149.043 149.043 62.771 36.608 131.328 54.938 205.619 54.938s142.848-18.33 205.619-54.938c62.72-36.608 112.435-86.323 149.043-149.043 36.608-62.771 54.938-131.328 54.938-205.619z" />
<glyph unicode="&#xe904;" glyph-name="calendar" data-tags="calendar" d="M928.358 899.994h-160.051v30.003c0 20.019-10.701 30.003-32.205 30.003-21.453 0-32.205-9.984-32.205-30.003v-30.003h-383.795v30.003c0 20.019-10.752 30.003-32.205 30.003-21.504 0-32.205-9.984-32.205-30.003v-30.003h-160.051c-26.266 0-48.742-8.858-67.533-26.522-18.739-17.613-28.109-38.81-28.109-63.539v-783.872c0-24.73 9.37-45.926 28.109-63.59 18.79-17.664 41.267-26.47 67.533-26.47h832.717c26.266 0 48.742 8.806 67.533 26.47 18.739 17.664 28.109 38.861 28.109 63.59v783.872c0 25.088-9.37 46.387-28.109 63.846-18.79 17.459-41.267 26.214-67.533 26.214zM95.642 839.936h160.051v-30.003c0-20.019 10.701-30.003 32.205-30.003 21.453 0 32.205 9.984 32.205 30.003v30.003h383.795v-30.003c0-20.019 10.752-30.003 32.205-30.003 21.504 0 32.205 9.984 32.205 30.003v30.003h160.051c8.755 0 16.23-2.918 22.477-8.806 6.298-5.888 9.421-12.954 9.421-21.197v-90.624h-896.512v90.624c0 8.243 3.123 15.309 9.421 21.197 6.246 5.888 13.722 8.806 22.477 8.806zM928.358-3.994h-832.717c-8.755 0-16.23 2.97-22.477 8.858-6.298 5.888-9.421 12.954-9.421 21.197v633.19h896.512v-633.19c0-8.243-3.123-15.309-9.421-21.197-6.246-5.888-13.722-8.858-22.477-8.858zM301.722 396.8h-142.643l-3.891-1.587-1.587-3.891v-115.149h153.6v115.149l-1.587 3.891-3.891 1.587zM301.722 192h-142.643l-3.891-1.587-1.587-3.891v-115.149h153.6v115.149l-1.587 3.891-3.891 1.587zM578.714 601.6h-142.643l-3.891-1.587-1.587-3.891v-115.149h153.6v115.149l-1.587 3.891-3.891 1.587zM578.714 396.8h-142.643l-3.891-1.587-1.587-3.891v-115.149h153.6v115.149l-1.587 3.891-3.891 1.587zM578.714 192h-142.643l-3.891-1.587-1.587-3.891v-115.149h153.6v115.149l-1.587 3.891-3.891 1.587zM866.099 601.6h-142.643l-3.891-1.587-1.587-3.891v-115.149h153.6v115.149l-1.587 3.891-3.891 1.587zM866.099 396.8h-142.643l-3.891-1.587-1.587-3.891v-115.149h153.6v115.149l-1.587 3.891-3.891 1.587zM866.099 192h-142.643l-3.891-1.587-1.587-3.891v-115.149h153.6v115.149l-1.587 3.891-3.891 1.587z" />
<glyph unicode="&#xe905;" glyph-name="cancel-oval" data-tags="cancel-oval" d="M656.794 254.925l48.282 48.282c6.554 6.502 9.83 14.541 9.83 24.115s-3.277 17.613-9.83 24.115l-96.512 96.563 96.512 96.563c6.554 6.502 9.83 14.541 9.83 24.115s-3.277 17.613-9.83 24.115l-48.282 48.282c-6.502 6.554-14.541 9.83-24.115 9.83s-17.613-3.277-24.115-9.83l-96.563-96.512-96.563 96.512c-6.502 6.554-14.541 9.83-24.115 9.83s-17.613-3.277-24.115-9.83l-48.282-48.282c-6.554-6.502-9.83-14.541-9.83-24.115s3.277-17.613 9.83-24.115l96.512-96.563-96.512-96.563c-6.554-6.502-9.83-14.541-9.83-24.115s3.277-17.613 9.83-24.115l48.282-48.282c6.502-6.554 14.541-9.83 24.115-9.83s17.613 3.277 24.115 9.83l96.563 96.512 96.563-96.512c6.502-6.554 14.541-9.83 24.115-9.83s17.613 3.277 24.115 9.83zM921.6 448c0-74.291-18.33-142.848-54.938-205.619-36.608-62.72-86.323-112.435-149.043-149.043-62.771-36.608-131.328-54.938-205.619-54.938s-142.848 18.33-205.619 54.938c-62.72 36.608-112.435 86.323-149.043 149.043-36.608 62.771-54.938 131.328-54.938 205.619s18.33 142.848 54.938 205.619c36.608 62.72 86.323 112.435 149.043 149.043 62.771 36.608 131.328 54.938 205.619 54.938s142.848-18.33 205.619-54.938c62.72-36.608 112.435-86.323 149.043-149.043 36.608-62.771 54.938-131.328 54.938-205.619z" />
<glyph unicode="&#xe906;" glyph-name="cancel" data-tags="cancel" d="M731.29 155.648l73.062 73.062c9.882 9.933 14.848 22.118 14.848 36.557 0 14.49-4.966 26.675-14.848 36.557l-146.176 146.176 146.176 146.176c9.882 9.882 14.848 22.067 14.848 36.557 0 14.438-4.966 26.624-14.848 36.557l-73.062 73.062c-9.933 9.882-22.118 14.848-36.557 14.848-14.49 0-26.675-4.966-36.557-14.848l-146.176-146.176-146.176 146.176c-9.882 9.882-22.067 14.848-36.557 14.848-14.438 0-26.624-4.966-36.557-14.848l-73.062-73.062c-9.882-9.933-14.848-22.118-14.848-36.557 0-14.49 4.966-26.675 14.848-36.557l146.176-146.176-146.176-146.176c-9.882-9.882-14.848-22.067-14.848-36.557 0-14.438 4.966-26.624 14.848-36.557l73.062-73.062c9.933-9.882 22.118-14.848 36.557-14.848 14.49 0 26.675 4.966 36.557 14.848l146.176 146.176 146.176-146.176c9.882-9.882 22.067-14.848 36.557-14.848 14.438 0 26.624 4.966 36.557 14.848z" />
<glyph unicode="&#xe907;" glyph-name="close" data-tags="close" d="M961.28 814.541c15.36 15.36 15.36 38.451 0 53.862l-28.979 28.877c-15.36 15.36-38.349 15.36-53.709 0l-346.675-350.157c-10.24-10.24-25.6-10.24-35.789 0l-348.16 350.157c-15.36 15.36-38.4 15.36-53.709 0l-28.979-24.115c-15.36-15.36-15.36-38.451 0-53.862l348.16-347.546c10.189-10.24 10.189-25.651 0-35.891l-350.72-354.406c-15.36-15.36-15.36-38.451 0-53.862l31.539-28.877c15.309-15.36 38.349-15.36 53.709 0l348.16 351.846c10.189 10.24 25.549 10.24 35.789 0l344.115-349.594c15.36-15.411 38.4-15.411 53.709 0l28.979 24.064c15.36 15.411 15.36 38.502 0 53.862l-341.555 349.594c-10.24 10.24-10.24 25.651 0 35.891l344.115 350.157z" />
<glyph unicode="&#xe908;" glyph-name="correct-oval-check" data-tags="correct-oval-check" d="M787.2 534.374c0 9.984-3.226 18.176-9.626 24.576l-48.486 47.974c-6.758 6.758-14.797 10.138-24.013 10.138-9.267 0-17.254-3.379-24.013-10.138l-217.6-217.037-120.525 120.525c-6.758 6.758-14.746 10.138-24.013 10.138-9.216 0-17.254-3.379-24.013-10.138l-48.486-48.026c-6.4-6.4-9.626-14.541-9.626-24.525 0-9.574 3.226-17.613 9.626-24.013l193.024-193.075c6.758-6.707 14.797-10.086 24.013-10.086 9.626 0 17.766 3.379 24.525 10.086l289.638 289.638c6.4 6.4 9.574 14.387 9.574 23.962zM921.6 448c0-74.291-18.33-142.848-54.938-205.619-36.608-62.72-86.323-112.435-149.043-149.043-62.771-36.608-131.328-54.938-205.619-54.938s-142.848 18.33-205.619 54.938c-62.72 36.608-112.435 86.323-149.043 149.043-36.608 62.771-54.938 131.328-54.938 205.619s18.33 142.848 54.938 205.619c36.608 62.72 86.323 112.435 149.043 149.043 62.771 36.608 131.328 54.938 205.619 54.938s142.848-18.33 205.619-54.938c62.72-36.608 112.435-86.323 149.043-149.043 36.608-62.771 54.938-131.328 54.938-205.619z" />
<glyph unicode="&#xe909;" glyph-name="correct-right-check" data-tags="correct-right-check" d="M921.6 630.221c0 15.053-4.762 27.392-14.285 37.069l-72.243 72.602c-10.035 10.189-21.965 15.309-35.738 15.309-13.722 0-25.651-5.12-35.686-15.309l-323.891-328.192-179.405 182.221c-10.035 10.24-21.965 15.36-35.686 15.36-13.773 0-25.702-5.12-35.738-15.36l-72.243-72.55c-9.523-9.677-14.285-22.016-14.285-37.069 0-14.541 4.762-26.624 14.285-36.301l287.334-291.891c10.086-10.189 21.965-15.309 35.738-15.309 14.285 0 26.47 5.12 36.506 15.309l431.053 437.811c9.523 9.677 14.285 21.811 14.285 36.301z" />
<glyph unicode="&#xe90a;" glyph-name="curreny-exchange" data-tags="curreny-exchange" d="M421.939 276.838c0 12.902-9.677 22.579-22.579 22.579h-222.874c-12.902 0-22.579-9.677-22.579-22.579v-164.71c0-12.954 9.677-22.63 22.579-22.63h222.874c12.902 0 22.579 9.677 22.579 22.63v164.71zM244.326 506.112h-71.066c-16.128 0-22.579-12.902-12.902-19.354l119.501-122.726c3.226-6.451 12.902-6.451 19.354 0l119.501 122.726c9.677 9.677 0 19.354-12.902 19.354h-71.066c0 77.517 74.291 151.808 148.582 151.808v87.194c-135.68 0-239.002-103.322-239.002-239.002zM748.134 531.968c-6.451 6.451-16.128 6.451-22.579 0l-116.275-122.726c-9.677-9.677-3.226-19.354 12.902-19.354h71.066c0-90.47-61.338-151.808-151.808-151.808v-87.194c135.68 0 242.227 103.322 242.227 239.002h71.066c16.128 0 22.63 12.902 12.902 19.354l-119.501 122.726zM870.861 783.872c0 12.954-9.677 22.63-22.579 22.63h-222.874c-12.902 0-22.579-9.677-22.579-22.63v-164.71c0-12.902 9.677-22.579 22.579-22.579h222.874c12.902 0 22.579 9.677 22.579 22.579v164.71z" />
<glyph unicode="&#xe90b;" glyph-name="delete-pin-forever" data-tags="delete-pin-forever" d="M102.4 709.325v36.25c0 5.325 1.741 9.677 5.222 13.056s7.987 5.12 13.414 5.12h179.763l40.704 94.618c5.837 13.978 16.333 25.856 31.437 35.686 15.155 9.83 30.464 14.746 45.978 14.746h186.163c15.514 0 30.822-4.915 45.978-14.746 15.104-9.83 25.6-21.709 31.437-35.686l40.704-94.618h179.763c5.427 0 9.933-1.741 13.414-5.12s5.222-7.731 5.222-13.056v-36.25c0-5.274-1.741-9.626-5.222-13.005-3.482-3.43-7.987-5.12-13.414-5.12h-55.859v-537.19c0-31.386-9.114-58.47-27.341-81.306-18.227-22.886-40.141-34.304-65.741-34.304h-484.045c-25.6 0-47.514 11.059-65.741 33.126-18.227 22.118-27.341 48.845-27.341 80.23v539.443h-55.859c-5.427 0-9.933 1.69-13.414 5.12-3.482 3.379-5.222 7.731-5.222 13.005zM251.341 154.010c0-8.346 1.382-15.974 4.096-22.938 2.714-7.014 5.53-12.134 8.397-15.309 2.918-3.226 4.966-4.813 6.144-4.813h484.045c1.178 0 3.226 1.587 6.144 4.813 2.867 3.174 5.683 8.294 8.397 15.309 2.714 6.963 4.096 14.592 4.096 22.938v537.19h-521.318v-537.19zM381.696 763.75h260.608l-27.904 66.304c-2.714 3.379-5.99 5.478-9.882 6.195h-184.422c-3.891-0.717-7.219-2.816-9.933-6.195l-28.467-66.304zM618.445 269.466l35.43 35.482c4.813 4.813 7.219 10.752 7.219 17.715 0 7.066-2.406 12.954-7.219 17.766l-70.912 70.912 70.912 70.963c4.813 4.813 7.219 10.701 7.219 17.766 0 6.963-2.406 12.902-7.219 17.715l-35.43 35.482c-4.864 4.762-10.752 7.168-17.766 7.168s-12.954-2.406-17.715-7.168l-70.963-70.963-70.963 70.963c-4.762 4.762-10.701 7.168-17.715 7.168s-12.902-2.406-17.766-7.168l-35.43-35.482c-4.813-4.813-7.219-10.752-7.219-17.715 0-7.066 2.406-12.954 7.219-17.766l70.912-70.963-70.912-70.912c-4.813-4.813-7.219-10.701-7.219-17.766 0-6.963 2.406-12.902 7.219-17.715l35.43-35.482c4.864-4.762 10.752-7.168 17.766-7.168s12.954 2.406 17.715 7.168l70.963 70.963 70.963-70.963c4.762-4.762 10.701-7.168 17.715-7.168s12.902 2.406 17.766 7.168z" />
<glyph unicode="&#xe90c;" glyph-name="delete-pin" data-tags="delete-pin" d="M102.4 709.325v36.25c0 5.325 1.741 9.677 5.222 13.056s7.987 5.12 13.414 5.12h179.763l40.704 94.618c5.837 13.978 16.333 25.856 31.437 35.686 15.155 9.83 30.464 14.746 45.978 14.746h186.163c15.514 0 30.822-4.915 45.978-14.746 15.104-9.83 25.6-21.709 31.437-35.686l40.704-94.618h179.763c5.427 0 9.933-1.741 13.414-5.12s5.222-7.731 5.222-13.056v-36.25c0-5.274-1.741-9.626-5.222-13.005-3.482-3.43-7.987-5.12-13.414-5.12h-55.859v-537.19c0-31.386-9.114-58.47-27.341-81.306-18.227-22.886-40.141-34.304-65.741-34.304h-484.045c-25.6 0-47.514 11.059-65.741 33.126-18.227 22.118-27.341 48.845-27.341 80.23v539.443h-55.859c-5.427 0-9.933 1.69-13.414 5.12-3.482 3.379-5.222 7.731-5.222 13.005zM251.341 154.010c0-8.346 1.382-15.974 4.096-22.938 2.714-7.014 5.53-12.134 8.397-15.309 2.918-3.226 4.966-4.813 6.144-4.813h484.045c1.178 0 3.226 1.587 6.144 4.813 2.867 3.174 5.683 8.294 8.397 15.309 2.714 6.963 4.096 14.592 4.096 22.938v537.19h-521.318v-537.19zM325.837 237.875v326.4c0 5.274 1.741 9.626 5.222 13.005 3.482 3.43 7.936 5.12 13.363 5.12h37.274c5.427 0 9.882-1.69 13.363-5.12 3.482-3.379 5.222-7.731 5.222-13.005v-326.4c0-5.274-1.741-9.626-5.222-13.056-3.482-3.379-7.936-5.069-13.363-5.069h-37.274c-5.427 0-9.882 1.69-13.363 5.069-3.482 3.43-5.222 7.782-5.222 13.056zM381.696 763.75h260.608l-27.904 66.304c-2.714 3.379-5.99 5.478-9.882 6.195h-184.422c-3.891-0.717-7.219-2.816-9.933-6.195l-28.467-66.304zM474.778 237.875v326.4c0 5.274 1.741 9.626 5.222 13.005 3.482 3.43 7.936 5.12 13.363 5.12h37.274c5.427 0 9.882-1.69 13.363-5.12 3.482-3.379 5.222-7.731 5.222-13.005v-326.4c0-5.274-1.741-9.626-5.222-13.056-3.482-3.379-7.936-5.069-13.363-5.069h-37.274c-5.427 0-9.882 1.69-13.363 5.069-3.482 3.43-5.222 7.782-5.222 13.056zM623.718 237.875v326.4c0 5.274 1.741 9.626 5.222 13.005 3.482 3.43 7.936 5.12 13.363 5.12h37.274c5.427 0 9.882-1.69 13.363-5.12 3.482-3.379 5.222-7.731 5.222-13.005v-326.4c0-5.274-1.741-9.626-5.222-13.056-3.482-3.379-7.936-5.069-13.363-5.069h-37.274c-5.427 0-9.882 1.69-13.363 5.069-3.482 3.43-5.222 7.782-5.222 13.056z" />
<glyph unicode="&#xe90d;" glyph-name="dot-menu-her" data-tags="dot-menu-her" d="M256 448c0-56.525-45.875-102.4-102.4-102.4s-102.4 45.875-102.4 102.4c0 56.525 45.875 102.4 102.4 102.4s102.4-45.875 102.4-102.4zM511.744 550.4c-56.525 0-102.4-45.875-102.4-102.4s45.875-102.4 102.4-102.4c56.525 0 102.4 45.875 102.4 102.4s-45.875 102.4-102.4 102.4zM870.4 550.4c-56.525 0-102.4-45.875-102.4-102.4s45.875-102.4 102.4-102.4c56.525 0 102.4 45.875 102.4 102.4s-45.875 102.4-102.4 102.4z" />
<glyph unicode="&#xe90e;" glyph-name="drag" data-tags="drag" d="M328.499 180.429h367.002c14.336 0 17.203-7.68 6.963-17.152l-171.93-158.925c-10.086-9.318-26.829-9.472-37.069 0l-171.93 158.925c-10.138 9.318-7.168 17.152 6.963 17.152zM328.499 692.429c-14.131 0-17.613 8.192-7.731 18.432l173.414 179.507c9.83 10.189 25.754 10.189 35.635 0l173.363-179.507c9.882-10.189 6.656-18.432-7.68-18.432h-367.002zM972.8 524.288c0-6.81-2.458-12.646-7.373-17.613s-10.701-7.475-17.408-7.475l-872.038 1.024c-6.707 0-12.493 2.458-17.408 7.424s-7.373 10.854-7.373 17.664c0 6.81 2.458 12.646 7.373 17.613s10.701 7.475 17.408 7.475l872.038-1.024c6.707 0 12.493-2.458 17.408-7.424s7.373-10.854 7.373-17.664zM972.8 370.688c0-6.81-2.458-12.646-7.373-17.613s-10.701-7.475-17.408-7.475l-872.038 1.024c-6.707 0-12.493 2.458-17.408 7.424s-7.373 10.854-7.373 17.664c0 6.81 2.458 12.646 7.373 17.613s10.701 7.475 17.408 7.475l872.038-1.024c6.707 0 12.493-2.458 17.408-7.424s7.373-10.854 7.373-17.664z" />
<glyph unicode="&#xe90f;" glyph-name="edit" data-tags="edit" d="M908.749 844.851c-40.038 40.038-85.299 63.949-121.037 63.949-21.965 0-35.533-8.96-43.11-16.486l-636.416-636.518c-0.154-0.154-0.256-0.307-0.358-0.41-0.358-0.41-0.666-0.87-1.024-1.28-1.178-1.382-2.202-2.765-3.072-4.301-0.307-0.563-0.614-1.126-0.922-1.741-0.87-1.741-1.536-3.533-1.997-5.427-0.102-0.307-0.256-0.512-0.307-0.819l-34.816-157.184-0.051-0.051-13.773-62.822c-2.099-9.472 0.819-19.405 7.68-26.266 5.376-5.376 12.646-8.294 20.122-8.294 2.048 0 4.096 0.205 6.093 0.666l220.006 48.64c0.307 0.051 0.563 0.256 0.87 0.307 1.843 0.461 3.635 1.126 5.376 1.946 0.563 0.307 1.126 0.614 1.741 0.922 1.536 0.922 2.918 1.946 4.301 3.123 0.41 0.307 0.87 0.614 1.229 1.024 0.154 0.102 0.307 0.205 0.461 0.307l570.061 570.266c0 0 0.051 0 0.051 0l66.458 66.355c38.195 38.349 4.966 111.565-47.565 164.096zM163.891 31.642l-65.331 74.138 26.061 127.642 177.459-172.749-138.189-29.030zM930.918 702.31l-67.942-65.894-166.554 169.216 67.789 65.894c0.461 0.154 1.536 0.358 3.379 0.358 16.179 0 68.454-34.765 100.915-67.277 40.346-40.346 65.229-94.106 62.413-102.298z" />
<glyph unicode="&#xe910;" glyph-name="flag" data-tags="flag" d="M248.781 182.733l25.242-113.408c19.354-34.458 103.629-10.189 97.178 8.806l-25.19 113.203c12.442 0.461 25.139 0.666 37.99 0.666 65.024 0 124.979-5.734 179.917-17.152 54.886-11.469 98.355-26.982 130.406-46.592s48.077-41.011 48.077-64.256c0-23.245-16.026-44.646-48.077-64.256s-75.52-35.123-130.406-46.592c-54.938-11.418-114.893-17.152-179.917-17.152s-124.979 5.734-179.917 17.152c-54.886 11.469-98.355 26.982-130.406 46.592s-48.077 41.011-48.077 64.256c0 23.245 16.026 44.646 48.077 64.256s75.52 35.123 130.406 46.592c14.541 3.021 29.491 5.632 44.698 7.885zM173.312 924.979l181.811-842.65c5.837-17.050-52.787-30.874-70.144 0l-187.904 828.928c-5.683 18.33 8.090 33.178 28.672 38.246 10.138 2.355 20.634 1.126 29.645-3.482 8.909-4.608 15.462-12.186 17.92-21.043zM918.63 679.27c2.867-9.677-2.662-13.312-12.749-8.858-182.067 78.131-433.715-185.19-620.902-89.754-32.819 109.312-64.41 234.803-97.28 344.32 187.392-95.59 449.792 36.096 632.013-42.24 9.984-4.301 20.070-16.128 22.938-25.651 29.44-97.792 46.541-79.872 75.981-177.818z" />
<glyph unicode="&#xe911;" glyph-name="nav-job-registartion" data-tags="nav--job-registartion" d="M791.347-12.8c43.674 0 79.053 37.888 79.053 84.582v604.365c0 6.758-4.096 10.086-8.755 13.926h-129.024c0 0-4.762 146.688-64.307 210.381-3.584 4.915-9.011 8.346-15.872 8.346h-470.989c-43.674 0-79.053-37.888-79.053-84.582v-752.435c0-46.694 35.379-84.582 79.053-84.582h609.894zM689.203 896.102c52.531-71.885 55.859-192.87 55.859-192.87h118.118c0 0-131.942 146.227-173.978 192.87zM712.294 105.062h-451.789c-10.906 0-19.763 9.421-19.763 21.146 0 11.674 8.858 21.146 19.763 21.146h451.789c10.906 0 19.763-9.472 19.763-21.146 0-11.725-8.858-21.146-19.763-21.146zM712.294 222.874h-451.789c-10.906 0-19.763 9.472-19.763 21.146s8.858 21.197 19.763 21.197h451.789c10.906 0 19.763-9.523 19.763-21.197s-8.858-21.146-19.763-21.146zM647.475 762.829l37.939-39.424c14.438-15.002 14.438-38.451 0.87-53.504l-29.747-30.925c-3.635-3.789-9.062-3.789-12.646 0l-76.749 79.718c-3.584 3.789-3.584 9.421 0 13.158l29.798 30.976c13.517 15.002 36.096 15.002 50.534 0zM558.848 711.424l75.827-80.691c3.635-3.738 3.635-9.37 0-13.158l-235.571-244.89h0.922l-102.912-30.054c-9.933-2.816-18.944 7.526-16.23 17.869l29.747 106.035 235.622 244.89c3.584 3.789 9.011 3.789 12.595 0z" />
<glyph unicode="&#xe912;" glyph-name="nav-archive" data-tags="nav-archive" d="M769.331 475.546c0 6.81-2.458 12.698-7.322 17.664-4.915 4.966-10.752 7.475-17.459 7.475l-462.387 0.973c-6.707 0-12.544-2.458-17.459-7.424s-7.373-10.854-7.373-17.664c0-6.81 2.458-12.698 7.373-17.664s10.752-7.424 17.459-7.424l462.387-1.024c6.707 0 12.544 2.509 17.459 7.475 4.864 4.966 7.322 10.854 7.322 17.613zM921.6 627.2v-550.4c0-10.394-3.379-19.405-10.138-26.982-6.758-7.629-14.746-11.418-24.013-11.418h-750.899c-9.267 0-17.254 3.789-24.013 11.418-6.758 7.578-10.138 16.589-10.138 26.982v550.4h819.2zM972.8 819.2v-153.6h-921.6v153.6c0 10.394 3.533 19.405 10.547 26.982 7.014 7.629 15.309 11.418 24.883 11.418h850.739c9.574 0 17.869-3.789 24.883-11.418 7.014-7.578 10.547-16.589 10.547-26.982z" />
<glyph unicode="&#xe913;" glyph-name="nav-configurations" data-tags="nav-configurations" d="M51.2 755.2c0 28.262 22.835 51.2 51.098 51.2h409.702v-102.4h-409.702c-28.211 0-51.098 22.733-51.098 51.2zM972.8 755.2c0-28.467-22.989-51.2-51.354-51.2h-132.966v102.4h132.966c28.774 0 51.354-22.938 51.354-51.2zM558.080 805.939c0 28.518 22.579 51.661 51.354 51.661h81.613c28.365 0 51.354-22.682 51.354-51.661v-101.478c0-28.518-22.579-51.661-51.354-51.661h-81.613c-28.365 0-51.354 22.682-51.354 51.661v101.478zM972.8 443.546c0-28.467-22.835-51.2-51.046-51.2h-501.914v102.4h501.914c28.006 0 51.046-22.938 51.046-51.2zM51.2 448.358c0 25.6 20.429 46.387 46.080 46.387h46.080v-102.4h-46.080c-25.446 0-46.080 20.736-46.080 46.387v9.626zM373.76 494.285v-101.478c0-28.979-22.989-51.661-51.354-51.661h-81.613c-28.774 0-51.354 23.142-51.354 51.661v101.478c0 28.979 22.989 51.661 51.354 51.661h81.613c28.774 0 51.354-23.142 51.354-51.661zM51.2 140.8c0 28.262 23.040 51.2 51.251 51.2h317.389v-102.4h-317.389c-28.314 0-51.251 22.733-51.251 51.2zM972.8 140.8c0-28.467-22.682-51.2-50.688-51.2h-225.792v102.4h225.792c28.058 0 50.688-22.938 50.688-51.2zM465.92 191.539c0 28.518 22.579 51.661 51.354 51.661h81.613c28.365 0 51.354-22.682 51.354-51.661v-101.478c0-28.518-22.579-51.661-51.354-51.661h-81.613c-28.365 0-51.354 22.682-51.354 51.661v101.478z" />
<glyph unicode="&#xe914;" glyph-name="nav-dashboard" data-tags="nav-dashboard" d="M972.8 350.259c0-88.576-24.166-170.547-72.499-245.914-6.554-9.83-15.77-14.746-27.802-14.746h-720.998c-12.032 0-21.248 4.915-27.802 14.746-48.333 75.008-72.499 156.979-72.499 245.914 0 61.747 12.186 120.832 36.506 177.152 24.371 56.371 57.088 104.858 98.253 145.613 41.114 40.704 90.163 73.114 147.046 97.229 56.934 24.115 116.582 36.147 178.995 36.147s122.061-12.032 178.995-36.147c56.883-24.115 105.933-56.525 147.046-97.229 41.165-40.755 73.882-89.242 98.253-145.613 24.32-56.32 36.506-115.405 36.506-177.152zM248.678 350.106c0 18.022-6.4 33.382-19.302 46.131-12.851 12.698-28.365 19.098-46.541 19.098-18.125 0-33.638-6.4-46.541-19.098-12.851-12.749-19.251-28.109-19.251-46.131 0-17.971 6.4-33.331 19.251-46.080 12.902-12.698 28.416-19.098 46.541-19.098 18.176 0 33.69 6.4 46.541 19.098 12.902 12.749 19.302 28.109 19.302 46.080zM347.443 578.253c0 18.022-6.451 33.382-19.302 46.080-12.851 12.749-28.365 19.098-46.541 19.098s-33.69-6.349-46.541-19.098c-12.851-12.698-19.302-28.058-19.302-46.080 0-17.971 6.451-33.331 19.302-46.080s28.365-19.098 46.541-19.098c18.176 0 33.69 6.349 46.541 19.098s19.302 28.109 19.302 46.080zM567.552 333.312l51.917 194.56c2.099 8.806 0.768 17.050-3.84 24.678s-11.213 12.646-19.814 15.002c-8.55 2.406-16.794 1.28-24.678-3.277-7.885-4.608-13.005-11.315-15.411-20.122l-51.968-194.509c-20.582-1.741-38.912-9.114-54.989-22.17-16.128-13.056-26.931-29.798-32.41-50.176-6.861-26.112-3.43-50.893 10.291-74.342 13.67-23.398 33.741-38.502 60.16-45.312 26.368-6.81 51.405-3.379 75.059 10.189s38.912 33.434 45.773 59.597c5.478 20.326 4.454 40.192-3.072 59.546s-19.866 34.816-37.018 46.336zM906.957 350.106c0 18.022-6.4 33.382-19.251 46.131-12.902 12.698-28.416 19.098-46.541 19.098-18.176 0-33.69-6.4-46.541-19.098-12.902-12.749-19.302-28.109-19.302-46.131 0-17.971 6.4-33.331 19.302-46.080 12.851-12.698 28.365-19.098 46.541-19.098 18.125 0 33.638 6.4 46.541 19.098 12.851 12.749 19.251 28.109 19.251 46.080zM577.843 676.045c0 17.971-6.451 33.331-19.302 46.080s-28.365 19.098-46.541 19.098c-18.176 0-33.69-6.349-46.541-19.098s-19.302-28.109-19.302-46.080c0-18.022 6.451-33.382 19.302-46.080 12.851-12.749 28.365-19.098 46.541-19.098s33.69 6.349 46.541 19.098c12.851 12.698 19.302 28.058 19.302 46.080zM808.243 578.253c0 18.022-6.451 33.382-19.302 46.080-12.851 12.749-28.365 19.098-46.541 19.098s-33.69-6.349-46.541-19.098c-12.851-12.698-19.302-28.058-19.302-46.080 0-17.971 6.451-33.331 19.302-46.080s28.365-19.098 46.541-19.098c18.176 0 33.69 6.349 46.541 19.098s19.302 28.109 19.302 46.080z" />
<glyph unicode="&#xe915;" glyph-name="nav-finance" data-tags="nav-finance" d="M685.363 665.498c-11.776 17.869-18.022 39.629-3.584 71.014l49.766 107.981-78.131 32.307 7.987 32h-93.133c0 0-36.096-40.755-53.402-40.755s-54.016 40.755-54.016 40.755h-92.621l10.291-40.755-80.333-23.552 49.715-107.93c13.568-29.44 8.96-50.432-1.382-67.635-8.448-14.029-294.246-72.346-295.322-460.186-0.512-183.706 254.259-221.542 463.667-221.542 209.357 0 457.318 27.136 457.933 210.79 1.28 388.71-278.528 456.96-287.437 467.507zM585.114 721.869c16.077 0 29.082-13.312 29.082-28.672 0-15.821-12.902-28.621-29.082-28.621h-138.906c-16.077 0-29.082 13.261-29.082 28.621 0 15.821 12.902 28.672 29.082 28.672h138.906zM673.28 253.85c0-14.285-2.611-27.085-7.782-38.349-5.222-11.315-13.056-20.838-23.45-28.672s-23.398-14.131-39.014-18.79c-15.616-4.659-33.843-7.68-54.63-9.062v-21.862c0-14.029-8.294-21.043-24.883-21.043s-24.883 7.014-24.883 21.043v21.862c-46.182 3.021-78.541 11.622-97.075 25.754-18.534 14.182-27.802 28.979-27.802 44.39 0 14.029 8.294 21.043 24.883 21.043s24.883-7.014 24.883-21.043c0-4.147 7.322-9.779 21.965-16.947 14.592-7.117 40.653-10.701 78.029-10.701 50.074 0 79.258 6.502 87.552 19.558 8.294 13.107 12.442 24.32 12.442 33.638 0 18.432-13.005 30.925-39.014 37.53s-54.63 13.21-85.862 19.814c-31.232 6.605-59.853 15.974-85.862 28.058s-39.014 32.87-39.014 62.31c0 14.285 2.611 27.085 7.782 38.349 5.222 11.264 13.056 20.838 23.45 28.672s23.398 14.080 39.014 18.79c15.616 4.659 33.843 7.68 54.63 9.062v21.862c0 14.029 8.294 21.043 24.883 21.043s24.883-7.014 24.883-21.043v-21.862c46.182-3.021 78.541-11.622 97.075-25.805 18.534-14.131 27.802-28.928 27.802-44.339 0-14.029-8.294-21.043-24.883-21.043s-24.883 7.014-24.883 21.043c0 4.147-7.322 9.779-21.965 16.947-14.592 7.117-40.653 10.701-78.029 10.701-50.074 0-79.258-6.554-87.552-19.61s-12.442-24.269-12.442-33.587c0-18.176 13.005-30.566 39.014-37.171 26.010-6.554 54.63-13.107 85.862-19.558 31.232-6.502 59.853-15.872 85.862-28.262s39.014-33.28 39.014-62.72z" />
<glyph unicode="&#xe916;" glyph-name="nav-inquiries" data-tags="nav-inquiries" d="M822.579-12.8c45.67 0 82.637 37.888 82.637 84.582v604.365c0 6.758-4.301 10.086-9.165 13.926h-134.861c0 0-4.966 146.688-67.226 210.381-3.738 4.915-9.421 8.346-16.589 8.346h-492.339c-45.619 0-82.637-37.888-82.637-84.582v-752.435c0-46.694 37.018-84.582 82.637-84.582h637.542zM715.827 896.102c54.886-71.885 58.419-192.87 58.419-192.87h123.443c0 0-137.933 146.227-181.862 192.87zM693.555 105.062h-472.269c-11.418 0-20.634 9.421-20.634 21.146 0 11.674 9.216 21.146 20.634 21.146h472.269c11.418 0 20.634-9.472 20.634-21.146 0-11.725-9.216-21.146-20.634-21.146zM693.555 222.874h-472.269c-11.418 0-20.634 9.472-20.634 21.146s9.216 21.197 20.634 21.197h472.269c11.418 0 20.634-9.523 20.634-21.197s-9.216-21.146-20.634-21.146zM188.774 426.496v181.914c0 9.421 2.15 16.538 6.502 21.248 4.301 4.71 9.933 7.117 16.794 7.117 7.066 0 12.8-2.355 17.203-7.014 4.403-4.71 6.605-11.827 6.605-21.35v-181.914c0-9.574-2.202-16.691-6.605-21.402-4.403-4.762-10.138-7.117-17.203-7.117-6.758 0-12.339 2.406-16.742 7.168-4.352 4.762-6.554 11.878-6.554 21.35zM387.021 608.717l90.522-136.090v137.37c0 8.909 1.946 15.616 5.786 20.070 3.891 4.454 9.062 6.707 15.616 6.707 6.758 0 12.134-2.253 16.026-6.707 3.942-4.454 5.888-11.162 5.888-20.070v-181.606c0-20.275-8.448-30.413-25.395-30.413-4.198 0-8.038 0.614-11.418 1.792-3.379 1.229-6.554 3.123-9.523 5.786-2.918 2.611-5.683 5.683-8.243 9.216-2.509 3.482-5.069 7.117-7.578 10.752l-88.371 134.502v-135.27c0-8.806-2.048-15.462-6.144-20.019-4.147-4.506-9.421-6.758-15.872-6.758-6.656 0-12.032 2.304-16.026 6.861s-6.042 11.213-6.042 19.917v178.125c0 7.578 0.87 13.517 2.56 17.818 1.997 4.71 5.325 8.55 9.984 11.571 4.659 2.97 9.677 4.506 15.053 4.506 4.25 0 7.885-0.717 10.854-2.048 3.021-1.382 5.683-3.226 7.936-5.53 2.304-2.304 4.608-5.325 7.014-8.96 2.355-3.686 4.813-7.526 7.373-11.52zM750.080 430.592c6.861-4.608 14.387-9.114 22.528-13.466s13.517-7.834 16.179-10.394c2.611-2.56 3.942-6.246 3.942-10.957 0-3.379-1.536-6.707-4.659-10.086-3.123-3.328-6.912-5.018-11.366-5.018-3.584 0-7.936 1.126-13.056 3.43-5.12 2.355-11.162 5.683-18.074 10.086-6.963 4.403-14.541 9.574-22.784 15.462-15.309-7.782-34.15-11.674-56.422-11.674-18.125 0-34.304 2.867-48.64 8.602s-26.317 13.926-36.045 24.73c-9.728 10.752-17.050 23.552-21.965 38.349s-7.373 30.925-7.373 48.333c0 17.766 2.56 34.048 7.68 48.845s12.544 27.392 22.272 37.786c9.728 10.394 21.555 18.33 35.533 23.859 13.926 5.53 29.798 8.294 47.565 8.294 24.115 0 44.8-4.864 62.106-14.592 17.254-9.728 30.362-23.501 39.219-41.421 8.909-17.92 13.312-38.912 13.312-63.078 0-36.659-9.984-65.69-29.952-87.091zM713.114 456.090c-22.63 15.974-38.707 23.962-48.333 23.962-3.174 0-6.093-1.229-8.755-3.635-2.611-2.406-3.942-5.171-3.942-8.346 0-3.686 1.382-6.502 4.096-8.499 2.765-1.997 7.885-4.813 15.309-8.499 7.475-3.686 13.67-7.373 18.637-11.059-8.243-3.226-16.282-4.864-24.115-4.864-18.995 0-34.765 7.168-47.258 21.504-12.442 14.336-18.688 34.765-18.688 61.338 0 13.005 1.638 24.781 4.966 35.226s7.885 18.995 13.67 25.754c5.734 6.707 12.646 11.827 20.582 15.36 7.987 3.482 16.691 5.274 26.112 5.274 13.21 0 24.934-3.174 35.123-9.574 10.189-6.349 18.074-15.718 23.552-28.109s8.243-27.034 8.243-43.93c0-13.414-1.536-25.242-4.659-35.43s-7.987-18.995-14.541-26.47zM935.885 106.906v559.206c0 0 4.403 30.054-8.653 41.523-67.584 75.93-160.717 173.568-160.717 173.568s37.069 11.418 76.646-27.75l100.096-108.544c19.866-26.778 29.594-39.578 29.542-78.797v-474.010c0-80.64-36.915-85.197-36.915-85.197z" />
<glyph unicode="&#xe917;" glyph-name="nav-inquiry-cancelled" data-tags="nav-inquiry-cancelled" d="M837.274-12.8h-650.547c-46.592 0-84.326 37.888-84.326 84.582v752.435c0 46.694 37.734 84.582 84.326 84.582 0 0 566.374 0 632.678 0s102.195-28.979 102.195-102.656v-734.362c0-46.694-37.734-84.582-84.326-84.582zM752.947 105.062c11.674 0 21.094 9.421 21.094 21.146 0 11.674-9.421 21.146-21.094 21.146h-481.894c-11.674 0-21.094-9.472-21.094-21.146 0-11.725 9.421-21.146 21.094-21.146h481.894zM752.947 222.874c11.674 0 21.094 9.472 21.094 21.146s-9.421 21.197-21.094 21.197h-481.894c-11.674 0-21.094-9.523-21.094-21.197s9.421-21.146 21.094-21.146h481.894zM505.498 531.968l199.578-195.994c8.243-8.243 21.606-8.243 29.85 0.051 8.294 8.243 8.294 21.606 0.051 29.85l-199.834 196.25 195.994 199.578c8.243 8.243 8.243 21.606-0.051 29.901-8.243 8.243-21.606 8.294-29.85 0l-196.25-199.834-199.578 195.994c-8.243 8.243-21.606 8.192-29.901-0.051-8.243-8.243-8.294-21.606-0.051-29.85l199.885-196.25-195.994-199.578c-8.243-8.243-8.243-21.606 0.051-29.901 8.243-8.243 21.606-8.294 29.85-0.051l196.25 199.885z" />
<glyph unicode="&#xe918;" glyph-name="nav-inquiry-delete" data-tags="nav-inquiry-delete" d="M837.274-12.8c46.592 0 84.326 37.888 84.326 84.582v734.362c0 73.677-35.891 102.656-102.195 102.656s-632.678 0-632.678 0c-46.592 0-84.326-37.888-84.326-84.582v-752.435c0-46.694 37.734-84.582 84.326-84.582h650.547zM752.947 105.062h-481.894c-11.674 0-21.094 9.421-21.094 21.146 0 11.674 9.421 21.146 21.094 21.146h481.894c11.674 0 21.094-9.472 21.094-21.146 0-11.725-9.421-21.146-21.094-21.146zM752.947 222.874h-481.894c-11.674 0-21.094 9.472-21.094 21.146s9.421 21.197 21.094 21.197h481.894c11.674 0 21.094-9.523 21.094-21.197s-9.421-21.146-21.094-21.146zM249.958 722.022v22.426c0 3.277 1.126 5.99 3.379 8.090 2.202 2.099 5.069 3.174 8.55 3.174h114.995l26.061 58.573c3.738 8.653 10.445 16.026 20.122 22.118s19.456 9.114 29.389 9.114h119.091c9.933 0 19.712-3.021 29.389-9.114s16.384-13.466 20.122-22.118l26.061-58.573h114.995c3.482 0 6.349-1.075 8.55-3.174 2.253-2.099 3.379-4.813 3.379-8.090v-22.426c0-3.277-1.126-5.99-3.379-8.090-2.202-2.099-5.069-3.174-8.55-3.174h-35.738v-281.498c0-19.405-5.837-36.198-17.459-50.381-11.674-14.131-25.702-21.197-42.086-21.197h-309.658c-16.384 0-30.413 6.81-42.086 20.531-11.622 13.67-17.459 30.208-17.459 49.664v282.88h-35.738c-3.482 0-6.349 1.075-8.55 3.174-2.253 2.099-3.379 4.813-3.379 8.090zM345.242 429.261c0-5.171 0.87-9.882 2.611-14.234 1.741-4.301 3.533-7.475 5.427-9.472 1.843-1.997 3.123-2.97 3.891-2.97h309.658c0.768 0 2.048 0.973 3.891 2.97 1.894 1.997 3.686 5.171 5.427 9.472 1.741 4.352 2.611 9.062 2.611 14.234v281.498h-333.517v-281.498zM392.909 481.178v150.989c0 3.277 1.126 5.939 3.328 8.038 2.253 2.15 5.12 3.174 8.55 3.174h23.859c3.482 0 6.298-1.024 8.55-3.174 2.202-2.099 3.328-4.762 3.328-8.038v-150.989c0-3.277-1.126-5.939-3.328-8.038-2.253-2.099-5.069-3.174-8.55-3.174h-23.859c-3.43 0-6.298 1.075-8.55 3.174-2.202 2.099-3.328 4.762-3.328 8.038zM428.646 755.712h166.707l-17.869 41.062c-1.741 2.099-3.84 3.379-6.298 3.84h-118.016c-2.458-0.461-4.557-1.741-6.298-3.84l-18.227-41.062zM488.192 481.178v150.989c0 3.277 1.126 5.939 3.328 8.038 2.253 2.15 5.12 3.174 8.55 3.174h23.859c3.43 0 6.298-1.024 8.55-3.174 2.202-2.099 3.328-4.762 3.328-8.038v-150.989c0-3.277-1.126-5.939-3.328-8.038-2.253-2.099-5.12-3.174-8.55-3.174h-23.859c-3.43 0-6.298 1.075-8.55 3.174-2.202 2.099-3.328 4.762-3.328 8.038zM583.475 481.178v150.989c0 3.277 1.126 5.939 3.328 8.038 2.253 2.15 5.069 3.174 8.55 3.174h23.859c3.43 0 6.298-1.024 8.55-3.174 2.202-2.099 3.328-4.762 3.328-8.038v-150.989c0-3.277-1.126-5.939-3.328-8.038-2.253-2.099-5.12-3.174-8.55-3.174h-23.859c-3.482 0-6.298 1.075-8.55 3.174-2.202 2.099-3.328 4.762-3.328 8.038z" />
<glyph unicode="&#xe919;" glyph-name="nav-inquiry" data-tags="nav-inquiry" d="M837.274-12.8c46.592 0 84.326 37.888 84.326 84.582v604.365c0 6.758-4.403 10.086-9.318 13.926h-137.677c0 0-5.069 146.688-68.557 210.381-3.84 4.915-9.626 8.346-16.947 8.346h-502.374c-46.592 0-84.326-37.888-84.326-84.582v-752.435c0-46.694 37.734-84.582 84.326-84.582h650.547zM728.371 896.102c55.962-71.885 59.546-192.87 59.546-192.87h126.003c0 0-140.749 146.227-185.549 192.87zM752.947 105.062h-481.894c-11.674 0-21.094 9.421-21.094 21.146 0 11.674 9.421 21.146 21.094 21.146h481.894c11.674 0 21.094-9.472 21.094-21.146 0-11.725-9.421-21.146-21.094-21.146zM752.947 222.874h-481.894c-11.674 0-21.094 9.472-21.094 21.146s9.421 21.197 21.094 21.197h481.894c11.674 0 21.094-9.523 21.094-21.197s-9.421-21.146-21.094-21.146zM237.875 426.496v181.914c0 9.421 2.202 16.538 6.605 21.248 4.454 4.71 10.138 7.117 17.152 7.117 7.27 0 13.107-2.355 17.562-7.014 4.506-4.71 6.707-11.827 6.707-21.35v-181.914c0-9.574-2.202-16.691-6.707-21.402-4.454-4.762-10.291-7.117-17.562-7.117-6.861 0-12.595 2.406-17.050 7.168-4.506 4.762-6.707 11.878-6.707 21.35zM392.806 608.717l92.416-136.090v137.37c0 8.909 1.946 15.616 5.888 20.070s9.267 6.707 15.923 6.707c6.912 0 12.39-2.253 16.333-6.707 3.994-4.454 5.99-11.162 5.99-20.070v-181.606c0-20.275-8.602-30.413-25.856-30.413-4.352 0-8.192 0.614-11.674 1.792-3.43 1.229-6.656 3.123-9.677 5.786-3.021 2.611-5.837 5.683-8.448 9.216-2.56 3.482-5.171 7.117-7.731 10.752l-90.163 134.502v-135.27c0-8.806-2.099-15.462-6.298-20.019-4.198-4.506-9.626-6.758-16.179-6.758-6.81 0-12.237 2.304-16.333 6.861-4.147 4.557-6.195 11.213-6.195 19.917v178.125c0 7.578 0.87 13.517 2.611 17.818 2.048 4.71 5.427 8.55 10.189 11.571 4.762 2.97 9.882 4.506 15.36 4.506 4.352 0 8.038-0.717 11.11-2.048 3.072-1.382 5.786-3.226 8.090-5.53s4.71-5.325 7.117-8.96c2.406-3.686 4.915-7.526 7.526-11.52zM763.29 430.592c7.014-4.608 14.643-9.114 22.989-13.466 8.294-4.352 13.773-7.834 16.486-10.394s4.045-6.246 4.045-10.957c0-3.379-1.587-6.707-4.762-10.086-3.174-3.328-7.066-5.018-11.571-5.018-3.686 0-8.141 1.126-13.363 3.43-5.222 2.355-11.366 5.683-18.432 10.086s-14.797 9.574-23.245 15.462c-15.616-7.782-34.816-11.674-57.6-11.674-18.432 0-34.97 2.867-49.613 8.602-14.592 5.734-26.88 13.926-36.813 24.73-9.882 10.752-17.357 23.552-22.374 38.349s-7.526 30.925-7.526 48.333c0 17.766 2.611 34.048 7.834 48.845s12.8 27.392 22.733 37.786c9.933 10.394 22.016 18.33 36.25 23.859s30.413 8.294 48.538 8.294c24.627 0 45.722-4.864 63.386-14.592 17.613-9.728 30.976-23.501 40.038-41.421s13.568-38.912 13.568-63.078c0-36.659-10.189-65.69-30.566-87.091zM725.606 456.090c6.656 7.475 11.622 16.282 14.797 26.47s4.762 22.016 4.762 35.43c0 16.896-2.816 31.539-8.397 43.93-5.632 12.39-13.619 21.76-24.064 28.109-10.394 6.4-22.323 9.574-35.84 9.574-9.574 0-18.483-1.792-26.624-5.274-8.141-3.533-15.155-8.653-21.043-15.36-5.837-6.758-10.496-15.309-13.875-25.754-3.43-10.445-5.12-22.221-5.12-35.226 0-26.573 6.349-47.002 19.098-61.338s28.826-21.504 48.23-21.504c7.987 0 16.179 1.638 24.576 4.864-5.069 3.686-11.418 7.373-18.995 11.059-7.629 3.686-12.8 6.502-15.616 8.499s-4.198 4.813-4.198 8.499c0 3.174 1.331 5.939 4.045 8.346 2.662 2.406 5.632 3.635 8.909 3.635 9.779 0 26.266-7.987 49.357-23.962z" />
<glyph unicode="&#xe91a;" glyph-name="nav-job-search" data-tags="nav-job-search" d="M791.347-12.8c43.674 0 79.053 37.888 79.053 84.582v604.365c0 6.758-4.096 10.086-8.755 13.926h-129.024c0 0-4.762 146.688-64.307 210.381-3.584 4.915-9.011 8.346-15.872 8.346h-470.989c-43.674 0-79.053-37.888-79.053-84.582v-752.435c0-46.694 35.379-84.582 79.053-84.582h609.894zM689.203 896.102c52.531-71.885 55.859-192.87 55.859-192.87h118.118c0 0-131.942 146.227-173.978 192.87zM712.294 69.274h-451.789c-10.906 0-19.763 9.472-19.763 21.146s8.858 21.197 19.763 21.197h451.789c10.906 0 19.763-9.523 19.763-21.197s-8.858-21.146-19.763-21.146zM614.502 457.062l79.974-78.131c17.562-17.152 17.562-45.21 0.41-62.31l1.434 1.434c-17.306-17.254-45.517-17.408-63.13-0.205l-78.234 76.442c-34.97-24.576-77.414-39.014-123.187-39.014-119.706 0-216.73 98.714-216.73 220.467 0 121.702 97.024 220.416 216.73 220.416s216.781-98.714 216.781-220.416c0-43.674-12.493-84.429-34.048-118.682zM548.147 471.859c25.242 27.392 40.653 63.949 40.653 104.141 0 84.838-68.762 153.6-153.6 153.6s-153.6-68.762-153.6-153.6c0-84.838 68.762-153.6 153.6-153.6 39.424 0 75.418 14.848 102.605 39.322 1.485 2.15 3.226 4.25 5.171 6.195l-1.434-1.434c2.048 2.048 4.25 3.84 6.605 5.376zM712.294 171.674h-451.789c-10.906 0-19.763 9.472-19.763 21.146s8.858 21.197 19.763 21.197h451.789c10.906 0 19.763-9.523 19.763-21.197s-8.858-21.146-19.763-21.146z" />
<glyph unicode="&#xe91b;" glyph-name="nav-notifications" data-tags="nav-notifications" d="M907.878 279.654c-37.734 0-67.021 29.286-67.021 69.12v222.003c0 194.816-171.776 349.798-366.541 326.758-167.578-18.842-291.174-167.578-291.174-341.402v-199.014c0-41.882-35.584-77.466-75.366-77.466-31.437 0-56.576-25.139-56.576-54.477v-39.782c0-29.338 25.139-54.477 54.477-54.477h812.646c29.338 0 54.477 25.139 54.477 54.477v39.782c0 29.338-25.139 54.477-54.477 54.477h-10.445zM620.902 79.514h-217.805c-12.595 0-25.139-10.496-20.941-23.040 12.544-62.874 64.922-111.053 131.942-111.053s119.398 46.080 131.942 111.053c0 12.544-10.445 23.040-25.139 23.040z" />
<glyph unicode="&#xe91c;" glyph-name="nav-offer" data-tags="nav-offer" d="M791.347-12.8c43.674 0 79.053 37.888 79.053 84.582v604.365c0 6.758-4.096 10.086-8.755 13.926h-129.024c0 0-4.762 146.688-64.307 210.381-3.584 4.915-9.011 8.346-15.872 8.346h-470.989c-43.674 0-79.053-37.888-79.053-84.582v-752.435c0-46.694 35.379-84.582 79.053-84.582h609.894zM689.203 896.102c52.531-71.885 55.859-192.87 55.859-192.87h118.118c0 0-131.942 146.227-173.978 192.87zM712.294 105.062h-451.789c-10.906 0-19.763 9.421-19.763 21.146 0 11.674 8.858 21.146 19.763 21.146h451.789c10.906 0 19.763-9.472 19.763-21.146 0-11.725-8.858-21.146-19.763-21.146zM712.294 222.874h-451.789c-10.906 0-19.763 9.472-19.763 21.146s8.858 21.197 19.763 21.197h451.789c10.906 0 19.763-9.523 19.763-21.197s-8.858-21.146-19.763-21.146zM676.659 560.384l-163.942 146.074v-290.97c0-20.634-10.138-30.976-30.413-30.976s-30.413 10.342-30.413 30.976v290.97l-163.942-146.074c-15.104-13.619-29.44-12.39-42.957 3.686-13.517 16.128-12.493 30.976 2.97 44.595l196.147 174.080c21.094 18.739 54.938 18.944 76.698-0.461l194.611-173.619c15.923-13.619 16.998-28.365 3.277-44.288-13.722-15.872-27.699-17.203-42.035-3.994z" />
<glyph unicode="&#xe91d;" glyph-name="nav-order" data-tags="nav-order" d="M791.347-12.8h-609.894c-43.674 0-79.053 37.888-79.053 84.582v752.435c0 46.694 35.379 84.582 79.053 84.582h470.989c6.861 0 12.288-3.43 15.872-8.346 59.546-63.693 64.307-210.381 64.307-210.381h129.024c4.659-3.84 8.755-7.168 8.755-13.926v-604.365c0-46.694-35.379-84.582-79.053-84.582zM689.203 896.102c42.035-46.643 173.978-192.87 173.978-192.87h-118.118c0 0-3.328 120.986-55.859 192.87zM712.294 105.062c10.906 0 19.763 9.421 19.763 21.146 0 11.674-8.858 21.146-19.763 21.146h-451.789c-10.906 0-19.763-9.472-19.763-21.146 0-11.725 8.858-21.146 19.763-21.146h451.789zM712.294 222.874c10.906 0 19.763 9.472 19.763 21.146s-8.858 21.197-19.763 21.197h-451.789c-10.906 0-19.763-9.523-19.763-21.197s8.858-21.146 19.763-21.146h451.789zM714.394 639.744l-170.394-138.496v275.814c0 19.558-10.496 29.338-31.59 29.338-21.043 0-31.59-9.779-31.59-29.338v-275.814l-170.394 138.496c-15.718 12.902-30.566 11.725-44.595-3.533-14.080-15.258-13.005-29.338 3.072-42.24l203.827-165.069c21.914-17.715 57.139-17.92 79.718 0.461l202.24 164.608c16.538 12.902 17.664 26.88 3.43 41.933-14.285 15.053-28.826 16.333-43.725 3.84z" />
<glyph unicode="&#xe91e;" glyph-name="nav-project" data-tags="nav-project" d="M326.195 718.797v77.67c0 61.747 50.176 112.333 111.36 112.333h148.685c61.184 0 111.36-50.586 111.36-112.333v-77.67h126.362c81.664 0 148.634-67.277 148.838-149.709v-432.179c0-82.176-66.97-149.709-148.634-149.709h-624.333c-81.664 0-148.634 67.328-148.634 149.709v432.179c0 82.227 66.97 149.709 148.634 149.709h126.362zM400.486 718.797h222.822v77.67c0 20.224-16.998 37.376-37.069 37.376h-148.685c-20.070 0-37.069-17.152-37.069-37.376v-77.67zM784.435 139.827c11.264 0 20.275 9.267 20.275 20.634s-9.216 20.634-20.48 20.634h-544.87c-11.264 0-20.48-9.267-20.48-20.634s9.216-20.634 20.48-20.634h545.075zM784.435 331.827c11.264 0 20.275 9.318 20.275 20.685 0 11.315-9.216 20.634-20.48 20.634h-544.87c-11.264 0-20.48-9.318-20.48-20.634 0-11.366 9.216-20.685 20.48-20.685h545.075zM784.435 523.674c11.264 0 20.275 9.318 20.275 20.634 0 11.366-9.216 20.685-20.48 20.685h-544.87c-11.264 0-20.48-9.318-20.48-20.685 0-11.315 9.216-20.634 20.48-20.634h545.075z" />
<glyph unicode="&#xe91f;" glyph-name="nav-sales" data-tags="nav-sales" d="M822.579-12.8c45.67 0 82.637 37.888 82.637 84.582v604.365c0 6.758-4.301 10.086-9.165 13.926h-134.861c0 0-4.966 146.688-67.226 210.381-3.738 4.915-9.421 8.346-16.589 8.346h-492.339c-45.619 0-82.637-37.888-82.637-84.582v-752.435c0-46.694 37.018-84.582 82.637-84.582h637.542zM715.827 896.102c54.886-71.885 58.419-192.87 58.419-192.87h123.443c0 0-137.933 146.227-181.862 192.87zM693.555 105.062h-472.269c-11.418 0-20.634 9.421-20.634 21.146 0 11.674 9.216 21.146 20.634 21.146h472.269c11.418 0 20.634-9.472 20.634-21.146 0-11.725-9.216-21.146-20.634-21.146zM693.555 222.874h-472.269c-11.418 0-20.634 9.472-20.634 21.146s9.216 21.197 20.634 21.197h472.269c11.418 0 20.634-9.523 20.634-21.197s-9.216-21.146-20.634-21.146zM614.554 518.4c0-15.923-2.918-30.106-8.653-42.65-5.786-12.544-14.49-23.142-26.061-31.846-11.52-8.704-26.010-15.667-43.366-20.89-17.306-5.171-37.53-8.55-60.672-10.086v-24.269c0-15.565-9.216-23.398-27.648-23.398s-27.648 7.834-27.648 23.398v24.269c-51.302 3.379-87.245 12.954-107.878 28.672-20.582 15.718-30.874 32.154-30.874 49.254 0 15.616 9.216 23.398 27.648 23.398s27.648-7.782 27.648-23.398c0-4.557 8.141-10.803 24.371-18.79 16.282-7.936 45.158-11.878 86.733-11.878 55.654 0 88.064 7.219 97.28 21.76 9.216 14.49 13.824 26.982 13.824 37.325 0 20.48-14.438 34.406-43.366 41.728-28.877 7.322-60.672 14.694-95.386 22.016-34.662 7.322-66.509 17.715-95.386 31.181-28.928 13.414-43.366 36.506-43.366 69.222 0 15.872 2.867 30.106 8.653 42.598 5.786 12.544 14.49 23.142 26.010 31.846 11.571 8.755 26.061 15.667 43.366 20.89 17.357 5.171 37.581 8.55 60.723 10.086v24.269c0 15.616 9.216 23.398 27.648 23.398s27.648-7.782 27.648-23.398v-24.269c51.302-3.379 87.245-12.902 107.878-28.672 20.582-15.718 30.874-32.154 30.874-49.254 0-15.616-9.216-23.398-27.648-23.398s-27.648 7.782-27.648 23.398c0 4.557-8.141 10.854-24.371 18.79-16.282 7.936-45.158 11.93-86.733 11.93-55.654 0-88.064-7.27-97.28-21.811-9.216-14.49-13.824-26.931-13.824-37.325 0-20.173 14.438-33.946 43.366-41.267 28.877-7.322 60.672-14.592 95.386-21.76 34.662-7.219 66.458-17.664 95.386-31.437 28.928-13.722 43.366-36.966 43.366-69.632zM935.885 106.906v559.206c0 0 4.403 30.054-8.653 41.523-67.584 75.93-160.717 173.568-160.717 173.568s37.069 11.418 76.646-27.75l100.096-108.544c19.866-26.778 29.594-39.578 29.542-78.797v-474.010c0-80.64-36.915-85.197-36.915-85.197z" />
<glyph unicode="&#xe920;" glyph-name="nav-search" data-tags="nav-search" d="M964.864 76.339l-257.434 255.539c51.866 73.011 78.746 165.222 65.331 263.219-23.091 165.222-157.542 295.885-324.71 311.245-226.714 23.091-418.867-169.062-395.827-397.67 15.411-165.274 146.022-301.67 311.296-324.71 97.997-13.466 190.208 13.414 263.219 65.331l255.539-255.539c11.52-11.571 28.826-11.571 40.346 0l40.346 40.346c11.52 11.52 11.52 30.72 1.894 42.24zM165.632 545.178c0 136.397 111.411 247.808 247.808 247.808 136.448 0 247.859-111.411 247.859-247.808 0-136.448-111.411-247.859-247.859-247.859-136.397 0-247.808 109.517-247.808 247.859z" />
<glyph unicode="&#xe921;" glyph-name="nav-security" data-tags="nav-security" d="M842.752 919.040c-19.61 0-34.816-15.206-34.816-34.816v-69.632c0-19.61-15.258-34.816-34.816-34.816h-34.816c-19.61 0-34.816 15.206-34.816 34.816v69.632c0 19.558-13.056 34.816-34.816 34.816h-69.632c-19.61 0-34.816-15.258-34.816-34.816v-69.632c0-19.61-15.258-34.816-34.816-34.816h-34.816c-19.61 0-34.816 15.206-34.816 34.816v69.632c0 19.558-15.258 34.816-34.816 34.816h-69.632c-19.61 0-34.816-15.258-34.816-34.816v-69.632c0-19.61-15.258-34.816-34.816-34.816h-34.816c-19.61 0-34.816 15.206-34.816 34.816v69.632c0 19.558-15.258 34.816-34.816 34.816h-69.632c-19.61 0-34.816-15.258-34.816-34.816v-174.080c0-56.576 47.872-104.448 104.448-104.448h661.504c56.576 0 104.448 47.872 104.448 104.448v174.080c0 19.61-15.258 34.816-34.816 34.816h-69.632zM799.232 554.598h-574.464c-17.408 0-32.666-13.005-34.816-30.413l-78.336-505.856c-4.352-21.76 13.056-39.168 34.816-39.168h224.102c19.61 0 37.018 15.206 37.018 34.816v167.526c0 56.576 43.52 108.8 100.096 108.8 58.726 2.202 108.8-45.67 108.8-104.448v-174.080c0-19.558 17.408-34.816 36.966-34.816h224.154c21.76 0 39.168 19.61 34.816 39.168l-78.336 508.058c-2.202 17.408-17.408 30.464-34.816 30.464z" />
<glyph unicode="&#xe922;" glyph-name="nav-user" data-tags="nav-user" d="M184.166 321.587c47.872-194.15 121.549-334.387 323.994-334.387 201.37 0 268.134 148.634 318.925 338.227 3.994-2.099 8.346-3.533 12.698-3.84 36.301-4.198 72.243 43.366 80.23 106.291 7.936 62.618-14.541 116.48-50.432 121.395 2.15 189.901-115.763 359.526-361.062 359.526-247.45 0-355.584-168.909-357.376-360.602-33.741-8.038-54.784-60.16-47.206-120.678 8.346-62.566 43.93-110.131 80.23-105.933z" />
<glyph unicode="&#xe923;" glyph-name="nav-visits" data-tags="nav-visits" d="M791.347-12.8c43.674 0 79.053 37.888 79.053 84.582v604.365c0 6.758-4.096 10.086-8.755 13.926h-129.024c0 0-4.762 146.688-64.307 210.381-3.584 4.915-9.011 8.346-15.872 8.346h-470.989c-43.674 0-79.053-37.888-79.053-84.582v-752.435c0-46.694 35.379-84.582 79.053-84.582h609.894zM689.203 896.102c52.531-71.885 55.859-192.87 55.859-192.87h118.118c0 0-131.942 146.227-173.978 192.87zM712.294 105.062h-451.789c-10.906 0-19.763 9.421-19.763 21.146 0 11.674 8.858 21.146 19.763 21.146h451.789c10.906 0 19.763-9.472 19.763-21.146 0-11.725-8.858-21.146-19.763-21.146zM712.294 222.874h-451.789c-10.906 0-19.763 9.472-19.763 21.146s8.858 21.197 19.763 21.197h451.789c10.906 0 19.763-9.523 19.763-21.197s-8.858-21.146-19.763-21.146zM390.195 630.118c-10.752-1.331-21.197 13.722-23.859 33.843-2.202 19.2 3.942 35.789 13.926 38.195 0.512 60.774 32.461 114.483 105.37 114.483 72.397 0 107.11-53.965 106.598-114.176 10.598-1.638 17.254-18.79 14.899-38.605-2.355-20.019-12.954-35.072-23.706-33.741-1.178 0.154-2.458 0.563-3.635 1.229-14.95-60.211-34.714-107.366-94.003-107.366-59.699 0-81.459 44.595-95.181 106.291-0.154 0-0.307-0.154-0.41-0.154zM637.133 481.126c47.258-14.541 80.64-30.413 80.64-79.616v-33.178c0-16.077-12.442-28.979-27.853-28.979h-408.269c-15.462 0-27.904 12.902-27.904 28.979v33.178c0 49.203 34.048 66.714 80.64 80.333 14.797 4.352 36.659 13.466 48.845 21.043 9.83 6.144 20.685 2.867 29.082-5.837l41.37-135.526 14.029 81.818c0.256 1.382 0.768 2.458 1.434 3.533-1.843 0.717-3.123 3.021-3.123 5.888l-5.53 36.813c0 3.379 1.843 6.144 4.198 6.144h42.138c2.253 0 4.198-2.765 4.198-6.144l-5.478-36.813c0-2.867-1.331-5.171-3.123-5.888 0.614-1.075 1.178-2.15 1.434-3.533l13.978-81.818 42.547 139.315c7.987 6.4 17.818 8.192 26.982 2.458 12.698-7.885 34.97-17.664 49.766-22.17z" />
<glyph unicode="&#xe924;" glyph-name="oval" data-tags="oval" d="M972.8 448c0 254.31-206.49 460.8-460.8 460.8s-460.8-206.49-460.8-460.8c0-254.31 206.49-460.8 460.8-460.8s460.8 206.49 460.8 460.8z" />
<glyph unicode="&#xe925;" glyph-name="package-add" data-tags="package-add" d="M665.6 293.478h-576c-10.394 0-19.405-3.789-26.982-11.418-7.629-7.578-11.418-16.589-11.418-27.034v-229.376c0-10.394 3.789-19.405 11.418-27.034 7.578-7.629 16.589-11.418 26.982-11.418h844.8c10.394 0 19.405 3.789 26.982 11.418 7.629 7.629 11.418 16.64 11.418 27.034v229.376c0 10.445-3.789 19.456-11.418 27.034-7.578 7.629-16.589 11.418-26.982 11.418h-217.6v-306.278h-51.2v306.278zM750.95 618.65c0-9.216-3.379-17.203-10.138-23.962s-14.746-10.138-24.013-10.138h-136.55v-136.55c0-9.267-3.379-17.254-10.138-24.013s-14.746-10.138-23.962-10.138h-68.301c-9.216 0-17.203 3.379-23.962 10.138s-10.138 14.746-10.138 24.013v136.55h-136.55c-9.267 0-17.254 3.379-24.013 10.138s-10.138 14.746-10.138 23.962v68.301c0 9.216 3.379 17.203 10.138 23.962s14.746 10.138 24.013 10.138h136.55v136.55c0 9.267 3.379 17.254 10.138 24.013s14.746 10.138 23.962 10.138h68.301c9.216 0 17.203-3.379 23.962-10.138s10.138-14.746 10.138-24.013v-136.55h136.55c9.267 0 17.254-3.379 24.013-10.138s10.138-14.746 10.138-23.962v-68.301z" />
<glyph unicode="&#xe926;" glyph-name="payment-milestone-add" data-tags="payment-milestone-add" d="M972.8 255.027c0 10.445-3.789 19.456-11.418 27.034-7.578 7.629-16.589 11.418-26.982 11.418h-844.8c-10.394 0-19.405-3.789-26.982-11.418-7.629-7.578-11.418-16.589-11.418-27.034v-229.376c0-10.394 3.789-19.405 11.418-27.034 7.578-7.629 16.589-11.418 26.982-11.418h844.8c10.394 0 19.405 3.789 26.982 11.418 7.629 7.629 11.418 16.64 11.418 27.034v229.376zM307.2 39.68h-204.186v204.8h204.186v-26.061h51.2v26.061h256v-26.061h51.2v26.061h256v-204.8h-256v26.061h-51.2v-26.061h-256v26.061h-51.2v-26.061zM614.4 168.141v-52.122h51.2v52.122h-51.2zM307.2 168.141v-52.122h51.2v52.122h-51.2zM750.95 618.65c0-9.216-3.379-17.203-10.138-23.962s-14.746-10.138-24.013-10.138h-136.55v-136.55c0-9.267-3.379-17.254-10.138-24.013s-14.746-10.138-23.962-10.138h-68.301c-9.216 0-17.203 3.379-23.962 10.138s-10.138 14.746-10.138 24.013v136.55h-136.55c-9.267 0-17.254 3.379-24.013 10.138s-10.138 14.746-10.138 23.962v68.301c0 9.216 3.379 17.203 10.138 23.962s14.746 10.138 24.013 10.138h136.55v136.55c0 9.267 3.379 17.254 10.138 24.013s14.746 10.138 23.962 10.138h68.301c9.216 0 17.203-3.379 23.962-10.138s10.138-14.746 10.138-24.013v-136.55h136.55c9.267 0 17.254-3.379 24.013-10.138s10.138-14.746 10.138-23.962v-68.301z" />
<glyph unicode="&#xe927;" glyph-name="plus-oval" data-tags="plus-oval" d="M750.95 413.85v68.301c0 9.216-3.379 17.203-10.138 23.962s-14.746 10.138-24.013 10.138h-136.55v136.55c0 9.267-3.379 17.254-10.138 24.013s-14.746 10.138-23.962 10.138h-68.301c-9.216 0-17.203-3.379-23.962-10.138s-10.138-14.746-10.138-24.013v-136.55h-136.55c-9.267 0-17.254-3.379-24.013-10.138s-10.138-14.746-10.138-23.962v-68.301c0-9.216 3.379-17.203 10.138-23.962s14.746-10.138 24.013-10.138h136.55v-136.55c0-9.267 3.379-17.254 10.138-24.013s14.746-10.138 23.962-10.138h68.301c9.216 0 17.203 3.379 23.962 10.138s10.138 14.746 10.138 24.013v136.55h136.55c9.267 0 17.254 3.379 24.013 10.138s10.138 14.746 10.138 23.962zM921.6 448c0-74.291-18.33-142.848-54.938-205.619-36.608-62.72-86.323-112.435-149.043-149.043-62.771-36.608-131.328-54.938-205.619-54.938s-142.848 18.33-205.619 54.938c-62.72 36.608-112.435 86.323-149.043 149.043-36.608 62.771-54.938 131.328-54.938 205.619s18.33 142.848 54.938 205.619c36.608 62.72 86.323 112.435 149.043 149.043 62.771 36.608 131.328 54.938 205.619 54.938s142.848-18.33 205.619-54.938c62.72-36.608 112.435-86.323 149.043-149.043 36.608-62.771 54.938-131.328 54.938-205.619z" />
<glyph unicode="&#xe928;" glyph-name="plus" data-tags="plus" d="M595.763 385.178h345.6c16.794 0 31.437 14.643 31.437 31.386v62.874c0 16.742-14.643 31.386-31.437 31.386h-345.6c-12.544 0-20.941 8.397-20.941 20.941v345.6c0 16.794-14.643 31.437-31.386 31.437h-62.874c-16.742 0-31.386-14.643-31.386-31.437v-345.6c0-12.544-8.397-20.941-20.941-20.941h-345.6c-16.794 0-31.437-14.643-31.437-31.386v-62.874c0-16.742 14.643-31.386 31.437-31.386h345.6c12.544 0 20.941-8.397 20.941-20.941v-345.6c0-16.794 14.643-31.437 31.386-31.437h62.874c16.742 0 31.386 14.643 31.386 31.437v345.6c0 12.544 8.397 20.941 20.941 20.941z" />
<glyph unicode="&#xe929;" glyph-name="radio-check" data-tags="radio-check" d="M51.2 806.656c0 56.422 45.722 102.144 102.144 102.144h717.312c56.422 0 102.144-45.722 102.144-102.144v-717.312c0-56.422-45.722-102.144-102.144-102.144h-717.312c-56.422 0-102.144 45.722-102.144 102.144v717.312zM102.4 806.349v-716.698c0-28.467 22.938-51.251 51.251-51.251h716.698c28.467 0 51.251 22.938 51.251 51.251v716.698c0 28.467-22.938 51.251-51.251 51.251h-716.698c-28.467 0-51.251-22.938-51.251-51.251zM839.834 752.486c0 16.486-13.414 29.901-29.901 29.901h-595.866c-16.486 0-29.901-13.414-29.901-29.901v-608.973c0-16.486 13.414-29.901 29.901-29.901h595.866c16.486 0 29.901 13.414 29.901 29.901v608.973z" />
<glyph unicode="&#xe92a;" glyph-name="radio-uncheck" data-tags="radio-uncheck" d="M51.2 806.656c0 56.422 45.722 102.144 102.144 102.144h717.312c56.422 0 102.144-45.722 102.144-102.144v-717.312c0-56.422-45.722-102.144-102.144-102.144h-717.312c-56.422 0-102.144 45.722-102.144 102.144v717.312zM102.4 806.349v-716.698c0-28.467 22.938-51.251 51.251-51.251h716.698c28.467 0 51.251 22.938 51.251 51.251v716.698c0 28.467-22.938 51.251-51.251 51.251h-716.698c-28.467 0-51.251-22.938-51.251-51.251z" />
<glyph unicode="&#xe92b;" glyph-name="revert" data-tags="revert" d="M326.554 704.512h-13.363c-19.046 0-19.046 13.312-7.629 24.781l93.389 93.389c11.469 9.523 11.469 28.57 0 39.987l-39.987 40.038c-9.523 11.469-28.621 11.469-40.038 0l-245.862-245.862c-9.523-9.523-9.523-24.781 0-34.304l247.757-247.757c11.418-9.523 24.781-9.523 36.198 1.894l41.933 41.933c11.469 11.418 13.363 28.57 1.946 40.038l-93.389 93.389c-13.363 13.312-17.152 24.781-1.946 32.41 5.734 1.894 20.992 1.894 20.992 1.894h264.909c135.322 0 243.968-108.646 243.968-243.968s-108.646-243.968-243.968-243.968h-154.368c-15.258 0-26.675-13.363-26.675-28.57v-61.030c0-15.206 9.523-26.675 24.781-26.675h156.262c198.246 0 360.243 160.102 360.243 360.243s-161.997 360.243-360.243 360.243l-264.909 1.894z" />
<glyph unicode="&#xe92c;" glyph-name="save" data-tags="save" d="M809.984 908.8h-643.584c-63.437 0-115.2-51.866-115.2-115.2v-691.2c0-63.386 51.763-115.2 115.2-115.2h691.2c63.437 0 115.2 51.814 115.2 115.2v626.278l-162.816 180.122zM742.4 563.2c0-31.642-25.907-57.6-57.6-57.6h-345.6c-31.693 0-57.6 25.958-57.6 57.6v288h460.8v-288zM684.8 793.6h-115.2v-230.4h115.2v230.4z" />
<glyph unicode="&#xe92d;" glyph-name="table-cancelled" data-tags="table-cancelled" d="M823.808 934.349c19.507-0.768 38.656-4.096 56.986-10.854 47.667-17.459 86.528-55.347 105.165-102.605 7.731-19.558 11.571-40.090 12.39-61.082 2.611-207.872 2.611-415.744 0-623.616-0.768-19.507-4.096-38.656-10.854-56.986-17.459-47.667-55.347-86.528-102.605-105.165-19.558-7.731-40.090-11.571-61.082-12.39-207.872-2.611-415.744-2.611-623.616 0-20.992 0.819-41.523 4.659-61.082 12.39-47.258 18.637-85.146 57.498-102.605 105.165-6.758 18.33-10.086 37.478-10.854 56.986-2.611 207.872-2.611 415.744 0 623.616 0.819 20.992 4.659 41.523 12.39 61.082 18.637 47.258 57.498 85.146 105.165 102.605 18.33 6.758 37.478 10.086 56.986 10.854 207.872 2.611 415.744 2.611 623.616 0zM204.954 883.2c-15.104-0.205-29.952-2.56-44.134-7.782-35.072-12.851-63.386-41.165-76.237-76.237-4.813-13.107-7.219-26.778-7.731-40.653-2.611-207.002-2.611-414.054 0-621.056 0.512-13.875 2.918-27.546 7.731-40.653 12.442-34.048 39.578-61.85 73.318-75.162 13.978-5.478 28.621-8.243 43.571-8.806 207.002-2.611 414.054-2.611 621.056 0 14.95 0.563 29.594 3.328 43.571 8.806 33.741 13.312 60.877 41.114 73.318 75.162 4.813 13.107 7.219 26.778 7.731 40.653 2.611 207.002 2.611 414.054 0 621.056-0.563 14.95-3.328 29.594-8.806 43.571-13.312 33.741-41.114 60.877-75.162 73.318-13.107 4.813-26.778 7.219-40.653 7.731-205.824 2.611-411.699 0.051-617.574 0.051zM563.354 184.678c-79.104 0-140.39 22.63-183.757 67.942-43.366 45.261-65.075 109.312-65.075 192.154 0 84.992 22.016 150.63 66.048 197.018 44.083 46.336 106.803 69.53 188.262 69.53 26.266 0 52.531-2.611 78.797-7.885s46.899-11.418 61.85-18.534l-25.446-65.382c-18.278 6.81-38.195 12.442-59.802 16.947-21.658 4.454-40.755 6.707-57.395 6.707-111.002 0-166.554-65.843-166.554-197.478 0-62.464 13.568-110.336 40.653-143.718s67.226-50.074 120.422-50.074c45.568 0 92.262 9.114 140.134 27.341v-68.147c-36.557-17.613-82.586-26.419-138.138-26.419z" />
<glyph unicode="&#xe92e;" glyph-name="table-lost" data-tags="table-lost" d="M823.808 934.349c19.507-0.768 38.656-4.096 56.986-10.854 47.667-17.459 86.528-55.347 105.165-102.605 7.731-19.558 11.571-40.090 12.39-61.082 2.611-207.872 2.611-415.744 0-623.616-0.768-19.507-4.096-38.656-10.854-56.986-17.459-47.667-55.347-86.528-102.605-105.165-19.558-7.731-40.090-11.571-61.082-12.39-207.872-2.611-415.744-2.611-623.616 0-20.992 0.819-41.523 4.659-61.082 12.39-47.258 18.637-85.146 57.498-102.605 105.165-6.758 18.33-10.086 37.478-10.854 56.986-2.611 207.872-2.611 415.744 0 623.616 0.819 20.992 4.659 41.523 12.39 61.082 18.637 47.258 57.498 85.146 105.165 102.605 18.33 6.758 37.478 10.086 56.986 10.854 207.872 2.611 415.744 2.611 623.616 0v0zM204.954 883.2c-15.104-0.205-29.952-2.56-44.134-7.782-35.072-12.851-63.386-41.165-76.237-76.237-4.813-13.107-7.219-26.778-7.731-40.653-2.611-207.002-2.611-414.054 0-621.056 0.512-13.875 2.918-27.546 7.731-40.653 12.442-34.048 39.578-61.85 73.318-75.162 13.978-5.478 28.621-8.243 43.571-8.806 207.002-2.611 414.054-2.611 621.056 0 14.95 0.563 29.594 3.328 43.571 8.806 33.741 13.312 60.877 41.114 73.318 75.162 4.813 13.107 7.219 26.778 7.731 40.653 2.611 207.002 2.611 414.054 0 621.056-0.563 14.95-3.328 29.594-8.806 43.571-13.312 33.741-41.114 60.877-75.162 73.318-13.107 4.813-26.778 7.219-40.653 7.731-205.824 2.611-411.699 0.051-617.574 0.051v0zM314.522 184.678v526.643h82.381v-471.142h312.576v-55.501h-394.957z" />
<glyph unicode="&#xe92f;" glyph-name="table-regretted" data-tags="table-regretted" d="M823.808 934.349c19.507-0.768 38.656-4.096 56.986-10.854 47.667-17.459 86.528-55.347 105.165-102.605 7.731-19.558 11.571-40.090 12.39-61.082 2.611-207.872 2.611-415.744 0-623.616-0.768-19.507-4.096-38.656-10.854-56.986-17.459-47.667-55.347-86.528-102.605-105.165-19.558-7.731-40.090-11.571-61.082-12.39-207.872-2.611-415.744-2.611-623.616 0-20.992 0.819-41.523 4.659-61.082 12.39-47.258 18.637-85.146 57.498-102.605 105.165-6.758 18.33-10.086 37.478-10.854 56.986-2.611 207.872-2.611 415.744 0 623.616 0.819 20.992 4.659 41.523 12.39 61.082 18.637 47.258 57.498 85.146 105.165 102.605 18.33 6.758 37.478 10.086 56.986 10.854 207.872 2.611 415.744 2.611 623.616 0zM204.954 883.2c-15.104-0.205-29.952-2.56-44.134-7.782-35.072-12.851-63.386-41.165-76.237-76.237-4.813-13.107-7.219-26.778-7.731-40.653-2.611-207.002-2.611-414.054 0-621.056 0.512-13.875 2.918-27.546 7.731-40.653 12.442-34.048 39.578-61.85 73.318-75.162 13.978-5.478 28.621-8.243 43.571-8.806 207.002-2.611 414.054-2.611 621.056 0 14.95 0.563 29.594 3.328 43.571 8.806 33.741 13.312 60.877 41.114 73.318 75.162 4.813 13.107 7.219 26.778 7.731 40.653 2.611 207.002 2.611 414.054 0 621.056-0.563 14.95-3.328 29.594-8.806 43.571-13.312 33.741-41.114 60.877-75.162 73.318-13.107 4.813-26.778 7.219-40.653 7.731-205.824 2.611-411.699 0.051-617.574 0.051zM416.717 408.678v-194.253h-54.323v467.149h128.102c57.344 0 99.686-10.957 127.027-32.87 27.392-21.965 41.062-54.989 41.062-99.072 0-61.798-31.283-103.526-93.952-125.286l126.874-209.92h-64.205l-113.152 194.253h-97.434zM416.717 455.373h74.445c38.349 0 66.458 7.578 84.378 22.835 17.869 15.206 26.829 38.093 26.829 68.557 0 30.874-9.114 53.146-27.341 66.765-18.176 13.619-47.462 20.429-87.706 20.429h-70.605v-178.586z" />
<glyph unicode="&#xe930;" glyph-name="tree-box" data-tags="tree-box" d="M51.2 806.656c0 56.422 45.722 102.144 102.144 102.144h717.312c56.422 0 102.144-45.722 102.144-102.144v-717.312c0-56.422-45.722-102.144-102.144-102.144h-717.312c-56.422 0-102.144 45.722-102.144 102.144v717.312zM102.4 806.349v-716.698c0-28.467 22.938-51.251 51.251-51.251h716.698c28.467 0 51.251 22.938 51.251 51.251v716.698c0 28.467-22.938 51.251-51.251 51.251h-716.698c-28.467 0-51.251-22.938-51.251-51.251z" />
<glyph unicode="&#xe931;" glyph-name="tree-check-box" data-tags="tree-check-box" d="M51.2 806.656c0 56.422 45.722 102.144 102.144 102.144h717.312c56.422 0 102.144-45.722 102.144-102.144v-717.312c0-56.422-45.722-102.144-102.144-102.144h-717.312c-56.422 0-102.144 45.722-102.144 102.144v717.312zM102.4 806.349v-716.698c0-28.467 22.938-51.251 51.251-51.251h716.698c28.467 0 51.251 22.938 51.251 51.251v716.698c0 28.467-22.938 51.251-51.251 51.251h-716.698c-28.467 0-51.251-22.938-51.251-51.251zM787.2 534.374c0-9.574-3.226-17.562-9.626-23.962l-289.587-289.638c-6.758-6.707-14.899-10.086-24.525-10.086-9.216 0-17.254 3.379-24.013 10.086l-193.075 193.075c-6.4 6.4-9.574 14.438-9.574 24.013 0 9.984 3.226 18.125 9.626 24.525l48.486 48.026c6.758 6.758 14.797 10.138 24.013 10.138 9.267 0 17.254-3.379 24.013-10.138l120.525-120.525 217.6 217.037c6.758 6.758 14.746 10.138 24.013 10.138 9.216 0 17.254-3.379 24.013-10.138l48.538-47.974c6.4-6.4 9.574-14.592 9.574-24.576z" />
<glyph unicode="&#xe932;" glyph-name="tree-check" data-tags="tree-check" d="M787.2 534.374c0-9.574-3.226-17.562-9.626-23.962l-289.587-289.587c-6.758-6.758-14.899-10.138-24.525-10.138-9.216 0-17.254 3.379-24.013 10.138l-193.075 193.024c-6.4 6.4-9.574 14.438-9.574 24.013 0 9.984 3.226 18.125 9.626 24.525l48.486 48.026c6.758 6.758 14.797 10.138 24.013 10.138 9.267 0 17.254-3.379 24.013-10.138l120.525-120.525 217.6 217.037c6.758 6.758 14.746 10.138 24.013 10.138 9.216 0 17.254-3.379 24.013-10.138l48.538-47.974c6.4-6.4 9.574-14.592 9.574-24.525z" />
<glyph unicode="&#xe933;" glyph-name="tree-mins-box" data-tags="tree-mins-box" d="M51.2 806.656c0 56.422 45.722 102.144 102.144 102.144h717.312c56.422 0 102.144-45.722 102.144-102.144v-717.312c0-56.422-45.722-102.144-102.144-102.144h-717.312c-56.422 0-102.144 45.722-102.144 102.144v717.312zM102.4 806.349v-716.698c0-28.467 22.938-51.251 51.251-51.251h716.698c28.467 0 51.251 22.938 51.251 51.251v716.698c0 28.467-22.938 51.251-51.251 51.251h-716.698c-28.467 0-51.251-22.938-51.251-51.251zM750.95 413.85c0-9.216-3.379-17.203-10.138-23.962s-14.746-10.138-24.013-10.138h-409.6c-9.267 0-17.254 3.379-24.013 10.138s-10.138 14.746-10.138 23.962v68.301c0 9.216 3.379 17.203 10.138 23.962s14.746 10.138 24.013 10.138h409.6c9.267 0 17.254-3.379 24.013-10.138s10.138-14.746 10.138-23.962v-68.301z" />
<glyph unicode="&#xe934;" glyph-name="tree-mins" data-tags="tree-mins" d="M750.95 413.85c0-9.216-3.379-17.203-10.138-23.962s-14.746-10.138-24.013-10.138h-409.6c-9.267 0-17.254 3.379-24.013 10.138s-10.138 14.746-10.138 23.962v68.301c0 9.216 3.379 17.203 10.138 23.962s14.746 10.138 24.013 10.138h409.6c9.267 0 17.254-3.379 24.013-10.138s10.138-14.746 10.138-23.962v-68.301z" />
<glyph unicode="&#xe935;" glyph-name="tree-plus-box" data-tags="tree-plus-box" d="M51.2 806.656c0 56.422 45.722 102.144 102.144 102.144h717.312c56.422 0 102.144-45.722 102.144-102.144v-717.312c0-56.422-45.722-102.144-102.144-102.144h-717.312c-56.422 0-102.144 45.722-102.144 102.144v717.312zM102.4 806.349v-716.698c0-28.467 22.938-51.251 51.251-51.251h716.698c28.467 0 51.251 22.938 51.251 51.251v716.698c0 28.467-22.938 51.251-51.251 51.251h-716.698c-28.467 0-51.251-22.938-51.251-51.251zM750.95 413.85c0-9.216-3.379-17.203-10.138-23.962s-14.746-10.138-24.013-10.138h-136.55v-136.55c0-9.267-3.379-17.254-10.138-24.013s-14.746-10.138-23.962-10.138h-68.301c-9.216 0-17.203 3.379-23.962 10.138s-10.138 14.746-10.138 24.013v136.55h-136.55c-9.267 0-17.254 3.379-24.013 10.138s-10.138 14.746-10.138 23.962v68.301c0 9.216 3.379 17.203 10.138 23.962s14.746 10.138 24.013 10.138h136.55v136.55c0 9.267 3.379 17.254 10.138 24.013s14.746 10.138 23.962 10.138h68.301c9.216 0 17.203-3.379 23.962-10.138s10.138-14.746 10.138-24.013v-136.55h136.55c9.267 0 17.254-3.379 24.013-10.138s10.138-14.746 10.138-23.962v-68.301z" />
<glyph unicode="&#xe936;" glyph-name="tree-plus" data-tags="tree-plus" d="M750.95 413.85c0-9.216-3.379-17.203-10.138-23.962s-14.746-10.138-24.013-10.138h-136.55v-136.55c0-9.267-3.379-17.254-10.138-24.013s-14.746-10.138-23.962-10.138h-68.301c-9.216 0-17.203 3.379-23.962 10.138s-10.138 14.746-10.138 24.013v136.55h-136.55c-9.267 0-17.254 3.379-24.013 10.138s-10.138 14.746-10.138 23.962v68.301c0 9.216 3.379 17.203 10.138 23.962s14.746 10.138 24.013 10.138h136.55v136.55c0 9.267 3.379 17.254 10.138 24.013s14.746 10.138 23.962 10.138h68.301c9.216 0 17.203-3.379 23.962-10.138s10.138-14.746 10.138-24.013v-136.55h136.55c9.267 0 17.254-3.379 24.013-10.138s10.138-14.746 10.138-23.962v-68.301z" />
<glyph unicode="&#xe937;" glyph-name="uintized-add" data-tags="uintized-add" d="M716.8 293.478h217.6c10.394 0 19.405-3.789 26.982-11.418 7.629-7.578 11.418-16.589 11.418-27.034v-229.376c0-10.394-3.789-19.405-11.418-27.034-7.578-7.629-16.589-11.418-26.982-11.418h-844.8c-10.394 0-19.405 3.789-26.982 11.418-7.629 7.629-11.418 16.64-11.418 27.034v229.376c0 10.445 3.789 19.456 11.418 27.034 7.578 7.629 16.589 11.418 26.982 11.418h217.6v-306.278h51.2v306.278h307.2v-306.278h51.2v306.278zM750.95 618.65c0-9.216-3.379-17.203-10.138-23.962s-14.746-10.138-24.013-10.138h-136.55v-136.55c0-9.267-3.379-17.254-10.138-24.013s-14.746-10.138-23.962-10.138h-68.301c-9.216 0-17.203 3.379-23.962 10.138s-10.138 14.746-10.138 24.013v136.55h-136.55c-9.267 0-17.254 3.379-24.013 10.138s-10.138 14.746-10.138 23.962v68.301c0 9.216 3.379 17.203 10.138 23.962s14.746 10.138 24.013 10.138h136.55v136.55c0 9.267 3.379 17.254 10.138 24.013s14.746 10.138 23.962 10.138h68.301c9.216 0 17.203-3.379 23.962-10.138s10.138-14.746 10.138-24.013v-136.55h136.55c9.267 0 17.254-3.379 24.013-10.138s10.138-14.746 10.138-23.962v-68.301z" />
<glyph unicode="&#xe938;" glyph-name="version" data-tags="version" d="M51.2 678.451c0 14.131 11.674 25.549 25.6 25.549h870.4c14.131 0 25.6-11.469 25.6-25.549v-716.902c0-14.131-11.674-25.549-25.6-25.549h-870.4c-14.131 0-25.6 11.469-25.6 25.549v716.902zM102.4 524.749v-511.898c0-13.875 11.366-25.651 25.395-25.651h768.41c13.824 0 25.395 11.469 25.395 25.651v511.898c0 13.875-11.366 25.651-25.395 25.651h-768.41c-13.824 0-25.395-11.469-25.395-25.651zM102.4 831.744c0 14.285 11.571 25.856 25.395 25.856h768.41c14.029 0 25.395-10.957 25.395-25.856v-50.688c0-14.285-11.571-25.856-25.395-25.856h-768.41c-14.029 0-25.395 10.957-25.395 25.856v50.688zM153.6 934.4c0 14.131 11.264 25.6 25.498 25.6h665.805c14.080 0 25.498-11.878 25.498-25.6 0-14.131-11.264-25.6-25.498-25.6h-665.805c-14.080 0-25.498 11.878-25.498 25.6zM204.8 422.4c0 14.131 11.725 25.6 25.6 25.6h563.2c14.131 0 25.6-11.878 25.6-25.6 0-14.131-11.725-25.6-25.6-25.6h-563.2c-14.131 0-25.6 11.878-25.6 25.6zM204.8 268.8c0 14.131 11.725 25.6 25.6 25.6h563.2c14.131 0 25.6-11.878 25.6-25.6 0-14.131-11.725-25.6-25.6-25.6h-563.2c-14.131 0-25.6 11.878-25.6 25.6zM204.8 115.2c0 14.131 11.725 25.6 25.6 25.6h563.2c14.131 0 25.6-11.878 25.6-25.6 0-14.131-11.725-25.6-25.6-25.6h-563.2c-14.131 0-25.6 11.878-25.6 25.6z" />
<glyph unicode="" glyph-name="version" data-tags="version" d="M51.2 678.451c0 14.131 11.674 25.549 25.6 25.549h870.4c14.131 0 25.6-11.469 25.6-25.549v-716.902c0-14.131-11.674-25.549-25.6-25.549h-870.4c-14.131 0-25.6 11.469-25.6 25.549v716.902zM102.4 524.749v-511.898c0-13.875 11.366-25.651 25.395-25.651h768.41c13.824 0 25.395 11.469 25.395 25.651v511.898c0 13.875-11.366 25.651-25.395 25.651h-768.41c-13.824 0-25.395-11.469-25.395-25.651zM102.4 831.744c0 14.285 11.571 25.856 25.395 25.856h768.41c14.029 0 25.395-10.957 25.395-25.856v-50.688c0-14.285-11.571-25.856-25.395-25.856h-768.41c-14.029 0-25.395 10.957-25.395 25.856v50.688zM153.6 934.4c0 14.131 11.264 25.6 25.498 25.6h665.805c14.080 0 25.498-11.878 25.498-25.6 0-14.131-11.264-25.6-25.498-25.6h-665.805c-14.080 0-25.498 11.878-25.498 25.6zM204.8 422.4c0 14.131 11.725 25.6 25.6 25.6h563.2c14.131 0 25.6-11.878 25.6-25.6 0-14.131-11.725-25.6-25.6-25.6h-563.2c-14.131 0-25.6 11.878-25.6 25.6zM204.8 268.8c0 14.131 11.725 25.6 25.6 25.6h563.2c14.131 0 25.6-11.878 25.6-25.6 0-14.131-11.725-25.6-25.6-25.6h-563.2c-14.131 0-25.6 11.878-25.6 25.6zM204.8 115.2c0 14.131 11.725 25.6 25.6 25.6h563.2c14.131 0 25.6-11.878 25.6-25.6 0-14.131-11.725-25.6-25.6-25.6h-563.2c-14.131 0-25.6 11.878-25.6 25.6z" />
<glyph unicode="visit" glyph-name="nav-visits" data-tags="nav-visits" d="M791.347-12.8c43.674 0 79.053 37.888 79.053 84.582v604.365c0 6.758-4.096 10.086-8.755 13.926h-129.024c0 0-4.762 146.688-64.307 210.381-3.584 4.915-9.011 8.346-15.872 8.346h-470.989c-43.674 0-79.053-37.888-79.053-84.582v-752.435c0-46.694 35.379-84.582 79.053-84.582h609.894zM689.203 896.102c52.531-71.885 55.859-192.87 55.859-192.87h118.118c0 0-131.942 146.227-173.978 192.87zM712.294 105.062h-451.789c-10.906 0-19.763 9.421-19.763 21.146 0 11.674 8.858 21.146 19.763 21.146h451.789c10.906 0 19.763-9.472 19.763-21.146 0-11.725-8.858-21.146-19.763-21.146zM712.294 222.874h-451.789c-10.906 0-19.763 9.472-19.763 21.146s8.858 21.197 19.763 21.197h451.789c10.906 0 19.763-9.523 19.763-21.197s-8.858-21.146-19.763-21.146zM390.195 630.118c-10.752-1.331-21.197 13.722-23.859 33.843-2.202 19.2 3.942 35.789 13.926 38.195 0.512 60.774 32.461 114.483 105.37 114.483 72.397 0 107.11-53.965 106.598-114.176 10.598-1.638 17.254-18.79 14.899-38.605-2.355-20.019-12.954-35.072-23.706-33.741-1.178 0.154-2.458 0.563-3.635 1.229-14.95-60.211-34.714-107.366-94.003-107.366-59.699 0-81.459 44.595-95.181 106.291-0.154 0-0.307-0.154-0.41-0.154zM637.133 481.126c47.258-14.541 80.64-30.413 80.64-79.616v-33.178c0-16.077-12.442-28.979-27.853-28.979h-408.269c-15.462 0-27.904 12.902-27.904 28.979v33.178c0 49.203 34.048 66.714 80.64 80.333 14.797 4.352 36.659 13.466 48.845 21.043 9.83 6.144 20.685 2.867 29.082-5.837l41.37-135.526 14.029 81.818c0.256 1.382 0.768 2.458 1.434 3.533-1.843 0.717-3.123 3.021-3.123 5.888l-5.53 36.813c0 3.379 1.843 6.144 4.198 6.144h42.138c2.253 0 4.198-2.765 4.198-6.144l-5.478-36.813c0-2.867-1.331-5.171-3.123-5.888 0.614-1.075 1.178-2.15 1.434-3.533l13.978-81.818 42.547 139.315c7.987 6.4 17.818 8.192 26.982 2.458 12.698-7.885 34.97-17.664 49.766-22.17z" />
<glyph unicode="versions" glyph-name="version" data-tags="version" d="M51.2 678.451c0 14.131 11.674 25.549 25.6 25.549h870.4c14.131 0 25.6-11.469 25.6-25.549v-716.902c0-14.131-11.674-25.549-25.6-25.549h-870.4c-14.131 0-25.6 11.469-25.6 25.549v716.902zM102.4 524.749v-511.898c0-13.875 11.366-25.651 25.395-25.651h768.41c13.824 0 25.395 11.469 25.395 25.651v511.898c0 13.875-11.366 25.651-25.395 25.651h-768.41c-13.824 0-25.395-11.469-25.395-25.651zM102.4 831.744c0 14.285 11.571 25.856 25.395 25.856h768.41c14.029 0 25.395-10.957 25.395-25.856v-50.688c0-14.285-11.571-25.856-25.395-25.856h-768.41c-14.029 0-25.395 10.957-25.395 25.856v50.688zM153.6 934.4c0 14.131 11.264 25.6 25.498 25.6h665.805c14.080 0 25.498-11.878 25.498-25.6 0-14.131-11.264-25.6-25.498-25.6h-665.805c-14.080 0-25.498 11.878-25.498 25.6zM204.8 422.4c0 14.131 11.725 25.6 25.6 25.6h563.2c14.131 0 25.6-11.878 25.6-25.6 0-14.131-11.725-25.6-25.6-25.6h-563.2c-14.131 0-25.6 11.878-25.6 25.6zM204.8 268.8c0 14.131 11.725 25.6 25.6 25.6h563.2c14.131 0 25.6-11.878 25.6-25.6 0-14.131-11.725-25.6-25.6-25.6h-563.2c-14.131 0-25.6 11.878-25.6 25.6zM204.8 115.2c0 14.131 11.725 25.6 25.6 25.6h563.2c14.131 0 25.6-11.878 25.6-25.6 0-14.131-11.725-25.6-25.6-25.6h-563.2c-14.131 0-25.6 11.878-25.6 25.6z" />
<glyph unicode="version" glyph-name="version" data-tags="version" d="M51.2 678.451c0 14.131 11.674 25.549 25.6 25.549h870.4c14.131 0 25.6-11.469 25.6-25.549v-716.902c0-14.131-11.674-25.549-25.6-25.549h-870.4c-14.131 0-25.6 11.469-25.6 25.549v716.902zM102.4 524.749v-511.898c0-13.875 11.366-25.651 25.395-25.651h768.41c13.824 0 25.395 11.469 25.395 25.651v511.898c0 13.875-11.366 25.651-25.395 25.651h-768.41c-13.824 0-25.395-11.469-25.395-25.651zM102.4 831.744c0 14.285 11.571 25.856 25.395 25.856h768.41c14.029 0 25.395-10.957 25.395-25.856v-50.688c0-14.285-11.571-25.856-25.395-25.856h-768.41c-14.029 0-25.395 10.957-25.395 25.856v50.688zM153.6 934.4c0 14.131 11.264 25.6 25.498 25.6h665.805c14.080 0 25.498-11.878 25.498-25.6 0-14.131-11.264-25.6-25.498-25.6h-665.805c-14.080 0-25.498 11.878-25.498 25.6zM204.8 422.4c0 14.131 11.725 25.6 25.6 25.6h563.2c14.131 0 25.6-11.878 25.6-25.6 0-14.131-11.725-25.6-25.6-25.6h-563.2c-14.131 0-25.6 11.878-25.6 25.6zM204.8 268.8c0 14.131 11.725 25.6 25.6 25.6h563.2c14.131 0 25.6-11.878 25.6-25.6 0-14.131-11.725-25.6-25.6-25.6h-563.2c-14.131 0-25.6 11.878-25.6 25.6zM204.8 115.2c0 14.131 11.725 25.6 25.6 25.6h563.2c14.131 0 25.6-11.878 25.6-25.6 0-14.131-11.725-25.6-25.6-25.6h-563.2c-14.131 0-25.6 11.878-25.6 25.6z" />
<glyph unicode="user" glyph-name="nav-user" data-tags="nav-user" d="M184.166 321.587c47.872-194.15 121.549-334.387 323.994-334.387 201.37 0 268.134 148.634 318.925 338.227 3.994-2.099 8.346-3.533 12.698-3.84 36.301-4.198 72.243 43.366 80.23 106.291 7.936 62.618-14.541 116.48-50.432 121.395 2.15 189.901-115.763 359.526-361.062 359.526-247.45 0-355.584-168.909-357.376-360.602-33.741-8.038-54.784-60.16-47.206-120.678 8.346-62.566 43.93-110.131 80.23-105.933z" />
<glyph unicode="unitized" glyph-name="uintized-add" data-tags="uintized-add" d="M716.8 293.478h217.6c10.394 0 19.405-3.789 26.982-11.418 7.629-7.578 11.418-16.589 11.418-27.034v-229.376c0-10.394-3.789-19.405-11.418-27.034-7.578-7.629-16.589-11.418-26.982-11.418h-844.8c-10.394 0-19.405 3.789-26.982 11.418-7.629 7.629-11.418 16.64-11.418 27.034v229.376c0 10.445 3.789 19.456 11.418 27.034 7.578 7.629 16.589 11.418 26.982 11.418h217.6v-306.278h51.2v306.278h307.2v-306.278h51.2v306.278zM750.95 618.65c0-9.216-3.379-17.203-10.138-23.962s-14.746-10.138-24.013-10.138h-136.55v-136.55c0-9.267-3.379-17.254-10.138-24.013s-14.746-10.138-23.962-10.138h-68.301c-9.216 0-17.203 3.379-23.962 10.138s-10.138 14.746-10.138 24.013v136.55h-136.55c-9.267 0-17.254 3.379-24.013 10.138s-10.138 14.746-10.138 23.962v68.301c0 9.216 3.379 17.203 10.138 23.962s14.746 10.138 24.013 10.138h136.55v136.55c0 9.267 3.379 17.254 10.138 24.013s14.746 10.138 23.962 10.138h68.301c9.216 0 17.203-3.379 23.962-10.138s10.138-14.746 10.138-24.013v-136.55h136.55c9.267 0 17.254-3.379 24.013-10.138s10.138-14.746 10.138-23.962v-68.301z" />
<glyph unicode="undo" glyph-name="revert" data-tags="revert" d="M326.554 704.512h-13.363c-19.046 0-19.046 13.312-7.629 24.781l93.389 93.389c11.469 9.523 11.469 28.57 0 39.987l-39.987 40.038c-9.523 11.469-28.621 11.469-40.038 0l-245.862-245.862c-9.523-9.523-9.523-24.781 0-34.304l247.757-247.757c11.418-9.523 24.781-9.523 36.198 1.894l41.933 41.933c11.469 11.418 13.363 28.57 1.946 40.038l-93.389 93.389c-13.363 13.312-17.152 24.781-1.946 32.41 5.734 1.894 20.992 1.894 20.992 1.894h264.909c135.322 0 243.968-108.646 243.968-243.968s-108.646-243.968-243.968-243.968h-154.368c-15.258 0-26.675-13.363-26.675-28.57v-61.030c0-15.206 9.523-26.675 24.781-26.675h156.262c198.246 0 360.243 160.102 360.243 360.243s-161.997 360.243-360.243 360.243l-264.909 1.894z" />
<glyph unicode="tree-unchecked" glyph-name="tree-box" data-tags="tree-box" d="M51.2 806.656c0 56.422 45.722 102.144 102.144 102.144h717.312c56.422 0 102.144-45.722 102.144-102.144v-717.312c0-56.422-45.722-102.144-102.144-102.144h-717.312c-56.422 0-102.144 45.722-102.144 102.144v717.312zM102.4 806.349v-716.698c0-28.467 22.938-51.251 51.251-51.251h716.698c28.467 0 51.251 22.938 51.251 51.251v716.698c0 28.467-22.938 51.251-51.251 51.251h-716.698c-28.467 0-51.251-22.938-51.251-51.251z" />
<glyph unicode="tree-plus" glyph-name="tree-plus" data-tags="tree-plus" d="M750.95 413.85c0-9.216-3.379-17.203-10.138-23.962s-14.746-10.138-24.013-10.138h-136.55v-136.55c0-9.267-3.379-17.254-10.138-24.013s-14.746-10.138-23.962-10.138h-68.301c-9.216 0-17.203 3.379-23.962 10.138s-10.138 14.746-10.138 24.013v136.55h-136.55c-9.267 0-17.254 3.379-24.013 10.138s-10.138 14.746-10.138 23.962v68.301c0 9.216 3.379 17.203 10.138 23.962s14.746 10.138 24.013 10.138h136.55v136.55c0 9.267 3.379 17.254 10.138 24.013s14.746 10.138 23.962 10.138h68.301c9.216 0 17.203-3.379 23.962-10.138s10.138-14.746 10.138-24.013v-136.55h136.55c9.267 0 17.254-3.379 24.013-10.138s10.138-14.746 10.138-23.962v-68.301z" />
<glyph unicode="tree-open" glyph-name="tree-plus-box" data-tags="tree-plus-box" d="M51.2 806.656c0 56.422 45.722 102.144 102.144 102.144h717.312c56.422 0 102.144-45.722 102.144-102.144v-717.312c0-56.422-45.722-102.144-102.144-102.144h-717.312c-56.422 0-102.144 45.722-102.144 102.144v717.312zM102.4 806.349v-716.698c0-28.467 22.938-51.251 51.251-51.251h716.698c28.467 0 51.251 22.938 51.251 51.251v716.698c0 28.467-22.938 51.251-51.251 51.251h-716.698c-28.467 0-51.251-22.938-51.251-51.251zM750.95 413.85c0-9.216-3.379-17.203-10.138-23.962s-14.746-10.138-24.013-10.138h-136.55v-136.55c0-9.267-3.379-17.254-10.138-24.013s-14.746-10.138-23.962-10.138h-68.301c-9.216 0-17.203 3.379-23.962 10.138s-10.138 14.746-10.138 24.013v136.55h-136.55c-9.267 0-17.254 3.379-24.013 10.138s-10.138 14.746-10.138 23.962v68.301c0 9.216 3.379 17.203 10.138 23.962s14.746 10.138 24.013 10.138h136.55v136.55c0 9.267 3.379 17.254 10.138 24.013s14.746 10.138 23.962 10.138h68.301c9.216 0 17.203-3.379 23.962-10.138s10.138-14.746 10.138-24.013v-136.55h136.55c9.267 0 17.254-3.379 24.013-10.138s10.138-14.746 10.138-23.962v-68.301z" />
<glyph unicode="tree-mins" glyph-name="tree-mins" data-tags="tree-mins" d="M750.95 413.85c0-9.216-3.379-17.203-10.138-23.962s-14.746-10.138-24.013-10.138h-409.6c-9.267 0-17.254 3.379-24.013 10.138s-10.138 14.746-10.138 23.962v68.301c0 9.216 3.379 17.203 10.138 23.962s14.746 10.138 24.013 10.138h409.6c9.267 0 17.254-3.379 24.013-10.138s10.138-14.746 10.138-23.962v-68.301z" />
<glyph unicode="tree-close" glyph-name="tree-mins-box" data-tags="tree-mins-box" d="M51.2 806.656c0 56.422 45.722 102.144 102.144 102.144h717.312c56.422 0 102.144-45.722 102.144-102.144v-717.312c0-56.422-45.722-102.144-102.144-102.144h-717.312c-56.422 0-102.144 45.722-102.144 102.144v717.312zM102.4 806.349v-716.698c0-28.467 22.938-51.251 51.251-51.251h716.698c28.467 0 51.251 22.938 51.251 51.251v716.698c0 28.467-22.938 51.251-51.251 51.251h-716.698c-28.467 0-51.251-22.938-51.251-51.251zM750.95 413.85c0-9.216-3.379-17.203-10.138-23.962s-14.746-10.138-24.013-10.138h-409.6c-9.267 0-17.254 3.379-24.013 10.138s-10.138 14.746-10.138 23.962v68.301c0 9.216 3.379 17.203 10.138 23.962s14.746 10.138 24.013 10.138h409.6c9.267 0 17.254-3.379 24.013-10.138s10.138-14.746 10.138-23.962v-68.301z" />
<glyph unicode="tree-checked" glyph-name="tree-check-box" data-tags="tree-check-box" d="M51.2 806.656c0 56.422 45.722 102.144 102.144 102.144h717.312c56.422 0 102.144-45.722 102.144-102.144v-717.312c0-56.422-45.722-102.144-102.144-102.144h-717.312c-56.422 0-102.144 45.722-102.144 102.144v717.312zM102.4 806.349v-716.698c0-28.467 22.938-51.251 51.251-51.251h716.698c28.467 0 51.251 22.938 51.251 51.251v716.698c0 28.467-22.938 51.251-51.251 51.251h-716.698c-28.467 0-51.251-22.938-51.251-51.251zM787.2 534.374c0-9.574-3.226-17.562-9.626-23.962l-289.587-289.638c-6.758-6.707-14.899-10.086-24.525-10.086-9.216 0-17.254 3.379-24.013 10.086l-193.075 193.075c-6.4 6.4-9.574 14.438-9.574 24.013 0 9.984 3.226 18.125 9.626 24.525l48.486 48.026c6.758 6.758 14.797 10.138 24.013 10.138 9.267 0 17.254-3.379 24.013-10.138l120.525-120.525 217.6 217.037c6.758 6.758 14.746 10.138 24.013 10.138 9.216 0 17.254-3.379 24.013-10.138l48.538-47.974c6.4-6.4 9.574-14.592 9.574-24.576z" />
<glyph unicode="tree-check" glyph-name="tree-check" data-tags="tree-check" d="M787.2 534.374c0-9.574-3.226-17.562-9.626-23.962l-289.587-289.587c-6.758-6.758-14.899-10.138-24.525-10.138-9.216 0-17.254 3.379-24.013 10.138l-193.075 193.024c-6.4 6.4-9.574 14.438-9.574 24.013 0 9.984 3.226 18.125 9.626 24.525l48.486 48.026c6.758 6.758 14.797 10.138 24.013 10.138 9.267 0 17.254-3.379 24.013-10.138l120.525-120.525 217.6 217.037c6.758 6.758 14.746 10.138 24.013 10.138 9.216 0 17.254-3.379 24.013-10.138l48.538-47.974c6.4-6.4 9.574-14.592 9.574-24.525z" />
<glyph unicode="sliders" glyph-name="nav-configurations" data-tags="nav-configurations" d="M51.2 755.2c0 28.262 22.835 51.2 51.098 51.2h409.702v-102.4h-409.702c-28.211 0-51.098 22.733-51.098 51.2zM972.8 755.2c0-28.467-22.989-51.2-51.354-51.2h-132.966v102.4h132.966c28.774 0 51.354-22.938 51.354-51.2zM558.080 805.939c0 28.518 22.579 51.661 51.354 51.661h81.613c28.365 0 51.354-22.682 51.354-51.661v-101.478c0-28.518-22.579-51.661-51.354-51.661h-81.613c-28.365 0-51.354 22.682-51.354 51.661v101.478zM972.8 443.546c0-28.467-22.835-51.2-51.046-51.2h-501.914v102.4h501.914c28.006 0 51.046-22.938 51.046-51.2zM51.2 448.358c0 25.6 20.429 46.387 46.080 46.387h46.080v-102.4h-46.080c-25.446 0-46.080 20.736-46.080 46.387v9.626zM373.76 494.285v-101.478c0-28.979-22.989-51.661-51.354-51.661h-81.613c-28.774 0-51.354 23.142-51.354 51.661v101.478c0 28.979 22.989 51.661 51.354 51.661h81.613c28.774 0 51.354-23.142 51.354-51.661zM51.2 140.8c0 28.262 23.040 51.2 51.251 51.2h317.389v-102.4h-317.389c-28.314 0-51.251 22.733-51.251 51.2zM972.8 140.8c0-28.467-22.682-51.2-50.688-51.2h-225.792v102.4h225.792c28.058 0 50.688-22.938 50.688-51.2zM465.92 191.539c0 28.518 22.579 51.661 51.354 51.661h81.613c28.365 0 51.354-22.682 51.354-51.661v-101.478c0-28.518-22.579-51.661-51.354-51.661h-81.613c-28.365 0-51.354 22.682-51.354 51.661v101.478z" />
<glyph unicode="security" glyph-name="nav-security" data-tags="nav-security" d="M842.752 919.040c-19.61 0-34.816-15.206-34.816-34.816v-69.632c0-19.61-15.258-34.816-34.816-34.816h-34.816c-19.61 0-34.816 15.206-34.816 34.816v69.632c0 19.558-13.056 34.816-34.816 34.816h-69.632c-19.61 0-34.816-15.258-34.816-34.816v-69.632c0-19.61-15.258-34.816-34.816-34.816h-34.816c-19.61 0-34.816 15.206-34.816 34.816v69.632c0 19.558-15.258 34.816-34.816 34.816h-69.632c-19.61 0-34.816-15.258-34.816-34.816v-69.632c0-19.61-15.258-34.816-34.816-34.816h-34.816c-19.61 0-34.816 15.206-34.816 34.816v69.632c0 19.558-15.258 34.816-34.816 34.816h-69.632c-19.61 0-34.816-15.258-34.816-34.816v-174.080c0-56.576 47.872-104.448 104.448-104.448h661.504c56.576 0 104.448 47.872 104.448 104.448v174.080c0 19.61-15.258 34.816-34.816 34.816h-69.632zM799.232 554.598h-574.464c-17.408 0-32.666-13.005-34.816-30.413l-78.336-505.856c-4.352-21.76 13.056-39.168 34.816-39.168h224.102c19.61 0 37.018 15.206 37.018 34.816v167.526c0 56.576 43.52 108.8 100.096 108.8 58.726 2.202 108.8-45.67 108.8-104.448v-174.080c0-19.558 17.408-34.816 36.966-34.816h224.154c21.76 0 39.168 19.61 34.816 39.168l-78.336 508.058c-2.202 17.408-17.408 30.464-34.816 30.464z" />
<glyph unicode="search" glyph-name="nav-search" data-tags="nav-search" d="M964.864 76.339l-257.434 255.539c51.866 73.011 78.746 165.222 65.331 263.219-23.091 165.222-157.542 295.885-324.71 311.245-226.714 23.091-418.867-169.062-395.827-397.67 15.411-165.274 146.022-301.67 311.296-324.71 97.997-13.466 190.208 13.414 263.219 65.331l255.539-255.539c11.52-11.571 28.826-11.571 40.346 0l40.346 40.346c11.52 11.52 11.52 30.72 1.894 42.24zM165.632 545.178c0 136.397 111.411 247.808 247.808 247.808 136.448 0 247.859-111.411 247.859-247.808 0-136.448-111.411-247.859-247.859-247.859-136.397 0-247.808 109.517-247.808 247.859z" />
<glyph unicode="save" glyph-name="save" data-tags="save" d="M809.984 908.8h-643.584c-63.437 0-115.2-51.866-115.2-115.2v-691.2c0-63.386 51.763-115.2 115.2-115.2h691.2c63.437 0 115.2 51.814 115.2 115.2v626.278l-162.816 180.122zM742.4 563.2c0-31.642-25.907-57.6-57.6-57.6h-345.6c-31.693 0-57.6 25.958-57.6 57.6v288h460.8v-288zM684.8 793.6h-115.2v-230.4h115.2v230.4z" />
<glyph unicode="sales" glyph-name="nav-sales" data-tags="nav-sales" d="M822.579-12.8c45.67 0 82.637 37.888 82.637 84.582v604.365c0 6.758-4.301 10.086-9.165 13.926h-134.861c0 0-4.966 146.688-67.226 210.381-3.738 4.915-9.421 8.346-16.589 8.346h-492.339c-45.619 0-82.637-37.888-82.637-84.582v-752.435c0-46.694 37.018-84.582 82.637-84.582h637.542zM715.827 896.102c54.886-71.885 58.419-192.87 58.419-192.87h123.443c0 0-137.933 146.227-181.862 192.87zM693.555 105.062h-472.269c-11.418 0-20.634 9.421-20.634 21.146 0 11.674 9.216 21.146 20.634 21.146h472.269c11.418 0 20.634-9.472 20.634-21.146 0-11.725-9.216-21.146-20.634-21.146zM693.555 222.874h-472.269c-11.418 0-20.634 9.472-20.634 21.146s9.216 21.197 20.634 21.197h472.269c11.418 0 20.634-9.523 20.634-21.197s-9.216-21.146-20.634-21.146zM614.554 518.4c0-15.923-2.918-30.106-8.653-42.65-5.786-12.544-14.49-23.142-26.061-31.846-11.52-8.704-26.010-15.667-43.366-20.89-17.306-5.171-37.53-8.55-60.672-10.086v-24.269c0-15.565-9.216-23.398-27.648-23.398s-27.648 7.834-27.648 23.398v24.269c-51.302 3.379-87.245 12.954-107.878 28.672-20.582 15.718-30.874 32.154-30.874 49.254 0 15.616 9.216 23.398 27.648 23.398s27.648-7.782 27.648-23.398c0-4.557 8.141-10.803 24.371-18.79 16.282-7.936 45.158-11.878 86.733-11.878 55.654 0 88.064 7.219 97.28 21.76 9.216 14.49 13.824 26.982 13.824 37.325 0 20.48-14.438 34.406-43.366 41.728-28.877 7.322-60.672 14.694-95.386 22.016-34.662 7.322-66.509 17.715-95.386 31.181-28.928 13.414-43.366 36.506-43.366 69.222 0 15.872 2.867 30.106 8.653 42.598 5.786 12.544 14.49 23.142 26.010 31.846 11.571 8.755 26.061 15.667 43.366 20.89 17.357 5.171 37.581 8.55 60.723 10.086v24.269c0 15.616 9.216 23.398 27.648 23.398s27.648-7.782 27.648-23.398v-24.269c51.302-3.379 87.245-12.902 107.878-28.672 20.582-15.718 30.874-32.154 30.874-49.254 0-15.616-9.216-23.398-27.648-23.398s-27.648 7.782-27.648 23.398c0 4.557-8.141 10.854-24.371 18.79-16.282 7.936-45.158 11.93-86.733 11.93-55.654 0-88.064-7.27-97.28-21.811-9.216-14.49-13.824-26.931-13.824-37.325 0-20.173 14.438-33.946 43.366-41.267 28.877-7.322 60.672-14.592 95.386-21.76 34.662-7.219 66.458-17.664 95.386-31.437 28.928-13.722 43.366-36.966 43.366-69.632zM935.885 106.906v559.206c0 0 4.403 30.054-8.653 41.523-67.584 75.93-160.717 173.568-160.717 173.568s37.069 11.418 76.646-27.75l100.096-108.544c19.866-26.778 29.594-39.578 29.542-78.797v-474.010c0-80.64-36.915-85.197-36.915-85.197z" />
<glyph unicode="right" glyph-name="correct-right-check" data-tags="correct-right-check" d="M921.6 630.221c0 15.053-4.762 27.392-14.285 37.069l-72.243 72.602c-10.035 10.189-21.965 15.309-35.738 15.309-13.722 0-25.651-5.12-35.686-15.309l-323.891-328.192-179.405 182.221c-10.035 10.24-21.965 15.36-35.686 15.36-13.773 0-25.702-5.12-35.738-15.36l-72.243-72.55c-9.523-9.677-14.285-22.016-14.285-37.069 0-14.541 4.762-26.624 14.285-36.301l287.334-291.891c10.086-10.189 21.965-15.309 35.738-15.309 14.285 0 26.47 5.12 36.506 15.309l431.053 437.811c9.523 9.677 14.285 21.811 14.285 36.301z" />
<glyph unicode="revert" glyph-name="revert" data-tags="revert" d="M326.554 704.512h-13.363c-19.046 0-19.046 13.312-7.629 24.781l93.389 93.389c11.469 9.523 11.469 28.57 0 39.987l-39.987 40.038c-9.523 11.469-28.621 11.469-40.038 0l-245.862-245.862c-9.523-9.523-9.523-24.781 0-34.304l247.757-247.757c11.418-9.523 24.781-9.523 36.198 1.894l41.933 41.933c11.469 11.418 13.363 28.57 1.946 40.038l-93.389 93.389c-13.363 13.312-17.152 24.781-1.946 32.41 5.734 1.894 20.992 1.894 20.992 1.894h264.909c135.322 0 243.968-108.646 243.968-243.968s-108.646-243.968-243.968-243.968h-154.368c-15.258 0-26.675-13.363-26.675-28.57v-61.030c0-15.206 9.523-26.675 24.781-26.675h156.262c198.246 0 360.243 160.102 360.243 360.243s-161.997 360.243-360.243 360.243l-264.909 1.894z" />
<glyph unicode="releases" glyph-name="version" data-tags="version" d="M51.2 678.451c0 14.131 11.674 25.549 25.6 25.549h870.4c14.131 0 25.6-11.469 25.6-25.549v-716.902c0-14.131-11.674-25.549-25.6-25.549h-870.4c-14.131 0-25.6 11.469-25.6 25.549v716.902zM102.4 524.749v-511.898c0-13.875 11.366-25.651 25.395-25.651h768.41c13.824 0 25.395 11.469 25.395 25.651v511.898c0 13.875-11.366 25.651-25.395 25.651h-768.41c-13.824 0-25.395-11.469-25.395-25.651zM102.4 831.744c0 14.285 11.571 25.856 25.395 25.856h768.41c14.029 0 25.395-10.957 25.395-25.856v-50.688c0-14.285-11.571-25.856-25.395-25.856h-768.41c-14.029 0-25.395 10.957-25.395 25.856v50.688zM153.6 934.4c0 14.131 11.264 25.6 25.498 25.6h665.805c14.080 0 25.498-11.878 25.498-25.6 0-14.131-11.264-25.6-25.498-25.6h-665.805c-14.080 0-25.498 11.878-25.498 25.6zM204.8 422.4c0 14.131 11.725 25.6 25.6 25.6h563.2c14.131 0 25.6-11.878 25.6-25.6 0-14.131-11.725-25.6-25.6-25.6h-563.2c-14.131 0-25.6 11.878-25.6 25.6zM204.8 268.8c0 14.131 11.725 25.6 25.6 25.6h563.2c14.131 0 25.6-11.878 25.6-25.6 0-14.131-11.725-25.6-25.6-25.6h-563.2c-14.131 0-25.6 11.878-25.6 25.6zM204.8 115.2c0 14.131 11.725 25.6 25.6 25.6h563.2c14.131 0 25.6-11.878 25.6-25.6 0-14.131-11.725-25.6-25.6-25.6h-563.2c-14.131 0-25.6 11.878-25.6 25.6z" />
<glyph unicode="regretted" glyph-name="table-regretted" data-tags="table-regretted" d="M823.808 934.349c19.507-0.768 38.656-4.096 56.986-10.854 47.667-17.459 86.528-55.347 105.165-102.605 7.731-19.558 11.571-40.090 12.39-61.082 2.611-207.872 2.611-415.744 0-623.616-0.768-19.507-4.096-38.656-10.854-56.986-17.459-47.667-55.347-86.528-102.605-105.165-19.558-7.731-40.090-11.571-61.082-12.39-207.872-2.611-415.744-2.611-623.616 0-20.992 0.819-41.523 4.659-61.082 12.39-47.258 18.637-85.146 57.498-102.605 105.165-6.758 18.33-10.086 37.478-10.854 56.986-2.611 207.872-2.611 415.744 0 623.616 0.819 20.992 4.659 41.523 12.39 61.082 18.637 47.258 57.498 85.146 105.165 102.605 18.33 6.758 37.478 10.086 56.986 10.854 207.872 2.611 415.744 2.611 623.616 0zM204.954 883.2c-15.104-0.205-29.952-2.56-44.134-7.782-35.072-12.851-63.386-41.165-76.237-76.237-4.813-13.107-7.219-26.778-7.731-40.653-2.611-207.002-2.611-414.054 0-621.056 0.512-13.875 2.918-27.546 7.731-40.653 12.442-34.048 39.578-61.85 73.318-75.162 13.978-5.478 28.621-8.243 43.571-8.806 207.002-2.611 414.054-2.611 621.056 0 14.95 0.563 29.594 3.328 43.571 8.806 33.741 13.312 60.877 41.114 73.318 75.162 4.813 13.107 7.219 26.778 7.731 40.653 2.611 207.002 2.611 414.054 0 621.056-0.563 14.95-3.328 29.594-8.806 43.571-13.312 33.741-41.114 60.877-75.162 73.318-13.107 4.813-26.778 7.219-40.653 7.731-205.824 2.611-411.699 0.051-617.574 0.051zM416.717 408.678v-194.253h-54.323v467.149h128.102c57.344 0 99.686-10.957 127.027-32.87 27.392-21.965 41.062-54.989 41.062-99.072 0-61.798-31.283-103.526-93.952-125.286l126.874-209.92h-64.205l-113.152 194.253h-97.434zM416.717 455.373h74.445c38.349 0 66.458 7.578 84.378 22.835 17.869 15.206 26.829 38.093 26.829 68.557 0 30.874-9.114 53.146-27.341 66.765-18.176 13.619-47.462 20.429-87.706 20.429h-70.605v-178.586z" />
<glyph unicode="radio-uncheck" glyph-name="radio-uncheck" data-tags="radio-uncheck" d="M51.2 806.656c0 56.422 45.722 102.144 102.144 102.144h717.312c56.422 0 102.144-45.722 102.144-102.144v-717.312c0-56.422-45.722-102.144-102.144-102.144h-717.312c-56.422 0-102.144 45.722-102.144 102.144v717.312zM102.4 806.349v-716.698c0-28.467 22.938-51.251 51.251-51.251h716.698c28.467 0 51.251 22.938 51.251 51.251v716.698c0 28.467-22.938 51.251-51.251 51.251h-716.698c-28.467 0-51.251-22.938-51.251-51.251z" />
<glyph unicode="radio-check" glyph-name="radio-check" data-tags="radio-check" d="M51.2 806.656c0 56.422 45.722 102.144 102.144 102.144h717.312c56.422 0 102.144-45.722 102.144-102.144v-717.312c0-56.422-45.722-102.144-102.144-102.144h-717.312c-56.422 0-102.144 45.722-102.144 102.144v717.312zM102.4 806.349v-716.698c0-28.467 22.938-51.251 51.251-51.251h716.698c28.467 0 51.251 22.938 51.251 51.251v716.698c0 28.467-22.938 51.251-51.251 51.251h-716.698c-28.467 0-51.251-22.938-51.251-51.251zM839.834 752.486c0 16.486-13.414 29.901-29.901 29.901h-595.866c-16.486 0-29.901-13.414-29.901-29.901v-608.973c0-16.486 13.414-29.901 29.901-29.901h595.866c16.486 0 29.901 13.414 29.901 29.901v608.973z" />
<glyph unicode="project" glyph-name="nav-project" data-tags="nav-project" d="M326.195 718.797v77.67c0 61.747 50.176 112.333 111.36 112.333h148.685c61.184 0 111.36-50.586 111.36-112.333v-77.67h126.362c81.664 0 148.634-67.277 148.838-149.709v-432.179c0-82.176-66.97-149.709-148.634-149.709h-624.333c-81.664 0-148.634 67.328-148.634 149.709v432.179c0 82.227 66.97 149.709 148.634 149.709h126.362zM400.486 718.797h222.822v77.67c0 20.224-16.998 37.376-37.069 37.376h-148.685c-20.070 0-37.069-17.152-37.069-37.376v-77.67zM784.435 139.827c11.264 0 20.275 9.267 20.275 20.634s-9.216 20.634-20.48 20.634h-544.87c-11.264 0-20.48-9.267-20.48-20.634s9.216-20.634 20.48-20.634h545.075zM784.435 331.827c11.264 0 20.275 9.318 20.275 20.685 0 11.315-9.216 20.634-20.48 20.634h-544.87c-11.264 0-20.48-9.318-20.48-20.634 0-11.366 9.216-20.685 20.48-20.685h545.075zM784.435 523.674c11.264 0 20.275 9.318 20.275 20.634 0 11.366-9.216 20.685-20.48 20.685h-544.87c-11.264 0-20.48-9.318-20.48-20.685 0-11.315 9.216-20.634 20.48-20.634h545.075z" />
<glyph unicode="plus-oval" glyph-name="plus-oval" data-tags="plus-oval" d="M750.95 413.85v68.301c0 9.216-3.379 17.203-10.138 23.962s-14.746 10.138-24.013 10.138h-136.55v136.55c0 9.267-3.379 17.254-10.138 24.013s-14.746 10.138-23.962 10.138h-68.301c-9.216 0-17.203-3.379-23.962-10.138s-10.138-14.746-10.138-24.013v-136.55h-136.55c-9.267 0-17.254-3.379-24.013-10.138s-10.138-14.746-10.138-23.962v-68.301c0-9.216 3.379-17.203 10.138-23.962s14.746-10.138 24.013-10.138h136.55v-136.55c0-9.267 3.379-17.254 10.138-24.013s14.746-10.138 23.962-10.138h68.301c9.216 0 17.203 3.379 23.962 10.138s10.138 14.746 10.138 24.013v136.55h136.55c9.267 0 17.254 3.379 24.013 10.138s10.138 14.746 10.138 23.962zM921.6 448c0-74.291-18.33-142.848-54.938-205.619-36.608-62.72-86.323-112.435-149.043-149.043-62.771-36.608-131.328-54.938-205.619-54.938s-142.848 18.33-205.619 54.938c-62.72 36.608-112.435 86.323-149.043 149.043-36.608 62.771-54.938 131.328-54.938 205.619s18.33 142.848 54.938 205.619c36.608 62.72 86.323 112.435 149.043 149.043 62.771 36.608 131.328 54.938 205.619 54.938s142.848-18.33 205.619-54.938c62.72-36.608 112.435-86.323 149.043-149.043 36.608-62.771 54.938-131.328 54.938-205.619z" />
<glyph unicode="plus" glyph-name="plus" data-tags="plus" d="M595.763 385.178h345.6c16.794 0 31.437 14.643 31.437 31.386v62.874c0 16.742-14.643 31.386-31.437 31.386h-345.6c-12.544 0-20.941 8.397-20.941 20.941v345.6c0 16.794-14.643 31.437-31.386 31.437h-62.874c-16.742 0-31.386-14.643-31.386-31.437v-345.6c0-12.544-8.397-20.941-20.941-20.941h-345.6c-16.794 0-31.437-14.643-31.437-31.386v-62.874c0-16.742 14.643-31.386 31.437-31.386h345.6c12.544 0 20.941-8.397 20.941-20.941v-345.6c0-16.794 14.643-31.437 31.386-31.437h62.874c16.742 0 31.386 14.643 31.386 31.437v345.6c0 12.544 8.397 20.941 20.941 20.941z" />
<glyph unicode="pin-forever" glyph-name="delete-pin-forever" data-tags="delete-pin-forever" d="M102.4 709.325v36.25c0 5.325 1.741 9.677 5.222 13.056s7.987 5.12 13.414 5.12h179.763l40.704 94.618c5.837 13.978 16.333 25.856 31.437 35.686 15.155 9.83 30.464 14.746 45.978 14.746h186.163c15.514 0 30.822-4.915 45.978-14.746 15.104-9.83 25.6-21.709 31.437-35.686l40.704-94.618h179.763c5.427 0 9.933-1.741 13.414-5.12s5.222-7.731 5.222-13.056v-36.25c0-5.274-1.741-9.626-5.222-13.005-3.482-3.43-7.987-5.12-13.414-5.12h-55.859v-537.19c0-31.386-9.114-58.47-27.341-81.306-18.227-22.886-40.141-34.304-65.741-34.304h-484.045c-25.6 0-47.514 11.059-65.741 33.126-18.227 22.118-27.341 48.845-27.341 80.23v539.443h-55.859c-5.427 0-9.933 1.69-13.414 5.12-3.482 3.379-5.222 7.731-5.222 13.005zM251.341 154.010c0-8.346 1.382-15.974 4.096-22.938 2.714-7.014 5.53-12.134 8.397-15.309 2.918-3.226 4.966-4.813 6.144-4.813h484.045c1.178 0 3.226 1.587 6.144 4.813 2.867 3.174 5.683 8.294 8.397 15.309 2.714 6.963 4.096 14.592 4.096 22.938v537.19h-521.318v-537.19zM381.696 763.75h260.608l-27.904 66.304c-2.714 3.379-5.99 5.478-9.882 6.195h-184.422c-3.891-0.717-7.219-2.816-9.933-6.195l-28.467-66.304zM618.445 269.466l35.43 35.482c4.813 4.813 7.219 10.752 7.219 17.715 0 7.066-2.406 12.954-7.219 17.766l-70.912 70.912 70.912 70.963c4.813 4.813 7.219 10.701 7.219 17.766 0 6.963-2.406 12.902-7.219 17.715l-35.43 35.482c-4.864 4.762-10.752 7.168-17.766 7.168s-12.954-2.406-17.715-7.168l-70.963-70.963-70.963 70.963c-4.762 4.762-10.701 7.168-17.715 7.168s-12.902-2.406-17.766-7.168l-35.43-35.482c-4.813-4.813-7.219-10.752-7.219-17.715 0-7.066 2.406-12.954 7.219-17.766l70.912-70.963-70.912-70.912c-4.813-4.813-7.219-10.701-7.219-17.766 0-6.963 2.406-12.902 7.219-17.715l35.43-35.482c4.864-4.762 10.752-7.168 17.766-7.168s12.954 2.406 17.715 7.168l70.963 70.963 70.963-70.963c4.762-4.762 10.701-7.168 17.715-7.168s12.902 2.406 17.766 7.168z" />
<glyph unicode="pin" glyph-name="delete-pin" data-tags="delete-pin" d="M102.4 709.325v36.25c0 5.325 1.741 9.677 5.222 13.056s7.987 5.12 13.414 5.12h179.763l40.704 94.618c5.837 13.978 16.333 25.856 31.437 35.686 15.155 9.83 30.464 14.746 45.978 14.746h186.163c15.514 0 30.822-4.915 45.978-14.746 15.104-9.83 25.6-21.709 31.437-35.686l40.704-94.618h179.763c5.427 0 9.933-1.741 13.414-5.12s5.222-7.731 5.222-13.056v-36.25c0-5.274-1.741-9.626-5.222-13.005-3.482-3.43-7.987-5.12-13.414-5.12h-55.859v-537.19c0-31.386-9.114-58.47-27.341-81.306-18.227-22.886-40.141-34.304-65.741-34.304h-484.045c-25.6 0-47.514 11.059-65.741 33.126-18.227 22.118-27.341 48.845-27.341 80.23v539.443h-55.859c-5.427 0-9.933 1.69-13.414 5.12-3.482 3.379-5.222 7.731-5.222 13.005zM251.341 154.010c0-8.346 1.382-15.974 4.096-22.938 2.714-7.014 5.53-12.134 8.397-15.309 2.918-3.226 4.966-4.813 6.144-4.813h484.045c1.178 0 3.226 1.587 6.144 4.813 2.867 3.174 5.683 8.294 8.397 15.309 2.714 6.963 4.096 14.592 4.096 22.938v537.19h-521.318v-537.19zM325.837 237.875v326.4c0 5.274 1.741 9.626 5.222 13.005 3.482 3.43 7.936 5.12 13.363 5.12h37.274c5.427 0 9.882-1.69 13.363-5.12 3.482-3.379 5.222-7.731 5.222-13.005v-326.4c0-5.274-1.741-9.626-5.222-13.056-3.482-3.379-7.936-5.069-13.363-5.069h-37.274c-5.427 0-9.882 1.69-13.363 5.069-3.482 3.43-5.222 7.782-5.222 13.056zM381.696 763.75h260.608l-27.904 66.304c-2.714 3.379-5.99 5.478-9.882 6.195h-184.422c-3.891-0.717-7.219-2.816-9.933-6.195l-28.467-66.304zM474.778 237.875v326.4c0 5.274 1.741 9.626 5.222 13.005 3.482 3.43 7.936 5.12 13.363 5.12h37.274c5.427 0 9.882-1.69 13.363-5.12 3.482-3.379 5.222-7.731 5.222-13.005v-326.4c0-5.274-1.741-9.626-5.222-13.056-3.482-3.379-7.936-5.069-13.363-5.069h-37.274c-5.427 0-9.882 1.69-13.363 5.069-3.482 3.43-5.222 7.782-5.222 13.056zM623.718 237.875v326.4c0 5.274 1.741 9.626 5.222 13.005 3.482 3.43 7.936 5.12 13.363 5.12h37.274c5.427 0 9.882-1.69 13.363-5.12 3.482-3.379 5.222-7.731 5.222-13.005v-326.4c0-5.274-1.741-9.626-5.222-13.056-3.482-3.379-7.936-5.069-13.363-5.069h-37.274c-5.427 0-9.882 1.69-13.363 5.069-3.482 3.43-5.222 7.782-5.222 13.056z" />
</font>
</defs>
</svg>
